<svg width="130" height="41" viewBox="0 0 130 41" fill="none" xmlns="http://www.w3.org/2000/svg">
<path d="M125.938 40.625H4.0625C1.82812 40.625 0 38.7969 0 36.5625V4.0625C0 1.82812 1.82812 0 4.0625 0H125.938C128.172 0 130 1.82812 130 4.0625V36.5625C130 38.7969 128.172 40.625 125.938 40.625Z" fill="#070717"/>
<path d="M27.42 20.1091C27.42 16.9607 30.0606 15.4373 30.1622 15.3357C28.6388 13.2029 26.4044 12.8982 25.5919 12.7966C23.6622 12.5935 21.7325 13.9138 20.8185 13.9138C19.8028 13.9138 18.2794 12.7966 16.6544 12.7966C14.5216 12.7966 12.5919 14.0154 11.4747 15.9451C9.24033 19.8044 10.8653 25.4919 12.9981 28.6404C14.1153 30.1638 15.3341 31.8904 16.9591 31.7888C18.5841 31.6873 19.1935 30.7732 21.1231 30.7732C23.0528 30.7732 23.5606 31.7888 25.2872 31.7888C27.0138 31.7888 28.131 30.2654 29.1466 28.7419C30.3653 27.0154 30.8731 25.2888 30.8731 25.1873C30.7716 25.0857 27.42 23.8669 27.42 20.1091Z" fill="white"/>
<path d="M24.2729 10.7656C25.0854 9.64844 25.6947 8.22656 25.5932 6.70312C24.3744 6.80469 22.7494 7.51562 21.9369 8.63281C21.1244 9.54687 20.4135 11.0703 20.6166 12.4922C21.9369 12.5937 23.3588 11.7812 24.2729 10.7656Z" fill="white"/>
<path d="M50.5781 31.5859H48.3438L47.125 27.7266H42.8594L41.7422 31.5859H39.6094L43.875 18.4844H46.5156L50.5781 31.5859ZM46.7188 26.1016L45.6016 22.6484C45.5 22.3437 45.2969 21.4297 44.8906 20.2109C44.7891 20.7188 44.5859 21.6328 44.2813 22.6484L43.1641 26.1016H46.7188Z" fill="white"/>
<path d="M61.4453 26.8125C61.4453 28.4375 61.0391 29.6562 60.125 30.6719C59.3125 31.4844 58.3984 31.8906 57.1797 31.8906C55.9609 31.8906 55.0469 31.4844 54.5391 30.5703V35.5469H52.4063V25.3906C52.4063 24.375 52.4062 23.3594 52.3047 22.2422H54.1328L54.2344 23.7656C54.9453 22.6484 55.9609 22.0391 57.3828 22.0391C58.5 22.0391 59.4141 22.4453 60.125 23.3594C61.0391 24.1719 61.4453 25.2891 61.4453 26.8125ZM59.3125 26.8125C59.3125 25.8984 59.1094 25.0859 58.7031 24.5781C58.2969 23.9688 57.6875 23.6641 56.875 23.6641C56.3672 23.6641 55.8594 23.8672 55.4531 24.1719C55.0469 24.4766 54.7422 24.9844 54.6406 25.4922C54.5391 25.7969 54.5391 26 54.5391 26.1016V27.7266C54.5391 28.4375 54.7422 28.9453 55.1484 29.4531C55.5547 29.9609 56.1641 30.1641 56.7734 30.1641C57.5859 30.1641 58.1953 29.8594 58.6016 29.25C59.1094 28.6406 59.3125 27.8281 59.3125 26.8125Z" fill="white"/>
<path d="M72.3125 26.8125C72.3125 28.4375 71.9062 29.6562 70.9922 30.6719C70.1797 31.4844 69.2656 31.8906 68.0469 31.8906C66.8281 31.8906 65.9141 31.4844 65.4062 30.5703V35.5469H63.2734V25.3906C63.2734 24.375 63.2734 23.3594 63.1719 22.2422H65L65.1016 23.7656C65.8125 22.6484 66.8281 22.0391 68.25 22.0391C69.3672 22.0391 70.2812 22.4453 70.9922 23.3594C71.9062 24.1719 72.3125 25.2891 72.3125 26.8125ZM70.1797 26.8125C70.1797 25.8984 69.9766 25.0859 69.5703 24.5781C69.1641 23.9688 68.5547 23.6641 67.7422 23.6641C67.2344 23.6641 66.7266 23.8672 66.3203 24.1719C65.9141 24.4766 65.6094 24.9844 65.5078 25.4922C65.4062 25.7969 65.4062 26 65.4062 26.1016V27.7266C65.4062 28.4375 65.6094 28.9453 66.0156 29.4531C66.4219 29.9609 67.0313 30.1641 67.6406 30.1641C68.4531 30.1641 69.0625 29.8594 69.4687 29.25C69.9766 28.6406 70.1797 27.8281 70.1797 26.8125Z" fill="white"/>
<path d="M84.5 27.9297C84.5 29.0469 84.0938 29.9609 83.3828 30.6719C82.5703 31.4844 81.3516 31.7891 79.8281 31.7891C78.4063 31.7891 77.2891 31.4844 76.4766 30.9766L76.9844 29.25C77.8984 29.7578 78.9141 30.0625 80.0312 30.0625C80.8438 30.0625 81.4531 29.8594 81.8594 29.5547C82.2656 29.1484 82.4688 28.7422 82.4688 28.1328C82.4688 27.625 82.2656 27.1172 81.9609 26.8125C81.5547 26.4063 80.9453 26.1016 80.1328 25.7969C77.7969 24.9844 76.6797 23.6641 76.6797 22.0391C76.6797 20.9219 77.0859 20.1094 77.8984 19.3984C78.7109 18.6875 79.7266 18.3828 81.1484 18.3828C82.3672 18.3828 83.2812 18.5859 84.0938 18.9922L83.5859 20.7188C82.875 20.3125 82.0625 20.1094 81.0469 20.1094C80.3359 20.1094 79.7266 20.3125 79.3203 20.6172C79.0156 20.9219 78.8125 21.3281 78.8125 21.8359C78.8125 22.3438 79.0156 22.75 79.4219 23.1563C79.7266 23.4609 80.4375 23.7656 81.3516 24.1719C82.4688 24.5781 83.2813 25.1875 83.8906 25.7969C84.1953 26.3047 84.5 27.0156 84.5 27.9297Z" fill="white"/>
<path d="M91.4062 23.7656H89.0703V28.3359C89.0703 29.4531 89.4766 30.0625 90.2891 30.0625C90.6953 30.0625 91 30.0625 91.2031 29.9609L91.3047 31.5859C90.8984 31.7891 90.3906 31.7891 89.6797 31.7891C88.8672 31.7891 88.1563 31.5859 87.75 31.0781C87.2422 30.5703 87.0391 29.7578 87.0391 28.5391V23.7656H85.6172V22.1406H87.0391V20.4141L89.0703 19.8047V22.1406H91.4062V23.7656Z" fill="white"/>
<path d="M101.867 26.8125C101.867 28.2344 101.461 29.4531 100.648 30.3672C99.7344 31.2813 98.6172 31.7891 97.1953 31.7891C95.7734 31.7891 94.6563 31.2813 93.8438 30.3672C93.0313 29.4531 92.625 28.3359 92.625 26.9141C92.625 25.4922 93.0313 24.2734 93.9453 23.3594C94.7578 22.4453 95.9766 21.9375 97.3984 21.9375C98.8203 21.9375 99.9375 22.4453 100.75 23.3594C101.461 24.2734 101.867 25.3906 101.867 26.8125ZM99.6328 26.9141C99.6328 26 99.4297 25.2891 99.0234 24.6797C98.6172 23.9688 97.9063 23.5625 97.0938 23.5625C96.2813 23.5625 95.5703 23.9688 95.1641 24.6797C94.7578 25.2891 94.5547 26.1016 94.5547 26.9141C94.5547 27.8281 94.7578 28.5391 95.1641 29.1484C95.5703 29.8594 96.2813 30.2656 97.0938 30.2656C97.9063 30.2656 98.5156 29.8594 99.0234 29.1484C99.4297 28.5391 99.6328 27.7266 99.6328 26.9141Z" fill="white"/>
<path d="M108.672 23.9687C108.469 23.9687 108.266 23.8672 107.961 23.8672C107.25 23.8672 106.641 24.1719 106.234 24.6797C105.93 25.1875 105.727 25.7969 105.727 26.5078V31.4844H103.594V24.9844C103.594 23.8672 103.594 22.9531 103.492 22.0391H105.32L105.422 23.8672H105.523C105.727 23.2578 106.133 22.75 106.539 22.3438C107.047 22.0391 107.555 21.8359 108.062 21.8359C108.266 21.8359 108.469 21.8359 108.57 21.8359V23.9687H108.672Z" fill="white"/>
<path d="M118.016 26.4063C118.016 26.8125 118.016 27.1172 117.914 27.3203H111.617C111.617 28.2344 111.922 28.9453 112.531 29.4531C113.039 29.8594 113.75 30.1641 114.562 30.1641C115.477 30.1641 116.391 30.0625 117.102 29.7578L117.406 31.1797C116.492 31.5859 115.477 31.7891 114.258 31.7891C112.836 31.7891 111.617 31.3828 110.805 30.4688C109.992 29.6563 109.586 28.4375 109.586 27.0156C109.586 25.5938 109.992 24.375 110.703 23.4609C111.516 22.4453 112.633 21.9375 114.055 21.9375C115.375 21.9375 116.492 22.4453 117.102 23.4609C117.812 24.2734 118.016 25.2891 118.016 26.4063ZM116.086 25.8984C116.086 25.2891 115.984 24.7813 115.68 24.2734C115.273 23.6641 114.766 23.3594 114.055 23.3594C113.344 23.3594 112.836 23.6641 112.43 24.1719C112.125 24.5781 111.922 25.1875 111.82 25.7969H116.086V25.8984Z" fill="white"/>
<path d="M46.1094 10.4609C46.1094 11.5781 45.8047 12.4922 45.0937 13.1016C44.4844 13.6094 43.5703 13.9141 42.3516 13.9141C41.7422 13.9141 41.2344 13.9141 40.8281 13.8125V7.51563C41.3359 7.41406 41.9453 7.41406 42.6562 7.41406C43.7734 7.41406 44.5859 7.61719 45.1953 8.125C45.7031 8.63281 46.1094 9.44531 46.1094 10.4609ZM44.9922 10.4609C44.9922 9.75 44.7891 9.14063 44.3828 8.73438C43.9766 8.32813 43.3672 8.125 42.6562 8.125C42.3516 8.125 42.0469 8.125 41.8438 8.22656V13C41.9453 13 42.25 13 42.5547 13C43.3672 13 43.9766 12.7969 44.3828 12.3906C44.7891 11.9844 44.9922 11.2734 44.9922 10.4609Z" fill="white"/>
<path d="M51.7969 11.4766C51.7969 12.1875 51.5938 12.7969 51.1875 13.2031C50.7813 13.7109 50.1719 13.9141 49.4609 13.9141C48.75 13.9141 48.2422 13.7109 47.8359 13.2031C47.4297 12.7969 47.2266 12.1875 47.2266 11.4766C47.2266 10.7656 47.4297 10.1563 47.8359 9.75C48.2422 9.24219 48.8516 9.03906 49.5625 9.03906C50.2734 9.03906 50.7813 9.24219 51.1875 9.75C51.5938 10.1563 51.7969 10.7656 51.7969 11.4766ZM50.7812 11.4766C50.7812 11.0703 50.6797 10.6641 50.4766 10.3594C50.2734 9.95313 49.9688 9.85156 49.5625 9.85156C49.1563 9.85156 48.8516 10.0547 48.6484 10.3594C48.4453 10.6641 48.3438 11.0703 48.3438 11.4766C48.3438 11.8828 48.4453 12.2891 48.6484 12.5938C48.8516 13 49.1563 13.1016 49.5625 13.1016C49.9688 13.1016 50.2734 12.8984 50.4766 12.4922C50.6797 12.2891 50.7812 11.8828 50.7812 11.4766Z" fill="white"/>
<path d="M59.6172 9.14062L58.1953 13.8125H57.2813L56.6719 11.7813C56.4688 11.2734 56.3672 10.7656 56.2656 10.2578C56.1641 10.7656 56.0625 11.2734 55.8594 11.7813L55.25 13.8125H54.3359L52.8125 9.14062H53.8281L54.3359 11.375C54.4375 11.8828 54.5391 12.3906 54.6406 12.8984C54.7422 12.4922 54.8438 11.9844 55.0469 11.375L55.6563 9.14062H56.4688L57.0781 11.2734C57.2813 11.7813 57.3828 12.2891 57.4844 12.7969C57.5859 12.2891 57.6875 11.7813 57.7891 11.2734L58.3984 9.14062H59.6172Z" fill="white"/>
<path d="M64.8984 13.8125H63.8828V11.1719C63.8828 10.3594 63.5781 9.95313 62.9688 9.95313C62.6641 9.95313 62.4609 10.0547 62.2578 10.2578C62.0547 10.4609 61.9531 10.7656 61.9531 11.0703V13.8125H60.9375V10.4609C60.9375 10.0547 60.9375 9.64844 60.9375 9.14063H61.8516V9.85156C61.9531 9.64844 62.1563 9.44531 62.3594 9.24219C62.6641 9.03906 62.9688 8.9375 63.2734 8.9375C63.6797 8.9375 64.0859 9.03906 64.3906 9.34375C64.7969 9.64844 64.8984 10.1563 64.8984 10.8672V13.8125Z" fill="white"/>
<path d="M67.7422 13.8125H66.7266V7.00781H67.7422V13.8125Z" fill="white"/>
<path d="M73.8359 11.4766C73.8359 12.1875 73.6328 12.7969 73.2266 13.2031C72.8203 13.7109 72.2109 13.9141 71.5 13.9141C70.7891 13.9141 70.2812 13.7109 69.875 13.2031C69.4687 12.7969 69.2656 12.1875 69.2656 11.4766C69.2656 10.7656 69.4687 10.1563 69.875 9.75C70.2812 9.34375 70.8906 9.03906 71.6016 9.03906C72.3125 9.03906 72.8203 9.24219 73.2266 9.75C73.6328 10.1563 73.8359 10.7656 73.8359 11.4766ZM72.8203 11.4766C72.8203 11.0703 72.7187 10.6641 72.5156 10.3594C72.3125 9.95313 72.0078 9.85156 71.6016 9.85156C71.1953 9.85156 70.8906 10.0547 70.6875 10.3594C70.4844 10.6641 70.3828 11.0703 70.3828 11.4766C70.3828 11.8828 70.4844 12.2891 70.6875 12.5938C70.8906 13 71.1953 13.1016 71.6016 13.1016C72.0078 13.1016 72.3125 12.8984 72.5156 12.4922C72.7187 12.2891 72.8203 11.8828 72.8203 11.4766Z" fill="white"/>
<path d="M78.8125 13.8125H77.8984L77.7969 13.3047C77.4922 13.7109 76.9844 13.9141 76.4766 13.9141C76.0703 13.9141 75.6641 13.8125 75.4609 13.5078C75.2578 13.2031 75.0547 12.8984 75.0547 12.5938C75.0547 11.9844 75.2578 11.5781 75.7656 11.2734C76.2734 10.9688 76.8828 10.8672 77.7969 10.8672V10.7656C77.7969 10.1563 77.4922 9.85156 76.8828 9.85156C76.375 9.85156 76.0703 9.95313 75.6641 10.1563L75.4609 9.44531C75.8672 9.14062 76.375 9.03906 77.0859 9.03906C78.3047 9.03906 78.9141 9.64844 78.9141 10.9687V12.6953C78.8125 13.2031 78.8125 13.5078 78.8125 13.8125ZM77.7969 12.1875V11.4766C76.6797 11.4766 76.0703 11.7813 76.0703 12.3906C76.0703 12.5938 76.1719 12.7969 76.2734 12.8984C76.375 13 76.5781 13.1016 76.7813 13.1016C76.9844 13.1016 77.1875 13 77.3906 12.8984C77.5938 12.7969 77.6953 12.5938 77.7969 12.3906C77.7969 12.3906 77.7969 12.2891 77.7969 12.1875Z" fill="white"/>
<path d="M84.7031 13.8125H83.7891V13.1016C83.4844 13.7109 82.9766 13.9141 82.2656 13.9141C81.6562 13.9141 81.25 13.7109 80.8438 13.3047C80.4375 12.8984 80.3359 12.2891 80.3359 11.5781C80.3359 10.8672 80.5391 10.2578 80.9453 9.75C81.3516 9.34375 81.8594 9.14062 82.3672 9.14062C82.9766 9.14062 83.3828 9.34375 83.6875 9.75V7.10938H84.7031V12.5937C84.7031 13 84.7031 13.4062 84.7031 13.8125ZM83.6875 11.8828V11.0703C83.6875 10.9687 83.6875 10.8672 83.6875 10.7656C83.5859 10.5625 83.4844 10.3594 83.2812 10.1562C83.0781 9.95312 82.875 9.95312 82.5703 9.95312C82.1641 9.95312 81.8594 10.1562 81.6562 10.4609C81.4531 10.7656 81.3516 11.1719 81.3516 11.6797C81.3516 12.1875 81.4531 12.4922 81.6562 12.7969C81.8594 13.1016 82.1641 13.3047 82.5703 13.3047C82.875 13.3047 83.1797 13.2031 83.3828 12.8984C83.5859 12.4922 83.6875 12.1875 83.6875 11.8828Z" fill="white"/>
<path d="M93.5391 11.4766C93.5391 12.1875 93.3359 12.7969 92.9297 13.2031C92.5234 13.7109 91.9141 13.9141 91.2031 13.9141C90.4922 13.9141 89.9844 13.7109 89.5781 13.2031C89.1719 12.7969 88.9688 12.1875 88.9688 11.4766C88.9688 10.7656 89.1719 10.1563 89.5781 9.75C89.9844 9.24219 90.5938 9.03906 91.3047 9.03906C92.0156 9.03906 92.5234 9.24219 92.9297 9.75C93.3359 10.1563 93.5391 10.7656 93.5391 11.4766ZM92.4219 11.4766C92.4219 11.0703 92.3203 10.6641 92.1172 10.3594C91.9141 9.95313 91.6094 9.85156 91.2031 9.85156C90.7969 9.85156 90.4922 10.0547 90.2891 10.3594C90.0859 10.6641 89.9844 11.0703 89.9844 11.4766C89.9844 11.8828 90.0859 12.2891 90.2891 12.5938C90.4922 13 90.7969 13.1016 91.2031 13.1016C91.6094 13.1016 91.9141 12.8984 92.1172 12.4922C92.3203 12.2891 92.4219 11.8828 92.4219 11.4766Z" fill="white"/>
<path d="M99.125 13.8125H98.1094V11.1719C98.1094 10.3594 97.8047 9.95313 97.1953 9.95313C96.8906 9.95313 96.6875 10.0547 96.4844 10.2578C96.2813 10.4609 96.1797 10.7656 96.1797 11.0703V13.8125H95.1641V10.4609C95.1641 10.0547 95.1641 9.64844 95.1641 9.14063H96.0781V9.85156C96.1797 9.64844 96.3828 9.44531 96.5859 9.24219C96.8906 9.03906 97.1953 8.9375 97.5 8.9375C97.9063 8.9375 98.3125 9.03906 98.6172 9.34375C99.0234 9.64844 99.125 10.1563 99.125 10.8672V13.8125Z" fill="white"/>
<path d="M106.031 9.95312H104.914V12.1875C104.914 12.7969 105.117 13 105.523 13C105.727 13 105.828 13 106.031 13V13.8125C105.828 13.9141 105.523 13.9141 105.219 13.9141C104.813 13.9141 104.508 13.8125 104.305 13.5078C104.102 13.3047 104 12.7969 104 12.2891V9.95312H103.289V9.14063H104V8.32813L105.016 8.02344V9.14063H106.133V9.95312H106.031Z" fill="white"/>
<path d="M111.516 13.8125H110.5V11.1719C110.5 10.3594 110.195 9.95312 109.586 9.95312C109.078 9.95312 108.773 10.1563 108.57 10.6641C108.57 10.7656 108.57 10.8672 108.57 11.0703V13.8125H107.555V7.00781H108.57V9.85156C108.875 9.34375 109.383 9.03906 109.992 9.03906C110.398 9.03906 110.805 9.14062 111.008 9.44531C111.312 9.75 111.516 10.3594 111.516 10.9687V13.8125Z" fill="white"/>
<path d="M117.102 11.2734C117.102 11.4766 117.102 11.5781 117.102 11.7812H114.055C114.055 12.2891 114.258 12.5938 114.461 12.7969C114.766 13 115.07 13.1016 115.477 13.1016C115.984 13.1016 116.391 13 116.695 12.8984L116.898 13.6094C116.492 13.8125 115.984 13.9141 115.375 13.9141C114.664 13.9141 114.055 13.7109 113.648 13.3047C113.242 12.8984 113.039 12.2891 113.039 11.5781C113.039 10.8672 113.242 10.2578 113.648 9.85156C114.055 9.34375 114.562 9.14062 115.273 9.14062C115.984 9.14062 116.492 9.34375 116.797 9.85156C117 10.1563 117.102 10.6641 117.102 11.2734ZM116.188 10.9687C116.188 10.6641 116.086 10.3594 115.984 10.1562C115.781 9.85156 115.578 9.75 115.172 9.75C114.867 9.75 114.563 9.85156 114.359 10.1562C114.156 10.3594 114.055 10.6641 114.055 10.9687H116.188Z" fill="white"/>
</svg>
