<svg width="1404" height="727" viewBox="0 0 1404 727" fill="none" xmlns="http://www.w3.org/2000/svg">
<path d="M1181.68 107.395L1177.94 117.077H930.596L892.36 215.984H881.824L888.618 225.656H1146.49L1188.47 117.077L1181.68 107.395Z" fill="#F4B562"/>
<path d="M1181.68 107.395L1180.53 110.355L1139.7 215.984H881.824L885.117 207.455L923.802 107.395H1181.68Z" fill="url(#paint0_linear_1930_39031)"/>
<path d="M1264.69 -7.82806e-06L1247.95 25.0967L1338.3 79.4592L1355.05 54.3625L1264.69 -7.82806e-06Z" fill="#FF6363"/>
<path d="M1403.28 397.423L1376.12 382.667L1323 470.822L1350.16 485.578L1403.28 397.423Z" fill="url(#paint1_linear_1930_39031)"/>
<path d="M776.304 385.516L746 392.915L772.636 491.282L802.94 483.883L776.304 385.516Z" fill="#FFD15C"/>
<path d="M1253.58 281.857H1205.92V426.577H1253.58V281.857Z" fill="white"/>
<path d="M1181.68 107.395L1180.53 110.355L1121.77 140.98C1121.15 141.301 1120.45 141.461 1119.75 141.442C1119.04 141.424 1118.35 141.229 1117.75 140.876L1097.78 129.044L1076.18 145.135C1075.75 145.454 1075.25 145.685 1074.72 145.814C1074.19 145.942 1073.64 145.966 1073.1 145.883C1072.56 145.8 1072.04 145.613 1071.58 145.332C1071.12 145.052 1070.73 144.684 1070.43 144.252L1054.93 122.281L1017.1 153.789C1016.36 154.409 1015.4 154.743 1014.41 154.726C1013.42 154.709 1012.47 154.341 1011.75 153.695L1000.81 143.941L990.637 154.724C990.099 155.294 989.391 155.695 988.608 155.875C987.824 156.055 987.002 156.005 986.249 155.731C985.496 155.457 984.848 154.973 984.392 154.343C983.935 153.712 983.69 152.965 983.69 152.2V130.592L937.106 181.038C936.637 181.55 936.031 181.933 935.352 182.146C934.673 182.359 933.947 182.393 933.249 182.247C932.551 182.1 931.907 181.777 931.387 181.312C930.866 180.847 930.487 180.257 930.29 179.604L923.977 158.983L884.45 215.984H881.824L885.106 207.455L920.827 156.022C921.247 155.421 921.839 154.947 922.534 154.655C923.229 154.363 923.997 154.265 924.748 154.375C925.499 154.484 926.202 154.795 926.773 155.271C927.344 155.747 927.759 156.368 927.971 157.061L934.316 177.838L981.119 127.153C981.65 126.573 982.356 126.16 983.141 125.971C983.926 125.782 984.753 125.826 985.512 126.096C986.27 126.366 986.923 126.85 987.384 127.483C987.844 128.116 988.09 128.867 988.088 129.636V151.254L997.847 140.928C998.2 140.536 998.635 140.218 999.125 139.995C999.615 139.771 1000.15 139.647 1000.69 139.63C1001.22 139.611 1001.75 139.693 1002.25 139.871C1002.75 140.05 1003.2 140.321 1003.59 140.668L1014.53 150.454L1052.43 118.894C1052.85 118.541 1053.35 118.278 1053.9 118.122C1054.44 117.966 1055.01 117.922 1055.57 117.991C1056.13 118.065 1056.67 118.25 1057.15 118.535C1057.63 118.819 1058.04 119.197 1058.36 119.642L1073.81 141.572L1095.33 125.585C1095.97 125.108 1096.75 124.829 1097.57 124.787C1098.38 124.744 1099.19 124.939 1099.89 125.346L1119.91 137.199L1177.17 107.415L1181.68 107.395Z" fill="white"/>
<path d="M839.844 414.33L583 660.409H833.5L924.818 444.612L839.844 414.33Z" fill="url(#paint2_linear_1930_39031)"/>
<path d="M1133.9 660.461H823.547L1014.46 153.249C1016.32 148.28 1019.77 143.982 1024.31 140.943C1028.85 137.904 1034.27 136.273 1039.83 136.274H1303.38C1306.52 136.275 1309.62 136.993 1312.41 138.367C1315.19 139.741 1317.59 141.731 1319.4 144.17C1321.21 146.609 1322.38 149.425 1322.8 152.38C1323.22 155.336 1322.89 158.345 1321.84 161.154L1133.9 660.461Z" fill="url(#paint3_linear_1930_39031)"/>
<path d="M1096.79 662.538H832.285L1025.69 154.817C1026.83 151.824 1028.91 149.236 1031.65 147.403C1034.39 145.571 1037.65 144.583 1041.01 144.574H1277.55C1279.41 144.57 1281.25 144.994 1282.91 145.809C1284.57 146.624 1285.99 147.806 1287.07 149.256C1288.14 150.706 1288.83 152.38 1289.08 154.136C1289.32 155.893 1289.12 157.68 1288.49 159.346L1096.79 662.538Z" fill="white"/>
<path d="M1308.51 207.933L1303.6 220.773H1058.67L1009.52 349.309L995.898 351.044L1003.94 363.884H1261.81L1316.55 220.773L1308.51 207.933Z" fill="#4100FB"/>
<path d="M943.976 328.667C967.148 328.667 985.932 310.83 985.932 288.827C985.932 266.825 967.148 248.988 943.976 248.988C920.804 248.988 902.02 266.825 902.02 288.827C902.02 310.83 920.804 328.667 943.976 328.667Z" fill="#FF6363"/>
<path d="M1253.77 351.044H995.898L1050.63 207.933H1308.51L1253.77 351.044Z" fill="#E8E8F7"/>
<path d="M1222.9 351.044H1023.37L1040.04 308.503H1239.57L1222.9 351.044Z" fill="url(#paint4_linear_1930_39031)"/>
<path d="M1260.02 242.589H1127.05L1132.6 226.768H1265.57L1260.02 242.589Z" fill="#CFCFE8"/>
<path d="M1101.74 398.986H968.773L974.309 383.164H1107.29L1101.74 398.986Z" fill="#CFCFE8"/>
<path d="M1092.1 426.951H959.117L964.664 411.13H1097.63L1092.1 426.951Z" fill="#CFCFE8"/>
<path d="M1063.23 354.347L1121.38 398.363L1157.42 344.489L1097.94 302.083L1063.23 354.347Z" fill="#FF6363"/>
<path d="M1127.98 265.807C1127.22 262.306 1123.28 260.613 1119.81 261.184C1117.86 261.556 1116.03 262.378 1114.49 263.577C1112.95 264.776 1111.75 266.316 1110.98 268.061C1109.64 271.718 1112.36 274.73 1115.6 276.372C1117.31 277.021 1118.95 277.85 1120.47 278.844C1121.21 279.526 1121.79 280.355 1122.16 281.273C1122.52 282.191 1122.67 283.174 1122.59 284.153C1122.4 286.428 1119.56 287.009 1117.59 287.145C1114.91 287.237 1112.24 286.885 1109.69 286.106C1109.29 286.035 1108.87 286.111 1108.52 286.32C1108.17 286.528 1107.91 286.853 1107.8 287.232C1107.69 287.61 1107.74 288.013 1107.92 288.362C1108.11 288.711 1108.43 288.981 1108.82 289.118C1112.7 290.157 1117.21 290.957 1121.14 289.648C1122.73 289.19 1124.1 288.229 1125.04 286.926C1125.94 285.249 1126.13 283.31 1125.58 281.504C1125.24 279.773 1124.38 278.173 1123.09 276.902C1121.75 275.778 1120.21 274.885 1118.54 274.263C1117 273.746 1115.61 272.871 1114.52 271.718C1113.32 270.18 1114.14 268.445 1115.35 267.178C1116.72 265.652 1118.6 264.615 1120.68 264.238C1121.56 264.066 1122.49 264.223 1123.26 264.677C1124.03 265.131 1124.59 265.847 1124.82 266.679C1125.25 268.643 1128.41 267.812 1127.98 265.848V265.807Z" fill="#4100FB"/>
<path d="M1122.96 259.969C1117.99 271.362 1113.86 283.066 1110.59 294.998C1110.48 295.392 1110.55 295.808 1110.76 296.157C1110.98 296.507 1111.33 296.763 1111.74 296.871C1112.15 296.979 1112.59 296.931 1112.97 296.737C1113.34 296.542 1113.62 296.217 1113.75 295.829C1117.02 283.894 1121.16 272.186 1126.12 260.79C1126.93 258.94 1123.75 258.13 1122.96 259.969Z" fill="#4100FB"/>
<path d="M1149.48 281.649C1153.43 279.571 1157.93 276.559 1158.15 271.853C1158.28 269.349 1156.58 267.625 1154.26 266.721C1152.29 265.952 1149.79 265.235 1147.7 265.827C1145.09 266.565 1144.28 269.069 1144 271.375C1143.84 272.576 1143.97 273.796 1144.38 274.942C1144.79 276.089 1145.46 277.132 1146.36 277.992C1147.97 279.623 1150.21 280.776 1151.43 282.75C1152.64 284.724 1151.54 286.615 1149.59 287.602C1148.35 288.175 1147 288.497 1145.62 288.547C1144.97 288.547 1143.43 288.703 1143 288.059C1142.44 287.228 1144.33 285.721 1144.83 285.233C1145.93 284.17 1147.13 283.193 1148.4 282.314C1150.08 281.15 1148.45 278.439 1146.73 279.623C1144.47 281.085 1142.46 282.864 1140.77 284.901C1139.33 286.77 1139.13 289.388 1141.36 290.791C1143.22 291.965 1145.66 291.767 1147.75 291.414C1150.26 291.086 1152.53 289.827 1154.06 287.913C1154.74 287.004 1155.14 285.936 1155.22 284.825C1155.3 283.715 1155.05 282.605 1154.51 281.618C1153.42 279.54 1151.46 278.221 1149.71 276.735C1148.8 276.047 1148.05 275.183 1147.52 274.2C1147.08 272.967 1147.08 271.632 1147.52 270.398C1147.75 269.526 1148.01 268.85 1149.05 268.747C1150.18 268.733 1151.29 268.935 1152.33 269.339C1153.34 269.65 1154.62 270.055 1154.88 271.157C1154.99 272.368 1154.6 273.572 1153.79 274.512C1152.38 276.527 1150.02 277.836 1147.82 278.958C1145.97 279.924 1147.62 282.615 1149.48 281.649V281.649Z" fill="#4100FB"/>
<path d="M1164.93 265.755C1163.29 268.37 1162.04 271.192 1161.23 274.138C1160.57 276.58 1159.31 280.527 1162.41 281.898C1165.03 283.052 1168.18 281.898 1170.19 280.164C1172.58 278.148 1173.65 275.136 1174.57 272.331C1175.14 270.679 1172.38 269.515 1171.57 271.126C1168.68 276.97 1166.41 283.074 1164.8 289.347C1164.29 291.3 1167.46 292.131 1167.96 290.178C1169.48 284.164 1171.64 278.311 1174.39 272.705L1171.39 271.5C1170.87 273.55 1169.92 275.484 1168.62 277.192C1167.99 277.929 1167.19 278.513 1166.27 278.896C1165.72 279.114 1164.26 279.54 1163.73 279.073C1163.19 278.605 1163.91 276.829 1164.01 276.341C1164.25 275.302 1164.53 274.263 1164.88 273.224C1165.6 271.169 1166.55 269.194 1167.72 267.334C1167.92 266.978 1167.97 266.562 1167.85 266.174C1167.74 265.786 1167.47 265.455 1167.1 265.252C1166.73 265.049 1166.3 264.989 1165.88 265.084C1165.47 265.18 1165.11 265.424 1164.88 265.765L1164.93 265.755Z" fill="#4100FB"/>
<path d="M1195.92 267.106C1193.73 266.939 1191.54 266.794 1189.35 266.659C1187.52 266.545 1185.33 266.16 1183.61 267.002C1181.89 267.843 1181.36 269.661 1180.67 271.219C1179.84 273.11 1179.06 275.032 1178.34 276.964C1178.26 277.263 1178.27 277.576 1178.38 277.867C1178.49 278.158 1178.68 278.412 1178.94 278.6C1179.19 278.788 1179.5 278.9 1179.83 278.923C1180.15 278.946 1180.47 278.879 1180.76 278.73C1181.95 278.024 1184.33 276.652 1185.13 278.418C1185.93 280.41 1186.06 282.589 1185.49 284.651C1185.28 285.534 1184.88 286.366 1184.32 287.095C1183.75 287.825 1183.04 288.436 1182.21 288.89C1180.23 289.929 1178.14 289.368 1176.17 288.568C1175.79 288.376 1175.35 288.327 1174.93 288.431C1174.52 288.535 1174.16 288.784 1173.93 289.129C1173.73 289.48 1173.67 289.891 1173.78 290.278C1173.89 290.665 1174.15 290.997 1174.51 291.207C1177.57 292.443 1180.62 293.149 1183.72 291.612C1185.08 290.893 1186.24 289.894 1187.14 288.69C1188.03 287.485 1188.63 286.105 1188.88 284.651C1189.39 281.94 1189.32 277.951 1187.29 275.749C1185.1 273.328 1181.53 274.554 1179.09 275.967L1181.51 277.733C1182.1 276.133 1182.73 274.544 1183.4 272.965C1183.81 272.019 1184.3 269.848 1185.47 269.599C1186.13 269.5 1186.8 269.5 1187.46 269.599L1190.3 269.765L1195.96 270.16C1198.07 270.326 1198.06 267.209 1195.96 267.043L1195.92 267.106Z" fill="#4100FB"/>
<path d="M1199.25 286.781L1198.88 286.449C1198.74 286.301 1198.56 286.187 1198.36 286.116C1198.16 286.034 1197.94 285.991 1197.72 285.991C1197.5 285.991 1197.29 286.034 1197.09 286.116C1196.89 286.184 1196.71 286.298 1196.56 286.449L1196.3 286.76C1196.16 287 1196.08 287.273 1196.08 287.55V287.955C1196.16 288.219 1196.3 288.459 1196.51 288.651L1196.88 288.983C1197.03 289.13 1197.21 289.241 1197.42 289.305C1197.61 289.398 1197.82 289.444 1198.04 289.44C1198.26 289.444 1198.48 289.397 1198.67 289.305C1198.88 289.243 1199.06 289.132 1199.2 288.983L1199.46 288.661C1199.61 288.424 1199.68 288.156 1199.68 287.882L1199.63 287.467C1199.56 287.205 1199.41 286.967 1199.2 286.781H1199.25Z" fill="#4100FB"/>
<path d="M1209.78 270.097C1206.99 272.873 1205.12 276.372 1204.41 280.153C1203.86 283.217 1203.48 288.048 1206.6 290.094C1210.35 292.588 1214.33 287.581 1216.16 285.015C1218.35 281.898 1220.31 277.743 1219.78 273.92C1219.68 272.909 1219.34 271.935 1218.77 271.077C1218.2 270.219 1217.42 269.502 1216.5 268.985C1215.64 268.493 1214.65 268.241 1213.65 268.257C1212.65 268.274 1211.67 268.558 1210.83 269.079C1210.47 269.296 1210.2 269.638 1210.1 270.034C1209.99 270.43 1210.04 270.85 1210.25 271.208C1210.47 271.549 1210.82 271.797 1211.23 271.901C1211.64 272.006 1212.07 271.958 1212.44 271.769C1212.81 271.512 1213.26 271.373 1213.73 271.373C1214.19 271.373 1214.64 271.512 1215.01 271.769C1215.49 272.087 1215.87 272.507 1216.14 272.994C1216.41 273.482 1216.56 274.023 1216.57 274.574C1216.78 277.369 1215.35 280.34 1213.83 282.667C1213.04 283.887 1212.1 285.02 1211.04 286.043C1210.53 286.552 1209.27 288.027 1208.4 287.487C1207.54 286.947 1207.5 285.482 1207.44 284.672C1207.33 283.282 1207.42 281.885 1207.69 280.516C1208.32 277.424 1209.86 274.566 1212.13 272.278C1213.59 270.824 1211.27 268.611 1209.81 270.066L1209.78 270.097Z" fill="#4100FB"/>
<path d="M1226.47 273.411C1226.72 273.111 1227.04 272.868 1227.4 272.697C1227.77 272.526 1228.17 272.433 1228.57 272.423C1228.98 272.413 1229.38 272.487 1229.75 272.64C1230.12 272.792 1230.45 273.02 1230.72 273.307C1231.96 274.647 1231.35 276.424 1230.32 277.743C1229.09 279.27 1227.24 280.257 1225.66 281.4C1223.95 282.609 1222.36 283.947 1220.88 285.399C1219.58 286.698 1218.26 288.215 1218.25 290.116C1218.23 290.969 1218.5 291.805 1219.04 292.491C1219.57 293.178 1220.33 293.676 1221.19 293.907C1223.34 294.305 1225.52 294.499 1227.7 294.489L1235.13 295.019C1237.23 295.175 1237.22 292.058 1235.13 291.902C1231.18 291.622 1227.23 291.352 1223.29 291.061C1222.81 291.061 1221.97 291.061 1221.65 290.656C1221.34 290.251 1221.65 289.43 1221.95 289.025C1222.95 287.694 1224.15 286.508 1225.5 285.503C1228.09 283.353 1231.4 281.815 1233.35 279.052C1235.13 276.528 1235.25 273.058 1232.8 270.876C1232.16 270.316 1231.4 269.893 1230.56 269.635C1229.73 269.378 1228.86 269.292 1227.99 269.383C1227.12 269.475 1226.28 269.742 1225.53 270.166C1224.78 270.59 1224.13 271.162 1223.63 271.842C1223.44 272.196 1223.39 272.606 1223.5 272.992C1223.61 273.377 1223.87 273.709 1224.22 273.92C1224.6 274.104 1225.03 274.149 1225.43 274.045C1225.84 273.941 1226.19 273.696 1226.41 273.359L1226.47 273.411Z" fill="#4100FB"/>
<path d="M1159.2 339.098C1159.66 333.263 1155.63 328.215 1150.19 327.824C1144.75 327.433 1139.96 331.846 1139.49 337.682C1139.03 343.517 1143.06 348.565 1148.5 348.956C1153.94 349.347 1158.73 344.934 1159.2 339.098Z" fill="#FF6363"/>
<path d="M1197.78 569.303H939.906L933.363 558.074L967.278 497.748L1218.6 486.519L1225.15 497.748L1197.78 569.303Z" fill="#4100FB"/>
<path d="M1191.24 558.074H933.363L960.725 486.519H1218.6L1191.24 558.074Z" fill="#E8E8F7"/>
<path d="M1143.16 328.139C1143.63 322.304 1139.59 317.256 1134.15 316.865C1128.71 316.474 1123.93 320.887 1123.46 326.723C1122.99 332.558 1127.03 337.606 1132.47 337.997C1137.91 338.388 1142.7 333.975 1143.16 328.139Z" fill="#FF6363"/>
<path d="M1128.41 316.445C1128.88 310.609 1124.84 305.562 1119.4 305.171C1113.96 304.779 1109.18 309.193 1108.71 315.028C1108.24 320.864 1112.28 325.911 1117.72 326.302C1123.16 326.694 1127.95 322.28 1128.41 316.445Z" fill="#FF6363"/>
<path d="M1135.72 281.076C1138.61 277.058 1137.53 271.577 1133.29 268.833C1129.06 266.09 1123.29 267.122 1120.4 271.14L1096.7 304.091C1093.81 308.109 1094.9 313.59 1099.13 316.334C1103.36 319.078 1109.14 318.045 1112.02 314.027L1135.72 281.076Z" fill="#FF6363"/>
<path d="M1137.16 263.274L1137.15 263.269C1134.13 261.314 1130.02 262.05 1127.96 264.912L1124.71 269.433C1122.66 272.294 1123.43 276.198 1126.44 278.153L1126.45 278.159C1129.47 280.113 1133.58 279.377 1135.64 276.516L1138.89 271.995C1140.95 269.133 1140.17 265.229 1137.16 263.274Z" fill="#070717"/>
<path d="M1095.28 316.45L1093.48 315.308C1091.68 314.171 1089.62 313.453 1087.48 313.213C1085.33 312.973 1083.16 313.217 1081.13 313.926C1079.11 314.635 1077.29 315.788 1075.82 317.292C1074.35 318.796 1073.28 320.607 1072.69 322.58L1063.26 354.326L1090.32 338.037L1095.28 316.45Z" fill="#FF6363"/>
<path d="M1126.94 529.806H993.973L999.519 513.985H1132.49L1126.94 529.806Z" fill="#CFCFE8"/>
<path d="M953.765 312.116L926.086 297.012L905.513 331.003L933.191 346.108L953.765 312.116Z" fill="#FF6363"/>
<path d="M975.262 245.435C975.262 245.435 998.762 253.798 995.392 278.595C994.885 281.8 994.56 285.028 994.419 288.267L982.089 286.656L982.57 270.534L978.686 285.275L960.952 282.262L956.51 300.961C954.468 309.537 955.239 318.501 958.721 326.648C962.202 334.795 968.226 341.735 975.984 346.535V346.535L911.677 325.436C902.087 322.293 894.117 315.802 889.385 307.282C884.652 298.762 883.512 288.85 886.197 279.561L888.943 270.035C890.646 264.13 893.574 258.608 897.556 253.793C901.537 248.977 906.492 244.966 912.129 241.994C917.766 239.022 923.971 237.15 930.381 236.486C936.791 235.823 943.275 236.383 949.454 238.132L975.262 245.435Z" fill="#070717"/>
<path d="M904.415 327.514L932.116 342.701L952.553 377.897C957.18 385.643 958.933 394.64 957.53 403.445C956.128 412.25 951.651 420.353 944.818 426.452L939.348 431.47C934.932 435.489 929.484 438.34 923.547 439.738C917.61 441.136 911.391 441.033 905.509 439.438L852.23 425.102C849.407 424.34 846.822 422.941 844.693 421.023C842.565 419.105 840.958 416.727 840.009 414.09V414.09C837.842 408.065 837.514 401.581 839.063 395.386C840.611 389.191 843.974 383.539 848.762 379.082L904.415 327.514Z" fill="#F4B562"/>
<path d="M893.647 446.357C918.492 446.357 938.634 427.232 938.634 403.64C938.634 380.048 918.492 360.923 893.647 360.923C868.801 360.923 848.66 380.048 848.66 403.64C848.66 427.232 868.801 446.357 893.647 446.357Z" fill="#FFD15C"/>
<path d="M852.514 386.322L828.533 466.728C821.943 488.817 824.598 512.47 835.944 532.743C847.29 553.016 866.449 568.341 889.416 575.515C928.399 587.684 970.776 585.485 1008.13 569.355V569.355C1047.14 552.501 1078.94 523.529 1098.28 487.214L1133.4 406.974C1133.4 406.974 1132.68 355.614 1063.3 341.34L991.501 443.583C988.496 448.073 984.261 451.701 979.25 454.081C974.24 456.46 968.641 457.499 963.056 457.088V457.088C958.585 456.765 954.242 455.522 950.328 453.445C946.414 451.368 943.024 448.506 940.393 445.058C937.762 441.611 935.953 437.661 935.093 433.482C934.232 429.304 934.34 424.998 935.41 420.863L937.838 411.514L852.514 386.322Z" fill="url(#paint5_linear_1930_39031)"/>
<path d="M1110.58 144.574L1113.05 147.577C1114.03 148.75 1115.27 149.699 1116.68 150.35C1118.1 151.002 1119.65 151.339 1121.23 151.337H1174.43C1178.09 151.343 1181.66 150.252 1184.63 148.221L1189.89 144.595L1110.58 144.574Z" fill="#070717"/>
<path d="M739.204 127.528C740.779 124.71 743.014 122.273 745.737 120.404C748.459 118.534 751.597 117.283 754.909 116.746C761.991 115.503 769.302 116.968 775.252 120.821C789.617 129.702 794.646 146.291 796.995 161.506C798.32 170.086 799.751 179.139 798.336 187.762C797.748 191.351 796.83 195.298 793.924 197.772C792.945 198.601 791.258 199.745 789.873 199.202C788.111 198.401 788.202 195.584 788.111 194.04C787.343 179.739 795.46 161.864 811.436 158.188C819.959 156.229 827.367 160.834 831.011 168.013C835.528 176.836 833.526 187.132 831.749 196.356C831.671 196.754 831.754 197.164 831.98 197.507C832.205 197.85 832.558 198.099 832.969 198.207C833.379 198.315 833.817 198.273 834.196 198.089C834.575 197.905 834.868 197.593 835.016 197.214C838.705 188.048 850.993 185.388 860.042 187.919C871.983 191.28 880.295 200.975 888.276 209.37C892.779 214.423 897.9 218.95 903.529 222.855C905.336 224.042 907.023 221.253 905.246 220.081C893.952 212.687 886.679 201.233 876.214 192.91C867.18 185.76 855.329 180.998 843.75 185.273C841.038 186.186 838.561 187.635 836.484 189.527C834.407 191.418 832.777 193.707 831.704 196.242L834.971 197.1C836.793 187.604 838.72 177.337 834.73 168.084C831.583 160.791 825.108 154.842 816.51 154.399C807.912 153.956 799.947 158.775 794.677 164.738C788.726 171.675 785.228 180.216 784.678 189.149C784.437 192.795 783.925 198.373 787.027 201.133C789.843 203.621 793.758 202.148 796.243 200.003C799.646 197.143 800.76 192.695 801.528 188.563C802.253 183.639 802.354 178.651 801.829 173.704C800.323 155.686 797.146 135.236 782.555 122.223C775.734 116.145 766.654 112.213 757.168 113.128C748.524 113.957 740.167 118.29 736.192 125.841C735.228 127.7 738.15 129.33 739.204 127.471V127.528Z" fill="url(#paint6_radial_1930_39031)"/>
<path d="M1165.78 511.107L1177.29 525.651L1177.56 523.76C1172.89 527.207 1167.71 529.967 1162.18 531.946C1160.23 532.653 1161.09 535.665 1163.05 534.949C1169.1 532.779 1174.78 529.749 1179.87 525.963C1180.13 525.721 1180.3 525.405 1180.34 525.064C1180.39 524.723 1180.31 524.378 1180.13 524.082L1168.62 509.539C1167.36 507.949 1164.51 509.539 1165.78 511.107V511.107Z" fill="#4100FB"/>
<path d="M995.494 428.53C990.867 416.355 998.011 403.255 1008.62 396.253C1019.56 389.044 1033.44 387.07 1046.39 388.898C1061.43 390.976 1075.42 397.417 1088.52 404.481C1101.44 411.501 1113.72 419.539 1125.23 428.509C1131.02 432.997 1136.63 437.679 1142.06 442.554C1147.12 447.073 1152.94 451.904 1155.11 458.407C1156.82 463.487 1155.92 470.26 1150.49 472.951C1145.05 475.641 1138.07 473.055 1134.71 468.504C1126.9 457.919 1132.88 443.302 1141 434.649C1150.48 424.84 1163.55 418.855 1177.53 417.923C1193.26 416.885 1207.68 423.284 1222.56 427.003C1237.87 430.83 1253.64 432.702 1269.46 432.571C1273.36 432.571 1277.24 432.374 1281.13 432.104C1283.22 431.958 1283.24 428.842 1281.13 428.987C1264.1 430.219 1246.98 429.085 1230.3 425.621C1221.98 423.876 1213.94 421.341 1205.82 418.952C1198.02 416.656 1190.02 414.745 1181.75 414.713C1166.81 414.663 1152.4 420.023 1141.47 429.704C1131.76 438.492 1124.54 452.558 1129.3 465.294C1131.56 471.372 1136.63 476.161 1143.52 477.023C1146.63 477.494 1149.81 476.905 1152.51 475.359C1155.2 473.813 1157.24 471.41 1158.24 468.577C1160.53 462.344 1158.24 455.654 1154.35 450.501C1149.82 444.58 1143.68 439.656 1137.94 434.805C1126.09 424.684 1113.38 415.515 1099.93 407.39C1086.46 399.328 1072.01 391.807 1056.57 387.787C1042.53 384.151 1027.46 383.985 1014.03 389.75C1001.46 395.142 991.282 406.309 990.724 419.814C990.588 423.061 991.111 426.302 992.267 429.361C992.978 431.241 996.151 430.4 995.429 428.54L995.494 428.53Z" fill="url(#paint7_radial_1930_39031)"/>
<path d="M1043.54 165.435L1031.58 195.561C1030.84 197.441 1034.01 198.252 1034.75 196.392L1046.7 166.318C1047.46 164.437 1044.29 163.627 1043.54 165.487V165.435Z" fill="#070717"/>
<path d="M1034.2 184.684C1038.67 185.141 1043.17 185.37 1047.67 185.37C1048.1 185.37 1048.52 185.205 1048.83 184.913C1049.14 184.621 1049.31 184.225 1049.31 183.811C1049.31 183.398 1049.14 183.002 1048.83 182.709C1048.52 182.417 1048.1 182.253 1047.67 182.253C1043.17 182.253 1038.67 182.024 1034.2 181.567C1033.76 181.567 1033.35 181.732 1033.04 182.024C1032.73 182.316 1032.56 182.712 1032.56 183.126C1032.57 183.536 1032.75 183.926 1033.05 184.216C1033.36 184.506 1033.77 184.673 1034.2 184.684V184.684Z" fill="#070717"/>
<path d="M1045.34 196.226C1048.53 187.389 1052.05 178.666 1055.89 170.057C1056.72 168.229 1053.89 166.64 1053.06 168.478C1049.1 177.329 1045.47 186.305 1042.18 195.405C1041.49 197.306 1044.66 198.117 1045.34 196.226V196.226Z" fill="#070717"/>
<path d="M1057.65 182.679C1055.9 186.961 1054.5 191.365 1053.46 195.852C1053.35 196.244 1053.4 196.661 1053.61 197.017C1053.81 197.374 1054.15 197.644 1054.55 197.773C1054.96 197.881 1055.4 197.833 1055.78 197.639C1056.15 197.446 1056.44 197.121 1056.56 196.735C1057.64 192.228 1059.07 187.806 1060.86 183.51C1060.98 183.111 1060.92 182.685 1060.71 182.325C1060.49 181.965 1060.13 181.7 1059.72 181.588C1059.3 181.486 1058.87 181.537 1058.49 181.73C1058.12 181.923 1057.84 182.244 1057.7 182.627L1057.65 182.679Z" fill="#070717"/>
<path d="M1061.48 179.157C1061.92 179.157 1062.34 178.993 1062.65 178.701C1062.95 178.409 1063.13 178.012 1063.13 177.599C1063.13 177.186 1062.95 176.789 1062.65 176.497C1062.34 176.205 1061.92 176.041 1061.48 176.041C1061.05 176.041 1060.63 176.205 1060.32 176.497C1060.02 176.789 1059.84 177.186 1059.84 177.599C1059.84 178.012 1060.02 178.409 1060.32 178.701C1060.63 178.993 1061.05 179.157 1061.48 179.157Z" fill="#070717"/>
<path d="M1077.2 197.337C1080.48 188.84 1083.76 180.165 1088.73 172.405C1089.68 170.644 1091.12 169.164 1092.9 168.125C1094.42 167.377 1096.65 167.18 1097.87 168.52C1100.77 171.637 1096.78 176.021 1094.42 178.15C1091.13 181.163 1086.55 183.708 1081.81 182.742C1081.4 182.656 1080.97 182.724 1080.61 182.931C1080.25 183.138 1079.99 183.468 1079.88 183.853C1079.77 184.238 1079.82 184.649 1080.02 185.001C1080.22 185.353 1080.55 185.619 1080.95 185.744C1083.02 186.367 1084 188.424 1084.64 190.242C1085.54 192.808 1086.12 195.499 1086.82 198.127C1087.35 200.07 1090.51 199.239 1089.99 197.296C1089.31 194.16 1088.41 191.074 1087.27 188.061C1086.18 185.63 1084.55 183.552 1081.8 182.742L1080.94 185.744C1086.2 186.783 1091.18 184.768 1095.21 181.589C1098.91 178.711 1102.87 174.421 1101.9 169.549C1100.93 164.676 1094.9 163.17 1090.71 165.674C1088.59 167.094 1086.86 168.97 1085.65 171.148C1084.16 173.558 1082.83 176.052 1081.58 178.586C1078.72 184.414 1076.36 190.46 1074.02 196.496C1073.29 198.376 1076.46 199.187 1077.18 197.317L1077.2 197.337Z" fill="#070717"/>
<path d="M1097.4 191.021C1100.41 191.935 1104.04 192.61 1106.58 190.273C1107.3 189.701 1107.75 188.885 1107.84 188C1107.93 187.114 1107.66 186.23 1107.07 185.536C1105.94 184.497 1104.45 183.887 1102.87 183.822C1096.81 183.23 1090.97 189.432 1093.59 195.01C1094.25 196.375 1095.4 197.471 1096.84 198.095C1098.28 198.719 1099.9 198.83 1101.42 198.407C1101.83 198.289 1102.18 198.023 1102.4 197.665C1102.61 197.307 1102.67 196.884 1102.57 196.485C1102.44 196.096 1102.15 195.77 1101.78 195.576C1101.4 195.382 1100.96 195.336 1100.54 195.446C1100.32 195.521 1100.1 195.58 1099.87 195.623C1099.62 195.675 1100.12 195.623 1099.87 195.623C1099.75 195.633 1099.63 195.633 1099.5 195.623H1099.15C1099.23 195.623 1099.44 195.685 1099.15 195.623C1098.87 195.561 1098.65 195.498 1098.41 195.415C1098.67 195.509 1098.18 195.311 1098.09 195.27L1097.82 195.114C1097.82 195.114 1097.43 194.844 1097.6 194.979C1097.76 195.114 1097.49 194.885 1097.47 194.854C1097.37 194.773 1097.27 194.686 1097.18 194.595L1096.96 194.376C1096.78 194.179 1096.96 194.376 1096.89 194.272C1096.76 194.088 1096.64 193.897 1096.53 193.701C1096.53 193.649 1096.42 193.431 1096.53 193.701L1096.43 193.4C1096.28 193.015 1096.22 192.603 1096.26 192.195C1096.26 192.06 1096.26 191.925 1096.26 191.779C1096.26 191.634 1096.26 191.977 1096.26 191.707C1096.26 191.436 1096.37 191.218 1096.44 190.979C1096.56 190.572 1096.74 190.183 1096.98 189.826C1097.42 189.089 1098.05 188.46 1098.79 187.988C1099.57 187.485 1100.46 187.161 1101.4 187.042C1101.68 187.042 1101.19 187.042 1101.47 187.042H1101.91H1102.6C1103.02 187.087 1103.44 187.178 1103.85 187.312C1104.14 187.395 1104.02 187.312 1103.94 187.312C1104.08 187.37 1104.21 187.436 1104.34 187.51C1104.34 187.51 1104.66 187.707 1104.54 187.624C1104.41 187.541 1104.72 187.801 1104.61 187.686V187.759C1104.61 187.759 1104.61 187.593 1104.61 187.603C1104.61 187.614 1104.54 187.884 1104.61 187.717C1104.61 187.717 1104.35 188.123 1104.47 187.977L1104.24 188.206C1103.98 188.476 1104.37 188.206 1104.04 188.362C1103.95 188.423 1103.86 188.479 1103.76 188.528C1103.76 188.528 1103.3 188.736 1103.54 188.642C1103.27 188.737 1103 188.814 1102.72 188.871C1102.72 188.871 1102.4 188.871 1102.64 188.871C1102.47 188.881 1102.3 188.881 1102.13 188.871C1100.8 188.819 1099.49 188.559 1098.26 188.102C1098.05 188.04 1097.82 188.019 1097.61 188.04C1097.39 188.061 1097.18 188.123 1096.98 188.224C1096.79 188.324 1096.62 188.459 1096.48 188.623C1096.35 188.786 1096.25 188.974 1096.19 189.175C1096.13 189.376 1096.12 189.586 1096.14 189.793C1096.17 189.999 1096.24 190.199 1096.36 190.379C1096.47 190.558 1096.61 190.715 1096.79 190.84C1096.97 190.965 1097.17 191.054 1097.38 191.104L1097.4 191.021Z" fill="#070717"/>
<path d="M1111.62 184.455C1110.68 186.954 1110.16 189.581 1110.09 192.236C1110.04 194.314 1110.28 197.69 1113.37 197.254C1115.56 196.942 1117.64 194.781 1118.84 193.098C1120.15 191.212 1120.87 189.01 1120.91 186.751C1120.97 186.338 1120.85 185.92 1120.59 185.588C1120.45 185.424 1120.29 185.287 1120.1 185.183C1119.91 185.08 1119.71 185.012 1119.49 184.985C1119.05 184.93 1118.61 185.041 1118.27 185.295C1117.92 185.548 1117.69 185.922 1117.63 186.336C1116.74 190.292 1115.57 194.19 1114.14 198.002C1113.65 199.553 1112.78 200.975 1111.61 202.157C1111.1 202.678 1110.44 203.04 1109.71 203.194C1108.98 203.348 1108.21 203.287 1107.52 203.019C1105.65 202.084 1104 204.765 1105.86 205.71C1110.23 207.912 1114.61 204.671 1116.39 200.942C1118.35 196.496 1119.82 191.869 1120.77 187.135L1117.55 186.72C1117.54 188.16 1117.15 189.574 1116.42 190.837C1115.69 192.1 1114.64 193.172 1113.37 193.961C1113.24 194.05 1113.1 194.13 1112.96 194.2C1113.33 194.542 1113.48 194.605 1113.42 194.376C1113.41 194.029 1113.38 193.682 1113.33 193.337C1113.31 192.443 1113.34 191.548 1113.43 190.657C1113.63 188.828 1114.07 187.03 1114.75 185.307C1115.47 183.427 1112.3 182.606 1111.58 184.486L1111.62 184.455Z" fill="#070717"/>
<path d="M1148.56 160.957L1131.49 191.374C1130.49 193.14 1133.33 194.719 1134.32 192.943L1151.39 162.525C1152.38 160.759 1149.55 159.18 1148.56 160.957Z" fill="#070717"/>
<path d="M1131.34 198.117C1131.78 198.117 1132.19 197.952 1132.5 197.66C1132.81 197.368 1132.98 196.972 1132.98 196.558C1132.98 196.145 1132.81 195.749 1132.5 195.456C1132.19 195.164 1131.78 195 1131.34 195C1130.91 195 1130.49 195.164 1130.18 195.456C1129.87 195.749 1129.7 196.145 1129.7 196.558C1129.7 196.972 1129.87 197.368 1130.18 197.66C1130.49 197.952 1130.91 198.117 1131.34 198.117V198.117Z" fill="#070717"/>
<path d="M41.5 564.908L87.2646 516.755L83.7958 581.534L152 578.218L101.307 621.692L152 665.142L83.7958 661.826L87.2646 726.605L41.5 678.475L-4.26455 726.605L-0.795691 661.826L-69 665.142L-18.3073 621.692L-69 578.218L-0.795691 581.534L-4.26455 516.755L41.5 564.908Z" fill="url(#paint8_linear_1930_39031)"/>
<defs>
<linearGradient id="paint0_linear_1930_39031" x1="928.148" y1="167.13" x2="959.974" y2="245.233" gradientUnits="userSpaceOnUse">
<stop stop-color="#FFD15C"/>
<stop offset="1" stop-color="#FFBF1B"/>
</linearGradient>
<linearGradient id="paint1_linear_1930_39031" x1="1372.54" y1="389.179" x2="1398.94" y2="424.591" gradientUnits="userSpaceOnUse">
<stop stop-color="#6C39FE"/>
<stop offset="1" stop-color="#4100FB"/>
</linearGradient>
<linearGradient id="paint2_linear_1930_39031" x1="586.245" y1="432.117" x2="700.39" y2="652.077" gradientUnits="userSpaceOnUse">
<stop stop-color="#6C39FE"/>
<stop offset="1" stop-color="#4100FB"/>
</linearGradient>
<linearGradient id="paint3_linear_1930_39031" x1="1092.12" y1="195.238" x2="1092.12" y2="616.103" gradientUnits="userSpaceOnUse">
<stop stop-color="#070717"/>
<stop offset="1" stop-color="#4100FB"/>
</linearGradient>
<linearGradient id="paint4_linear_1930_39031" x1="1139.63" y1="313.288" x2="1143.89" y2="372.801" gradientUnits="userSpaceOnUse">
<stop stop-color="#070717"/>
<stop offset="1" stop-color="#4100FB"/>
</linearGradient>
<linearGradient id="paint5_linear_1930_39031" x1="872.63" y1="474.431" x2="973.299" y2="588.479" gradientUnits="userSpaceOnUse">
<stop stop-color="#FFD15C"/>
<stop offset="1" stop-color="#FFBF1B"/>
</linearGradient>
<radialGradient id="paint6_radial_1930_39031" cx="0" cy="0" r="1" gradientUnits="userSpaceOnUse" gradientTransform="translate(906.332 147.963) rotate(159.382) scale(238.319 115.097)">
<stop stop-color="#FF6363"/>
<stop offset="1" stop-color="#4100FB"/>
</radialGradient>
<radialGradient id="paint7_radial_1930_39031" cx="0" cy="0" r="1" gradientUnits="userSpaceOnUse" gradientTransform="translate(1283.27 414.407) rotate(169.635) scale(389.48 101.005)">
<stop stop-color="#FF6363"/>
<stop offset="1" stop-color="#4100FB"/>
</radialGradient>
<linearGradient id="paint8_linear_1930_39031" x1="-34.8582" y1="632.194" x2="52.9472" y2="714.374" gradientUnits="userSpaceOnUse">
<stop stop-color="#FFD15C"/>
<stop offset="1" stop-color="#FFBF1B"/>
</linearGradient>
</defs>
</svg>
