<svg width="197" height="58" viewBox="0 0 197 58" fill="none" xmlns="http://www.w3.org/2000/svg">
<path d="M29.5073 57.7958C45.7907 57.7958 58.9911 44.8578 58.9911 28.8979C58.9911 12.938 45.7907 0 29.5073 0C13.2238 0 0.0234985 12.938 0.0234985 28.8979C0.0234985 44.8578 13.2238 57.7958 29.5073 57.7958Z" fill="url(#paint0_radial_4_3)"/>
<path d="M14.9833 43.9912H42.8355C43.5555 43.9912 43.9154 43.9912 44.1262 43.9103C44.8032 43.6502 45.0906 42.8172 44.7134 42.2078C44.596 42.0182 44.3182 41.8103 43.7626 41.3946C38.454 37.4221 28.0217 30.2913 21.539 30.2913C15.7115 30.2913 13.6857 37.9627 13.0351 41.8244C12.9736 42.1898 12.9428 42.3725 12.9629 42.5763C13.0236 43.1905 13.5337 43.7798 14.142 43.9385C14.3439 43.9912 14.5571 43.9912 14.9833 43.9912Z" fill="white"/>
<path d="M44.069 13.8515H16.2167C15.4968 13.8515 15.1368 13.8515 14.9261 13.9324C14.249 14.1924 13.9617 15.0255 14.3388 15.6348C14.4562 15.8245 14.734 16.0324 15.2896 16.4481C20.5983 20.4206 31.0306 27.5513 37.5133 27.5513C43.3407 27.5513 45.3665 19.88 46.0172 16.0183C46.0787 15.6529 46.1095 15.4702 46.0893 15.2663C46.0287 14.6522 45.5186 14.0629 44.9103 13.9041C44.7083 13.8515 44.4952 13.8515 44.069 13.8515Z" fill="white"/>
<path d="M74.7766 40.3353H79.3719V28.1508C79.3719 23.0779 82.2259 20.4703 86.5793 20.4703C90.9328 20.4703 93.7867 23.0779 93.7867 28.1508V40.3353H98.3821V28.1508C98.3821 20.2806 93.6416 16.2981 86.5793 16.2981C79.517 16.2981 74.7766 20.328 74.7766 28.1508V40.3353Z" fill="white"/>
<path d="M104.236 13.2167C106.074 13.2167 107.428 11.8418 107.428 10.0402C107.428 8.23857 106.074 6.91107 104.236 6.91107C102.397 6.91107 101.043 8.23857 101.043 10.0402C101.043 11.8418 102.397 13.2167 104.236 13.2167ZM101.962 40.3355H106.557V16.9147H101.962V40.3355Z" fill="white"/>
<path d="M110.07 40.3353H114.666V28.1508C114.666 23.0778 117.52 20.4703 121.873 20.4703C126.226 20.4703 129.08 23.0778 129.08 28.1508V40.3353H133.676V28.1508C133.676 20.2806 128.935 16.2981 121.873 16.2981C114.811 16.2981 110.07 20.328 110.07 28.1508V40.3353Z" fill="white"/>
<path d="M148.656 40.9517C154.219 40.9517 158.572 38.1544 160.41 33.7927H155.331C153.928 35.8313 151.752 36.7795 148.656 36.7795C144.496 36.7795 141.303 34.4564 140.626 30.2843H161.426V28.6249C161.426 21.5133 156.202 16.2981 148.656 16.2981C141.11 16.2981 135.789 21.5133 135.789 28.6249C135.789 35.7365 141.11 40.9517 148.656 40.9517ZM140.771 26.2544C141.69 22.5563 144.689 20.4703 148.656 20.4703C152.526 20.4703 155.67 22.5089 156.589 26.2544H140.771Z" fill="white"/>
<path d="M162.914 40.3353H178.319V36.3347L169.17 36.3799L174.542 31.2686C177.011 28.9568 178.522 26.7713 178.522 23.7461C178.522 19.0321 175.399 16.2417 170.69 16.2417C165.899 16.2417 162.951 19.2489 162.951 24.1886V24.5137H167.346V24.008C167.346 21.7684 168.525 20.2061 170.7 20.2061C172.911 20.2061 173.97 21.8045 173.97 23.9357C173.97 25.6245 172.819 27.1868 171.16 28.74L162.914 36.4702V40.3353Z" fill="white"/>
<path d="M188.151 40.9403C193.2 40.9403 196.969 37.4454 196.969 32.2799C196.969 27.4757 193.412 24.4053 189.109 24.4053C187.23 24.4053 185.703 24.9059 184.724 26.2746L185.488 20.5311H195.605V16.5306H182.006L180.347 29.3089L184.346 30.3293C185.009 28.9928 186.345 28.0897 188.151 28.0897C190.731 28.0897 192.546 29.7875 192.546 32.2799C192.546 35.1336 190.731 36.8855 188.151 36.8855C185.977 36.8855 184.42 35.4587 184.051 33.5442H179.555C179.769 37.8826 183.378 40.9403 188.151 40.9403Z" fill="white"/>
<defs>
<radialGradient id="paint0_radial_4_3" cx="0" cy="0" r="1" gradientUnits="userSpaceOnUse" gradientTransform="translate(59.1062 18.3479) rotate(150.354) scale(89.0237 56.0796)">
<stop stop-color="#FF6363"/>
<stop offset="1" stop-color="#4100FB"/>
</radialGradient>
</defs>
</svg>
