<svg width="104" height="28" viewBox="0 0 104 28" fill="none" xmlns="http://www.w3.org/2000/svg">
<path d="M16.4463 13.0137C16.4463 9.95741 18.9982 8.47853 19.0964 8.37994C17.6241 6.30952 15.4648 6.01375 14.6795 5.91515C12.8146 5.71797 10.9497 6.99966 10.0664 6.99966C9.08485 6.99966 7.61257 5.91515 6.04213 5.91515C3.98093 5.91515 2.11603 7.09825 1.03636 8.97149C-1.123 12.718 0.447443 18.2391 2.50864 21.2954C3.58832 22.7743 4.76615 24.4504 6.33659 24.3518C7.90703 24.2532 8.49594 23.3659 10.3608 23.3659C12.2257 23.3659 12.7165 24.3518 14.3851 24.3518C16.0537 24.3518 17.1334 22.8729 18.1149 21.394C19.2927 19.718 19.7835 18.0419 19.7835 17.9433C19.6853 17.8447 16.4463 16.6616 16.4463 13.0137Z" fill="#070717"/>
<path d="M13.4048 3.94366C14.19 2.85916 14.7789 1.47887 14.6808 0C13.5029 0.0985916 11.9325 0.788732 11.1473 1.87324C10.3621 2.76056 9.67498 4.23944 9.87129 5.61972C11.1473 5.71831 12.5214 4.92958 13.4048 3.94366Z" fill="#070717"/>
<path d="M38.8265 24.1548H36.6672L35.4894 20.4084H31.367L30.2873 24.1548H28.2261L32.3485 11.4365H34.9004L38.8265 24.1548ZM35.0967 18.8309L34.0171 15.4788C33.9189 15.183 33.7226 14.2957 33.33 13.1126C33.2319 13.6055 33.0355 14.4929 32.7411 15.4788L31.6614 18.8309H35.0967Z" fill="#070717"/>
<path d="M49.3293 19.521C49.3293 21.0985 48.9367 22.2816 48.0533 23.2675C47.2681 24.0562 46.3848 24.4506 45.2069 24.4506C44.0291 24.4506 43.1457 24.0562 42.655 23.1689V27.9999H40.5938V18.1407C40.5938 17.1548 40.5938 16.1689 40.4956 15.0844H42.2624L42.3605 16.5633C43.0476 15.4788 44.0291 14.8872 45.4032 14.8872C46.4829 14.8872 47.3663 15.2816 48.0533 16.1689C48.9367 16.9576 49.3293 18.0421 49.3293 19.521ZM47.2681 19.521C47.2681 18.6337 47.0718 17.845 46.6792 17.352C46.2866 16.7604 45.6977 16.4647 44.9125 16.4647C44.4217 16.4647 43.9309 16.6619 43.5383 16.9576C43.1457 17.2534 42.8513 17.7464 42.7531 18.2393C42.655 18.5351 42.655 18.7323 42.655 18.8309V20.4083C42.655 21.0985 42.8513 21.5914 43.2439 22.0844C43.6365 22.5773 44.2254 22.7745 44.8143 22.7745C45.5995 22.7745 46.1884 22.4788 46.5811 21.8872C47.0718 21.2957 47.2681 20.5069 47.2681 19.521Z" fill="#070717"/>
<path d="M59.8318 19.521C59.8318 21.0985 59.4391 22.2816 58.5558 23.2675C57.7706 24.0562 56.8872 24.4506 55.7094 24.4506C54.5315 24.4506 53.6482 24.0562 53.1574 23.1689V27.9999H51.0962V18.1407C51.0962 17.1548 51.0962 16.1689 50.998 15.0844H52.7648L52.8629 16.5633C53.55 15.4788 54.5315 14.8872 55.9057 14.8872C56.9853 14.8872 57.8687 15.2816 58.5558 16.1689C59.4391 16.9576 59.8318 18.0421 59.8318 19.521ZM57.7706 19.521C57.7706 18.6337 57.5743 17.845 57.1816 17.352C56.789 16.7604 56.2001 16.4647 55.4149 16.4647C54.9241 16.4647 54.4334 16.6619 54.0408 16.9576C53.6482 17.2534 53.3537 17.7464 53.2555 18.2393C53.1574 18.5351 53.1574 18.7323 53.1574 18.8309V20.4083C53.1574 21.0985 53.3537 21.5914 53.7463 22.0844C54.1389 22.5773 54.7278 22.7745 55.3168 22.7745C56.102 22.7745 56.6909 22.4788 57.0835 21.8872C57.5743 21.2957 57.7706 20.5069 57.7706 19.521Z" fill="#070717"/>
<path d="M71.61 20.6057C71.61 21.6902 71.2174 22.5776 70.5303 23.2677C69.7451 24.0564 68.5673 24.3522 67.095 24.3522C65.7209 24.3522 64.6412 24.0564 63.856 23.5635L64.3467 21.8874C65.2301 22.3804 66.2116 22.6762 67.2913 22.6762C68.0765 22.6762 68.6654 22.479 69.058 22.1832C69.4506 21.7888 69.6469 21.3945 69.6469 20.8029C69.6469 20.31 69.4506 19.817 69.1562 19.5212C68.7636 19.1269 68.1747 18.8311 67.3894 18.5353C65.1319 17.7466 64.0523 16.4649 64.0523 14.8874C64.0523 13.8029 64.4449 13.0142 65.2301 12.3241C66.0153 11.6339 66.9968 11.3381 68.371 11.3381C69.5488 11.3381 70.4322 11.5353 71.2174 11.9297L70.7266 13.6057C70.0396 13.2114 69.2543 13.0142 68.2728 13.0142C67.5857 13.0142 66.9968 13.2114 66.6042 13.5071C66.3098 13.8029 66.1135 14.1973 66.1135 14.6902C66.1135 15.1832 66.3098 15.5776 66.7024 15.9719C66.9968 16.2677 67.6839 16.5635 68.5673 16.9579C69.647 17.3522 70.4322 17.9438 71.0211 18.5353C71.3155 19.0283 71.61 19.7184 71.61 20.6057Z" fill="#070717"/>
<path d="M78.2841 16.5633H76.0266V21C76.0266 22.0845 76.4193 22.676 77.2045 22.676C77.5971 22.676 77.8915 22.676 78.0878 22.5774L78.186 24.1549C77.7934 24.3521 77.3026 24.3521 76.6155 24.3521C75.8303 24.3521 75.1433 24.1549 74.7507 23.6619C74.2599 23.169 74.0636 22.3802 74.0636 21.1971V16.5633H72.6895V14.9859H74.0636V13.3098L76.0266 12.7183V14.9859H78.2841V16.5633Z" fill="#070717"/>
<path d="M88.3938 19.5212C88.3938 20.9015 88.0012 22.0846 87.216 22.9719C86.3326 23.8592 85.2529 24.3522 83.8788 24.3522C82.5046 24.3522 81.425 23.8592 80.6398 22.9719C79.8545 22.0846 79.4619 21.0001 79.4619 19.6198C79.4619 18.2395 79.8545 17.0564 80.7379 16.1691C81.5231 15.2818 82.701 14.7888 84.0751 14.7888C85.4492 14.7888 86.5289 15.2818 87.3141 16.1691C88.0012 17.0564 88.3938 18.1409 88.3938 19.5212ZM86.2344 19.6198C86.2344 18.7325 86.0381 18.0423 85.6455 17.4508C85.2529 16.7607 84.5658 16.3663 83.7806 16.3663C82.9954 16.3663 82.3083 16.7607 81.9157 17.4508C81.5231 18.0423 81.3268 18.8311 81.3268 19.6198C81.3268 20.5071 81.5231 21.1973 81.9157 21.7888C82.3083 22.479 82.9954 22.8733 83.7806 22.8733C84.5658 22.8733 85.1548 22.479 85.6455 21.7888C86.0381 21.1973 86.2344 20.4085 86.2344 19.6198Z" fill="#070717"/>
<path d="M94.9701 16.7606C94.7738 16.7606 94.5775 16.662 94.2831 16.662C93.596 16.662 93.0071 16.9578 92.6145 17.4507C92.32 17.9437 92.1237 18.5353 92.1237 19.2254V24.0564H90.0625V17.7465C90.0625 16.662 90.0625 15.7747 89.9644 14.8874H91.7311L91.8292 16.662H91.9274C92.1237 16.0705 92.5163 15.5775 92.9089 15.1831C93.3997 14.8874 93.8905 14.6902 94.3812 14.6902C94.5775 14.6902 94.7738 14.6902 94.872 14.6902V16.7606H94.9701Z" fill="#070717"/>
<path d="M104 19.1268C104 19.5212 104 19.817 103.902 20.0142H97.8166C97.8166 20.9015 98.111 21.5916 98.6999 22.0846C99.1907 22.479 99.8778 22.7747 100.663 22.7747C101.546 22.7747 102.43 22.6761 103.117 22.3804L103.411 23.7607C102.528 24.155 101.546 24.3522 100.369 24.3522C98.9944 24.3522 97.8166 23.9578 97.0313 23.0705C96.2461 22.2818 95.8535 21.0987 95.8535 19.7184C95.8535 18.3381 96.2461 17.155 96.9332 16.2677C97.7184 15.2818 98.7981 14.7888 100.172 14.7888C101.448 14.7888 102.528 15.2818 103.117 16.2677C103.804 17.0564 104 18.0423 104 19.1268ZM102.135 18.6339C102.135 18.0423 102.037 17.5494 101.743 17.0564C101.35 16.4649 100.859 16.1691 100.172 16.1691C99.4851 16.1691 98.9944 16.4649 98.6018 16.9578C98.3073 17.3522 98.111 17.9438 98.0129 18.5353H102.135V18.6339Z" fill="#070717"/>
<path d="M34.5082 3.64793C34.5082 4.73244 34.2138 5.61976 33.5267 6.21131C32.9378 6.70427 32.0544 7.00005 30.8766 7.00005C30.2877 7.00005 29.7969 7.00004 29.4043 6.90145V0.788777C29.8951 0.690186 30.484 0.690186 31.171 0.690186C32.2507 0.690186 33.0359 0.887369 33.6248 1.38033C34.1156 1.87328 34.5082 2.66202 34.5082 3.64793ZM33.4285 3.64793C33.4285 2.95779 33.2322 2.36624 32.8396 1.97188C32.447 1.57751 31.8581 1.38033 31.171 1.38033C30.8766 1.38033 30.5821 1.38033 30.3858 1.47892V6.11272C30.484 6.11272 30.7784 6.11272 31.0729 6.11272C31.8581 6.11272 32.447 5.91554 32.8396 5.52117C33.2322 5.12681 33.4285 4.43666 33.4285 3.64793Z" fill="#070717"/>
<path d="M40.0047 4.63377C40.0047 5.32392 39.8084 5.91547 39.4158 6.30983C39.0232 6.80279 38.4343 6.99997 37.7472 6.99997C37.0602 6.99997 36.5694 6.80279 36.1768 6.30983C35.7842 5.91547 35.5879 5.32392 35.5879 4.63377C35.5879 3.94363 35.7842 3.35209 36.1768 2.95772C36.5694 2.46476 37.1583 2.26758 37.8454 2.26758C38.5325 2.26758 39.0232 2.46476 39.4158 2.95772C39.8084 3.35209 40.0047 3.94363 40.0047 4.63377ZM39.0232 4.63377C39.0232 4.23941 38.9251 3.84504 38.7288 3.54927C38.5325 3.1549 38.238 3.05631 37.8454 3.05631C37.4528 3.05631 37.1583 3.25349 36.962 3.54927C36.7657 3.84504 36.6676 4.23941 36.6676 4.63377C36.6676 5.02814 36.7657 5.42251 36.962 5.71828C37.1583 6.11265 37.4528 6.21124 37.8454 6.21124C38.238 6.21124 38.5325 6.01406 38.7288 5.61969C38.9251 5.42251 39.0232 5.02814 39.0232 4.63377Z" fill="#070717"/>
<path d="M47.5621 2.36621L46.1879 6.90142H45.3045L44.7156 4.92959C44.5193 4.43663 44.4212 3.94368 44.323 3.45072C44.2249 3.94368 44.1267 4.43663 43.9304 4.92959L43.3415 6.90142H42.4581L40.9858 2.36621H41.9674L42.4581 4.53523C42.5563 5.02818 42.6544 5.52114 42.7526 6.0141C42.8507 5.61973 42.9489 5.12677 43.1452 4.53523L43.7341 2.36621H44.5193L45.1082 4.43663C45.3046 4.92959 45.4027 5.42255 45.5009 5.91551C45.599 5.42255 45.6972 4.92959 45.7953 4.43663L46.3842 2.36621H47.5621Z" fill="#070717"/>
<path d="M52.6658 6.90134H51.6843V4.33796C51.6843 3.54923 51.3899 3.15486 50.8009 3.15486C50.5065 3.15486 50.3102 3.25345 50.1139 3.45064C49.9176 3.64782 49.8194 3.94359 49.8194 4.23937V6.90134H48.8379V3.64782C48.8379 3.25345 48.8379 2.85909 48.8379 2.36613H49.7213V3.05627C49.8194 2.85909 50.0157 2.6619 50.212 2.46472C50.5065 2.26754 50.8009 2.16895 51.0954 2.16895C51.488 2.16895 51.8806 2.26754 52.1751 2.56331C52.5677 2.85909 52.6658 3.35205 52.6658 4.04219V6.90134Z" fill="#070717"/>
<path d="M55.4146 6.90129H54.4331V0.295654H55.4146V6.90129Z" fill="#070717"/>
<path d="M61.3041 4.63377C61.3041 5.32392 61.1078 5.91547 60.7152 6.30983C60.3225 6.80279 59.7336 6.99997 59.0466 6.99997C58.3595 6.99997 57.8687 6.80279 57.4761 6.30983C57.0835 5.91547 56.8872 5.32392 56.8872 4.63377C56.8872 3.94363 57.0835 3.35209 57.4761 2.95772C57.8687 2.56335 58.4576 2.26758 59.1447 2.26758C59.8318 2.26758 60.3225 2.46476 60.7152 2.95772C61.1078 3.35209 61.3041 3.94363 61.3041 4.63377ZM60.3225 4.63377C60.3225 4.23941 60.2244 3.84504 60.0281 3.54927C59.8318 3.1549 59.5373 3.05631 59.1447 3.05631C58.7521 3.05631 58.4576 3.25349 58.2613 3.54927C58.065 3.84504 57.9669 4.23941 57.9669 4.63377C57.9669 5.02814 58.065 5.42251 58.2613 5.71828C58.4576 6.11265 58.7521 6.21124 59.1447 6.21124C59.5373 6.21124 59.8318 6.01406 60.0281 5.61969C60.2244 5.42251 60.3225 5.02814 60.3225 4.63377Z" fill="#070717"/>
<path d="M66.1131 6.90138H65.2297L65.1316 6.40842C64.8371 6.80279 64.3463 6.99997 63.8556 6.99997C63.463 6.99997 63.0704 6.90138 62.8741 6.60561C62.6778 6.30983 62.4814 6.01406 62.4814 5.71828C62.4814 5.12673 62.6778 4.73237 63.1685 4.43659C63.6593 4.14082 64.2482 4.04223 65.1316 4.04223V3.94364C65.1316 3.35209 64.8371 3.05631 64.2482 3.05631C63.7574 3.05631 63.463 3.1549 63.0704 3.35209L62.8741 2.66194C63.2667 2.36617 63.7574 2.26758 64.4445 2.26758C65.6223 2.26758 66.2112 2.85913 66.2112 4.14082V5.81687C66.1131 6.30983 66.1131 6.60561 66.1131 6.90138ZM65.1316 5.32392V4.63377C64.0519 4.63377 63.463 4.92955 63.463 5.5211C63.463 5.71828 63.5611 5.91547 63.6593 6.01406C63.7574 6.11265 63.9537 6.21124 64.15 6.21124C64.3463 6.21124 64.5426 6.11265 64.739 6.01406C64.9353 5.91547 65.0334 5.71828 65.1316 5.5211C65.1316 5.5211 65.1316 5.42251 65.1316 5.32392Z" fill="#070717"/>
<path d="M71.806 6.90133H70.9226V6.21119C70.6282 6.80274 70.1374 6.99992 69.4503 6.99992C68.8614 6.99992 68.4688 6.80274 68.0762 6.40837C67.6836 6.014 67.5854 5.42246 67.5854 4.73231C67.5854 4.04217 67.7818 3.45063 68.1744 2.95767C68.567 2.5633 69.0577 2.36612 69.5485 2.36612C70.1374 2.36612 70.53 2.5633 70.8245 2.95767V0.394287H71.806V5.71823C71.806 6.1126 71.806 6.50696 71.806 6.90133ZM70.8245 5.02809V4.23936C70.8245 4.14077 70.8245 4.04217 70.8245 3.94358C70.7263 3.7464 70.6282 3.54922 70.4319 3.35203C70.2356 3.15485 70.0393 3.15485 69.7448 3.15485C69.3522 3.15485 69.0577 3.35203 68.8614 3.64781C68.6651 3.94358 68.567 4.33795 68.567 4.83091C68.567 5.32386 68.6651 5.61964 68.8614 5.91541C69.0577 6.21119 69.3522 6.40837 69.7448 6.40837C70.0393 6.40837 70.3337 6.30978 70.53 6.01401C70.7263 5.61964 70.8245 5.32387 70.8245 5.02809Z" fill="#070717"/>
<path d="M80.3451 4.63377C80.3451 5.32392 80.1488 5.91547 79.7562 6.30983C79.3636 6.80279 78.7746 6.99997 78.0876 6.99997C77.4005 6.99997 76.9097 6.80279 76.5171 6.30983C76.1245 5.91547 75.9282 5.32392 75.9282 4.63377C75.9282 3.94363 76.1245 3.35209 76.5171 2.95772C76.9097 2.46476 77.4987 2.26758 78.1857 2.26758C78.8728 2.26758 79.3636 2.46476 79.7562 2.95772C80.1488 3.35209 80.3451 3.94363 80.3451 4.63377ZM79.2654 4.63377C79.2654 4.23941 79.1672 3.84504 78.9709 3.54927C78.7746 3.1549 78.4802 3.05631 78.0876 3.05631C77.695 3.05631 77.4005 3.25349 77.2042 3.54927C77.0079 3.84504 76.9097 4.23941 76.9097 4.63377C76.9097 5.02814 77.0079 5.42251 77.2042 5.71828C77.4005 6.11265 77.695 6.21124 78.0876 6.21124C78.4802 6.21124 78.7746 6.01406 78.9709 5.61969C79.1672 5.42251 79.2654 5.02814 79.2654 4.63377Z" fill="#070717"/>
<path d="M85.7435 6.90134H84.762V4.33796C84.762 3.54923 84.4675 3.15486 83.8786 3.15486C83.5841 3.15486 83.3878 3.25345 83.1915 3.45064C82.9952 3.64782 82.8971 3.94359 82.8971 4.23937V6.90134H81.9155V3.64782C81.9155 3.25345 81.9155 2.85909 81.9155 2.36613H82.7989V3.05627C82.8971 2.85909 83.0934 2.6619 83.2897 2.46472C83.5841 2.26754 83.8786 2.16895 84.173 2.16895C84.5656 2.16895 84.9583 2.26754 85.2527 2.56331C85.6453 2.85909 85.7435 3.35205 85.7435 4.04219V6.90134Z" fill="#070717"/>
<path d="M92.4177 3.15498H91.338V5.32399C91.338 5.91554 91.5343 6.11272 91.9269 6.11272C92.1232 6.11272 92.2214 6.11272 92.4177 6.11272V6.90146C92.2214 7.00005 91.9269 7.00005 91.6325 7.00005C91.2399 7.00005 90.9454 6.90146 90.7491 6.60568C90.5528 6.4085 90.4547 5.91554 90.4547 5.42258V3.15498H89.7676V2.36625H90.4547V1.57751L91.4362 1.28174V2.36625H92.5158V3.15498H92.4177Z" fill="#070717"/>
<path d="M97.7186 6.90129H96.737V4.33791C96.737 3.54918 96.4426 3.15481 95.8537 3.15481C95.3629 3.15481 95.0685 3.35199 94.8721 3.84495C94.8721 3.94354 94.8721 4.04213 94.8721 4.23932V6.90129H93.8906V0.295654H94.8721V3.05622C95.1666 2.56326 95.6574 2.26749 96.2463 2.26749C96.6389 2.26749 97.0315 2.36608 97.2278 2.66185C97.5223 2.95763 97.7186 3.54917 97.7186 4.14072V6.90129Z" fill="#070717"/>
<path d="M103.117 4.43663C103.117 4.63382 103.117 4.73241 103.117 4.92959H100.172C100.172 5.42255 100.368 5.71832 100.565 5.91551C100.859 6.11269 101.153 6.21128 101.546 6.21128C102.037 6.21128 102.429 6.11269 102.724 6.0141L102.92 6.70424C102.528 6.90142 102.037 7.00001 101.448 7.00001C100.761 7.00001 100.172 6.80283 99.7794 6.40846C99.3867 6.0141 99.1904 5.42255 99.1904 4.73241C99.1904 4.04227 99.3867 3.45072 99.7794 3.05635C100.172 2.56339 100.663 2.36621 101.35 2.36621C102.037 2.36621 102.528 2.56339 102.822 3.05635C103.018 3.35213 103.117 3.84508 103.117 4.43663ZM102.233 4.14086C102.233 3.84508 102.135 3.54931 102.037 3.35213C101.841 3.05635 101.644 2.95776 101.252 2.95776C100.957 2.95776 100.663 3.05635 100.466 3.35213C100.27 3.54931 100.172 3.84508 100.172 4.14086H102.233Z" fill="#070717"/>
</svg>
