<svg width="144" height="144" viewBox="0 0 144 144" fill="none" xmlns="http://www.w3.org/2000/svg">
<path d="M56.9468 20.5237C64.4058 10.3539 79.5942 10.3539 87.0532 20.5237C90.7274 25.5331 96.6527 28.3867 102.86 28.1359C115.462 27.6268 124.932 39.5016 121.631 51.6741C120.005 57.6699 121.469 64.0817 125.535 68.7784C133.79 78.3134 130.41 93.1211 118.836 98.1301C113.134 100.597 109.034 105.739 107.897 111.847C105.589 124.246 91.905 130.836 80.7721 124.909C75.2883 121.99 68.7117 121.99 63.2279 124.909C52.095 130.836 38.4107 124.246 36.1029 111.847C34.9661 105.739 30.8656 100.597 25.1643 98.1301C13.5896 93.1211 10.2099 78.3134 18.4649 68.7784C22.5312 64.0817 23.9946 57.6699 22.3689 51.6741C19.0684 39.5016 28.5383 27.6268 41.14 28.1359C47.3473 28.3867 53.2726 25.5331 56.9468 20.5237Z" fill="url(#paint0_radial_1705_23338)"/>
<path d="M58.9417 25.0976C65.412 16.2758 78.5872 16.2758 85.0576 25.0976C88.6534 30.0003 94.4526 32.7931 100.528 32.5476C111.459 32.106 119.674 42.4068 116.811 52.9658C115.22 58.834 116.652 65.1092 120.632 69.7059C127.792 77.9771 124.861 90.8219 114.82 95.167C109.24 97.5818 105.227 102.614 104.114 108.592C102.113 119.347 90.2421 125.064 80.5849 119.923C75.2179 117.066 68.7813 117.066 63.4143 119.923C53.7571 125.064 41.8867 119.347 39.8848 108.592C38.7722 102.614 34.759 97.5818 29.1791 95.167C19.1387 90.8219 16.2069 77.9771 23.3677 69.7059C27.3474 65.1092 28.7797 58.834 27.1886 52.9658C24.3256 42.4068 32.5402 32.106 43.4715 32.5476C49.5466 32.7931 55.3458 30.0003 58.9417 25.0976Z" stroke="white" stroke-width="2.07692"/>
<path d="M51.2992 61.3257C50.8965 58.4174 48.6593 56.7299 45.7573 56.7299C42.3375 56.7299 39.7615 59.2228 39.7615 63.4543C39.7615 67.6794 42.3056 70.1787 45.7573 70.1787C48.8702 70.1787 50.9348 68.1652 51.2992 65.6659L48.9086 65.6532C48.6081 67.1873 47.3553 68.0502 45.7892 68.0502C43.6671 68.0502 42.1458 66.4586 42.1458 63.4543C42.1458 60.5012 43.6543 58.8584 45.7956 58.8584C47.3873 58.8584 48.6337 59.7597 48.9086 61.3257H51.2992ZM57.6513 70.1915C60.5277 70.1915 62.3558 68.1652 62.3558 65.129C62.3558 62.0864 60.5277 60.0537 57.6513 60.0537C54.7749 60.0537 52.9467 62.0864 52.9467 65.129C52.9467 68.1652 54.7749 70.1915 57.6513 70.1915ZM57.6641 68.3378C56.0724 68.3378 55.2926 66.9188 55.2926 65.1226C55.2926 63.3265 56.0724 61.8882 57.6641 61.8882C59.2301 61.8882 60.0099 63.3265 60.0099 65.1226C60.0099 66.9188 59.2301 68.3378 57.6641 68.3378ZM64.3198 69.9998H66.6337V64.0296C66.6337 62.8215 67.4391 62.0033 68.4363 62.0033C69.4142 62.0033 70.0854 62.6617 70.0854 63.6716V69.9998H72.3546V63.8762C72.3546 62.7704 73.013 62.0033 74.1316 62.0033C75.0648 62.0033 75.8063 62.553 75.8063 63.7675V69.9998H78.1266V63.4096C78.1266 61.2171 76.861 60.0537 75.0584 60.0537C73.633 60.0537 72.5463 60.7569 72.1117 61.8499H72.0094C71.6323 60.7377 70.6799 60.0537 69.3567 60.0537C68.04 60.0537 67.0556 60.7313 66.6465 61.8499H66.5314V60.1816H64.3198V69.9998ZM80.4741 69.9998H82.788V60.1816H80.4741V69.9998ZM81.6374 58.7881C82.3725 58.7881 82.9734 58.2256 82.9734 57.5353C82.9734 56.8385 82.3725 56.276 81.6374 56.276C80.896 56.276 80.2951 56.8385 80.2951 57.5353C80.2951 58.2256 80.896 58.7881 81.6374 58.7881ZM87.4814 64.2469C87.4814 62.8279 88.3379 62.0097 89.5588 62.0097C90.7541 62.0097 91.47 62.7959 91.47 64.1063V69.9998H93.7839V63.7483C93.7903 61.3961 92.448 60.0537 90.4217 60.0537C88.9515 60.0537 87.9416 60.7569 87.4941 61.8499H87.3791V60.1816H85.1674V69.9998H87.4814V64.2469ZM100.406 73.8861C103.059 73.8861 105.015 72.6716 105.015 70.1596V60.1816H102.733V61.8052H102.605C102.253 61.0956 101.518 60.0537 99.786 60.0537C97.5169 60.0537 95.7335 61.8307 95.7335 65.0587C95.7335 68.2611 97.5169 69.8591 99.7797 69.8591C101.461 69.8591 102.247 68.9579 102.605 68.2356H102.72V70.0956C102.72 71.5402 101.761 72.1347 100.444 72.1347C99.051 72.1347 98.4373 71.4763 98.1561 70.901L96.0723 71.406C96.4941 72.7803 97.9068 73.8861 100.406 73.8861ZM100.425 68.0438C98.8975 68.0438 98.0922 66.8549 98.0922 65.0459C98.0922 63.2625 98.8848 61.9522 100.425 61.9522C101.915 61.9522 102.733 63.1858 102.733 65.0459C102.733 66.9188 101.902 68.0438 100.425 68.0438ZM60.0739 80.7767C59.7543 79.1148 58.4247 78.0537 56.1236 78.0537C53.7585 78.0537 52.1477 79.2171 52.1541 81.0324C52.1477 82.4642 53.0298 83.4103 54.9155 83.8002L56.5902 84.1517C57.4915 84.3499 57.9134 84.7142 57.9134 85.2704C57.9134 85.9415 57.1847 86.4465 56.0852 86.4465C55.0241 86.4465 54.3338 85.9863 54.1357 85.1042L51.8793 85.3215C52.1669 87.124 53.6818 88.1915 56.0916 88.1915C58.5462 88.1915 60.2784 86.9195 60.2848 85.0594C60.2784 83.6596 59.3771 82.803 57.5234 82.4003L55.8487 82.0424C54.8516 81.8186 54.4553 81.4735 54.4616 80.9046C54.4553 80.2398 55.1903 79.7796 56.1555 79.7796C57.223 79.7796 57.7855 80.3613 57.9645 81.0069L60.0739 80.7767ZM66.4755 88.1915C69.3519 88.1915 71.18 86.1652 71.18 83.129C71.18 80.0864 69.3519 78.0537 66.4755 78.0537C63.5991 78.0537 61.771 80.0864 61.771 83.129C61.771 86.1652 63.5991 88.1915 66.4755 88.1915ZM66.4883 86.3378C64.8967 86.3378 64.1168 84.9188 64.1168 83.1226C64.1168 81.3265 64.8967 79.8882 66.4883 79.8882C68.0543 79.8882 68.8342 81.3265 68.8342 83.1226C68.8342 84.9188 68.0543 86.3378 66.4883 86.3378ZM77.4267 88.1915C80.3031 88.1915 82.1312 86.1652 82.1312 83.129C82.1312 80.0864 80.3031 78.0537 77.4267 78.0537C74.5502 78.0537 72.7221 80.0864 72.7221 83.129C72.7221 86.1652 74.5502 88.1915 77.4267 88.1915ZM77.4395 86.3378C75.8478 86.3378 75.068 84.9188 75.068 83.1226C75.068 81.3265 75.8478 79.8882 77.4395 79.8882C79.0055 79.8882 79.7853 81.3265 79.7853 83.1226C79.7853 84.9188 79.0055 86.3378 77.4395 86.3378ZM86.4091 82.2469C86.4091 80.8279 87.2656 80.0097 88.4865 80.0097C89.6818 80.0097 90.3977 80.7959 90.3977 82.1063V87.9998H92.7116V81.7483C92.718 79.3961 91.3757 78.0537 89.3494 78.0537C87.8793 78.0537 86.8693 78.7569 86.4219 79.8499H86.3068V78.1816H84.0952V87.9998H86.4091V82.2469Z" fill="white"/>
<defs>
<radialGradient id="paint0_radial_1705_23338" cx="0" cy="0" r="1" gradientUnits="userSpaceOnUse" gradientTransform="translate(144.281 45.714) rotate(149.857) scale(218.484 139.029)">
<stop stop-color="#FF6363"/>
<stop offset="1" stop-color="#4100FB"/>
</radialGradient>
</defs>
</svg>
