<svg width="161" height="50" viewBox="0 0 161 50" fill="none" xmlns="http://www.w3.org/2000/svg">
<path d="M155.904 49.1544H5.02917C2.26313 49.1544 0 46.9752 0 44.3117V5.57022C0 2.90675 2.26313 0.727539 5.02917 0.727539H155.904C158.67 0.727539 160.933 2.90675 160.933 5.57022V44.3117C160.933 46.9752 158.67 49.1544 155.904 49.1544Z" fill="#070717"/>
<path fill-rule="evenodd" clip-rule="evenodd" d="M28.0345 26.8345L13.3242 12.6697C13.4499 12.6697 13.4499 12.6697 13.5757 12.6697C14.2043 12.6697 14.4558 12.7907 14.833 13.0329L32.6865 22.4761L28.0345 26.8345Z" fill="url(#paint0_linear_1705_23259)"/>
<path fill-rule="evenodd" clip-rule="evenodd" d="M32.5614 31.072L28.0352 26.7136L32.6871 22.2341L39.0993 25.624C39.6023 25.8661 39.8537 26.2293 39.8537 26.5925C39.8537 26.9557 39.6023 27.3189 39.0993 27.5611L32.5614 31.072Z" fill="url(#paint1_linear_1705_23259)"/>
<path fill-rule="evenodd" clip-rule="evenodd" d="M89.3951 35.9C88.7665 35.4158 88.2635 34.5683 88.0121 34.084L90.0238 33.2366C90.1495 33.4787 90.401 33.8419 90.6524 34.2051C91.1553 34.6894 91.9097 35.1736 92.6641 35.1736C93.4185 35.1736 94.2985 34.8104 94.8015 34.2051C95.1786 33.5998 95.4301 32.9944 95.4301 32.147V31.4206C93.9214 33.2366 90.7781 32.9944 89.0179 31.0574C87.132 29.1203 87.132 25.8515 89.0179 23.9144C90.9038 22.0984 93.6699 21.8563 95.3044 23.5512V22.7037H97.4418V31.7838C97.4418 34.084 96.5617 35.4158 95.4301 36.2632C94.6757 36.8686 93.5442 37.1107 92.5383 37.1107C91.4068 36.9897 90.2752 36.6264 89.3951 35.9ZM142.076 36.3843L144.213 31.5416L140.441 23.188H142.579L145.219 29.1203L147.859 23.188H149.997L144.213 36.3843H142.076ZM131.892 31.7838C131.263 31.1784 131.011 30.331 131.011 29.4835C131.011 28.7571 131.263 28.0307 131.766 27.5464C132.646 26.699 133.903 26.3358 135.286 26.3358C136.166 26.3358 136.921 26.4568 137.549 26.82C137.549 25.3672 136.292 24.7619 135.286 24.7619C134.406 24.7619 133.526 25.2461 133.149 26.0936L131.263 25.3672C131.64 24.5197 132.646 22.9459 135.161 22.9459C136.418 22.9459 137.675 23.3091 138.43 24.1565C139.184 25.004 139.435 25.9725 139.435 27.3043V32.3891H137.298V31.5416C137.047 31.9048 136.544 32.147 136.166 32.3891C135.663 32.6312 135.035 32.7523 134.406 32.7523C133.652 32.6312 132.52 32.3891 131.892 31.7838ZM64.8779 27.4254C64.8779 25.004 66.7638 22.3405 70.1585 22.3405C73.4275 22.3405 75.4392 25.004 75.4392 27.4254C75.4392 29.8467 73.5532 32.5102 70.1585 32.5102C66.7638 32.5102 64.8779 29.8467 64.8779 27.4254ZM76.1935 27.4254C76.1935 25.004 78.0795 22.3405 81.4742 22.3405C84.7431 22.3405 86.7548 25.004 86.7548 27.4254C86.7548 29.8467 84.8689 32.5102 81.4742 32.5102C78.2052 32.5102 76.1935 29.8467 76.1935 27.4254ZM50.6705 30.0888C47.5273 27.0622 47.653 22.0984 50.7962 18.9507C52.4307 17.3768 54.4424 16.6504 56.5798 16.6504C58.5914 16.6504 60.6031 17.3768 62.1119 18.8296L60.6031 20.4035C58.34 18.2243 54.6938 18.3453 52.5564 20.5245C50.2933 22.8248 50.2933 26.3358 52.5564 28.636C54.8196 30.9363 58.5914 31.0574 60.8546 28.7571C61.6089 28.0307 61.8604 27.0622 61.9861 26.0936H56.7055V23.9144H64.1235C64.2493 24.3987 64.2493 25.004 64.2493 25.6094C64.2493 27.4254 63.4949 29.2414 62.2376 30.452C60.8546 31.7838 58.8429 32.5102 56.8312 32.5102C54.5681 32.3891 52.305 31.6627 50.6705 30.0888ZM103.854 30.9363C101.968 28.9992 101.968 25.7304 103.854 23.6723C105.74 21.7352 108.883 21.7352 110.643 23.6723C111.272 24.2776 111.649 25.1251 112.026 25.9726L105.111 28.7571C105.488 29.6046 106.369 30.331 107.626 30.331C108.757 30.331 109.512 29.9678 110.266 28.8782L112.152 30.0888C111.901 30.331 111.649 30.5731 111.523 30.8152C109.386 32.8734 105.74 32.8734 103.854 30.9363ZM116.93 32.3891V18.9507H121.456C124.096 18.9507 126.234 20.7667 126.234 22.9459C126.234 25.1251 124.348 26.9411 121.959 26.9411H119.193V32.268H116.93V32.3891ZM127.491 32.3891V18.9507H129.628V32.3891H127.491ZM99.0762 32.147V17.1347H101.339V32.147H99.0762ZM137.424 28.3939C136.921 28.0307 136.166 27.9096 135.412 27.9096C133.903 27.9096 133.023 28.636 133.023 29.4835C133.023 30.331 133.903 30.8152 134.783 30.8152C136.041 30.8152 137.424 29.8467 137.424 28.3939ZM73.0503 27.4254C73.0503 25.9726 72.0445 24.3987 70.1585 24.3987C68.2726 24.3987 67.2668 25.9726 67.2668 27.4254C67.2668 28.8782 68.2726 30.452 70.1585 30.452C71.9187 30.452 73.0503 28.8782 73.0503 27.4254ZM84.3659 27.4254C84.3659 25.9726 83.3601 24.3987 81.4742 24.3987C79.5882 24.3987 78.5824 25.9726 78.5824 27.4254C78.5824 28.8782 79.5882 30.452 81.4742 30.452C83.3601 30.452 84.3659 28.8782 84.3659 27.4254ZM95.5558 28.2728C95.5558 28.1518 95.5559 28.0307 95.6816 27.9096C95.6816 27.7886 95.6816 27.5464 95.6816 27.4254C95.6816 27.3043 95.6816 27.0622 95.6816 26.9411V26.82C95.6816 26.699 95.5558 26.4568 95.5558 26.3358C95.1787 25.1251 94.0471 24.2776 92.9155 24.2776C91.4068 24.2776 90.1495 25.7304 90.1495 27.3043C90.1495 28.9992 91.4068 30.331 93.0413 30.331C94.0471 30.452 95.0529 29.6046 95.5558 28.2728ZM104.734 27.1832L109.386 25.2461C108.883 24.3987 108.129 24.1565 107.5 24.1565C105.614 24.2776 104.483 26.2147 104.734 27.1832ZM123.971 23.0669C123.971 21.8563 122.965 21.0088 121.582 21.0088H119.067V25.2461H121.708C122.965 25.2461 123.971 24.2776 123.971 23.0669Z" fill="white"/>
<path fill-rule="evenodd" clip-rule="evenodd" d="M143.704 39.8263H143.583V39.7102H143.704H143.583V39.8263H143.704Z" fill="white"/>
<path fill-rule="evenodd" clip-rule="evenodd" d="M143.958 39.8265C143.958 39.7104 143.958 39.7104 143.958 39.8265C143.837 39.7104 143.837 39.7104 143.958 39.8265C143.837 39.8265 143.837 39.8265 143.958 39.8265ZM143.958 39.7104C143.958 39.8265 143.958 39.8265 143.958 39.7104C143.958 39.8265 143.837 39.8265 143.958 39.7104C143.837 39.7104 143.958 39.7104 143.958 39.7104Z" fill="white"/>
<path fill-rule="evenodd" clip-rule="evenodd" d="M144.082 39.7104H143.961H144.082V39.8265V39.7104Z" fill="white"/>
<defs>
<linearGradient id="paint0_linear_1705_23259" x1="11.8666" y1="14.9019" x2="30.7133" y2="25.4829" gradientUnits="userSpaceOnUse">
<stop stop-color="#24BBB6"/>
<stop offset="1" stop-color="#DBE692"/>
</linearGradient>
<linearGradient id="paint1_linear_1705_23259" x1="33.9374" y1="31.5806" x2="33.9374" y2="21.9577" gradientUnits="userSpaceOnUse">
<stop stop-color="#FCC072"/>
<stop offset="1" stop-color="#F58A5B"/>
</linearGradient>
</defs>
</svg>
