<svg width="106" height="32" viewBox="0 0 106 32" fill="black" xmlns="http://www.w3.org/2000/svg">

<path d="M15.878 32C24.6397 32 31.7424 24.8366 31.7424 16C31.7424 7.16344 24.6397 0 15.878 0C7.11639 0 0.0136719 7.16344 0.0136719 16C0.0136719 24.8366 7.11639 32 15.878 32Z" fill="url(#paint0_radial_0_1)"/>
<path d="M8.0621 24.3568H23.0486C23.4359 24.3568 23.6296 24.3568 23.743 24.312C24.1073 24.168 24.2619 23.7067 24.059 23.3694C23.9958 23.2644 23.8464 23.1493 23.5474 22.9191C20.691 20.7196 15.0777 16.7715 11.5895 16.7715C8.45394 16.7715 7.36391 21.0189 7.01381 23.157C6.98072 23.3594 6.96414 23.4605 6.97499 23.5734C7.00761 23.9134 7.28208 24.2397 7.60941 24.3276C7.71807 24.3568 7.83275 24.3568 8.0621 24.3568Z" fill="white"/>
<path d="M23.7125 7.66931H8.72604C8.33866 7.66931 8.14497 7.66931 8.03157 7.71412C7.66728 7.85806 7.51266 8.31931 7.71558 8.65669C7.77876 8.76172 7.92823 8.87681 8.22718 9.10697C11.0836 11.3064 16.6969 15.2546 20.1851 15.2546C23.3207 15.2546 24.4107 11.0071 24.7608 8.869C24.7939 8.66672 24.8105 8.56553 24.7996 8.45266C24.767 8.11262 24.4925 7.78634 24.1652 7.69847C24.0565 7.66931 23.9419 7.66931 23.7125 7.66931Z" fill="white"/>
<path d="M40.2349 22.3326H42.7075V15.5864C42.7075 12.7776 44.2431 11.3339 46.5856 11.3339C48.928 11.3339 50.4637 12.7776 50.4637 15.5864V22.3326H52.9363V15.5864C52.9363 11.2289 50.3856 9.02386 46.5856 9.02386C42.7856 9.02386 40.2349 11.2551 40.2349 15.5864V22.3326Z" fill="white"/>
<path d="M56.087 7.31754C57.076 7.31754 57.8048 6.55629 57.8048 5.55879C57.8048 4.56129 57.076 3.82629 56.087 3.82629C55.0979 3.82629 54.3691 4.56129 54.3691 5.55879C54.3691 6.55629 55.0979 7.31754 56.087 7.31754ZM54.8637 22.3325H57.3363V9.36504H54.8637V22.3325Z" fill="white"/>
<path d="M59.2266 22.3326H61.6992V15.5864C61.6992 12.7776 63.2348 11.3339 65.5773 11.3339C67.9197 11.3339 69.4554 12.7776 69.4554 15.5864V22.3326H71.928V15.5864C71.928 11.2289 69.3773 9.02386 65.5773 9.02386C61.7773 9.02386 59.2266 11.2551 59.2266 15.5864V22.3326Z" fill="white"/>
<path d="M79.9873 22.6739C82.9804 22.6739 85.3229 21.1251 86.312 18.7101H83.5791C82.8243 19.8389 81.653 20.3639 79.9873 20.3639C77.7489 20.3639 76.0311 19.0776 75.6667 16.7676H86.8585V15.8489C86.8585 11.9114 84.0476 9.02386 79.9873 9.02386C75.927 9.02386 73.064 11.9114 73.064 15.8489C73.064 19.7864 75.927 22.6739 79.9873 22.6739ZM75.7448 14.5364C76.2393 12.4889 77.853 11.3339 79.9873 11.3339C82.0695 11.3339 83.7613 12.4626 84.2558 14.5364H75.7448Z" fill="white"/>
<path d="M87.6602 22.3326H95.9493V20.1176L91.0264 20.1426L93.9167 17.3126C95.2453 16.0326 96.0583 14.8226 96.0583 13.1476C96.0583 10.5376 94.3777 8.99261 91.8444 8.99261C89.2664 8.99261 87.68 10.6576 87.68 13.3926V13.5726H90.0448V13.2926C90.0448 12.0526 90.6793 11.1876 91.8493 11.1876C93.0392 11.1876 93.6093 12.0726 93.6093 13.2526C93.6093 14.1876 92.9896 15.0526 92.0972 15.9126L87.6602 20.1926V22.3326Z" fill="white"/>
<path d="M101.238 22.6676C103.955 22.6676 105.982 20.7326 105.982 17.8726C105.982 15.2126 104.069 13.5126 101.753 13.5126C100.742 13.5126 99.9206 13.7898 99.3935 14.5476L99.805 11.3676H105.248V9.15265H97.931L97.0387 16.2276L99.1903 16.7926C99.5472 16.0526 100.266 15.5526 101.238 15.5526C102.626 15.5526 103.603 16.4926 103.603 17.8726C103.603 19.4526 102.626 20.4226 101.238 20.4226C100.068 20.4226 99.2299 19.6326 99.0316 18.5726H96.6123C96.7276 20.9747 98.6697 22.6676 101.238 22.6676Z" fill="white"/>
<defs>
<radialGradient id="paint0_radial_0_1" cx="0" cy="0" r="1" gradientUnits="userSpaceOnUse" gradientTransform="translate(31.8044 10.1587) rotate(149.645) scale(48.2446 30.8287)">
<stop stop-color="#FF6363"/>
<stop offset="1" stop-color="#4100FB"/>
</radialGradient>
</defs>
</svg>
