<svg width="118" height="28" viewBox="0 0 118 28" fill="none" xmlns="http://www.w3.org/2000/svg">
<path d="M38.1404 3.66736C38.1571 4.04293 38.0981 4.41801 37.9668 4.77001C37.8355 5.12202 37.6347 5.44366 37.3765 5.71556C37.0871 6.01593 36.7379 6.25147 36.3517 6.40677C35.9655 6.56207 35.5511 6.63363 35.1355 6.61677C34.7175 6.62614 34.3021 6.54917 33.9149 6.39063C33.5277 6.2321 33.1769 5.99536 32.8844 5.69508C32.2908 5.08468 31.9585 4.26496 31.9585 3.41134C31.9585 2.55771 32.2908 1.73799 32.8844 1.1276C33.3382 0.681791 33.9129 0.38076 34.5363 0.262325C35.1598 0.14389 35.8041 0.213335 36.3884 0.461934C36.7557 0.613737 37.0833 0.848514 37.3459 1.14808L36.806 1.69085C36.6038 1.44586 36.3474 1.25165 36.0575 1.12366C35.7675 0.995662 35.4518 0.937402 35.1355 0.953501C34.7362 0.956277 34.3437 1.05734 33.9923 1.24784C33.6408 1.43835 33.3411 1.7125 33.1194 2.04635C32.8976 2.38019 32.7606 2.76355 32.7203 3.16293C32.6799 3.56231 32.7375 3.96554 32.8879 4.33739C33.0384 4.70923 33.2771 5.03837 33.5833 5.29603C33.8895 5.55369 34.2538 5.73203 34.6443 5.81545C35.0349 5.89888 35.4399 5.88486 35.8238 5.77461C36.2077 5.66437 36.559 5.46126 36.8468 5.18303C37.1579 4.84006 37.3383 4.39748 37.3561 3.93363H35.1355V3.19628H38.0997C38.1229 3.35232 38.1365 3.50964 38.1404 3.66736Z" fill="white" stroke="white" stroke-width="0.2" stroke-miterlimit="10"/>
<path d="M42.8055 1.10695H40.0553V3.05274H42.5611V3.79009H40.0553V5.73588H42.8055V6.49372H39.2607V0.349121H42.8055V1.10695Z" fill="white" stroke="white" stroke-width="0.2" stroke-miterlimit="10"/>
<path d="M46.147 6.49372H45.3626V1.10695H43.6514V0.349121H47.899V1.10695H46.147V6.49372Z" fill="white" stroke="white" stroke-width="0.2" stroke-miterlimit="10"/>
<path d="M50.894 6.49372V0.349121H51.6784V6.49372H50.894Z" fill="white" stroke="white" stroke-width="0.2" stroke-miterlimit="10"/>
<path d="M55.1616 6.49372H54.3773V1.10695H52.666V0.349121H56.8627V1.10695H55.1616V6.49372Z" fill="white" stroke="white" stroke-width="0.2" stroke-miterlimit="10"/>
<path d="M64.8183 5.69504C64.5241 5.99107 64.1748 6.22591 63.7903 6.38613C63.4057 6.54635 62.9936 6.62881 62.5774 6.62881C62.1611 6.62881 61.749 6.54635 61.3645 6.38613C60.9799 6.22591 60.6306 5.99107 60.3364 5.69504C59.7606 5.07961 59.4399 4.26649 59.4399 3.42154C59.4399 2.5766 59.7606 1.76348 60.3364 1.14805C60.6243 0.843682 60.9725 0.603463 61.3585 0.44293C61.7445 0.282397 62.1598 0.205126 62.5774 0.216115C62.9944 0.209483 63.4083 0.288744 63.7937 0.449017C64.1791 0.60929 64.5278 0.847182 64.8183 1.14805C65.1112 1.44758 65.3414 1.80309 65.4954 2.19358C65.6493 2.58406 65.7239 3.0016 65.7147 3.42154C65.7281 3.84201 65.6554 4.26075 65.5012 4.65183C65.347 5.04291 65.1146 5.39798 64.8183 5.69504ZM60.917 5.18299C61.134 5.40407 61.3925 5.57962 61.6775 5.69943C61.9626 5.81924 62.2684 5.88094 62.5774 5.88094C62.8863 5.88094 63.1922 5.81924 63.4772 5.69943C63.7622 5.57962 64.0207 5.40407 64.2377 5.18299C64.6772 4.70282 64.9212 4.0741 64.9212 3.42154C64.9212 2.76899 64.6772 2.14027 64.2377 1.66009C64.0207 1.43901 63.7622 1.26347 63.4772 1.14366C63.1922 1.02384 62.8863 0.962148 62.5774 0.962148C62.2684 0.962148 61.9626 1.02384 61.6775 1.14366C61.3925 1.26347 61.134 1.43901 60.917 1.66009C60.4775 2.14027 60.2335 2.76899 60.2335 3.42154C60.2335 4.0741 60.4775 4.70282 60.917 5.18299Z" fill="white" stroke="white" stroke-width="0.2" stroke-miterlimit="10"/>
<path d="M66.8247 6.49372V0.349121H67.772L70.7464 5.13166V3.94371V0.349121H71.5307V6.49372H70.7158L67.609 1.48587V2.66359V6.49372H66.8247Z" fill="white" stroke="white" stroke-width="0.2" stroke-miterlimit="10"/>
<path d="M59.2463 15.4544C58.3881 15.4564 57.5497 15.7142 56.8373 16.1953C56.1248 16.6764 55.5702 17.359 55.2436 18.157C54.9171 18.9549 54.8332 19.8323 55.0026 20.6782C55.172 21.5241 55.5871 22.3004 56.1954 22.9091C56.8037 23.5178 57.5778 23.9315 58.4199 24.0978C59.2621 24.2642 60.1344 24.1757 60.9265 23.8437C61.7186 23.5116 62.395 22.9508 62.8702 22.2323C63.3453 21.5137 63.5978 20.6696 63.5958 19.8068C63.6041 19.2312 63.4971 18.6598 63.2812 18.1266C63.0653 17.5934 62.7449 17.1094 62.3391 16.7033C61.9333 16.2972 61.4503 15.9773 60.919 15.7628C60.3876 15.5482 59.8188 15.4433 59.2463 15.4544V15.4544ZM59.2463 22.449C58.7203 22.486 58.1953 22.363 57.7397 22.0961C57.2841 21.8291 56.919 21.4306 56.6916 20.9522C56.4643 20.4738 56.3854 19.9378 56.4652 19.4137C56.5449 18.8896 56.7796 18.4018 57.1388 18.0136C57.4979 17.6255 57.9649 17.3549 58.4791 17.2371C58.9932 17.1193 59.5307 17.1597 60.0217 17.3531C60.5126 17.5465 60.9344 17.884 61.2321 18.3215C61.5298 18.7591 61.6897 19.2766 61.691 19.8068C61.7074 20.1427 61.6567 20.4785 61.542 20.7945C61.4273 21.1104 61.2508 21.4 61.0229 21.6463C60.7951 21.8925 60.5205 22.0904 60.2154 22.2283C59.9102 22.3661 59.5807 22.4412 59.2463 22.449ZM49.7528 15.4544C48.8946 15.4564 48.0562 15.7142 47.3438 16.1953C46.6313 16.6764 46.0767 17.359 45.7501 18.157C45.4236 18.9549 45.3397 19.8323 45.5091 20.6782C45.6785 21.5241 46.0936 22.3004 46.7019 22.9091C47.3102 23.5178 48.0843 23.9315 48.9265 24.0978C49.7686 24.2642 50.6409 24.1757 51.433 23.8437C52.2251 23.5116 52.9015 22.9508 53.3767 22.2323C53.8518 21.5137 54.1043 20.6696 54.1023 19.8068C54.1106 19.2312 54.0036 18.6598 53.7877 18.1266C53.5718 17.5934 53.2514 17.1094 52.8456 16.7033C52.4398 16.2972 51.9568 15.9773 51.4255 15.7628C50.8941 15.5482 50.3253 15.4433 49.7528 15.4544V15.4544ZM49.7528 22.449C49.2268 22.486 48.7019 22.363 48.2463 22.0961C47.7907 21.8291 47.4255 21.4306 47.1982 20.9522C46.9708 20.4738 46.8919 19.9378 46.9717 19.4137C47.0514 18.8896 47.2861 18.4018 47.6453 18.0136C48.0044 17.6255 48.4714 17.3549 48.9856 17.2371C49.4997 17.1193 50.0372 17.1597 50.5282 17.3531C51.0192 17.5465 51.4409 17.884 51.7386 18.3215C52.0363 18.7591 52.1962 19.2766 52.1975 19.8068C52.2139 20.1427 52.1632 20.4785 52.0485 20.7945C51.9338 21.1104 51.7573 21.4 51.5294 21.6463C51.3016 21.8925 51.027 22.0904 50.7219 22.2283C50.4168 22.3661 50.0873 22.4412 49.7528 22.449ZM38.4666 16.7959V18.6393H42.867C42.798 19.5076 42.439 20.3268 41.8484 20.964C41.407 21.4162 40.876 21.7701 40.29 22.003C39.7039 22.2359 39.0758 22.3424 38.4462 22.3158C37.1495 22.3158 35.9058 21.7979 34.9889 20.8761C34.072 19.9542 33.5568 18.7039 33.5568 17.4002C33.5568 16.0964 34.072 14.8461 34.9889 13.9243C35.9058 13.0024 37.1495 12.4845 38.4462 12.4845C39.6894 12.4659 40.8897 12.9405 41.7872 13.8056L43.0809 12.505C42.4738 11.9013 41.7529 11.4255 40.9606 11.1054C40.1683 10.7854 39.3204 10.6275 38.4666 10.6411C37.561 10.6057 36.6577 10.7544 35.8106 11.0784C34.9636 11.4023 34.1904 11.8949 33.5372 12.5265C32.8841 13.1581 32.3645 13.9158 32.0096 14.7541C31.6546 15.5924 31.4717 16.4942 31.4717 17.4053C31.4717 18.3164 31.6546 19.2181 32.0096 20.0565C32.3645 20.8948 32.8841 21.6525 33.5372 22.2841C34.1904 22.9157 34.9636 23.4082 35.8106 23.7322C36.6577 24.0562 37.561 24.2049 38.4666 24.1695C39.3379 24.2044 40.2068 24.0537 41.0161 23.7272C41.8254 23.4007 42.5568 22.9057 43.1624 22.2749C44.232 21.0935 44.802 19.5397 44.7514 17.9429C44.7551 17.5586 44.7244 17.1747 44.6597 16.7959H38.4666ZM84.62 18.2297C84.3544 17.4439 83.8576 16.7578 83.1955 16.2622C82.5334 15.7666 81.7372 15.4849 80.9123 15.4544C80.3551 15.4533 79.8036 15.5671 79.2919 15.7888C78.7802 16.0105 78.3191 16.3353 77.9373 16.7432C77.5554 17.1512 77.2608 17.6335 77.0717 18.1604C76.8826 18.6874 76.803 19.2477 76.8378 19.8068C76.8291 20.7416 77.1214 21.6542 77.6711 22.4083C78.2209 23.1623 78.9985 23.7173 79.8878 23.9904C80.7771 24.2635 81.7305 24.24 82.6054 23.9234C83.4804 23.6068 84.23 23.0141 84.7423 22.2339L83.2653 21.2098C83.0451 21.5788 82.7328 21.8835 82.3593 22.0936C81.9859 22.3038 81.5643 22.4122 81.1364 22.408C80.6949 22.4263 80.2582 22.31 79.8837 22.0742C79.5092 21.8384 79.2144 21.4942 79.038 21.0869L84.8339 18.6803L84.62 18.2297ZM78.7121 19.6839C78.6914 19.3658 78.7341 19.0467 78.8376 18.7454C78.9412 18.4441 79.1034 18.1666 79.315 17.9291C79.5265 17.6917 79.783 17.499 80.0696 17.3625C80.3561 17.2259 80.6668 17.1482 80.9836 17.1339C81.3118 17.1138 81.6386 17.1914 81.9231 17.3572C82.2075 17.523 82.437 17.7695 82.5828 18.0658L78.7121 19.6839ZM74.006 23.9032H75.9109V11.102H74.006V23.9032ZM70.8891 16.4273H70.8178C70.5332 16.1015 70.1821 15.8413 69.7882 15.6645C69.3944 15.4878 68.9673 15.3986 68.5361 15.4032C67.4229 15.4574 66.3732 15.9402 65.6045 16.7515C64.8358 17.5627 64.407 18.6402 64.407 19.7607C64.407 20.8812 64.8358 21.9587 65.6045 22.7699C66.3732 23.5812 67.4229 24.064 68.5361 24.1183C68.9679 24.127 69.3964 24.0397 69.7908 23.8627C70.1852 23.6856 70.5359 23.4232 70.8178 23.0942H70.8891V23.7189C70.8891 25.3881 70.0029 26.2791 68.5768 26.2791C68.1005 26.2686 67.6379 26.116 67.248 25.8406C66.8581 25.5653 66.5583 25.1797 66.3868 24.7327L64.7366 25.4189C65.0417 26.1892 65.5722 26.8484 66.2579 27.3092C66.9435 27.77 67.7522 28.0107 68.5768 27.9996C70.8076 27.9996 72.6513 26.6785 72.6513 23.4628V15.7104H70.8891V16.4273ZM68.6991 22.449C68.0317 22.4071 67.4052 22.1111 66.9474 21.6212C66.4895 21.1312 66.2346 20.4842 66.2346 19.8119C66.2346 19.1396 66.4895 18.4926 66.9474 18.0027C67.4052 17.5127 68.0317 17.2167 68.6991 17.1749C69.0253 17.189 69.3453 17.269 69.6401 17.41C69.935 17.5511 70.1985 17.7503 70.4152 17.9959C70.6319 18.2414 70.7972 18.5283 70.9014 18.8394C71.0056 19.1505 71.0464 19.4795 71.0215 19.8068C71.0493 20.1352 71.0105 20.4659 70.9076 20.7788C70.8046 21.0918 70.6396 21.3804 70.4225 21.6274C70.2054 21.8744 69.9408 22.0746 69.6445 22.2158C69.3483 22.357 69.0267 22.4363 68.6991 22.449V22.449ZM93.5431 11.102H88.9797V23.9032H90.8845V19.049H93.5431C94.086 19.0882 94.6311 19.0145 95.1444 18.8326C95.6577 18.6507 96.1282 18.3644 96.5266 17.9916C96.925 17.6188 97.2428 17.1674 97.46 16.6657C97.6773 16.164 97.7894 15.6227 97.7894 15.0755C97.7894 14.5283 97.6773 13.9869 97.46 13.4852C97.2428 12.9835 96.925 12.5322 96.5266 12.1593C96.1282 11.7865 95.6577 11.5002 95.1444 11.3183C94.6311 11.1364 94.086 11.0627 93.5431 11.102V11.102ZM93.5431 17.2465H90.8845V12.8839H93.5838C93.8701 12.8839 94.1536 12.9406 94.418 13.0507C94.6825 13.1608 94.9228 13.3223 95.1252 13.5258C95.3276 13.7293 95.4882 13.9709 95.5977 14.2368C95.7073 14.5027 95.7637 14.7877 95.7637 15.0755C95.7637 15.3633 95.7073 15.6482 95.5977 15.9141C95.4882 16.18 95.3276 16.4216 95.1252 16.6251C94.9228 16.8286 94.6825 16.9901 94.418 17.1002C94.1536 17.2103 93.8701 17.267 93.5838 17.267L93.5431 17.2465ZM105.298 15.4134C104.604 15.3704 103.913 15.5328 103.31 15.8804C102.708 16.2281 102.219 16.7457 101.906 17.3694L103.587 18.0761C103.756 17.7682 104.011 17.5164 104.32 17.351C104.63 17.1857 104.98 17.1138 105.328 17.1441C105.57 17.1157 105.815 17.136 106.049 17.2039C106.283 17.2717 106.501 17.3857 106.691 17.5391C106.881 17.6926 107.038 17.8825 107.154 18.0978C107.27 18.3131 107.342 18.5494 107.366 18.7929V18.9158C106.753 18.5921 106.071 18.4234 105.379 18.4243C103.566 18.4243 101.712 19.4484 101.712 21.3122C101.73 21.7084 101.827 22.0969 101.997 22.4547C102.168 22.8124 102.408 23.1321 102.703 23.3948C102.999 23.6575 103.344 23.8579 103.718 23.9839C104.092 24.1099 104.487 24.1591 104.88 24.1285C105.358 24.1551 105.835 24.0534 106.261 23.8338C106.687 23.6143 107.047 23.2848 107.305 22.8791H107.366V23.9032H109.199V18.9773C109.199 16.7345 107.508 15.4339 105.339 15.4339L105.298 15.4134ZM105.064 22.4285C104.442 22.4285 103.576 22.111 103.576 21.3429C103.576 20.3188 104.656 19.9707 105.614 19.9707C106.219 19.9556 106.817 20.1042 107.345 20.4008C107.281 20.9569 107.019 21.4709 106.607 21.8475C106.195 22.2241 105.661 22.4378 105.104 22.449L105.064 22.4285ZM115.881 15.7104L113.701 21.261H113.64L111.379 15.7104H109.342L112.734 23.4731L110.798 27.7845H112.785L118 15.7104H115.881ZM98.7686 23.9032H100.663V11.102H98.7686V23.9032Z" fill="white"/>
<path d="M0.0238723 13.386V1.71123C0.00872393 1.48169 0.0387101 1.25139 0.112117 1.0335C0.185523 0.815608 0.300912 0.614393 0.451691 0.44135C0.584111 0.297977 0.675785 0.267254 0.838764 0.44135C3.41926 3.11084 6.02012 5.77349 8.64135 8.42932C10.3323 10.1601 12.013 11.8805 13.7344 13.601C13.8974 13.7649 13.9076 13.857 13.7344 14.0311L1.28695 26.4944C1.24692 26.5456 1.19586 26.5869 1.13764 26.6153C1.07941 26.6437 1.01553 26.6585 0.950812 26.6585C0.886089 26.6585 0.82221 26.6437 0.763985 26.6153C0.70576 26.5869 0.654706 26.5456 0.614669 26.4944C0.409552 26.3375 0.246355 26.1319 0.139694 25.8959C0.0330321 25.66 -0.0137637 25.4012 0.00349951 25.1426C0.00349951 22.8384 0.00349951 20.5342 0.00349951 18.23V13.386H0.0238723Z" fill="white"/>
<path d="M1.49121 0.00063468C1.75709 -0.00755811 2.01941 0.0637221 2.24499 0.205455L18.1456 9.15608C18.39 9.29946 18.39 9.37114 18.1965 9.55548C17.0149 10.7366 15.8367 11.9177 14.6619 13.0989C14.5295 13.2218 14.4582 13.2934 14.285 13.0989L1.62363 0.16449L1.49121 0.00063468Z" fill="white"/>
<path d="M2.67236 26.3919C6.52273 22.4867 10.3697 18.5848 14.2133 14.6864C14.4476 14.4407 14.5596 14.4714 14.7735 14.6864C15.7921 15.7105 16.7394 16.7346 17.7275 17.7587C17.9108 17.9328 17.921 18.0045 17.7275 18.1376L2.91683 26.3304C2.7946 26.2997 2.72329 26.3714 2.67236 26.3919Z" fill="white"/>
<path d="M24.6542 13.4987C24.6459 13.6919 24.5928 13.8806 24.4991 14.0495C24.4054 14.2185 24.2736 14.363 24.1143 14.4716C23.8811 14.6396 23.636 14.7902 23.3809 14.9222L18.899 17.4107C18.8644 17.4404 18.8241 17.4625 18.7805 17.4755C18.7369 17.4886 18.6912 17.4923 18.6461 17.4865C18.601 17.4808 18.5576 17.4656 18.5187 17.4419C18.4798 17.4183 18.4463 17.3867 18.4202 17.3493C17.3541 16.2569 16.2845 15.1611 15.2116 14.0619C15.0486 13.9083 15.0486 13.8161 15.2116 13.6625C16.4679 12.4199 17.714 11.1705 18.9499 9.91431C18.974 9.88056 19.0047 9.85208 19.0401 9.83059C19.0755 9.80911 19.1149 9.79507 19.1558 9.78932C19.1968 9.78358 19.2385 9.78625 19.2783 9.79717C19.3182 9.80809 19.3555 9.82704 19.3879 9.85287L23.8189 12.3619C24.0489 12.4555 24.2486 12.6112 24.396 12.8118C24.5435 13.0124 24.6328 13.2501 24.6542 13.4987V13.4987Z" fill="white"/>
</svg>
