<svg width="116" height="28" viewBox="0 0 116 28" fill="none" xmlns="http://www.w3.org/2000/svg">
<path d="M37.5216 3.66062C37.538 4.02735 37.48 4.3936 37.3511 4.73732C37.2222 5.08104 37.0251 5.39511 36.7716 5.66062C36.4875 5.95391 36.1447 6.18391 35.7656 6.33556C35.3864 6.48721 34.9796 6.55709 34.5716 6.54062C34.1612 6.54976 33.7534 6.47461 33.3733 6.3198C32.9931 6.165 32.6488 5.93384 32.3616 5.64062C31.7789 5.04459 31.4526 4.24416 31.4526 3.41062C31.4526 2.57708 31.7789 1.77665 32.3616 1.18062C32.8071 0.745303 33.3713 0.451355 33.9833 0.335708C34.5954 0.22006 35.228 0.287871 35.8016 0.53062C36.1622 0.67885 36.4838 0.908103 36.7416 1.20062L36.2116 1.73062C36.013 1.49139 35.7614 1.30176 35.4767 1.17677C35.192 1.05179 34.8821 0.994899 34.5716 1.01062C34.1796 1.01333 33.7943 1.11201 33.4492 1.29803C33.1042 1.48406 32.81 1.75176 32.5923 2.07775C32.3746 2.40373 32.2401 2.77808 32.2005 3.16806C32.1609 3.55804 32.2174 3.95178 32.3651 4.31488C32.5128 4.67797 32.7472 4.99936 33.0478 5.25096C33.3483 5.50256 33.706 5.6767 34.0894 5.75816C34.4728 5.83963 34.8704 5.82593 35.2473 5.71828C35.6242 5.61063 35.969 5.4123 36.2516 5.14062C36.557 4.80572 36.7342 4.37356 36.7516 3.92062H34.5716V3.20062H37.4816C37.5044 3.35299 37.5177 3.50661 37.5216 3.66062Z" fill="white" stroke="white" stroke-width="0.2" stroke-miterlimit="10"/>
<path d="M42.1016 1.16041H39.4016V3.06041H41.8616V3.78041H39.4016V5.68041H42.1016V6.42041H38.6216V0.42041H42.1016V1.16041Z" fill="white" stroke="white" stroke-width="0.2" stroke-miterlimit="10"/>
<path d="M45.3816 6.42041H44.6116V1.16041H42.9316V0.42041H47.1016V1.16041H45.3816V6.42041Z" fill="white" stroke="white" stroke-width="0.2" stroke-miterlimit="10"/>
<path d="M50.042 6.42041V0.42041H50.812V6.42041H50.042Z" fill="white" stroke="white" stroke-width="0.2" stroke-miterlimit="10"/>
<path d="M54.2317 6.42041H53.4617V1.16041H51.7817V0.42041H55.9017V1.16041H54.2317V6.42041Z" fill="white" stroke="white" stroke-width="0.2" stroke-miterlimit="10"/>
<path d="M63.7117 5.64055C63.4229 5.92961 63.0799 6.15892 62.7025 6.31537C62.325 6.47182 61.9204 6.55235 61.5117 6.55235C61.1031 6.55235 60.6985 6.47182 60.321 6.31537C59.9435 6.15892 59.6005 5.92961 59.3117 5.64055C58.7464 5.0396 58.4316 4.24562 58.4316 3.42055C58.4316 2.59549 58.7464 1.80151 59.3117 1.20055C59.5943 0.903353 59.9362 0.668787 60.3151 0.512032C60.6941 0.355276 61.1018 0.279823 61.5117 0.290554C61.9211 0.284078 62.3275 0.361473 62.7059 0.517975C63.0842 0.674476 63.4265 0.90677 63.7117 1.20055C63.9993 1.49304 64.2253 1.84019 64.3764 2.22148C64.5276 2.60278 64.6008 3.01049 64.5917 3.42055C64.6048 3.83112 64.5335 4.24001 64.3821 4.62189C64.2308 5.00376 64.0026 5.35048 63.7117 5.64055ZM59.8817 5.14055C60.0947 5.35643 60.3485 5.52784 60.6283 5.64484C60.9082 5.76183 61.2084 5.82207 61.5117 5.82207C61.815 5.82207 62.1153 5.76183 62.3951 5.64484C62.6749 5.52784 62.9287 5.35643 63.1417 5.14055C63.5732 4.67168 63.8127 4.05775 63.8127 3.42055C63.8127 2.78335 63.5732 2.16943 63.1417 1.70055C62.9287 1.48468 62.6749 1.31326 62.3951 1.19627C62.1153 1.07928 61.815 1.01903 61.5117 1.01903C61.2084 1.01903 60.9082 1.07928 60.6283 1.19627C60.3485 1.31326 60.0947 1.48468 59.8817 1.70055C59.4502 2.16943 59.2107 2.78335 59.2107 3.42055C59.2107 4.05775 59.4502 4.67168 59.8817 5.14055Z" fill="white" stroke="white" stroke-width="0.2" stroke-miterlimit="10"/>
<path d="M65.6816 6.42041V0.42041H66.6116L69.5316 5.09041V3.93041V0.42041H70.3016V6.42041H69.5016L66.4516 1.53041V2.68041V6.42041H65.6816Z" fill="white" stroke="white" stroke-width="0.2" stroke-miterlimit="10"/>
<path d="M58.2417 15.1703C57.3991 15.1723 56.5761 15.4241 55.8766 15.8938C55.1772 16.3636 54.6327 17.0302 54.3121 17.8093C53.9915 18.5885 53.9092 19.4452 54.0755 20.2712C54.2418 21.0972 54.6493 21.8553 55.2465 22.4497C55.8436 23.044 56.6037 23.448 57.4304 23.6104C58.2571 23.7728 59.1135 23.6865 59.8911 23.3622C60.6688 23.038 61.3328 22.4904 61.7993 21.7887C62.2657 21.0871 62.5136 20.2629 62.5117 19.4203C62.5198 18.8583 62.4148 18.3003 62.2028 17.7797C61.9909 17.259 61.6763 16.7864 61.2779 16.3898C60.8795 15.9933 60.4054 15.681 59.8838 15.4715C59.3621 15.2619 58.8037 15.1595 58.2417 15.1703V15.1703ZM58.2417 22.0003C57.7252 22.0365 57.2099 21.9164 56.7626 21.6557C56.3154 21.3951 55.9568 21.0059 55.7337 20.5388C55.5105 20.0717 55.4331 19.5482 55.5113 19.0365C55.5896 18.5248 55.82 18.0484 56.1726 17.6694C56.5252 17.2903 56.9837 17.0261 57.4884 16.9111C57.9932 16.7961 58.5208 16.8356 59.0028 17.0244C59.4849 17.2133 59.8989 17.5428 60.1912 17.97C60.4834 18.3973 60.6404 18.9027 60.6417 19.4203C60.6578 19.7483 60.608 20.0763 60.4954 20.3848C60.3828 20.6932 60.2095 20.9761 59.9858 21.2165C59.7621 21.457 59.4926 21.6502 59.193 21.7848C58.8935 21.9194 58.57 21.9927 58.2417 22.0003ZM48.9217 15.1703C48.0791 15.1723 47.2561 15.4241 46.5566 15.8938C45.8572 16.3636 45.3127 17.0302 44.9921 17.8093C44.6715 18.5885 44.5892 19.4452 44.7555 20.2712C44.9218 21.0972 45.3293 21.8553 45.9265 22.4497C46.5236 23.044 47.2837 23.448 48.1104 23.6104C48.9371 23.7728 49.7935 23.6865 50.5711 23.3622C51.3488 23.038 52.0128 22.4904 52.4793 21.7887C52.9457 21.0871 53.1936 20.2629 53.1917 19.4203C53.1998 18.8583 53.0948 18.3003 52.8828 17.7797C52.6709 17.259 52.3563 16.7864 51.9579 16.3898C51.5595 15.9933 51.0854 15.681 50.5638 15.4715C50.0421 15.2619 49.4837 15.1595 48.9217 15.1703V15.1703ZM48.9217 22.0003C48.4052 22.0365 47.8899 21.9164 47.4426 21.6557C46.9954 21.3951 46.6368 21.0059 46.4137 20.5388C46.1905 20.0717 46.1131 19.5482 46.1913 19.0365C46.2696 18.5248 46.5 18.0484 46.8526 17.6694C47.2052 17.2903 47.6637 17.0261 48.1684 16.9111C48.6732 16.7961 49.2008 16.8356 49.6828 17.0244C50.1649 17.2133 50.5789 17.5428 50.8712 17.97C51.1634 18.3973 51.3204 18.9027 51.3217 19.4203C51.3378 19.7483 51.288 20.0763 51.1754 20.3848C51.0628 20.6932 50.8895 20.9761 50.6658 21.2165C50.4421 21.457 50.1726 21.6502 49.873 21.7848C49.5735 21.9194 49.25 21.9927 48.9217 22.0003ZM37.8417 16.4803V18.2803H42.1617C42.0939 19.1281 41.7415 19.9281 41.1617 20.5503C40.7283 20.9918 40.2071 21.3375 39.6318 21.5649C39.0564 21.7922 38.4398 21.8963 37.8217 21.8703C36.5486 21.8703 35.3277 21.3646 34.4275 20.4644C33.5274 19.5643 33.0217 18.3434 33.0217 17.0703C33.0217 15.7973 33.5274 14.5764 34.4275 13.6762C35.3277 12.776 36.5486 12.2703 37.8217 12.2703C39.0421 12.2522 40.2206 12.7157 41.1017 13.5603L42.3717 12.2903C41.7756 11.7008 41.068 11.2362 40.2901 10.9237C39.5123 10.6112 38.6799 10.4571 37.8417 10.4703C36.9527 10.4357 36.0658 10.581 35.2343 10.8973C34.4027 11.2136 33.6436 11.6946 33.0024 12.3113C32.3612 12.9281 31.8511 13.6679 31.5027 14.4865C31.1542 15.3051 30.9746 16.1857 30.9746 17.0753C30.9746 17.965 31.1542 18.8455 31.5027 19.6641C31.8511 20.4827 32.3612 21.2226 33.0024 21.8393C33.6436 22.4561 34.4027 22.937 35.2343 23.2534C36.0658 23.5697 36.9527 23.7149 37.8417 23.6803C38.6971 23.7145 39.5501 23.5673 40.3446 23.2485C41.1391 22.9297 41.8572 22.4464 42.4517 21.8303C43.5018 20.6767 44.0613 19.1595 44.0117 17.6003C44.0152 17.2251 43.9851 16.8502 43.9217 16.4803H37.8417ZM83.1517 17.8803C82.8909 17.1131 82.4032 16.4431 81.7532 15.9592C81.1032 15.4752 80.3215 15.2002 79.5117 15.1703C78.9647 15.1693 78.4232 15.2804 77.9209 15.4969C77.4185 15.7133 76.9659 16.0305 76.591 16.4289C76.2161 16.8272 75.9269 17.2982 75.7413 17.8127C75.5556 18.3273 75.4775 18.8744 75.5117 19.4203C75.5031 20.3332 75.7901 21.2243 76.3298 21.9606C76.8695 22.6969 77.6328 23.2388 78.5059 23.5055C79.379 23.7721 80.3149 23.7492 81.1739 23.44C82.0328 23.1309 82.7687 22.5522 83.2717 21.7903L81.8217 20.7903C81.6055 21.1506 81.2989 21.4481 80.9323 21.6534C80.5657 21.8586 80.1518 21.9644 79.7317 21.9603C79.2982 21.9782 78.8695 21.8646 78.5019 21.6344C78.1342 21.4041 77.8448 21.0681 77.6717 20.6703L83.3617 18.3203L83.1517 17.8803ZM77.3517 19.3003C77.3314 18.9897 77.3733 18.6782 77.4749 18.3839C77.5766 18.0897 77.7359 17.8187 77.9436 17.5869C78.1512 17.355 78.4031 17.1669 78.6844 17.0335C78.9656 16.9002 79.2707 16.8243 79.5817 16.8103C79.9039 16.7907 80.2247 16.8665 80.504 17.0284C80.7833 17.1903 81.0086 17.431 81.1517 17.7203L77.3517 19.3003ZM72.7317 23.4203H74.6017V10.9203H72.7317V23.4203ZM69.6717 16.1203H69.6017C69.3223 15.8022 68.9775 15.5481 68.5909 15.3755C68.2043 15.203 67.785 15.1159 67.3617 15.1203C66.2688 15.1733 65.2383 15.6448 64.4836 16.4369C63.729 17.2291 63.308 18.2812 63.308 19.3753C63.308 20.4694 63.729 21.5216 64.4836 22.3138C65.2383 23.1059 66.2688 23.5773 67.3617 23.6303C67.7856 23.6388 68.2062 23.5536 68.5935 23.3807C68.9807 23.2079 69.3249 22.9516 69.6017 22.6303H69.6717V23.2403C69.6717 24.8703 68.8017 25.7403 67.4017 25.7403C66.934 25.7301 66.4799 25.581 66.0971 25.3122C65.7143 25.0433 65.42 24.6668 65.2517 24.2303L63.6317 24.9003C63.9312 25.6526 64.4519 26.2962 65.1251 26.7462C65.7982 27.1961 66.5921 27.4312 67.4017 27.4203C69.5917 27.4203 71.4017 26.1303 71.4017 22.9903V15.4203H69.6717V16.1203ZM67.5217 22.0003C66.8665 21.9595 66.2515 21.6704 65.802 21.192C65.3524 20.7136 65.1022 20.0818 65.1022 19.4253C65.1022 18.7689 65.3524 18.1371 65.802 17.6587C66.2515 17.1803 66.8665 16.8912 67.5217 16.8503C67.8419 16.8642 68.1561 16.9422 68.4455 17.08C68.735 17.2177 68.9937 17.4122 69.2065 17.652C69.4192 17.8918 69.5815 18.1719 69.6837 18.4757C69.786 18.7795 69.8261 19.1007 69.8017 19.4203C69.8289 19.741 69.7909 20.0639 69.6898 20.3695C69.5888 20.6751 69.4268 20.9569 69.2136 21.1981C69.0005 21.4393 68.7407 21.6347 68.4499 21.7726C68.159 21.9105 67.8433 21.988 67.5217 22.0003V22.0003ZM91.9117 10.9203H87.4317V23.4203H89.3017V18.6803H91.9117C92.4446 18.7186 92.9797 18.6467 93.4837 18.4691C93.9876 18.2914 94.4495 18.0119 94.8407 17.6478C95.2318 17.2838 95.5437 16.8431 95.757 16.3532C95.9703 15.8633 96.0804 15.3347 96.0804 14.8003C96.0804 14.266 95.9703 13.7374 95.757 13.2475C95.5437 12.7576 95.2318 12.3169 94.8407 11.9528C94.4495 11.5888 93.9876 11.3092 93.4837 11.1316C92.9797 10.954 92.4446 10.882 91.9117 10.9203V10.9203ZM91.9117 16.9203H89.3017V12.6603H91.9517C92.2327 12.6603 92.511 12.7157 92.7706 12.8232C93.0302 12.9308 93.2661 13.0884 93.4649 13.2871C93.6636 13.4858 93.8212 13.7218 93.9288 13.9814C94.0363 14.241 94.0917 14.5193 94.0917 14.8003C94.0917 15.0814 94.0363 15.3596 93.9288 15.6193C93.8212 15.8789 93.6636 16.1148 93.4649 16.3135C93.2661 16.5123 93.0302 16.6699 92.7706 16.7774C92.511 16.885 92.2327 16.9403 91.9517 16.9403L91.9117 16.9203ZM103.452 15.1303C102.771 15.0883 102.092 15.2469 101.5 15.5863C100.909 15.9258 100.429 16.4313 100.122 17.0403L101.772 17.7303C101.938 17.4297 102.189 17.1838 102.492 17.0224C102.795 16.8609 103.139 16.7907 103.482 16.8203C103.719 16.7926 103.96 16.8124 104.189 16.8787C104.419 16.9449 104.633 17.0562 104.819 17.206C105.005 17.3559 105.16 17.5414 105.274 17.7516C105.387 17.9618 105.458 18.1925 105.482 18.4303V18.5503C104.88 18.2343 104.211 18.0695 103.532 18.0703C101.752 18.0703 99.9317 19.0703 99.9317 20.8903C99.9493 21.2772 100.044 21.6565 100.212 22.0059C100.379 22.3552 100.614 22.6674 100.904 22.9239C101.194 23.1805 101.533 23.3761 101.9 23.4991C102.267 23.6222 102.656 23.6702 103.042 23.6403C103.511 23.6663 103.979 23.567 104.397 23.3526C104.815 23.1382 105.169 22.8165 105.422 22.4203H105.482V23.4203H107.282V18.6103C107.282 16.4203 105.622 15.1503 103.492 15.1503L103.452 15.1303ZM103.222 21.9803C102.612 21.9803 101.762 21.6703 101.762 20.9203C101.762 19.9203 102.822 19.5803 103.762 19.5803C104.356 19.5657 104.943 19.7107 105.462 20.0003C105.399 20.5434 105.141 21.0453 104.737 21.413C104.332 21.7808 103.808 21.9894 103.262 22.0003L103.222 21.9803ZM113.842 15.4203L111.702 20.8403H111.642L109.422 15.4203H107.422L110.752 23.0003L108.852 27.2103H110.802L115.922 15.4203H113.842ZM97.0417 23.4203H98.9017V10.9203H97.0417V23.4203Z" fill="white"/>
<path d="M0.101561 13.1506V1.75056C0.0866895 1.52642 0.116128 1.30154 0.188193 1.08878C0.260258 0.876015 0.373538 0.679534 0.521561 0.510564C0.651561 0.370564 0.74156 0.340564 0.90156 0.510564C3.43489 3.11723 5.98823 5.71723 8.56156 8.31056C10.2216 10.0006 11.8716 11.6806 13.5616 13.3606C13.7216 13.5206 13.7316 13.6106 13.5616 13.7806L1.34156 25.9506C1.30226 26.0005 1.25213 26.0408 1.19497 26.0686C1.13781 26.0963 1.0751 26.1108 1.01156 26.1108C0.948021 26.1108 0.885309 26.0963 0.828148 26.0686C0.770987 26.0408 0.720866 26.0005 0.681561 25.9506C0.480192 25.7973 0.319978 25.5965 0.215266 25.3662C0.110553 25.1358 0.0646128 24.883 0.0815606 24.6306C0.0815606 22.3806 0.0815606 20.1306 0.0815606 17.8806V13.1506H0.101561Z" fill="white"/>
<path d="M1.54199 0.0802096C1.80301 0.0722096 2.06054 0.141812 2.28199 0.28021L17.892 9.02021C18.132 9.16021 18.132 9.23021 17.942 9.41021C16.782 10.5635 15.6253 11.7169 14.472 12.8702C14.342 12.9902 14.272 13.0602 14.102 12.8702L1.67199 0.240209L1.54199 0.0802096Z" fill="white"/>
<path d="M2.70166 25.8504C6.48166 22.0371 10.2583 18.2271 14.0317 14.4204C14.2617 14.1804 14.3717 14.2104 14.5817 14.4204C15.5817 15.4204 16.5117 16.4204 17.4817 17.4204C17.6617 17.5904 17.6717 17.6604 17.4817 17.7904L2.94166 25.7904C2.82166 25.7604 2.75166 25.8304 2.70166 25.8504Z" fill="white"/>
<path d="M24.2816 13.2607C24.2735 13.4494 24.2214 13.6336 24.1294 13.7986C24.0373 13.9636 23.908 14.1047 23.7516 14.2107C23.5227 14.3747 23.282 14.5218 23.0316 14.6507L18.6316 17.0807C18.5977 17.1096 18.558 17.1312 18.5153 17.1439C18.4725 17.1567 18.4276 17.1604 18.3833 17.1547C18.3391 17.1491 18.2965 17.1342 18.2583 17.1111C18.2201 17.088 18.1872 17.0572 18.1616 17.0207C17.1149 15.954 16.0649 14.884 15.0116 13.8107C14.8516 13.6607 14.8516 13.5707 15.0116 13.4207C16.2449 12.2073 17.4683 10.9873 18.6816 9.76067C18.7053 9.72771 18.7354 9.6999 18.7702 9.67892C18.8049 9.65794 18.8436 9.64423 18.8838 9.63862C18.924 9.63301 18.9649 9.63562 19.004 9.64628C19.0432 9.65695 19.0798 9.67545 19.1116 9.70067L23.4616 12.1507C23.6874 12.242 23.8835 12.3941 24.0282 12.59C24.1729 12.7859 24.2606 13.018 24.2816 13.2607V13.2607Z" fill="white"/>
</svg>
