<svg width="821" height="663" viewBox="0 0 821 663" fill="none" xmlns="http://www.w3.org/2000/svg">
<path d="M598.678 107.395L594.936 117.077H347.596L309.36 215.984H298.824L305.618 225.656H563.493L605.472 117.077L598.678 107.395Z" fill="#F4B562"/>
<path d="M598.678 107.395L597.529 110.355L556.7 215.984H298.824L302.117 207.455L340.802 107.395H598.678Z" fill="url(#paint0_linear_2054_7127)"/>
<path d="M681.694 -7.82806e-06L664.946 25.0967L755.299 79.4592L772.046 54.3625L681.694 -7.82806e-06Z" fill="#FF6363"/>
<path d="M820.283 397.423L793.125 382.667L740.001 470.822L767.159 485.578L820.283 397.423Z" fill="url(#paint1_linear_2054_7127)"/>
<path d="M193.304 385.516L163 392.915L189.636 491.282L219.94 483.883L193.304 385.516Z" fill="#FFD15C"/>
<path d="M670.577 281.857H622.921V426.577H670.577V281.857Z" fill="white"/>
<path d="M598.678 107.395L597.529 110.355L538.768 140.98C538.149 141.301 537.451 141.461 536.746 141.442C536.041 141.424 535.353 141.229 534.753 140.876L514.776 129.044L493.18 145.135C492.748 145.454 492.252 145.685 491.722 145.814C491.192 145.942 490.64 145.966 490.1 145.883C489.56 145.8 489.044 145.613 488.584 145.332C488.124 145.052 487.729 144.684 487.425 144.252L471.934 122.281L434.102 153.789C433.358 154.409 432.397 154.743 431.408 154.726C430.418 154.709 429.471 154.341 428.752 153.695L417.812 143.941L407.637 154.724C407.099 155.294 406.391 155.695 405.608 155.875C404.824 156.055 404.002 156.005 403.249 155.731C402.496 155.457 401.848 154.973 401.392 154.343C400.935 153.712 400.69 152.965 400.69 152.2V130.592L354.106 181.038C353.637 181.55 353.031 181.933 352.352 182.146C351.674 182.359 350.947 182.393 350.249 182.247C349.551 182.1 348.907 181.777 348.387 181.312C347.866 180.847 347.487 180.257 347.29 179.604L340.977 158.983L301.45 215.984H298.824L302.106 207.455L337.827 156.022C338.247 155.421 338.839 154.947 339.534 154.655C340.229 154.363 340.997 154.265 341.748 154.375C342.499 154.484 343.202 154.795 343.773 155.271C344.344 155.747 344.759 156.368 344.971 157.061L351.316 177.838L398.119 127.153C398.65 126.573 399.356 126.16 400.141 125.971C400.926 125.782 401.753 125.826 402.512 126.096C403.27 126.366 403.923 126.85 404.384 127.483C404.844 128.116 405.09 128.867 405.088 129.636V151.254L414.847 140.928C415.2 140.536 415.635 140.218 416.125 139.995C416.615 139.771 417.148 139.647 417.691 139.63C418.223 139.611 418.753 139.693 419.251 139.871C419.749 140.05 420.205 140.321 420.59 140.668L431.531 150.454L469.428 118.894C469.854 118.541 470.355 118.278 470.896 118.122C471.437 117.966 472.007 117.922 472.568 117.991C473.129 118.065 473.668 118.25 474.148 118.535C474.629 118.819 475.041 119.197 475.358 119.642L490.806 141.572L512.325 125.585C512.969 125.108 513.752 124.829 514.567 124.787C515.383 124.744 516.192 124.939 516.888 125.346L536.908 137.199L594.17 107.415L598.678 107.395Z" fill="white"/>
<path d="M256.844 414.33L0 660.409H250.5L341.818 444.612L256.844 414.33Z" fill="url(#paint2_linear_2054_7127)"/>
<path d="M550.903 660.461H240.547L431.456 153.249C433.325 148.28 436.766 143.982 441.308 140.943C445.85 137.904 451.271 136.273 456.827 136.274H720.38C723.522 136.275 726.617 136.993 729.405 138.367C732.194 139.741 734.594 141.731 736.403 144.17C738.212 146.609 739.377 149.425 739.801 152.38C740.224 155.336 739.894 158.345 738.836 161.154L550.903 660.461Z" fill="url(#paint3_linear_2054_7127)"/>
<path d="M513.79 662.538H249.285L442.689 154.817C443.827 151.824 445.907 149.236 448.647 147.403C451.387 145.571 454.654 144.583 458.005 144.574H694.547C696.413 144.57 698.253 144.994 699.91 145.809C701.568 146.624 702.993 147.806 704.067 149.256C705.141 150.706 705.83 152.38 706.077 154.136C706.325 155.893 706.122 157.68 705.487 159.346L513.79 662.538Z" fill="white"/>
<path d="M725.508 207.933L720.596 220.773H475.674L426.519 349.309L412.898 351.044L420.94 363.884H678.815L733.55 220.773L725.508 207.933Z" fill="#4100FB"/>
<path d="M360.976 328.667C384.148 328.667 402.932 310.83 402.932 288.827C402.932 266.825 384.148 248.988 360.976 248.988C337.804 248.988 319.02 266.825 319.02 288.827C319.02 310.83 337.804 328.667 360.976 328.667Z" fill="#FF6363"/>
<path d="M670.774 351.044H412.898L467.633 207.933H725.508L670.774 351.044Z" fill="#E8E8F7"/>
<path d="M639.897 351.044H440.367L457.04 308.503H656.571L639.897 351.044Z" fill="url(#paint4_linear_2054_7127)"/>
<path d="M677.02 242.589H544.051L549.598 226.768H682.567L677.02 242.589Z" fill="#CFCFE8"/>
<path d="M518.743 398.986H385.773L391.309 383.164H524.289L518.743 398.986Z" fill="#CFCFE8"/>
<path d="M509.097 426.951H376.117L381.664 411.13H514.633L509.097 426.951Z" fill="#CFCFE8"/>
<path d="M480.233 354.347L538.381 398.363L574.419 344.489L514.936 302.083L480.233 354.347Z" fill="#FF6363"/>
<path d="M576.197 339.098C576.662 333.263 572.629 328.215 567.188 327.824C561.748 327.433 556.96 331.846 556.495 337.682C556.03 343.517 560.063 348.565 565.503 348.956C570.944 349.347 575.731 344.934 576.197 339.098Z" fill="#FF6363"/>
<path d="M522.967 293.176C522.695 293.176 522.499 293.08 522.378 292.89C522.282 292.699 522.282 292.426 522.379 292.068C522.475 291.711 522.641 291.283 522.875 290.783C523.103 290.307 523.387 289.759 523.727 289.14C523.858 289.021 523.964 288.902 524.046 288.783C524.152 288.664 524.246 288.545 524.328 288.426C524.409 288.307 524.475 288.2 524.526 288.104C524.576 288.009 524.627 287.914 524.677 287.819C524.728 287.723 524.762 287.64 524.782 287.569C524.907 287.378 525.19 286.973 525.629 286.354C526.068 285.735 526.582 285.021 527.171 284.212C527.761 283.402 528.334 282.605 528.893 281.819C529.482 281.009 529.986 280.331 530.406 279.783C530.832 279.212 531.08 278.891 531.148 278.819C531.247 278.819 531.381 278.736 531.549 278.569C531.718 278.402 531.837 278.236 531.907 278.069C531.952 277.903 532.006 277.748 532.069 277.605C532.157 277.462 532.255 277.331 532.361 277.212C532.467 277.093 532.57 276.986 532.67 276.891C532.77 276.795 532.87 276.7 532.969 276.605C533.069 276.51 533.144 276.415 533.195 276.319C533.276 276.2 533.33 276.093 533.356 275.998C533.324 276.117 533.545 275.891 534.021 275.319C534.496 274.748 535.11 273.986 535.861 273.034C536.619 272.058 537.421 271.01 538.266 269.891C539.143 268.748 539.97 267.653 540.748 266.606C541.556 265.534 542.217 264.641 542.731 263.927C543.246 263.213 543.519 262.796 543.551 262.677C543.758 262.368 543.985 262.213 544.232 262.213C544.256 262.213 544.334 262.201 544.463 262.177C544.593 262.153 544.707 262.141 544.806 262.141C544.806 262.141 544.828 262.153 544.87 262.177C544.938 262.201 545.054 262.272 545.219 262.391C545.249 262.463 545.282 262.57 545.317 262.713C545.377 262.856 545.403 263.034 545.394 263.249C545.417 263.439 545.396 263.653 545.331 263.891C545.248 264.106 545.16 264.296 545.065 264.463C544.977 264.606 544.861 264.76 544.717 264.927C544.605 265.07 544.442 265.26 544.23 265.498C544.017 265.737 543.748 266.046 543.423 266.427C543.104 266.784 542.707 267.248 542.232 267.82C541.869 268.248 541.415 268.784 540.871 269.427C540.333 270.046 539.793 270.677 539.248 271.32C538.704 271.962 538.213 272.546 537.775 273.069C537.368 273.569 537.09 273.915 536.94 274.105C536.896 274.177 536.836 274.26 536.761 274.355C536.692 274.427 536.624 274.498 536.555 274.569C536.511 274.641 536.451 274.724 536.376 274.819C536.332 274.891 536.276 274.962 536.207 275.034C535.875 275.438 535.491 275.903 535.053 276.426C534.621 276.926 534.236 277.391 533.898 277.819C533.567 278.224 533.357 278.498 533.269 278.641C533.218 278.736 533.152 278.843 533.071 278.962C533.02 279.057 532.964 279.129 532.902 279.176C532.803 279.176 532.725 279.236 532.668 279.355C532.618 279.45 532.505 279.641 532.328 279.926C532.183 280.188 531.855 280.581 531.343 281.105C530.979 281.629 530.515 282.295 529.95 283.105C529.417 283.89 528.846 284.724 528.237 285.604C527.628 286.485 527.038 287.342 526.467 288.176C525.896 289.009 525.416 289.735 525.026 290.354C524.63 290.997 524.372 291.449 524.251 291.711C524.053 292.354 523.869 292.759 523.7 292.926C523.557 293.092 523.312 293.176 522.967 293.176ZM524.264 287.569C523.869 287.569 523.518 287.545 523.21 287.497C522.927 287.45 522.758 287.39 522.704 287.319C522.383 287.319 522.042 287.164 521.682 286.854C521.329 286.521 521.053 286.128 520.855 285.676C520.656 285.224 520.612 284.795 520.722 284.39C520.832 283.986 521.07 283.652 521.437 283.39C521.804 283.128 522.203 282.974 522.636 282.926C523.093 282.878 523.514 282.962 523.9 283.176C523.331 283.819 523.125 284.307 523.281 284.64C523.469 284.95 524.204 285.105 525.486 285.105C525.832 285.105 526.103 285.105 526.3 285.105C526.529 285.081 526.782 285.057 527.06 285.033C527.387 285.009 527.689 284.985 527.967 284.962C528.276 284.914 528.56 284.866 528.82 284.819C530.099 284.557 531.016 284.224 531.57 283.819C532.123 283.414 532.492 283.057 532.674 282.747C532.771 282.39 532.869 282.164 532.969 282.069C533.1 281.95 533.181 281.831 533.214 281.712C533.272 281.498 533.339 281.295 533.415 281.105C533.523 280.89 533.562 280.652 533.535 280.39C533.538 280.105 533.41 279.76 533.149 279.355C532.92 278.926 532.507 278.402 531.91 277.783C531.815 277.498 531.677 277.188 531.496 276.855C531.346 276.498 531.133 276.236 530.857 276.069C530.791 275.95 530.734 275.795 530.687 275.605C530.647 275.391 530.593 275.272 530.525 275.248C530.568 275.272 530.514 275.153 530.363 274.891C530.212 274.629 530.207 274.236 530.349 273.712C530.497 273.165 530.776 272.593 531.184 271.998C531.616 271.403 532.19 270.879 532.904 270.427C533.166 270.189 533.533 269.927 534.005 269.641C534.508 269.332 534.974 269.07 535.402 268.855C535.861 268.617 536.128 268.498 536.202 268.498C536.399 268.498 536.709 268.403 537.13 268.213C537.583 267.998 538.263 267.855 539.17 267.784C539.721 267.665 540.125 267.582 540.385 267.534C540.651 267.463 540.895 267.427 541.117 267.427C541.191 267.427 541.327 267.427 541.524 267.427C541.746 267.427 542.201 267.57 542.888 267.855C543.532 268.117 543.929 268.427 544.079 268.784C544.229 269.141 544.222 269.486 544.058 269.82C543.925 270.129 543.718 270.391 543.438 270.605C543.183 270.82 542.944 270.927 542.722 270.927C542.524 270.927 542.297 270.855 542.04 270.712C541.783 270.57 541.488 270.427 541.157 270.284C540.85 270.141 540.475 270.07 540.031 270.07C539.192 270.07 538.424 270.129 537.726 270.248C537.052 270.367 536.379 270.712 535.706 271.284C534.962 271.665 534.399 272.058 534.018 272.462C533.637 272.867 533.408 273.212 533.33 273.498C533.354 273.593 533.367 273.772 533.37 274.034C533.404 274.272 533.491 274.498 533.63 274.712C534.175 275.522 534.591 276.129 534.876 276.534C535.192 276.914 535.405 277.176 535.514 277.319C535.648 277.462 535.721 277.557 535.732 277.605C535.751 277.629 535.747 277.688 535.721 277.783C535.746 277.783 535.788 277.855 535.848 277.998C535.939 278.117 536.024 278.26 536.102 278.426C536.198 278.617 536.27 278.807 536.317 278.998C536.395 279.164 536.428 279.271 536.415 279.319C536.428 279.271 536.47 279.391 536.54 279.676C536.617 279.938 536.65 280.319 536.638 280.819C536.657 281.295 536.582 281.843 536.414 282.462C536.363 282.652 536.181 282.914 535.869 283.247C535.563 283.557 535.204 283.878 534.793 284.212C534.389 284.521 534.022 284.783 533.692 284.997C533.276 285.259 532.823 285.521 532.333 285.783C531.873 286.021 531.384 286.235 530.863 286.426C530.368 286.616 529.842 286.783 529.285 286.926C528.914 287.021 528.518 287.116 528.098 287.212C527.708 287.283 527.294 287.354 526.855 287.426C526.448 287.473 526.019 287.509 525.568 287.533C525.143 287.557 524.708 287.569 524.264 287.569ZM549.774 290.426C549.608 290.402 549.402 290.295 549.158 290.104C548.914 289.914 548.676 289.7 548.444 289.461C548.206 289.247 548.029 289.08 547.914 288.961C547.851 288.557 547.811 288.247 547.795 288.033C547.779 287.819 547.876 287.462 548.085 286.962C548.163 286.676 548.278 286.343 548.43 285.962C548.608 285.581 548.815 285.271 549.052 285.033C549.354 284.557 549.777 283.997 550.321 283.355C550.89 282.712 551.483 282.069 552.101 281.426C552.744 280.783 553.334 280.2 553.87 279.676C554.438 279.129 554.853 278.736 555.115 278.498C555.476 278.164 555.674 277.891 555.707 277.676C555.772 277.438 555.644 276.998 555.325 276.355C555.298 276.093 555.238 275.903 555.147 275.784C555.062 275.641 555.069 275.569 555.168 275.569C555.168 275.569 555.141 275.534 555.086 275.462C555.063 275.367 555.036 275.236 555.008 275.069C554.728 274.736 554.682 274.224 554.869 273.534C555.08 272.843 555.449 272.165 555.975 271.498C556.602 270.641 557.332 269.903 558.166 269.284C559 268.665 559.8 268.308 560.565 268.213C560.83 268.236 561.28 268.308 561.913 268.427C562.572 268.546 563.239 268.677 563.916 268.82C564.617 268.963 565.152 269.129 565.519 269.32C565.783 269.439 566.107 269.653 566.492 269.962C566.902 270.272 567.262 270.581 567.573 270.891C567.883 271.2 568.032 271.427 568.018 271.57C567.998 271.641 568.013 271.724 568.061 271.82C568.14 271.891 568.176 271.986 568.169 272.105C568.246 272.367 568.223 272.724 568.1 273.177C568.002 273.629 567.858 274.069 567.668 274.498C567.478 274.926 567.28 275.248 567.074 275.462C566.277 276.129 565.742 276.51 565.469 276.605C565.32 276.7 565.14 276.819 564.929 276.962C564.742 277.105 564.544 277.2 564.333 277.248C564.165 277.414 564.003 277.557 563.847 277.676C563.716 277.795 563.601 277.855 563.503 277.855C563.424 277.783 563.335 277.748 563.236 277.748C563.144 277.724 563.085 277.76 563.059 277.855C563.046 277.903 562.844 278.01 562.454 278.176C562.088 278.343 561.716 278.486 561.339 278.605C560.961 278.724 560.729 278.76 560.644 278.712C560.644 278.712 560.607 278.712 560.533 278.712C560.459 278.712 560.335 278.76 560.161 278.855C559.853 278.807 559.935 279.188 560.406 279.998C560.696 281.021 560.848 282.009 560.861 282.962C560.906 283.89 560.675 284.605 560.17 285.105C559.424 286.128 558.689 286.973 557.966 287.64C557.249 288.283 556.733 288.592 556.419 288.569C556.419 288.569 556.348 288.604 556.205 288.676C556.087 288.747 555.957 288.819 555.814 288.89C555.719 289.057 555.579 289.164 555.394 289.211C555.226 289.283 555.084 289.307 554.967 289.283C554.771 289.188 554.357 289.307 553.724 289.64C553.345 289.854 552.877 290.033 552.321 290.176C551.764 290.319 551.232 290.414 550.726 290.461C550.245 290.509 549.927 290.497 549.774 290.426ZM551.36 287.712C551.6 287.735 551.937 287.676 552.371 287.533C552.829 287.39 553.312 287.2 553.82 286.962C554.354 286.723 554.837 286.485 555.272 286.247C556.223 285.652 556.914 285.057 557.347 284.462C557.804 283.866 557.99 283.271 557.905 282.676C557.834 282.39 557.757 282.081 557.675 281.748C557.593 281.414 557.516 281.152 557.444 280.962C557.354 280.748 557.26 280.593 557.163 280.498C557.09 280.402 557.002 280.319 556.898 280.248C556.898 280.248 556.813 280.331 556.645 280.498C556.507 280.64 556.342 280.843 556.147 281.105C555.786 281.438 555.57 281.64 555.502 281.712C555.433 281.783 555.327 281.902 555.183 282.069C554.965 282.236 554.763 282.39 554.576 282.533C554.39 282.676 554.25 282.783 554.156 282.855C554.137 282.926 554.005 283.14 553.76 283.497C553.522 283.831 553.259 284.164 552.971 284.497C552.183 285.402 551.635 286.152 551.325 286.747C551.041 287.342 551.052 287.664 551.36 287.712ZM560.25 276.069C560.89 275.617 561.368 275.355 561.684 275.284C561.999 275.212 562.195 275.307 562.272 275.569C562.296 275.665 562.546 275.605 563.023 275.391C563.532 275.153 564.038 274.831 564.543 274.427C564.762 274.165 564.834 274.034 564.76 274.034C564.711 274.034 564.713 273.843 564.767 273.462C564.856 273.224 564.908 273.034 564.922 272.891C564.936 272.748 564.864 272.605 564.705 272.462C564.546 272.319 564.234 272.153 563.767 271.962C562.38 271.439 561.253 271.272 560.388 271.462C559.529 271.629 558.826 272.129 558.279 272.962C558.009 273.415 557.835 273.784 557.757 274.069C557.68 274.355 557.685 274.7 557.773 275.105C557.969 275.2 558.082 275.331 558.11 275.498C558.146 275.641 558.163 275.712 558.163 275.712C558.105 275.926 558.175 276.034 558.372 276.034C558.389 276.153 558.527 276.284 558.784 276.426C559.041 276.569 559.53 276.45 560.25 276.069ZM572.283 289.176C572.184 289.176 571.983 289.009 571.678 288.676C571.399 288.342 571.349 287.842 571.53 287.176C571.754 286.438 572.087 285.664 572.529 284.855C573.001 284.021 573.435 283.283 573.831 282.64C574.096 282.212 574.316 281.855 574.492 281.569C574.692 281.283 574.803 281.105 574.822 281.033C574.797 281.033 574.655 281.057 574.396 281.105C574.161 281.152 573.861 281.212 573.496 281.283C572.223 281.521 571.266 281.64 570.624 281.64C570.008 281.64 569.574 281.283 569.324 280.569C569.214 280.426 569.088 280.164 568.945 279.783C568.801 279.402 568.741 278.986 568.765 278.533C568.814 278.081 569.04 277.7 569.445 277.391C569.853 276.795 570.166 276.367 570.385 276.105C570.604 275.843 570.754 275.653 570.836 275.534C570.942 275.415 571.012 275.296 571.044 275.176C571.081 275.129 571.138 275.057 571.213 274.962C571.288 274.867 571.375 274.772 571.475 274.676C571.794 274.319 572.228 273.855 572.778 273.284C573.352 272.712 573.938 272.141 574.537 271.57C575.167 270.974 575.728 270.451 576.221 269.998C576.72 269.522 577.075 269.213 577.286 269.07C577.454 268.998 577.742 268.891 578.15 268.748C578.584 268.605 578.887 268.534 579.06 268.534C579.257 268.534 579.406 268.665 579.508 268.927C579.641 269.165 579.733 269.415 579.786 269.677C579.838 269.939 579.852 270.117 579.826 270.212C579.826 270.212 579.807 270.236 579.769 270.284C579.732 270.331 579.66 270.415 579.554 270.534C579.416 270.677 579.217 270.867 578.955 271.105C578.718 271.343 578.375 271.653 577.926 272.034C577.54 272.367 577.038 272.855 576.42 273.498C575.808 274.117 575.183 274.784 574.546 275.498C573.939 276.188 573.414 276.807 572.97 277.355C572.525 277.903 572.277 278.272 572.226 278.462C572.193 278.581 572.205 278.676 572.259 278.748C572.345 278.795 572.511 278.819 572.758 278.819C573.091 278.772 573.388 278.724 573.648 278.676C573.932 278.629 574.191 278.581 574.426 278.533C574.71 278.486 574.958 278.438 575.168 278.391C575.385 278.319 575.586 278.26 575.771 278.212C575.988 278.141 576.177 278.081 576.338 278.033C576.53 277.962 576.7 277.879 576.849 277.783C577.21 277.545 577.519 277.224 577.777 276.819C578.034 276.415 578.417 275.867 578.925 275.176C579.251 274.7 579.565 274.272 579.865 273.891C580.197 273.486 580.494 273.117 580.757 272.784C581.67 271.689 582.405 270.891 582.959 270.391C583.521 269.867 583.826 269.605 583.875 269.605C583.949 269.605 584.096 269.701 584.316 269.891C584.536 270.082 584.74 270.284 584.928 270.498C585.081 270.665 585.199 270.82 585.284 270.962C585.375 271.081 585.414 271.165 585.401 271.212C585.323 271.498 585.169 271.796 584.937 272.105C584.736 272.391 584.461 272.724 584.111 273.105C583.761 273.486 583.345 273.974 582.863 274.569C582.306 275.26 581.774 275.95 581.266 276.641C580.765 277.307 580.276 277.974 579.799 278.641C579.329 279.283 578.887 279.914 578.472 280.533C578.058 281.152 577.666 281.736 577.295 282.283C576.372 283.688 575.721 284.724 575.343 285.39C574.965 286.057 574.741 286.521 574.67 286.783C574.63 287.021 574.625 287.223 574.654 287.39C574.57 287.7 574.39 287.997 574.116 288.283C573.847 288.545 573.543 288.759 573.201 288.926C572.86 289.092 572.554 289.176 572.283 289.176ZM583.291 288.176C582.931 287.866 582.78 287.604 582.838 287.39C582.778 287.247 582.686 287.176 582.563 287.176C582.482 287.2 582.441 287.081 582.438 286.819C582.459 286.557 582.487 286.271 582.522 285.962C582.581 285.652 582.636 285.45 582.686 285.354C582.837 285.164 583.06 285.021 583.357 284.926C583.679 284.831 583.973 284.795 584.237 284.819C584.533 284.819 584.668 284.914 584.641 285.105C584.639 285.295 584.782 285.45 585.07 285.569C585.383 285.688 585.814 285.735 586.364 285.712C587.061 285.688 587.719 285.581 588.338 285.39C588.981 285.2 589.586 284.926 590.151 284.569C590.741 284.212 591.301 283.783 591.832 283.283C592.094 282.95 592.374 282.509 592.671 281.962C592.967 281.414 593.198 280.926 593.363 280.498C593.529 280.069 593.55 279.855 593.426 279.855C593.426 279.855 593.424 279.771 593.42 279.605C593.441 279.438 593.44 279.26 593.417 279.069C593.391 278.712 593.204 278.355 592.857 277.998C592.516 277.617 592.158 277.343 591.784 277.176C591.624 277.129 591.267 277.129 590.711 277.176C590.156 277.224 589.686 277.272 589.303 277.319C588.902 277.343 588.668 277.343 588.6 277.319C588.564 277.272 588.546 277.248 588.546 277.248C588.429 277.224 588.251 277.105 588.014 276.891C587.8 276.676 587.603 276.45 587.42 276.212C587.263 275.974 587.2 275.795 587.233 275.676C587.327 275.51 587.54 275.224 587.872 274.819C588.203 274.415 588.594 273.974 589.044 273.498C589.518 273.022 589.989 272.558 590.457 272.105C590.925 271.653 591.346 271.284 591.719 270.998C592.672 270.212 593.718 269.629 594.857 269.248C596.003 268.843 597.075 268.665 598.073 268.713C598.782 268.736 599.287 268.832 599.587 268.998C599.918 269.141 600.18 269.403 600.373 269.784C600.48 270.117 600.461 270.462 600.314 270.82C600.168 271.177 599.971 271.45 599.722 271.641C599.473 271.831 599.22 271.855 598.963 271.712C598.675 271.498 598.229 271.415 597.624 271.462C597.019 271.51 596.358 271.629 595.641 271.82C595.071 272.01 594.606 272.177 594.247 272.319C593.894 272.439 593.621 272.629 593.426 272.891C593.308 272.962 593.215 273.034 593.146 273.105C593.102 273.177 593.034 273.2 592.942 273.177C592.942 273.177 592.892 273.224 592.792 273.319C592.699 273.391 592.639 273.474 592.613 273.569C592.451 273.712 592.336 273.819 592.267 273.891C592.23 273.938 592.175 273.915 592.102 273.819C592.102 273.819 592.092 273.855 592.073 273.927C592.053 273.998 592.018 274.081 591.968 274.177C591.898 274.343 591.915 274.462 592.019 274.534C592.154 274.581 592.45 274.629 592.905 274.676C593.496 274.772 593.927 274.867 594.197 274.962C594.498 275.034 594.909 275.248 595.429 275.605C596.016 275.986 596.367 276.557 596.481 277.319C596.627 278.057 596.602 278.879 596.406 279.783C596.241 280.664 595.987 281.509 595.645 282.319C595.429 282.843 595.245 283.247 595.094 283.533C594.942 283.819 594.626 284.212 594.145 284.712C593.372 285.474 592.46 286.152 591.411 286.747C590.368 287.319 589.308 287.771 588.231 288.104C587.154 288.438 586.165 288.628 585.264 288.676C584.395 288.7 583.737 288.533 583.291 288.176ZM599.349 286.89C598.786 287.057 598.332 287.14 597.986 287.14C597.648 287.116 597.307 286.962 596.965 286.676C596.601 286.2 596.557 285.724 596.834 285.247C597.142 284.747 597.719 284.259 598.563 283.783C599.134 283.497 599.53 283.355 599.752 283.355C600.005 283.331 600.34 283.414 600.757 283.605C601.461 284.105 601.679 284.664 601.413 285.283C601.153 285.878 600.465 286.414 599.349 286.89ZM611.057 288.64C610.884 288.64 610.58 288.581 610.143 288.461C609.732 288.342 609.302 288.2 608.854 288.033C608.436 287.842 608.121 287.64 607.908 287.426C607.256 286.735 606.859 285.974 606.714 285.14C606.577 284.283 606.59 283.414 606.755 282.533C606.944 281.652 607.207 280.819 607.543 280.033C608.227 278.51 609.204 276.998 610.474 275.498C611.75 273.974 613.128 272.712 614.607 271.712C615.397 271.165 616.164 270.701 616.909 270.32C617.653 269.939 618.418 269.665 619.203 269.498C619.494 269.427 619.886 269.391 620.379 269.391C620.904 269.367 621.252 269.355 621.425 269.355C621.918 269.355 622.432 269.462 622.966 269.677C623.531 269.867 623.997 270.105 624.364 270.391C624.737 270.653 624.891 270.903 624.826 271.141C624.781 271.308 624.724 271.474 624.654 271.641C624.584 271.808 624.463 271.843 624.292 271.748H623.922L624.002 272.819C624.049 273.01 624.064 273.272 624.048 273.605C624.038 273.915 623.997 274.2 623.926 274.462C623.862 274.7 623.728 275.057 623.525 275.534C623.353 275.986 623.135 276.474 622.869 276.998C622.629 277.522 622.386 278.01 622.14 278.462C621.918 278.914 621.73 279.248 621.573 279.462C621.46 279.605 621.372 279.748 621.309 279.891C621.276 280.01 621.247 280.117 621.222 280.212C621.071 280.402 620.821 280.736 620.47 281.212C620.119 281.688 619.868 282.021 619.718 282.212C619.593 282.307 619.484 282.39 619.391 282.462C619.322 282.533 619.324 282.617 619.397 282.712C619.378 282.783 619.271 282.95 619.077 283.212C618.889 283.45 618.692 283.676 618.486 283.89C618.305 284.105 618.177 284.212 618.103 284.212C618.103 284.212 618.063 284.224 617.982 284.247C617.933 284.247 617.899 284.283 617.879 284.355C617.853 284.45 617.613 284.7 617.158 285.105C616.728 285.509 616.232 285.926 615.672 286.354C615.361 286.593 614.883 286.902 614.237 287.283C613.597 287.64 612.968 287.962 612.347 288.247C611.759 288.509 611.328 288.64 611.057 288.64ZM611.912 285.212C612.183 285.212 612.452 285.176 612.718 285.105C612.99 285.009 613.236 284.878 613.453 284.712C613.975 284.426 614.497 284.045 615.021 283.569C615.569 283.093 616.063 282.545 616.502 281.926C616.87 281.569 617.18 281.2 617.431 280.819C617.713 280.414 618.156 279.736 618.76 278.783C619.028 278.522 619.251 278.2 619.428 277.819C619.605 277.438 619.729 277.117 619.8 276.855C619.871 276.593 619.968 276.236 620.09 275.784C620.238 275.331 620.403 274.95 620.585 274.641C620.753 274.022 620.837 273.665 620.838 273.569C620.846 273.45 620.789 273.296 620.668 273.105C620.589 273.034 620.472 272.962 620.319 272.891C620.191 272.819 620.04 272.784 619.867 272.784C619.695 272.784 619.447 272.831 619.126 272.927C618.835 272.998 618.575 273.093 618.345 273.212C618.147 273.308 617.946 273.319 617.743 273.248C617.565 273.177 617.493 273.081 617.525 272.962C617.615 272.629 617.436 272.653 616.987 273.034C616.57 273.391 616.003 273.891 615.286 274.534C614.726 274.962 614.224 275.403 613.781 275.855C613.369 276.284 613.15 276.545 613.124 276.641C613.098 276.736 613.029 276.855 612.916 276.998C612.804 277.141 612.685 277.307 612.559 277.498C612.39 277.664 612.168 277.938 611.892 278.319C611.617 278.7 611.341 279.081 611.065 279.462C610.82 279.819 610.647 280.093 610.546 280.283C610.52 280.379 610.449 280.64 610.333 281.069C610.224 281.474 610.12 281.855 610.024 282.212C609.914 282.617 609.846 282.914 609.819 283.105C609.792 283.295 609.787 283.45 609.804 283.569C609.846 283.688 609.896 283.866 609.955 284.105C610.008 284.271 610.102 284.474 610.234 284.712C610.398 284.926 610.504 285.081 610.553 285.176C610.759 285.414 610.906 285.509 610.993 285.462C611.111 285.39 611.417 285.307 611.912 285.212ZM622.916 288.461C622.83 288.414 622.693 288.283 622.504 288.069C622.34 287.854 622.183 287.616 622.032 287.354C621.887 287.069 621.797 286.854 621.762 286.712C621.72 286.593 621.778 286.378 621.936 286.069C622.118 285.759 622.259 285.604 622.358 285.604C622.419 285.652 622.54 285.569 622.721 285.354C622.903 285.14 623.087 284.914 623.275 284.676C623.47 284.414 623.573 284.259 623.586 284.212C623.637 284.116 623.718 284.045 623.829 283.997C623.972 283.926 624.102 283.855 624.22 283.783C624.395 283.593 624.607 283.402 624.856 283.212C625.136 282.997 625.357 282.819 625.519 282.676C625.781 282.438 626.235 282.081 626.882 281.605C627.529 281.129 628.167 280.64 628.796 280.14C629.463 279.593 630.048 279.117 630.552 278.712C631.063 278.283 631.353 277.986 631.423 277.819C631.423 277.819 631.47 277.783 631.563 277.712C631.688 277.617 631.821 277.533 631.964 277.462C632.107 277.391 632.299 277.272 632.542 277.105C632.809 276.938 633.036 276.784 633.222 276.641C633.323 276.45 633.492 276.236 633.73 275.998C633.998 275.736 634.288 275.486 634.599 275.248C634.874 274.962 635.142 274.653 635.405 274.319C635.675 273.962 635.857 273.7 635.951 273.534C636.096 273.272 636.113 273.117 636.003 273.069C635.899 272.998 635.598 272.879 635.101 272.712C634.56 272.522 634.015 272.486 633.465 272.605C632.915 272.724 632.127 273.081 631.103 273.677C630.738 273.748 630.391 273.843 630.063 273.962C629.76 274.081 629.512 274.129 629.321 274.105C629.236 274.057 629.154 273.95 629.076 273.784C628.997 273.617 628.904 273.462 628.794 273.319L628.84 271.784L630.152 271.177C631.331 270.558 632.419 270.093 633.415 269.784C634.443 269.451 635.273 269.391 635.906 269.605C636.177 269.605 636.414 269.641 636.617 269.712C636.826 269.76 636.93 269.784 636.93 269.784C637.134 269.76 637.392 269.855 637.704 270.07C638.04 270.284 638.349 270.558 638.628 270.891C638.933 271.224 639.114 271.558 639.171 271.891C639.411 272.462 639.372 273.153 639.054 273.962C638.736 274.772 638.149 275.617 637.294 276.498C637.132 276.641 636.78 276.938 636.238 277.391C635.696 277.843 635.077 278.355 634.379 278.926C633.713 279.474 633.1 279.962 632.539 280.39C632.004 280.819 631.658 281.093 631.503 281.212C631.311 281.283 630.954 281.509 630.431 281.89C629.933 282.271 629.385 282.7 628.788 283.176C628.221 283.628 627.729 284.033 627.312 284.39C626.925 284.724 626.757 284.89 626.806 284.89C626.756 284.985 626.879 284.985 627.176 284.89C627.505 284.771 627.789 284.676 628.031 284.605C628.433 284.485 628.894 284.378 629.413 284.283C629.963 284.164 630.507 284.069 631.044 283.997C631.582 283.926 632.038 283.878 632.415 283.855C632.816 283.831 633.044 283.855 633.099 283.926C633.116 284.045 633.14 284.093 633.171 284.069C633.233 284.021 633.264 283.997 633.264 283.997C633.359 283.831 633.68 283.783 634.228 283.855C634.801 283.926 635.302 284.033 635.732 284.176C635.984 284.247 636.168 284.343 636.283 284.462C636.424 284.581 636.481 284.688 636.455 284.783C636.455 284.783 636.464 284.843 636.481 284.962C636.529 285.057 636.605 285.188 636.707 285.354C637.018 285.664 636.928 285.997 636.437 286.354C635.97 286.712 635.266 286.807 634.324 286.64C633.683 286.64 633.143 286.676 632.704 286.747C632.593 286.795 632.376 286.819 632.056 286.819C631.735 286.819 631.424 286.831 631.121 286.854C630.69 286.807 630.24 286.831 629.77 286.926C629.306 286.997 628.741 287.128 628.072 287.319C627.831 287.39 627.457 287.497 626.949 287.64C626.442 287.783 625.897 287.926 625.316 288.069C624.735 288.211 624.212 288.319 623.749 288.39C623.31 288.461 623.033 288.485 622.916 288.461Z" fill="#4100FB"/>
<path d="M614.782 569.303H356.907L350.364 558.074L384.279 497.748L635.601 486.519L642.155 497.748L614.782 569.303Z" fill="#4100FB"/>
<path d="M608.24 558.074H350.364L377.726 486.519H635.601L608.24 558.074Z" fill="#E8E8F7"/>
<path d="M560.162 328.139C560.627 322.304 556.594 317.256 551.153 316.865C545.713 316.474 540.925 320.887 540.46 326.723C539.994 332.558 544.028 337.606 549.468 337.997C554.909 338.388 559.696 333.975 560.162 328.139Z" fill="#FF6363"/>
<path d="M545.412 316.445C545.878 310.609 541.845 305.562 536.404 305.171C530.964 304.779 526.176 309.193 525.711 315.028C525.245 320.864 529.279 325.911 534.719 326.302C540.16 326.694 544.947 322.28 545.412 316.445Z" fill="#FF6363"/>
<path d="M552.723 281.076C555.613 277.058 554.525 271.577 550.294 268.833C546.063 266.09 540.29 267.122 537.401 271.14L513.702 304.091C510.812 308.109 511.9 313.59 516.131 316.334C520.363 319.078 526.135 318.045 529.025 314.027L552.723 281.076Z" fill="#FF6363"/>
<path d="M554.157 263.274L554.148 263.269C551.135 261.314 547.023 262.05 544.965 264.912L541.713 269.433C539.655 272.294 540.43 276.198 543.444 278.153L543.453 278.159C546.466 280.113 550.578 279.377 552.636 276.516L555.888 271.995C557.946 269.133 557.171 265.229 554.157 263.274Z" fill="#070717"/>
<path d="M512.28 316.45L510.475 315.308C508.678 314.171 506.624 313.453 504.479 313.213C502.335 312.973 500.161 313.217 498.135 313.926C496.109 314.635 494.288 315.788 492.82 317.292C491.352 318.796 490.279 320.607 489.688 322.58L480.258 354.326L507.324 338.037L512.28 316.45Z" fill="#FF6363"/>
<path d="M543.942 529.806H410.973L416.519 513.985H549.489L543.942 529.806Z" fill="#CFCFE8"/>
<path d="M370.765 312.116L343.086 297.012L322.513 331.003L350.191 346.108L370.765 312.116Z" fill="#FF6363"/>
<path d="M392.262 245.435C392.262 245.435 415.762 253.798 412.392 278.595C411.885 281.8 411.56 285.028 411.419 288.267L399.089 286.656L399.57 270.534L395.686 285.275L377.952 282.262L373.51 300.961C371.468 309.537 372.239 318.501 375.721 326.648C379.202 334.795 385.226 341.735 392.984 346.535L328.677 325.436C319.087 322.293 311.117 315.802 306.385 307.282C301.652 298.762 300.512 288.85 303.197 279.561L305.943 270.035C307.646 264.13 310.574 258.608 314.556 253.793C318.537 248.977 323.492 244.966 329.129 241.994C334.766 239.022 340.971 237.15 347.381 236.486C353.791 235.823 360.275 236.383 366.454 238.132L392.262 245.435Z" fill="#070717"/>
<path d="M321.416 327.514L349.117 342.701L369.554 377.897C374.181 385.643 375.934 394.64 374.531 403.445C373.129 412.25 368.652 420.353 361.819 426.452L356.349 431.47C351.933 435.489 346.485 438.34 340.548 439.738C334.611 441.136 328.392 441.033 322.51 439.438L269.231 425.102C266.408 424.34 263.823 422.941 261.694 421.023C259.566 419.105 257.959 416.727 257.01 414.09C254.843 408.065 254.515 401.581 256.064 395.386C257.612 389.191 260.975 383.539 265.763 379.082L321.416 327.514Z" fill="#F4B562"/>
<path d="M310.647 446.357C335.492 446.357 355.634 427.232 355.634 403.64C355.634 380.048 335.492 360.923 310.647 360.923C285.801 360.923 265.66 380.048 265.66 403.64C265.66 427.232 285.801 446.357 310.647 446.357Z" fill="#FFD15C"/>
<path d="M269.514 386.322L245.533 466.728C238.943 488.817 241.598 512.47 252.944 532.743C264.29 553.016 283.449 568.341 306.416 575.515C345.399 587.684 387.776 585.485 425.13 569.355C464.139 552.501 495.936 523.529 515.279 487.214L550.397 406.974C550.397 406.974 549.675 355.614 480.302 341.34L408.501 443.583C405.496 448.073 401.261 451.701 396.25 454.081C391.24 456.46 385.641 457.499 380.056 457.088C375.585 456.765 371.242 455.522 367.328 453.445C363.414 451.368 360.024 448.506 357.393 445.058C354.762 441.611 352.953 437.661 352.093 433.482C351.232 429.304 351.34 424.998 352.41 420.863L354.838 411.514L269.514 386.322Z" fill="url(#paint5_linear_2054_7127)"/>
<path d="M527.582 144.574L530.055 147.577C531.028 148.75 532.269 149.699 533.685 150.35C535.101 151.002 536.654 151.339 538.227 151.337H591.43C595.089 151.343 598.657 150.252 601.626 148.221L606.889 144.595L527.582 144.574Z" fill="#070717"/>
<path d="M156.204 127.528C157.779 124.71 160.014 122.273 162.737 120.404C165.459 118.534 168.597 117.283 171.909 116.746C178.991 115.503 186.302 116.968 192.252 120.821C206.617 129.702 211.646 146.291 213.995 161.506C215.32 170.086 216.751 179.139 215.336 187.762C214.748 191.351 213.83 195.298 210.924 197.772C209.945 198.601 208.258 199.745 206.873 199.202C205.111 198.401 205.202 195.584 205.111 194.04C204.343 179.739 212.46 161.864 228.436 158.188C236.959 156.229 244.367 160.834 248.011 168.013C252.528 176.836 250.526 187.132 248.749 196.356C248.671 196.754 248.754 197.164 248.98 197.507C249.205 197.85 249.558 198.099 249.969 198.207C250.379 198.315 250.817 198.273 251.196 198.089C251.575 197.905 251.868 197.593 252.016 197.214C255.705 188.048 267.993 185.388 277.042 187.919C288.983 191.28 297.295 200.975 305.276 209.37C309.779 214.423 314.9 218.95 320.529 222.855C322.336 224.042 324.023 221.253 322.246 220.081C310.952 212.687 303.679 201.233 293.214 192.91C284.18 185.76 272.329 180.998 260.75 185.273C258.038 186.186 255.561 187.635 253.484 189.527C251.407 191.418 249.777 193.707 248.704 196.242L251.971 197.1C253.793 187.604 255.72 177.337 251.73 168.084C248.583 160.791 242.108 154.842 233.51 154.399C224.912 153.956 216.947 158.775 211.677 164.738C205.726 171.675 202.228 180.216 201.678 189.149C201.437 192.795 200.925 198.373 204.027 201.133C206.843 203.621 210.758 202.148 213.243 200.003C216.646 197.143 217.76 192.695 218.528 188.563C219.253 183.639 219.354 178.651 218.829 173.704C217.323 155.686 214.146 135.236 199.555 122.223C192.734 116.145 183.654 112.213 174.168 113.128C165.524 113.957 157.167 118.29 153.192 125.841C152.228 127.7 155.15 129.33 156.204 127.471V127.528Z" fill="url(#paint6_radial_2054_7127)"/>
<path d="M582.783 511.107L594.293 525.651L594.555 523.76C589.894 527.207 584.712 529.967 579.184 531.946C577.226 532.653 578.09 535.665 580.048 534.949C586.104 532.779 591.777 529.749 596.875 525.963C597.132 525.721 597.296 525.405 597.342 525.064C597.387 524.723 597.312 524.378 597.126 524.082L585.617 509.539C584.359 507.949 581.514 509.539 582.783 511.107Z" fill="#4100FB"/>
<path d="M412.494 428.53C407.867 416.355 415.011 403.255 425.623 396.253C436.563 389.044 450.436 387.07 463.389 388.898C478.432 390.976 492.425 397.417 505.52 404.481C518.442 411.501 530.72 419.539 542.225 428.509C548.016 432.997 553.629 437.679 559.062 442.554C564.117 447.073 569.937 451.904 572.114 458.407C573.821 463.487 572.924 470.26 567.487 472.951C562.049 475.641 555.069 473.055 551.711 468.504C543.899 457.919 549.883 443.302 558.001 434.649C567.475 424.84 580.549 418.855 594.531 417.923C610.263 416.885 624.683 423.284 639.562 427.003C654.865 430.83 670.638 432.702 686.463 432.571C690.358 432.571 694.242 432.374 698.125 432.104C700.215 431.958 700.237 428.842 698.125 428.987C681.1 430.219 663.977 429.085 647.296 425.621C638.982 423.876 630.941 421.341 622.823 418.952C615.022 416.656 607.025 414.745 598.754 414.713C583.807 414.663 569.402 420.023 558.472 429.704C548.757 438.492 541.536 452.558 546.295 465.294C548.56 471.372 553.625 476.161 560.518 477.023C563.627 477.494 566.812 476.905 569.508 475.359C572.204 473.813 574.236 471.41 575.243 468.577C577.53 462.344 575.243 455.654 571.348 450.501C566.819 444.58 560.682 439.656 554.938 434.805C543.089 424.684 530.376 415.515 516.931 407.39C503.464 399.328 489.011 391.807 473.574 387.787C459.527 384.151 444.462 383.985 431.027 389.75C418.457 395.142 408.282 406.309 407.724 419.814C407.588 423.061 408.111 426.302 409.267 429.361C409.978 431.241 413.151 430.4 412.429 428.54L412.494 428.53Z" fill="url(#paint7_radial_2054_7127)"/>
<path d="M449.307 200.191C449.307 200.191 449.187 200.139 448.949 200.036C448.703 199.959 448.43 199.882 448.131 199.805C447.859 199.728 447.643 199.689 447.483 199.689C447.084 199.586 446.84 199.354 446.751 198.994C446.655 198.659 446.716 198.286 446.934 197.874C447.069 197.771 447.208 197.553 447.352 197.218C447.496 196.883 447.596 196.613 447.652 196.407C447.814 196.201 447.919 196.06 447.967 195.983C448.021 195.88 448.158 195.622 448.376 195.21C448.575 194.773 448.872 194.168 449.268 193.396C449.697 192.598 450.154 191.749 450.638 190.848C451.149 189.947 451.636 189.085 452.099 188.261C452.562 187.437 452.964 186.742 453.304 186.176C453.671 185.61 453.904 185.288 454.005 185.211C454.005 185.211 454.016 185.172 454.037 185.095C454.065 184.992 454.093 184.889 454.12 184.786C454.12 184.786 454.165 184.67 454.255 184.439C454.378 184.181 454.588 183.898 454.885 183.589C455.068 183.306 455.245 182.997 455.416 182.663C455.586 182.328 455.686 182.109 455.714 182.007C455.855 181.878 456.086 181.569 456.405 181.08C456.757 180.565 457.093 180.063 457.413 179.574C457.684 179.162 457.976 178.725 458.288 178.262C458.627 177.798 458.909 177.399 459.133 177.065C459.383 176.73 459.509 176.563 459.509 176.563C459.536 176.46 459.55 176.408 459.55 176.408C459.557 176.383 459.561 176.37 459.561 176.37C459.695 176.267 460.088 175.752 460.739 174.825C461.424 173.873 462.329 172.651 463.453 171.158C463.616 170.952 463.863 170.63 464.195 170.193C464.533 169.729 464.717 169.446 464.745 169.343C465.249 168.957 465.671 168.828 466.009 168.957C466.381 169.06 466.669 169.279 466.871 169.613C467.101 169.948 467.244 170.257 467.3 170.54L467.533 171.158L465.3 173.937C464.678 174.658 464.127 175.314 463.646 175.906C463.193 176.498 462.952 176.846 462.924 176.949C462.924 176.949 462.815 177.103 462.598 177.412C462.408 177.721 462.167 178.12 461.874 178.609C461.589 179.072 461.303 179.536 461.018 179.999C460.508 180.797 460.047 181.466 459.634 182.007C459.227 182.521 459.01 182.83 458.983 182.933C458.997 182.882 459.274 182.843 459.814 182.817C460.381 182.792 461.078 182.779 461.904 182.779C462.731 182.779 463.571 182.779 464.424 182.779C465.311 182.753 466.102 182.74 466.795 182.74C467.495 182.714 467.986 182.676 468.266 182.624L470.399 182.431L472.45 178.995C472.858 178.274 473.375 177.399 474.001 176.37C474.626 175.34 475.17 174.465 475.632 173.744C476.38 172.56 477.056 171.737 477.662 171.274C478.274 170.784 478.74 170.54 479.06 170.54C479.14 170.54 479.266 170.617 479.438 170.772C479.643 170.9 479.841 171.055 480.032 171.235C480.223 171.415 480.325 171.582 480.336 171.737C480.579 172.02 480.639 172.342 480.515 172.702C480.417 173.062 480.075 173.539 479.488 174.131C478.873 174.825 478.307 175.585 477.79 176.408C477.308 177.206 476.89 177.863 476.537 178.377C476.453 178.686 476.343 178.944 476.208 179.15C476.079 179.33 475.947 179.471 475.813 179.574C475.745 179.626 475.586 179.819 475.336 180.153C475.085 180.488 474.848 180.823 474.624 181.157C474.4 181.492 474.277 181.698 474.256 181.775C474.208 181.955 474.108 182.174 473.959 182.431C473.809 182.689 473.667 182.869 473.532 182.972C473.437 183.126 473.212 183.512 472.858 184.13C472.504 184.748 472.092 185.481 471.622 186.331C471.159 187.154 470.686 187.965 470.203 188.763C469.727 189.535 469.313 190.179 468.96 190.693C468.911 190.874 468.782 191.105 468.572 191.388C468.369 191.646 468.239 191.877 468.183 192.083C467.993 192.392 467.755 192.778 467.47 193.241C467.184 193.705 467.024 194.001 466.989 194.129C466.695 194.721 466.364 195.404 465.995 196.176C465.652 196.948 465.347 197.63 465.08 198.222C464.84 198.814 464.709 199.148 464.688 199.226C463.974 199.303 463.478 199.213 463.201 198.955C462.924 198.698 462.653 198.518 462.388 198.415C461.958 198.132 461.749 197.771 461.761 197.334C461.792 196.922 462.035 196.42 462.489 195.828C462.678 195.622 462.974 195.12 463.377 194.322C463.813 193.499 464.246 192.688 464.676 191.89C464.94 191.504 465.246 191.015 465.593 190.423C465.94 189.831 466.271 189.252 466.584 188.686C466.931 188.094 467.227 187.592 467.472 187.18C467.717 186.768 467.873 186.537 467.94 186.485C467.968 186.382 467.992 186.292 468.013 186.215C468.034 186.138 468.045 186.099 468.045 186.099C468.005 186.048 467.749 186.009 467.276 185.983C466.81 185.932 466.2 185.919 465.447 185.945C464.727 185.945 463.933 185.97 463.066 186.022C462.205 186.048 461.375 186.112 460.573 186.215C460.28 186.215 459.853 186.215 459.293 186.215C458.76 186.215 458.387 186.215 458.173 186.215C457.88 186.215 457.627 186.215 457.413 186.215C457.227 186.215 457.133 186.215 457.133 186.215C457.059 186.292 456.883 186.549 456.604 186.987C456.352 187.425 456.036 187.952 455.655 188.57C455.301 189.188 454.93 189.818 454.543 190.462C454.182 191.105 453.848 191.697 453.542 192.238C453.269 192.752 453.074 193.126 452.958 193.357C452.726 193.821 452.422 194.4 452.047 195.095C451.699 195.79 451.321 196.497 450.912 197.218C450.523 197.965 450.176 198.608 449.869 199.148C449.589 199.689 449.402 200.036 449.307 200.191ZM471.796 196.021C471.638 195.815 471.562 195.506 471.567 195.095C471.598 194.683 471.68 194.284 471.811 193.898C471.949 193.486 472.1 193.177 472.262 192.971C472.318 192.765 472.386 192.611 472.468 192.508C472.583 192.379 472.641 192.263 472.642 192.16C472.643 192.057 472.719 191.877 472.868 191.62C473.018 191.363 473.164 191.118 473.307 190.886C473.605 190.475 473.962 189.947 474.376 189.303C474.797 188.634 475.219 187.965 475.64 187.296C476.068 186.601 476.429 186.009 476.721 185.52C477.021 185.005 477.198 184.696 477.252 184.593C477.336 184.284 477.594 184.117 478.028 184.091C478.376 183.988 478.728 184.117 479.084 184.477C479.439 184.838 479.695 185.224 479.85 185.636C480.007 185.842 480.014 186.112 479.87 186.446C479.726 186.781 479.424 187.257 478.963 187.875C478.801 188.081 478.573 188.428 478.281 188.917C478.022 189.381 477.824 189.767 477.687 190.076C477.524 190.282 477.311 190.578 477.046 190.964C476.815 191.324 476.601 191.671 476.404 192.006C476.315 192.135 476.196 192.379 476.045 192.74C475.901 193.074 475.74 193.422 475.563 193.782C475.385 194.142 475.201 194.425 475.012 194.631C474.486 195.687 473.892 196.304 473.23 196.485C472.595 196.665 472.117 196.51 471.796 196.021ZM480.31 180.539C480.073 180.334 479.913 180.089 479.829 179.806C479.78 179.497 479.773 179.227 479.809 178.995C479.872 178.763 479.937 178.622 480.004 178.57C480.347 178.287 480.675 177.914 480.987 177.451C481.326 176.988 481.668 176.563 482.013 176.177C482.087 176.1 482.181 175.997 482.296 175.868C482.445 175.713 482.576 175.623 482.689 175.598C483.065 175.392 483.502 175.405 483.999 175.636C484.523 175.868 484.862 176.19 485.017 176.601C485.125 177.09 485.056 177.592 484.81 178.107C484.59 178.622 484.164 179.162 483.53 179.729C482.991 180.243 482.393 180.578 481.738 180.732C481.09 180.861 480.614 180.797 480.31 180.539ZM490.092 197.952C490.057 198.08 489.99 198.08 489.892 197.952C489.786 197.849 489.615 197.694 489.377 197.488C489.2 197.257 489 196.961 488.778 196.6C488.556 196.24 488.524 195.815 488.683 195.326C488.977 194.734 489.45 193.872 490.104 192.74C490.764 191.581 491.506 190.372 492.327 189.11C492.513 188.621 492.705 188.21 492.902 187.875C493.126 187.54 493.238 187.373 493.238 187.373C493.279 187.322 493.353 187.244 493.461 187.141C493.576 187.013 493.72 186.923 493.894 186.871C494.055 186.768 494.161 186.575 494.211 186.292C494.268 185.983 494.294 185.79 494.288 185.713C494.562 185.095 495.029 184.259 495.688 183.203C496.354 182.122 497.101 180.99 497.928 179.806C498.763 178.596 499.546 177.477 500.278 176.447C500.474 176.215 500.654 175.997 500.816 175.791C500.986 175.559 501.07 175.443 501.07 175.443C501.018 175.34 500.953 175.237 500.874 175.134C500.795 175.031 500.714 174.89 500.629 174.71C500.492 174.427 500.416 174.118 500.4 173.783C500.418 173.423 500.598 173.101 500.942 172.818C501.057 172.689 501.249 172.522 501.518 172.316C501.813 172.11 502.119 171.917 502.435 171.737C503.139 171.402 503.808 171.145 504.444 170.965C505.113 170.759 505.67 170.72 506.115 170.849C506.962 170.875 507.584 170.939 507.983 171.042C508.408 171.145 508.73 171.286 508.948 171.467C509.08 171.57 509.192 171.647 509.285 171.698C509.404 171.75 509.571 171.775 509.784 171.775C510.224 171.827 510.712 171.994 511.248 172.277C511.792 172.535 512.265 172.805 512.668 173.088C513.072 173.371 513.299 173.564 513.352 173.667C513.766 174.105 514.073 174.697 514.27 175.443C514.468 176.19 514.475 177.052 514.29 178.03C514.129 178.622 513.959 179.15 513.781 179.613C513.609 180.05 513.37 180.488 513.065 180.926C512.767 181.337 512.328 181.826 511.747 182.393C510.62 183.602 509.295 184.799 507.775 185.983C506.28 187.167 504.494 188.248 502.416 189.226C502.335 189.329 502.237 189.445 502.122 189.574C502.041 189.677 502 189.728 502 189.728C501.944 189.934 502.004 190.204 502.18 190.539C502.383 190.874 502.645 191.234 502.967 191.62C503.296 191.98 503.639 192.341 503.994 192.701C504.377 193.061 504.716 193.383 505.013 193.666C505.343 193.924 505.588 194.104 505.747 194.207C506.121 194.104 506.412 194.065 506.618 194.091C506.831 194.091 506.967 194.181 507.025 194.361C507.083 194.541 507.065 194.85 506.974 195.288C506.856 195.622 506.676 195.944 506.432 196.253C506.188 196.562 506.02 196.742 505.926 196.793C505.67 196.948 505.422 197.128 505.179 197.334C504.963 197.54 504.729 197.669 504.475 197.72C504.221 197.771 503.919 197.656 503.569 197.373C502.466 197.012 501.571 196.33 500.883 195.326C500.222 194.322 499.488 193.241 498.682 192.083C498.519 191.8 498.371 191.607 498.239 191.504C498.114 191.375 497.958 191.311 497.771 191.311C497.584 191.311 497.294 191.35 496.9 191.427C496.679 191.453 496.48 191.401 496.302 191.272C496.15 191.144 495.995 190.976 495.837 190.771C495.792 190.642 495.707 190.565 495.58 190.539C495.481 190.513 495.37 190.578 495.248 190.732C495.153 190.886 494.973 191.157 494.708 191.543C494.477 191.903 494.233 192.263 493.975 192.624C493.744 192.984 493.534 193.267 493.345 193.473C493.336 193.705 493.133 194.207 492.737 194.979C492.348 195.725 491.896 196.51 491.379 197.334C491.243 197.54 491.075 197.72 490.873 197.874C490.664 198.055 490.533 198.093 490.481 197.99C490.41 197.862 490.334 197.797 490.254 197.797C490.2 197.797 490.146 197.849 490.092 197.952ZM500.435 186.794C501.271 186.562 502.125 186.215 502.997 185.752C503.903 185.262 504.78 184.683 505.628 184.014C506.476 183.345 507.215 182.637 507.843 181.891C508.099 181.736 508.365 181.492 508.642 181.157C508.926 180.797 509.146 180.578 509.3 180.501C509.617 180.218 509.836 179.999 509.958 179.844C510.106 179.69 510.145 179.497 510.075 179.265C510.131 179.059 510.21 178.866 510.312 178.686C510.447 178.48 510.566 178.287 510.669 178.107C510.9 177.747 510.987 177.425 510.93 177.142C510.9 176.859 510.601 176.537 510.032 176.177C509.833 176.022 509.615 175.894 509.376 175.791C509.171 175.662 508.936 175.546 508.67 175.443C508.439 175.314 508.17 175.173 507.865 175.018C507.439 175.018 507.023 174.928 506.619 174.748C506.248 174.542 505.939 174.452 505.692 174.478C505.552 174.504 505.376 174.658 505.166 174.941C504.99 175.199 504.769 175.572 504.503 176.061C504.285 176.473 504.05 176.846 503.8 177.181C503.583 177.489 503.353 177.695 503.112 177.798C503.058 177.901 502.84 178.262 502.459 178.879C502.079 179.497 501.627 180.231 501.103 181.08C500.587 181.904 500.067 182.74 499.543 183.589C499.027 184.413 498.595 185.121 498.248 185.713C497.901 186.305 497.713 186.652 497.685 186.755C497.671 186.807 497.727 186.897 497.852 187.026C498.004 187.154 498.143 187.231 498.269 187.257C498.269 187.257 498.303 187.231 498.37 187.18C498.438 187.129 498.494 187.116 498.541 187.141L499.306 187.566L500.435 186.794ZM512.811 197.373C511.344 197.373 510.322 196.961 509.745 196.137C509.195 195.313 509.15 194.052 509.61 192.353C509.862 191.427 510.31 190.41 510.957 189.303C511.63 188.197 512.403 187.116 513.276 186.06C514.175 185.005 515.089 184.091 516.018 183.319C516.954 182.521 517.824 181.968 518.628 181.659C518.93 181.53 519.234 181.44 519.541 181.389C519.882 181.312 520.199 181.273 520.493 181.273C520.813 181.273 521.152 181.299 521.512 181.35C521.905 181.376 522.257 181.453 522.569 181.582C523.134 181.762 523.573 182.109 523.887 182.624C524.227 183.139 524.265 183.885 524 184.864C523.93 185.121 523.827 185.404 523.69 185.713C523.56 185.996 523.39 186.279 523.18 186.562C522.603 187.412 521.85 188.222 520.921 188.995C520.018 189.767 519.138 190.307 518.281 190.616C518.04 190.719 517.806 190.796 517.578 190.848C517.385 190.874 517.181 190.886 516.968 190.886C516.408 190.886 515.922 190.809 515.511 190.655C515.126 190.5 514.782 190.294 514.478 190.037L514.231 189.767L513.927 190.153C513.608 190.642 513.363 191.054 513.192 191.388C513.048 191.723 512.955 191.967 512.913 192.122C512.83 192.431 512.756 192.752 512.692 193.087C512.635 193.396 512.645 193.653 512.723 193.859C512.794 193.988 512.9 194.091 513.039 194.168C513.205 194.245 513.421 194.284 513.687 194.284C513.847 194.284 513.994 194.284 514.127 194.284C514.294 194.258 514.435 194.232 514.548 194.207C515.056 194.104 515.488 193.936 515.844 193.705C516.234 193.447 516.627 193.229 517.022 193.048L517.203 192.971L517.194 192.855C517.711 192.624 518.056 192.482 518.23 192.431C518.41 192.353 518.548 192.289 518.642 192.238C518.776 192.135 518.91 192.083 519.044 192.083C519.431 192.032 519.763 192.135 520.04 192.392C520.351 192.624 520.457 192.92 520.359 193.28C520.318 193.435 520.131 193.679 519.801 194.014C519.497 194.348 519.126 194.683 518.689 195.017C518.285 195.326 517.885 195.571 517.49 195.751C517.403 195.777 517.313 195.815 517.219 195.867C517.132 195.893 517.041 195.931 516.947 195.983H516.987C516.664 196.291 516.382 196.446 516.142 196.446H515.822C515.666 196.626 515.267 196.819 514.625 197.025C513.975 197.257 513.371 197.373 512.811 197.373ZM517.412 188.068C517.652 188.068 517.875 188.029 518.083 187.952C518.317 187.875 518.542 187.785 518.756 187.682C519.515 187.244 520.082 186.678 520.456 185.983C520.831 185.288 520.908 184.761 520.685 184.4C520.653 184.323 520.6 184.272 520.527 184.246C520.461 184.194 520.375 184.169 520.268 184.169C519.975 184.169 519.617 184.259 519.195 184.439C518.799 184.619 518.383 184.876 517.946 185.211C517.508 185.546 517.08 185.945 516.661 186.408L515.922 187.219C515.982 187.193 516.026 187.18 516.052 187.18C516.113 187.154 516.156 187.141 516.183 187.141C516.423 187.141 516.562 187.219 516.6 187.373C516.638 187.527 516.69 187.682 516.754 187.836C516.846 187.991 517.065 188.068 517.412 188.068ZM519.582 204.708C518.574 204.888 517.647 204.914 516.802 204.785C515.949 204.682 515.275 204.464 514.779 204.129C514.257 203.794 513.984 203.421 513.963 203.009C513.963 202.417 514.162 201.98 514.558 201.697C514.955 201.413 515.387 201.246 515.854 201.195C516.295 201.143 516.561 201.195 516.653 201.349C516.831 201.478 517.112 201.671 517.496 201.928C517.906 202.186 518.475 202.25 519.203 202.121C519.852 201.993 520.475 201.709 521.073 201.272C521.672 200.834 522.224 200.371 522.73 199.882C523.027 199.573 523.537 199.02 524.26 198.222C524.983 197.424 525.74 196.549 526.531 195.597C527.356 194.618 528.067 193.718 528.663 192.894C528.799 192.688 528.959 192.444 529.142 192.16C529.326 191.877 529.522 191.646 529.73 191.465C529.974 191.157 530.184 190.874 530.361 190.616C530.571 190.333 530.703 190.14 530.758 190.037C530.819 189.908 531.009 189.651 531.327 189.265C531.645 188.879 531.949 188.493 532.241 188.107C532.478 187.721 532.832 187.154 533.301 186.408C533.77 185.661 534.2 185.057 534.592 184.593C535.073 184.001 535.455 183.525 535.739 183.165C536.057 182.779 536.347 182.547 536.608 182.47C536.897 182.29 537.148 182.2 537.361 182.2C537.574 182.2 537.807 182.277 538.058 182.431C538.295 182.74 538.464 183.049 538.567 183.358C538.704 183.641 538.686 184.001 538.514 184.439C538.376 184.851 538.009 185.417 537.414 186.138C537.033 186.755 536.64 187.322 536.234 187.836C535.861 188.325 535.587 188.647 535.412 188.802C535.195 189.11 534.941 189.458 534.65 189.844C534.392 190.204 534.155 190.539 533.938 190.848C533.179 191.877 532.539 192.714 532.018 193.357C531.497 194.001 531.03 194.593 530.617 195.133C530.204 195.674 529.753 196.304 529.264 197.025C528.393 197.977 527.549 198.878 526.732 199.728C525.935 200.603 525.115 201.413 524.273 202.16C523.943 202.392 523.477 202.688 522.872 203.048C522.288 203.434 521.687 203.781 521.07 204.09C520.473 204.425 519.977 204.631 519.582 204.708ZM526.947 195.983C526.561 195.931 526.19 195.674 525.836 195.21C525.508 194.747 525.254 194.258 525.073 193.743C524.919 193.229 524.897 192.868 525.006 192.662C525.041 192.534 525.069 192.431 525.09 192.353C525.111 192.276 525.121 192.238 525.121 192.238C524.961 192.238 524.887 192.019 524.899 191.581C524.945 191.118 525.035 190.539 525.17 189.844C525.331 189.149 525.513 188.428 525.716 187.682C525.945 186.935 526.169 186.253 526.39 185.636C526.615 185.198 526.798 184.722 526.937 184.207C527.084 183.667 527.212 183.242 527.322 182.933C527.407 182.521 527.578 182.187 527.834 181.929C528.117 181.672 528.323 181.505 528.45 181.427C529.548 181.016 530.209 181.234 530.432 182.084C530.656 182.933 530.449 184.284 529.814 186.138C529.482 187.167 529.187 188.158 528.929 189.11C528.678 190.037 528.555 190.835 528.56 191.504C528.565 192.173 528.756 192.649 529.133 192.933C529.292 193.036 529.299 193.254 529.155 193.589C529.011 193.924 528.793 194.284 528.502 194.67C528.218 195.03 527.917 195.352 527.601 195.635C527.318 195.893 527.1 196.008 526.947 195.983ZM541.595 190.462C540.814 190.59 540.307 190.294 540.076 189.574C539.851 188.827 540.23 187.527 541.212 185.674C541.456 185.365 541.67 185.069 541.853 184.786C542.043 184.477 542.163 184.233 542.212 184.053C542.409 183.718 542.647 183.332 542.926 182.895C543.238 182.431 543.539 182.007 543.831 181.62C544.129 181.209 544.336 180.938 544.45 180.81C544.557 180.81 544.688 180.72 544.844 180.539C545.026 180.359 545.141 180.179 545.19 179.999C545.246 179.793 545.349 179.561 545.498 179.304C545.675 179.047 545.83 178.866 545.965 178.763C546 178.635 546.091 178.493 546.24 178.339C546.388 178.184 546.477 178.056 546.504 177.953C546.532 177.85 546.583 177.76 546.658 177.682C546.759 177.605 546.823 177.515 546.851 177.412C547.203 177 547.673 176.396 548.263 175.598C548.886 174.774 549.506 173.912 550.123 173.011C550.768 172.11 551.317 171.312 551.772 170.617C552.227 169.922 552.475 169.498 552.517 169.343C552.626 169.137 552.759 168.944 552.914 168.764C553.07 168.584 553.247 168.519 553.446 168.571C553.574 168.494 553.744 168.455 553.958 168.455C554.178 168.429 554.342 168.417 554.448 168.417C554.448 168.417 554.554 168.468 554.766 168.571C554.979 168.674 555.15 168.828 555.281 169.034C555.445 169.214 555.499 169.459 555.442 169.768C555.385 170.077 555.315 170.386 555.231 170.694C555.072 171.183 554.735 171.737 554.221 172.355C553.707 172.972 553.136 173.654 552.507 174.401C552.108 174.89 551.716 175.353 551.33 175.791C550.972 176.228 550.779 176.498 550.751 176.601C550.723 176.704 550.628 176.859 550.465 177.065C550.303 177.271 550.113 177.528 549.896 177.837C549.666 178.094 549.422 178.403 549.165 178.763C548.934 179.124 548.723 179.458 548.533 179.767C548.349 180.05 548.247 180.231 548.226 180.308C548.172 180.411 548.104 180.514 548.023 180.617C547.968 180.72 547.874 180.823 547.739 180.926C547.632 180.926 547.545 181.003 547.476 181.157C547.441 181.286 547.424 181.35 547.424 181.35C547.396 181.453 547.263 181.698 547.025 182.084C546.821 182.444 546.516 182.882 546.11 183.396C545.233 184.761 544.577 185.854 544.14 186.678C543.711 187.476 543.393 188.158 543.186 188.724C542.965 189.342 542.704 189.767 542.401 189.998C542.105 190.204 541.836 190.359 541.595 190.462ZM537.854 196.446C537.238 196.652 536.747 196.742 536.381 196.716C536.007 196.716 535.639 196.549 535.277 196.214C534.883 195.7 534.836 195.185 535.135 194.67C535.468 194.129 536.088 193.615 536.993 193.126C537.617 192.791 538.049 192.624 538.289 192.624C538.563 192.598 538.925 192.688 539.376 192.894C540.136 193.435 540.373 194.039 540.085 194.709C539.804 195.352 539.06 195.931 537.854 196.446Z" fill="black"/>
<defs>
<linearGradient id="paint0_linear_2054_7127" x1="345.148" y1="167.13" x2="376.974" y2="245.233" gradientUnits="userSpaceOnUse">
<stop stop-color="#FFD15C"/>
<stop offset="1" stop-color="#FFBF1B"/>
</linearGradient>
<linearGradient id="paint1_linear_2054_7127" x1="789.543" y1="389.179" x2="815.94" y2="424.591" gradientUnits="userSpaceOnUse">
<stop stop-color="#6C39FE"/>
<stop offset="1" stop-color="#4100FB"/>
</linearGradient>
<linearGradient id="paint2_linear_2054_7127" x1="3.24515" y1="432.117" x2="117.39" y2="652.077" gradientUnits="userSpaceOnUse">
<stop stop-color="#6C39FE"/>
<stop offset="1" stop-color="#4100FB"/>
</linearGradient>
<linearGradient id="paint3_linear_2054_7127" x1="509.122" y1="195.238" x2="509.122" y2="616.103" gradientUnits="userSpaceOnUse">
<stop stop-color="#070717"/>
<stop offset="1" stop-color="#4100FB"/>
</linearGradient>
<linearGradient id="paint4_linear_2054_7127" x1="556.633" y1="313.288" x2="560.893" y2="372.801" gradientUnits="userSpaceOnUse">
<stop stop-color="#070717"/>
<stop offset="1" stop-color="#4100FB"/>
</linearGradient>
<linearGradient id="paint5_linear_2054_7127" x1="289.63" y1="474.431" x2="390.299" y2="588.479" gradientUnits="userSpaceOnUse">
<stop stop-color="#FFD15C"/>
<stop offset="1" stop-color="#FFBF1B"/>
</linearGradient>
<radialGradient id="paint6_radial_2054_7127" cx="0" cy="0" r="1" gradientUnits="userSpaceOnUse" gradientTransform="translate(323.332 147.963) rotate(159.382) scale(238.319 115.097)">
<stop stop-color="#FF6363"/>
<stop offset="1" stop-color="#4100FB"/>
</radialGradient>
<radialGradient id="paint7_radial_2054_7127" cx="0" cy="0" r="1" gradientUnits="userSpaceOnUse" gradientTransform="translate(700.271 414.407) rotate(169.635) scale(389.48 101.005)">
<stop stop-color="#FF6363"/>
<stop offset="1" stop-color="#4100FB"/>
</radialGradient>
</defs>
</svg>
