<svg width="436" height="334" viewBox="0 0 536 434" fill="none" xmlns="http://www.w3.org/2000/svg">
<path d="M391.196 70.4648L388.751 76.7914H227.131L202.146 141.421H195.262L199.701 147.741H368.205L395.635 76.7914L391.196 70.4648Z" fill="#F4B562"/>
<path d="M391.196 70.4648L390.445 72.3995L363.766 141.421H195.262L197.414 135.848L222.692 70.4648H391.196Z" fill="url(#paint0_linear_2054_7205)"/>
<path d="M445.441 0.28971L434.498 16.6887L493.537 52.211L504.481 35.812L445.441 0.28971Z" fill="#FF6363"/>
<path d="M536 259.979L518.254 250.337L483.541 307.941L501.287 317.583L536 259.979Z" fill="url(#paint1_linear_2054_7205)"/>
<path d="M126.311 252.199L106.51 257.033L123.915 321.31L143.716 316.475L126.311 252.199Z" fill="#FFD15C"/>
<path d="M438.177 184.464H407.037V279.029H438.177V184.464Z" fill="white"/>
<path d="M391.196 70.4648L390.445 72.3995L352.049 92.4108C351.645 92.6206 351.189 92.7248 350.728 92.7129C350.267 92.7009 349.818 92.5733 349.426 92.3429L336.372 84.6113L322.26 95.126C321.978 95.3343 321.654 95.4852 321.307 95.5693C320.961 95.6533 320.601 95.6688 320.248 95.6146C319.895 95.5605 319.558 95.438 319.257 95.2546C318.956 95.0713 318.699 94.8311 318.5 94.5491L308.377 80.1922L283.657 100.781C283.171 101.186 282.543 101.404 281.896 101.393C281.25 101.382 280.631 101.141 280.161 100.719L273.012 94.3454L266.364 101.391C266.012 101.764 265.55 102.026 265.038 102.144C264.526 102.261 263.988 102.228 263.496 102.05C263.004 101.871 262.581 101.555 262.283 101.142C261.984 100.73 261.824 100.242 261.824 99.7419V85.6227L231.385 118.586C231.078 118.921 230.682 119.171 230.239 119.31C229.795 119.449 229.32 119.472 228.864 119.376C228.408 119.28 227.988 119.069 227.647 118.765C227.307 118.461 227.06 118.075 226.931 117.649L222.806 104.175L196.977 141.421H195.262L197.406 135.848L220.747 102.24C221.022 101.847 221.409 101.537 221.863 101.346C222.317 101.155 222.819 101.092 223.31 101.163C223.8 101.235 224.259 101.438 224.633 101.749C225.006 102.06 225.277 102.466 225.415 102.919L229.562 116.495L260.144 83.3758C260.491 82.9965 260.952 82.727 261.465 82.6035C261.978 82.48 262.519 82.5085 263.015 82.685C263.51 82.8616 263.937 83.1778 264.238 83.5912C264.539 84.0047 264.699 84.4956 264.698 84.9982V99.1242L271.075 92.3769C271.306 92.1207 271.59 91.913 271.91 91.7669C272.23 91.6209 272.579 91.5396 272.933 91.5283C273.281 91.5159 273.627 91.5696 273.953 91.6862C274.278 91.8027 274.576 91.9799 274.828 92.2072L281.977 98.6015L306.74 77.9793C307.019 77.7485 307.345 77.5765 307.699 77.4747C308.053 77.3729 308.425 77.3436 308.792 77.3887C309.158 77.4371 309.51 77.5582 309.824 77.7442C310.138 77.9301 310.408 78.1768 310.615 78.468L320.709 92.7977L334.771 82.3508C335.191 82.0392 335.702 81.8573 336.235 81.8294C336.768 81.8015 337.297 81.929 337.752 82.1947L350.834 89.9399L388.251 70.4784L391.196 70.4648Z" fill="white"/>
<path d="M167.831 271.027L0 431.823H163.685L223.355 290.814L167.831 271.027Z" fill="url(#paint2_linear_2054_7205)"/>
<path d="M359.979 431.857H157.182L281.928 100.428C283.149 97.1811 285.398 94.3724 288.366 92.3867C291.333 90.401 294.875 89.3354 298.506 89.3359H470.721C472.773 89.3365 474.796 89.8055 476.618 90.7033C478.44 91.6012 480.008 92.9017 481.19 94.4953C482.372 96.0888 483.134 97.9288 483.411 99.8602C483.687 101.792 483.471 103.758 482.781 105.593L359.979 431.857Z" fill="url(#paint3_linear_2054_7205)"/>
<path d="M335.728 433.215H162.892L289.268 101.453C290.012 99.4971 291.371 97.8058 293.161 96.6084C294.952 95.4111 297.086 94.7657 299.276 94.7598H453.84C455.06 94.7573 456.262 95.034 457.345 95.5665C458.428 96.0991 459.36 96.8718 460.061 97.819C460.763 98.7662 461.213 99.8601 461.375 101.008C461.536 102.156 461.404 103.324 460.989 104.412L335.728 433.215Z" fill="white"/>
<path d="M474.071 136.161L470.862 144.551H310.822L278.702 228.54L269.802 229.674L275.056 238.064H443.56L479.326 144.551L474.071 136.161Z" fill="#4100FB"/>
<path d="M235.874 215.052C251.015 215.052 263.289 203.397 263.289 189.019C263.289 174.642 251.015 162.987 235.874 162.987C220.732 162.987 208.458 174.642 208.458 189.019C208.458 203.397 220.732 215.052 235.874 215.052Z" fill="#FF6363"/>
<path d="M438.306 229.674H269.802L305.567 136.161H474.071L438.306 229.674Z" fill="#E8E8F7"/>
<path d="M418.131 229.673H287.751L298.646 201.876H429.025L418.131 229.673Z" fill="url(#paint4_linear_2054_7205)"/>
<path d="M442.387 158.806H355.501L359.125 148.467H446.012L442.387 158.806Z" fill="#CFCFE8"/>
<path d="M338.964 261.001H252.077L255.694 250.663H342.588L338.964 261.001Z" fill="#CFCFE8"/>
<path d="M332.661 279.274H245.768L249.392 268.936H336.278L332.661 279.274Z" fill="#CFCFE8"/>
<path d="M313.801 231.832L351.797 260.593L375.345 225.39L336.477 197.681L313.801 231.832Z" fill="#FF6363"/>
<path d="M376.506 221.868C376.811 218.055 374.175 214.757 370.62 214.501C367.065 214.246 363.937 217.13 363.633 220.943C363.329 224.756 365.964 228.054 369.519 228.309C373.074 228.565 376.202 225.681 376.506 221.868Z" fill="#FF6363"/>
<path d="M341.861 191.355C341.684 191.355 341.556 191.293 341.476 191.169C341.413 191.044 341.414 190.865 341.477 190.632C341.54 190.399 341.648 190.119 341.801 189.792C341.95 189.481 342.135 189.123 342.358 188.718C342.443 188.641 342.513 188.563 342.566 188.485C342.636 188.407 342.697 188.33 342.75 188.252C342.804 188.174 342.847 188.104 342.88 188.042C342.913 187.98 342.946 187.917 342.979 187.855C343.012 187.793 343.034 187.738 343.047 187.692C343.129 187.567 343.314 187.303 343.601 186.898C343.887 186.494 344.223 186.027 344.609 185.498C344.994 184.969 345.369 184.448 345.733 183.935C346.118 183.406 346.448 182.962 346.722 182.605C347.001 182.231 347.162 182.021 347.207 181.974C347.272 181.974 347.359 181.92 347.469 181.811C347.579 181.702 347.657 181.593 347.703 181.484C347.732 181.376 347.768 181.274 347.809 181.181C347.867 181.088 347.93 181.002 348 180.924C348.069 180.847 348.136 180.777 348.201 180.714C348.267 180.652 348.332 180.59 348.397 180.528C348.462 180.465 348.511 180.403 348.544 180.341C348.598 180.263 348.633 180.193 348.65 180.131C348.629 180.209 348.773 180.061 349.084 179.688C349.395 179.314 349.796 178.816 350.287 178.194C350.782 177.556 351.306 176.872 351.858 176.141C352.431 175.394 352.972 174.678 353.48 173.994C354.008 173.294 354.44 172.71 354.776 172.244C355.112 171.777 355.29 171.505 355.312 171.427C355.447 171.225 355.595 171.123 355.756 171.123C355.773 171.123 355.823 171.116 355.908 171.1C355.993 171.085 356.067 171.077 356.132 171.077C356.132 171.077 356.146 171.085 356.174 171.1C356.218 171.116 356.294 171.162 356.402 171.24C356.421 171.287 356.443 171.357 356.466 171.45C356.505 171.543 356.522 171.66 356.516 171.8C356.531 171.925 356.517 172.065 356.475 172.22C356.421 172.36 356.363 172.485 356.301 172.594C356.243 172.687 356.168 172.788 356.074 172.897C356 172.99 355.894 173.115 355.755 173.27C355.616 173.426 355.44 173.628 355.228 173.877C355.02 174.11 354.76 174.414 354.449 174.787C354.212 175.067 353.916 175.417 353.56 175.837C353.209 176.242 352.856 176.654 352.5 177.074C352.144 177.494 351.824 177.875 351.537 178.217C351.272 178.544 351.09 178.77 350.991 178.894C350.963 178.941 350.924 178.995 350.875 179.058C350.83 179.104 350.785 179.151 350.74 179.198C350.711 179.244 350.672 179.299 350.623 179.361C350.594 179.408 350.558 179.454 350.513 179.501C350.296 179.765 350.045 180.069 349.758 180.411C349.477 180.738 349.225 181.041 349.004 181.321C348.787 181.586 348.65 181.764 348.593 181.858C348.56 181.92 348.517 181.99 348.463 182.068C348.43 182.13 348.394 182.177 348.353 182.208C348.288 182.208 348.238 182.247 348.2 182.325C348.167 182.387 348.093 182.511 347.978 182.698C347.884 182.869 347.669 183.126 347.335 183.468C347.097 183.81 346.793 184.246 346.424 184.775C346.076 185.288 345.703 185.833 345.305 186.408C344.907 186.984 344.522 187.544 344.148 188.088C343.775 188.633 343.461 189.107 343.207 189.512C342.948 189.932 342.779 190.228 342.701 190.399C342.571 190.819 342.451 191.083 342.34 191.192C342.247 191.301 342.087 191.355 341.861 191.355ZM342.709 187.692C342.451 187.692 342.221 187.676 342.02 187.645C341.835 187.614 341.725 187.575 341.689 187.528C341.48 187.528 341.257 187.427 341.022 187.225C340.791 187.007 340.61 186.751 340.481 186.455C340.352 186.159 340.323 185.879 340.394 185.615C340.466 185.35 340.622 185.133 340.861 184.961C341.101 184.79 341.362 184.689 341.645 184.658C341.943 184.627 342.219 184.681 342.471 184.821C342.099 185.241 341.964 185.56 342.067 185.778C342.189 185.98 342.669 186.082 343.508 186.082C343.733 186.082 343.911 186.082 344.039 186.082C344.189 186.066 344.354 186.05 344.536 186.035C344.749 186.019 344.947 186.004 345.129 185.988C345.33 185.957 345.516 185.926 345.686 185.895C346.522 185.724 347.121 185.506 347.483 185.241C347.844 184.977 348.085 184.744 348.204 184.541C348.267 184.308 348.332 184.16 348.397 184.098C348.482 184.02 348.536 183.942 348.557 183.865C348.595 183.725 348.639 183.592 348.688 183.468C348.759 183.328 348.785 183.172 348.767 183.001C348.769 182.815 348.685 182.589 348.515 182.325C348.365 182.044 348.095 181.702 347.705 181.298C347.643 181.111 347.552 180.909 347.434 180.691C347.336 180.458 347.197 180.287 347.017 180.178C346.974 180.1 346.937 179.999 346.906 179.874C346.879 179.734 346.844 179.656 346.8 179.641C346.828 179.656 346.793 179.579 346.694 179.408C346.595 179.236 346.592 178.98 346.685 178.637C346.782 178.28 346.964 177.906 347.23 177.517C347.513 177.128 347.888 176.786 348.355 176.491C348.526 176.335 348.766 176.164 349.074 175.977C349.403 175.775 349.707 175.604 349.987 175.464C350.287 175.308 350.461 175.23 350.509 175.23C350.638 175.23 350.84 175.168 351.116 175.044C351.412 174.904 351.856 174.81 352.449 174.764C352.809 174.686 353.073 174.632 353.243 174.6C353.417 174.554 353.576 174.53 353.721 174.53C353.769 174.53 353.858 174.53 353.987 174.53C354.132 174.53 354.429 174.624 354.878 174.81C355.299 174.982 355.559 175.184 355.657 175.417C355.755 175.651 355.75 175.876 355.643 176.094C355.556 176.296 355.421 176.467 355.238 176.607C355.071 176.747 354.915 176.817 354.77 176.817C354.641 176.817 354.492 176.771 354.324 176.677C354.156 176.584 353.964 176.491 353.747 176.397C353.547 176.304 353.302 176.257 353.011 176.257C352.463 176.257 351.961 176.296 351.505 176.374C351.065 176.452 350.625 176.677 350.185 177.051C349.699 177.3 349.331 177.556 349.082 177.821C348.833 178.085 348.683 178.311 348.633 178.497C348.648 178.56 348.657 178.676 348.659 178.848C348.681 179.003 348.738 179.151 348.829 179.291C349.185 179.82 349.457 180.217 349.643 180.481C349.849 180.73 349.988 180.901 350.06 180.994C350.147 181.088 350.195 181.15 350.203 181.181C350.215 181.197 350.212 181.236 350.195 181.298C350.211 181.298 350.239 181.344 350.278 181.438C350.338 181.516 350.393 181.609 350.444 181.718C350.507 181.842 350.554 181.967 350.585 182.091C350.636 182.2 350.657 182.27 350.649 182.301C350.657 182.27 350.684 182.348 350.73 182.535C350.781 182.706 350.802 182.955 350.794 183.281C350.806 183.592 350.758 183.95 350.648 184.355C350.615 184.479 350.496 184.65 350.292 184.868C350.092 185.07 349.858 185.28 349.589 185.498C349.325 185.7 349.085 185.872 348.87 186.012C348.598 186.183 348.301 186.354 347.981 186.525C347.681 186.681 347.361 186.821 347.021 186.945C346.697 187.069 346.353 187.178 345.99 187.272C345.747 187.334 345.488 187.396 345.214 187.458C344.959 187.505 344.689 187.552 344.402 187.598C344.136 187.629 343.855 187.653 343.561 187.668C343.283 187.684 342.999 187.692 342.709 187.692ZM359.378 189.559C359.269 189.543 359.135 189.473 358.975 189.349C358.816 189.224 358.66 189.084 358.509 188.929C358.353 188.788 358.238 188.68 358.162 188.602C358.121 188.337 358.095 188.135 358.085 187.995C358.074 187.855 358.138 187.622 358.274 187.295C358.325 187.108 358.4 186.891 358.5 186.642C358.616 186.393 358.751 186.19 358.906 186.035C359.103 185.724 359.38 185.358 359.735 184.938C360.107 184.518 360.495 184.098 360.899 183.678C361.319 183.258 361.704 182.877 362.055 182.535C362.426 182.177 362.697 181.92 362.868 181.764C363.104 181.547 363.233 181.368 363.255 181.228C363.297 181.072 363.214 180.784 363.005 180.364C362.987 180.193 362.948 180.069 362.889 179.991C362.833 179.898 362.838 179.851 362.903 179.851C362.903 179.851 362.885 179.828 362.849 179.781C362.834 179.719 362.816 179.633 362.798 179.524C362.615 179.306 362.585 178.972 362.707 178.521C362.845 178.07 363.086 177.626 363.43 177.191C363.84 176.631 364.317 176.148 364.862 175.744C365.406 175.339 365.929 175.106 366.429 175.044C366.602 175.059 366.896 175.106 367.31 175.184C367.74 175.262 368.177 175.347 368.619 175.44C369.077 175.534 369.426 175.643 369.666 175.767C369.839 175.845 370.051 175.985 370.302 176.187C370.57 176.389 370.805 176.592 371.008 176.794C371.211 176.996 371.308 177.144 371.299 177.237C371.286 177.284 371.296 177.338 371.327 177.401C371.379 177.447 371.403 177.51 371.398 177.587C371.448 177.759 371.433 177.992 371.353 178.287C371.289 178.583 371.195 178.871 371.071 179.151C370.946 179.431 370.817 179.641 370.682 179.781C370.161 180.217 369.812 180.465 369.634 180.528C369.536 180.59 369.419 180.668 369.28 180.761C369.158 180.854 369.029 180.917 368.891 180.948C368.781 181.057 368.675 181.15 368.574 181.228C368.488 181.306 368.413 181.344 368.349 181.344C368.297 181.298 368.239 181.274 368.174 181.274C368.114 181.259 368.075 181.282 368.059 181.344C368.05 181.376 367.918 181.446 367.663 181.554C367.424 181.663 367.181 181.757 366.935 181.834C366.688 181.912 366.536 181.936 366.48 181.904C366.48 181.904 366.456 181.904 366.408 181.904C366.36 181.904 366.279 181.936 366.165 181.998C365.964 181.967 366.017 182.216 366.325 182.745C366.515 183.414 366.614 184.059 366.623 184.681C366.652 185.288 366.501 185.755 366.171 186.082C365.683 186.751 365.203 187.303 364.731 187.738C364.262 188.158 363.925 188.361 363.72 188.345C363.72 188.345 363.673 188.368 363.58 188.415C363.503 188.462 363.418 188.508 363.325 188.555C363.263 188.664 363.171 188.734 363.05 188.765C362.941 188.812 362.848 188.827 362.771 188.812C362.643 188.75 362.372 188.827 361.959 189.045C361.711 189.185 361.406 189.302 361.042 189.395C360.678 189.489 360.331 189.551 360 189.582C359.685 189.613 359.478 189.605 359.378 189.559ZM360.414 187.785C360.571 187.801 360.791 187.762 361.075 187.668C361.374 187.575 361.69 187.451 362.022 187.295C362.37 187.139 362.686 186.984 362.97 186.828C363.592 186.439 364.043 186.05 364.326 185.662C364.625 185.273 364.746 184.884 364.691 184.495C364.645 184.308 364.595 184.106 364.541 183.888C364.487 183.67 364.437 183.499 364.39 183.375C364.331 183.235 364.27 183.133 364.206 183.071C364.158 183.009 364.101 182.955 364.033 182.908C364.033 182.908 363.978 182.962 363.867 183.071C363.778 183.165 363.669 183.297 363.542 183.468C363.306 183.686 363.165 183.818 363.121 183.865C363.076 183.911 363.006 183.989 362.912 184.098C362.77 184.207 362.638 184.308 362.516 184.401C362.394 184.495 362.302 184.565 362.241 184.611C362.229 184.658 362.142 184.798 361.982 185.031C361.827 185.249 361.655 185.467 361.467 185.685C360.952 186.276 360.594 186.766 360.392 187.155C360.206 187.544 360.213 187.754 360.414 187.785ZM366.223 180.178C366.642 179.882 366.954 179.711 367.16 179.664C367.366 179.618 367.494 179.68 367.545 179.851C367.56 179.913 367.724 179.874 368.036 179.734C368.368 179.579 368.699 179.369 369.028 179.104C369.171 178.933 369.219 178.848 369.17 178.848C369.138 178.848 369.14 178.723 369.175 178.474C369.233 178.319 369.267 178.194 369.276 178.101C369.285 178.007 369.238 177.914 369.134 177.821C369.031 177.727 368.826 177.618 368.522 177.494C367.615 177.152 366.879 177.043 366.313 177.167C365.752 177.276 365.293 177.603 364.936 178.147C364.759 178.443 364.645 178.684 364.595 178.871C364.544 179.058 364.547 179.283 364.605 179.548C364.733 179.61 364.806 179.695 364.825 179.804C364.848 179.898 364.86 179.944 364.86 179.944C364.822 180.084 364.867 180.154 364.996 180.154C365.007 180.232 365.097 180.318 365.265 180.411C365.433 180.504 365.753 180.427 366.223 180.178ZM374.086 188.742C374.021 188.742 373.89 188.633 373.691 188.415C373.508 188.197 373.476 187.871 373.594 187.435C373.74 186.953 373.958 186.447 374.246 185.918C374.555 185.374 374.839 184.891 375.098 184.471C375.27 184.191 375.414 183.958 375.529 183.771C375.66 183.585 375.732 183.468 375.745 183.421C375.729 183.421 375.636 183.437 375.466 183.468C375.313 183.499 375.117 183.538 374.879 183.585C374.047 183.74 373.421 183.818 373.002 183.818C372.599 183.818 372.316 183.585 372.152 183.118C372.081 183.025 371.998 182.853 371.905 182.605C371.811 182.356 371.772 182.083 371.787 181.788C371.819 181.492 371.967 181.243 372.231 181.041C372.498 180.652 372.703 180.372 372.846 180.201C372.989 180.03 373.087 179.905 373.14 179.828C373.21 179.75 373.255 179.672 373.276 179.594C373.301 179.563 373.338 179.516 373.387 179.454C373.436 179.392 373.493 179.33 373.558 179.268C373.766 179.034 374.05 178.731 374.409 178.357C374.784 177.984 375.168 177.611 375.559 177.237C375.97 176.848 376.337 176.506 376.659 176.211C376.985 175.899 377.217 175.697 377.355 175.604C377.465 175.557 377.653 175.487 377.92 175.394C378.203 175.3 378.401 175.254 378.514 175.254C378.643 175.254 378.741 175.339 378.807 175.511C378.894 175.666 378.954 175.829 378.989 176.001C379.023 176.172 379.032 176.288 379.015 176.351C379.015 176.351 379.002 176.366 378.978 176.397C378.953 176.428 378.906 176.483 378.837 176.561C378.747 176.654 378.617 176.778 378.446 176.934C378.291 177.09 378.067 177.292 377.773 177.541C377.521 177.759 377.193 178.077 376.789 178.497C376.389 178.902 375.981 179.338 375.565 179.804C375.168 180.255 374.825 180.66 374.535 181.018C374.244 181.376 374.082 181.617 374.048 181.741C374.027 181.819 374.035 181.881 374.07 181.928C374.126 181.959 374.235 181.974 374.396 181.974C374.614 181.943 374.808 181.912 374.978 181.881C375.163 181.85 375.333 181.819 375.486 181.788C375.672 181.757 375.834 181.726 375.971 181.694C376.113 181.648 376.244 181.609 376.365 181.578C376.507 181.531 376.63 181.492 376.735 181.461C376.861 181.414 376.972 181.36 377.07 181.298C377.305 181.142 377.507 180.932 377.676 180.668C377.844 180.403 378.094 180.045 378.426 179.594C378.639 179.283 378.844 179.003 379.04 178.754C379.257 178.49 379.451 178.249 379.623 178.031C380.22 177.315 380.7 176.794 381.062 176.467C381.429 176.125 381.629 175.954 381.661 175.954C381.709 175.954 381.805 176.016 381.949 176.141C382.092 176.265 382.226 176.397 382.349 176.537C382.448 176.646 382.526 176.747 382.581 176.841C382.64 176.918 382.666 176.973 382.658 177.004C382.607 177.191 382.506 177.385 382.354 177.587C382.223 177.774 382.043 177.992 381.815 178.241C381.586 178.49 381.314 178.809 380.999 179.198C380.635 179.649 380.288 180.1 379.956 180.551C379.628 180.987 379.309 181.422 378.997 181.858C378.69 182.278 378.401 182.69 378.13 183.095C377.86 183.499 377.603 183.88 377.361 184.238C376.758 185.156 376.333 185.833 376.086 186.268C375.839 186.704 375.692 187.007 375.646 187.178C375.62 187.334 375.616 187.466 375.635 187.575C375.58 187.777 375.463 187.972 375.284 188.158C375.108 188.33 374.909 188.47 374.686 188.578C374.463 188.687 374.263 188.742 374.086 188.742ZM381.279 188.088C381.044 187.886 380.945 187.715 380.983 187.575C380.944 187.482 380.884 187.435 380.803 187.435C380.751 187.451 380.723 187.373 380.721 187.202C380.735 187.031 380.754 186.844 380.776 186.642C380.815 186.439 380.851 186.307 380.884 186.245C380.982 186.12 381.128 186.027 381.322 185.965C381.533 185.903 381.724 185.879 381.897 185.895C382.091 185.895 382.179 185.957 382.161 186.082C382.16 186.206 382.253 186.307 382.442 186.385C382.646 186.463 382.928 186.494 383.287 186.478C383.742 186.463 384.172 186.393 384.577 186.268C384.997 186.144 385.392 185.965 385.762 185.732C386.147 185.498 386.513 185.218 386.86 184.891C387.031 184.674 387.214 184.386 387.408 184.028C387.602 183.67 387.752 183.351 387.861 183.071C387.969 182.791 387.982 182.651 387.902 182.651C387.902 182.651 387.9 182.597 387.898 182.488C387.911 182.379 387.91 182.262 387.896 182.138C387.878 181.904 387.756 181.671 387.529 181.438C387.307 181.189 387.073 181.01 386.829 180.901C386.724 180.87 386.491 180.87 386.128 180.901C385.765 180.932 385.458 180.963 385.208 180.994C384.946 181.01 384.792 181.01 384.748 180.994C384.725 180.963 384.713 180.948 384.713 180.948C384.636 180.932 384.52 180.854 384.365 180.714C384.225 180.574 384.096 180.427 383.977 180.271C383.874 180.115 383.833 179.999 383.855 179.921C383.916 179.812 384.055 179.625 384.272 179.361C384.489 179.096 384.744 178.809 385.038 178.497C385.348 178.186 385.656 177.883 385.962 177.587C386.267 177.292 386.542 177.051 386.786 176.864C387.409 176.351 388.092 175.969 388.837 175.721C389.585 175.456 390.286 175.339 390.938 175.37C391.401 175.386 391.731 175.448 391.927 175.557C392.144 175.651 392.315 175.822 392.441 176.071C392.511 176.288 392.498 176.514 392.403 176.747C392.307 176.981 392.178 177.16 392.015 177.284C391.853 177.408 391.687 177.424 391.519 177.331C391.332 177.191 391.04 177.136 390.645 177.167C390.25 177.198 389.817 177.276 389.349 177.401C388.976 177.525 388.673 177.634 388.438 177.727C388.207 177.805 388.029 177.93 387.902 178.101C387.825 178.147 387.764 178.194 387.719 178.241C387.69 178.287 387.645 178.303 387.585 178.287C387.585 178.287 387.553 178.319 387.487 178.381C387.426 178.427 387.387 178.482 387.371 178.544C387.265 178.637 387.189 178.707 387.144 178.754C387.12 178.785 387.084 178.77 387.036 178.707C387.036 178.707 387.03 178.731 387.017 178.777C387.005 178.824 386.982 178.879 386.949 178.941C386.903 179.05 386.914 179.128 386.982 179.174C387.071 179.205 387.264 179.236 387.561 179.268C387.947 179.33 388.229 179.392 388.405 179.454C388.602 179.501 388.871 179.641 389.21 179.874C389.594 180.123 389.823 180.497 389.898 180.994C389.993 181.477 389.977 182.013 389.849 182.605C389.741 183.18 389.575 183.732 389.351 184.261C389.21 184.604 389.09 184.868 388.991 185.055C388.892 185.241 388.686 185.498 388.372 185.825C387.866 186.323 387.27 186.766 386.585 187.155C385.903 187.528 385.211 187.824 384.507 188.042C383.803 188.26 383.157 188.384 382.568 188.415C382 188.431 381.57 188.322 381.279 188.088ZM391.772 187.248C391.404 187.357 391.107 187.412 390.881 187.412C390.66 187.396 390.438 187.295 390.214 187.108C389.976 186.797 389.948 186.486 390.129 186.175C390.33 185.848 390.707 185.529 391.258 185.218C391.631 185.031 391.89 184.938 392.035 184.938C392.201 184.923 392.42 184.977 392.692 185.101C393.152 185.428 393.294 185.794 393.12 186.198C392.95 186.587 392.501 186.937 391.772 187.248ZM399.422 188.392C399.309 188.392 399.11 188.353 398.825 188.275C398.556 188.197 398.275 188.104 397.982 187.995C397.71 187.871 397.504 187.738 397.365 187.598C396.939 187.147 396.679 186.649 396.585 186.105C396.495 185.545 396.503 184.977 396.611 184.401C396.735 183.826 396.906 183.281 397.126 182.768C397.573 181.772 398.211 180.784 399.041 179.804C399.875 178.809 400.775 177.984 401.742 177.331C402.258 176.973 402.76 176.67 403.246 176.421C403.733 176.172 404.232 175.993 404.745 175.884C404.935 175.837 405.191 175.814 405.514 175.814C405.857 175.798 406.084 175.791 406.197 175.791C406.519 175.791 406.855 175.861 407.204 176.001C407.573 176.125 407.878 176.281 408.117 176.467C408.361 176.638 408.462 176.802 408.42 176.957C408.39 177.066 408.352 177.175 408.307 177.284C408.261 177.393 408.182 177.416 408.07 177.354H407.829L407.881 178.054C407.911 178.179 407.921 178.35 407.911 178.567C407.904 178.77 407.878 178.956 407.832 179.128C407.789 179.283 407.702 179.516 407.569 179.828C407.457 180.123 407.314 180.442 407.141 180.784C406.984 181.127 406.825 181.446 406.664 181.741C406.519 182.037 406.396 182.255 406.294 182.395C406.22 182.488 406.162 182.581 406.121 182.675C406.1 182.752 406.081 182.822 406.064 182.885C405.966 183.009 405.802 183.227 405.573 183.538C405.343 183.849 405.18 184.067 405.081 184.191C405 184.254 404.929 184.308 404.868 184.355C404.823 184.401 404.824 184.456 404.872 184.518C404.859 184.565 404.79 184.674 404.663 184.845C404.54 185 404.411 185.148 404.277 185.288C404.158 185.428 404.075 185.498 404.026 185.498C404.026 185.498 404 185.506 403.947 185.521C403.915 185.521 403.893 185.545 403.88 185.592C403.863 185.654 403.706 185.817 403.409 186.082C403.128 186.346 402.804 186.618 402.438 186.898C402.235 187.054 401.922 187.256 401.5 187.505C401.082 187.738 400.671 187.948 400.265 188.135C399.881 188.306 399.6 188.392 399.422 188.392ZM399.981 186.152C400.158 186.152 400.334 186.128 400.508 186.082C400.686 186.019 400.846 185.934 400.988 185.825C401.329 185.638 401.67 185.389 402.012 185.078C402.371 184.767 402.693 184.409 402.98 184.005C403.221 183.771 403.423 183.53 403.587 183.281C403.772 183.017 404.061 182.573 404.455 181.951C404.631 181.78 404.776 181.57 404.892 181.321C405.008 181.072 405.089 180.862 405.135 180.691C405.182 180.52 405.245 180.287 405.325 179.991C405.421 179.695 405.529 179.446 405.648 179.244C405.758 178.84 405.813 178.606 405.814 178.544C405.819 178.466 405.782 178.365 405.702 178.241C405.651 178.194 405.575 178.147 405.474 178.101C405.39 178.054 405.292 178.031 405.179 178.031C405.066 178.031 404.905 178.062 404.694 178.124C404.505 178.171 404.335 178.233 404.185 178.311C404.055 178.373 403.924 178.381 403.791 178.334C403.675 178.287 403.627 178.225 403.649 178.147C403.708 177.93 403.59 177.945 403.297 178.194C403.025 178.427 402.654 178.754 402.186 179.174C401.82 179.454 401.492 179.742 401.202 180.038C400.933 180.318 400.79 180.489 400.773 180.551C400.756 180.613 400.711 180.691 400.637 180.784C400.564 180.878 400.486 180.987 400.404 181.111C400.294 181.22 400.148 181.399 399.968 181.648C399.788 181.897 399.608 182.146 399.427 182.395C399.267 182.628 399.154 182.807 399.088 182.931C399.072 182.993 399.025 183.165 398.949 183.445C398.878 183.709 398.81 183.958 398.747 184.191C398.675 184.456 398.631 184.65 398.613 184.775C398.596 184.899 398.592 185 398.603 185.078C398.631 185.156 398.664 185.273 398.702 185.428C398.737 185.537 398.798 185.669 398.885 185.825C398.992 185.965 399.061 186.066 399.093 186.128C399.228 186.284 399.324 186.346 399.381 186.315C399.458 186.268 399.658 186.214 399.981 186.152ZM407.171 188.275C407.115 188.244 407.025 188.158 406.902 188.018C406.795 187.878 406.692 187.723 406.593 187.552C406.499 187.365 406.44 187.225 406.417 187.132C406.39 187.054 406.428 186.914 406.531 186.712C406.65 186.509 406.742 186.408 406.806 186.408C406.846 186.439 406.926 186.385 407.044 186.245C407.163 186.105 407.283 185.957 407.406 185.802C407.533 185.63 407.601 185.529 407.609 185.498C407.642 185.436 407.695 185.389 407.768 185.358C407.861 185.311 407.946 185.265 408.023 185.218C408.138 185.094 408.276 184.969 408.439 184.845C408.622 184.705 408.766 184.588 408.872 184.495C409.043 184.339 409.34 184.106 409.763 183.795C410.186 183.484 410.603 183.165 411.014 182.838C411.449 182.48 411.831 182.169 412.161 181.904C412.495 181.624 412.684 181.43 412.73 181.321C412.73 181.321 412.761 181.298 412.822 181.251C412.903 181.189 412.99 181.134 413.083 181.088C413.177 181.041 413.303 180.963 413.461 180.854C413.636 180.745 413.784 180.644 413.906 180.551C413.972 180.427 414.082 180.287 414.237 180.131C414.413 179.96 414.602 179.796 414.805 179.641C414.985 179.454 415.16 179.252 415.332 179.034C415.508 178.801 415.627 178.63 415.689 178.521C415.784 178.35 415.795 178.249 415.723 178.217C415.655 178.171 415.458 178.093 415.133 177.984C414.78 177.86 414.424 177.836 414.064 177.914C413.705 177.992 413.19 178.225 412.521 178.614C412.282 178.661 412.056 178.723 411.841 178.801C411.643 178.879 411.482 178.91 411.357 178.894C411.301 178.863 411.247 178.793 411.196 178.684C411.145 178.575 411.084 178.474 411.012 178.381L411.042 177.377L411.899 176.981C412.67 176.576 413.381 176.273 414.032 176.071C414.703 175.853 415.246 175.814 415.659 175.954C415.836 175.954 415.991 175.977 416.124 176.024C416.26 176.055 416.329 176.071 416.329 176.071C416.462 176.055 416.63 176.117 416.834 176.257C417.054 176.397 417.255 176.576 417.438 176.794C417.637 177.012 417.755 177.23 417.793 177.447C417.95 177.821 417.924 178.272 417.716 178.801C417.509 179.33 417.125 179.882 416.566 180.458C416.461 180.551 416.231 180.745 415.876 181.041C415.522 181.337 415.117 181.671 414.662 182.044C414.226 182.402 413.826 182.721 413.46 183.001C413.11 183.281 412.884 183.46 412.782 183.538C412.657 183.585 412.423 183.732 412.082 183.981C411.757 184.23 411.399 184.51 411.008 184.821C410.638 185.117 410.316 185.381 410.044 185.615C409.791 185.833 409.681 185.942 409.713 185.942C409.68 186.004 409.761 186.004 409.955 185.942C410.17 185.864 410.356 185.802 410.513 185.755C410.776 185.677 411.077 185.607 411.416 185.545C411.776 185.467 412.131 185.405 412.482 185.358C412.834 185.311 413.132 185.28 413.378 185.265C413.64 185.249 413.789 185.265 413.825 185.311C413.836 185.389 413.852 185.42 413.872 185.405C413.913 185.374 413.933 185.358 413.933 185.358C413.995 185.249 414.205 185.218 414.563 185.265C414.937 185.311 415.265 185.381 415.546 185.475C415.71 185.521 415.83 185.584 415.906 185.662C415.998 185.739 416.035 185.809 416.018 185.872C416.018 185.872 416.024 185.91 416.035 185.988C416.067 186.05 416.116 186.136 416.183 186.245C416.386 186.447 416.327 186.665 416.006 186.898C415.701 187.132 415.241 187.194 414.626 187.085C414.207 187.085 413.854 187.108 413.567 187.155C413.494 187.186 413.353 187.202 413.143 187.202C412.934 187.202 412.73 187.209 412.533 187.225C412.251 187.194 411.957 187.209 411.65 187.272C411.347 187.318 410.977 187.404 410.541 187.528C410.383 187.575 410.138 187.645 409.807 187.738C409.475 187.832 409.119 187.925 408.74 188.018C408.36 188.112 408.018 188.182 407.716 188.228C407.429 188.275 407.247 188.291 407.171 188.275Z" fill="#4100FB"/>
<path d="M401.719 372.292H233.214L228.939 364.954L251.101 325.535L415.323 318.197L419.605 325.535L401.719 372.292Z" fill="#4100FB"/>
<path d="M397.444 364.954H228.939L246.819 318.197H415.323L397.444 364.954Z" fill="#E8E8F7"/>
<path d="M366.028 214.707C366.332 210.894 363.697 207.596 360.142 207.34C356.586 207.085 353.458 209.968 353.154 213.781C352.85 217.594 355.485 220.893 359.04 221.148C362.595 221.404 365.724 218.52 366.028 214.707Z" fill="#FF6363"/>
<path d="M356.391 207.065C356.695 203.252 354.06 199.954 350.505 199.698C346.95 199.443 343.821 202.327 343.517 206.14C343.213 209.953 345.849 213.251 349.404 213.507C352.959 213.762 356.087 210.878 356.391 207.065Z" fill="#FF6363"/>
<path d="M361.168 183.954C363.056 181.329 362.345 177.747 359.58 175.954C356.816 174.161 353.044 174.836 351.155 177.462L335.67 198.993C333.782 201.618 334.492 205.2 337.257 206.993C340.022 208.786 343.794 208.111 345.682 205.485L361.168 183.954Z" fill="#FF6363"/>
<path d="M362.105 172.322L362.099 172.319C360.13 171.042 357.443 171.522 356.098 173.392L353.973 176.346C352.629 178.216 353.135 180.767 355.104 182.044L355.11 182.048C357.079 183.325 359.766 182.845 361.111 180.975L363.235 178.02C364.58 176.151 364.074 173.599 362.105 172.322Z" fill="#070717"/>
<path d="M334.741 207.069L333.561 206.322C332.387 205.579 331.045 205.11 329.644 204.954C328.242 204.797 326.822 204.956 325.498 205.419C324.174 205.883 322.984 206.636 322.025 207.619C321.066 208.601 320.365 209.785 319.979 211.074L313.816 231.819L331.503 221.175L334.741 207.069Z" fill="#FF6363"/>
<path d="M355.429 346.483H268.543L272.167 336.145H359.054L355.429 346.483Z" fill="#CFCFE8"/>
<path d="M242.27 204.237L224.184 194.367L210.74 216.578L228.826 226.448L242.27 204.237Z" fill="#FF6363"/>
<path d="M256.317 160.666C256.317 160.666 271.672 166.13 269.471 182.333C269.139 184.428 268.927 186.537 268.834 188.653L260.778 187.601L261.092 177.066L258.554 186.698L246.966 184.73L244.064 196.948C242.729 202.552 243.233 208.409 245.508 213.733C247.783 219.056 251.719 223.591 256.789 226.728V226.728L214.768 212.941C208.502 210.887 203.294 206.646 200.202 201.078C197.109 195.511 196.365 189.035 198.118 182.965L199.913 176.74C201.026 172.882 202.939 169.273 205.541 166.127C208.143 162.98 211.38 160.359 215.064 158.417C218.747 156.475 222.802 155.252 226.99 154.818C231.178 154.385 235.415 154.751 239.453 155.894L256.317 160.666Z" fill="#070717"/>
<path d="M210.024 214.298L228.125 224.223L241.479 247.221C244.502 252.282 245.648 258.161 244.731 263.915C243.815 269.668 240.889 274.962 236.424 278.948L232.85 282.227C229.965 284.853 226.405 286.716 222.525 287.629C218.646 288.543 214.582 288.475 210.739 287.433L175.924 278.066C174.08 277.568 172.39 276.654 171 275.4C169.609 274.147 168.559 272.593 167.939 270.87V270.87C166.523 266.933 166.308 262.696 167.32 258.648C168.332 254.601 170.529 250.907 173.658 247.994L210.024 214.298Z" fill="#F4B562"/>
<path d="M202.987 291.954C219.222 291.954 232.383 279.458 232.383 264.042C232.383 248.626 219.222 236.129 202.987 236.129C186.752 236.129 173.591 248.626 173.591 264.042C173.591 279.458 186.752 291.954 202.987 291.954Z" fill="#FFD15C"/>
<path d="M176.11 252.726L160.44 305.266C156.134 319.699 157.869 335.155 165.283 348.402C172.696 361.649 185.215 371.663 200.223 376.351C225.696 384.302 253.386 382.865 277.795 372.325V372.325C303.284 361.312 324.062 342.381 336.701 318.652L359.648 266.22C359.648 266.22 359.176 232.66 313.846 223.333L266.928 290.142C264.965 293.075 262.198 295.447 258.924 297.001C255.649 298.556 251.991 299.235 248.342 298.966V298.966C245.42 298.756 242.582 297.943 240.025 296.586C237.467 295.229 235.252 293.359 233.533 291.106C231.814 288.853 230.632 286.272 230.069 283.542C229.507 280.811 229.578 277.998 230.277 275.296L231.864 269.187L176.11 252.726Z" fill="url(#paint5_linear_2054_7205)"/>
<path d="M344.739 94.7598L346.355 96.7215C346.991 97.4885 347.802 98.1083 348.727 98.534C349.652 98.9597 350.667 99.1801 351.695 99.1788H386.46C388.851 99.1823 391.182 98.4697 393.122 97.1423L396.561 94.7733L344.739 94.7598Z" fill="#070717"/>
<path d="M102.069 83.6215C103.098 81.7801 104.559 80.1874 106.338 78.966C108.117 77.7445 110.167 76.9269 112.331 76.5759C116.959 75.7637 121.737 76.7209 125.624 79.239C135.011 85.0418 138.297 95.8813 139.832 105.824C140.698 111.43 141.633 117.345 140.708 122.98C140.324 125.325 139.724 127.904 137.825 129.521C137.185 130.063 136.083 130.811 135.178 130.455C134.027 129.932 134.086 128.091 134.027 127.082C133.525 117.738 138.828 106.057 149.268 103.656C154.837 102.376 159.678 105.385 162.059 110.075C165.011 115.841 163.702 122.569 162.541 128.596C162.49 128.856 162.544 129.124 162.692 129.348C162.839 129.572 163.07 129.735 163.338 129.805C163.606 129.876 163.892 129.848 164.14 129.728C164.388 129.608 164.579 129.404 164.676 129.157C167.087 123.167 175.116 121.429 181.029 123.083C188.831 125.279 194.263 131.614 199.478 137.099C202.42 140.402 205.766 143.36 209.445 145.911C210.625 146.687 211.727 144.865 210.566 144.098C203.187 139.267 198.435 131.782 191.596 126.344C185.693 121.672 177.949 118.56 170.383 121.354C168.611 121.95 166.992 122.897 165.635 124.133C164.278 125.369 163.213 126.865 162.511 128.521L164.647 129.082C165.837 122.877 167.097 116.168 164.489 110.122C162.433 105.356 158.202 101.469 152.584 101.18C146.965 100.89 141.761 104.039 138.317 107.936C134.429 112.469 132.143 118.05 131.784 123.886C131.626 126.269 131.292 129.914 133.318 131.717C135.158 133.343 137.717 132.38 139.34 130.979C141.564 129.11 142.292 126.204 142.794 123.503C143.267 120.286 143.333 117.027 142.99 113.795C142.006 102.021 139.93 88.6582 130.396 80.1548C125.939 76.1834 120.006 73.6137 113.807 74.2117C108.159 74.7537 102.699 77.585 100.101 82.5189C99.4714 83.7336 101.38 84.7989 102.069 83.5841V83.6215Z" fill="url(#paint6_radial_2054_7205)"/>
<path d="M380.81 334.265L388.33 343.768L388.502 342.532C385.456 344.785 382.07 346.588 378.458 347.881C377.178 348.343 377.743 350.312 379.023 349.843C382.98 348.426 386.687 346.446 390.018 343.972C390.186 343.814 390.293 343.607 390.323 343.384C390.353 343.161 390.303 342.936 390.182 342.743L382.661 333.24C381.839 332.201 379.981 333.24 380.81 334.265V334.265Z" fill="#4100FB"/>
<path d="M269.538 280.305C266.514 272.35 271.182 263.79 278.117 259.215C285.265 254.504 294.33 253.214 302.794 254.409C312.624 255.766 321.767 259.975 330.324 264.591C338.767 269.178 346.79 274.43 354.308 280.292C358.093 283.224 361.76 286.283 365.31 289.469C368.613 292.422 372.416 295.579 373.839 299.828C374.954 303.147 374.368 307.573 370.815 309.331C367.262 311.089 362.701 309.399 360.506 306.426C355.402 299.509 359.313 289.958 364.617 284.304C370.808 277.895 379.351 273.983 388.487 273.375C398.767 272.696 408.189 276.877 417.911 279.308C427.911 281.808 438.218 283.032 448.558 282.946C451.103 282.946 453.641 282.817 456.179 282.641C457.544 282.546 457.559 280.509 456.179 280.604C445.054 281.409 433.865 280.668 422.965 278.405C417.532 277.264 412.278 275.608 406.974 274.047C401.877 272.547 396.651 271.298 391.246 271.277C381.48 271.244 372.067 274.747 364.924 281.072C358.576 286.815 353.858 296.006 356.968 304.329C358.448 308.3 361.757 311.429 366.261 311.992C368.293 312.3 370.375 311.915 372.136 310.905C373.897 309.895 375.225 308.325 375.884 306.474C377.378 302.401 375.884 298.029 373.339 294.662C370.379 290.793 366.368 287.576 362.615 284.405C354.873 277.793 346.566 271.801 337.78 266.492C328.98 261.224 319.537 256.309 309.45 253.682C300.271 251.307 290.427 251.198 281.648 254.965C273.434 258.488 266.786 265.786 266.421 274.61C266.332 276.732 266.674 278.85 267.429 280.848C267.894 282.077 269.967 281.527 269.495 280.312L269.538 280.305Z" fill="url(#paint7_radial_2054_7205)"/>
<path d="M293.547 131.265C293.547 131.265 293.469 131.231 293.313 131.164C293.153 131.114 292.975 131.063 292.779 131.013C292.601 130.962 292.46 130.937 292.355 130.937C292.095 130.87 291.935 130.718 291.877 130.483C291.814 130.264 291.854 130.02 291.997 129.751C292.085 129.684 292.176 129.541 292.27 129.323C292.364 129.104 292.429 128.927 292.466 128.793C292.572 128.658 292.641 128.566 292.672 128.515C292.707 128.448 292.796 128.28 292.939 128.011C293.069 127.725 293.263 127.33 293.522 126.825C293.802 126.304 294.101 125.749 294.417 125.16C294.751 124.571 295.069 124.008 295.372 123.47C295.674 122.932 295.937 122.477 296.159 122.107C296.399 121.737 296.551 121.527 296.617 121.477C296.617 121.477 296.624 121.451 296.638 121.401C296.656 121.334 296.674 121.266 296.693 121.199C296.693 121.199 296.722 121.124 296.78 120.972C296.861 120.804 296.998 120.619 297.192 120.417C297.312 120.232 297.428 120.03 297.539 119.812C297.651 119.593 297.715 119.45 297.734 119.383C297.826 119.299 297.977 119.097 298.185 118.777C298.416 118.441 298.635 118.113 298.844 117.793C299.021 117.524 299.212 117.238 299.416 116.936C299.637 116.633 299.821 116.372 299.968 116.154C300.131 115.935 300.213 115.826 300.213 115.826C300.232 115.758 300.241 115.725 300.241 115.725C300.245 115.708 300.248 115.7 300.248 115.7C300.335 115.632 300.592 115.296 301.018 114.69C301.465 114.068 302.056 113.269 302.791 112.294C302.897 112.159 303.059 111.949 303.275 111.663C303.497 111.36 303.617 111.175 303.635 111.108C303.965 110.856 304.24 110.772 304.461 110.856C304.704 110.923 304.892 111.066 305.025 111.285C305.174 111.503 305.268 111.705 305.305 111.89L305.457 112.294L303.998 114.11C303.591 114.581 303.231 115.01 302.917 115.397C302.621 115.784 302.463 116.011 302.445 116.078C302.445 116.078 302.374 116.179 302.232 116.381C302.108 116.583 301.95 116.843 301.759 117.163C301.573 117.465 301.386 117.768 301.199 118.071C300.866 118.592 300.565 119.03 300.295 119.383C300.03 119.719 299.888 119.921 299.87 119.988C299.879 119.955 300.06 119.929 300.413 119.913C300.783 119.896 301.239 119.887 301.779 119.887C302.319 119.887 302.868 119.887 303.426 119.887C304.005 119.871 304.521 119.862 304.974 119.862C305.432 119.845 305.753 119.82 305.936 119.786L307.329 119.66L308.669 117.415C308.936 116.944 309.274 116.372 309.683 115.7C310.092 115.027 310.447 114.455 310.749 113.984C311.238 113.21 311.68 112.672 312.075 112.369C312.475 112.05 312.78 111.89 312.989 111.89C313.041 111.89 313.124 111.941 313.236 112.042C313.37 112.126 313.499 112.227 313.624 112.344C313.749 112.462 313.815 112.571 313.823 112.672C313.982 112.857 314.021 113.067 313.939 113.303C313.876 113.538 313.652 113.85 313.268 114.236C312.867 114.69 312.497 115.187 312.159 115.725C311.844 116.246 311.571 116.675 311.34 117.011C311.286 117.213 311.214 117.381 311.125 117.516C311.041 117.634 310.955 117.726 310.867 117.793C310.823 117.827 310.719 117.953 310.555 118.172C310.392 118.391 310.237 118.609 310.09 118.828C309.944 119.046 309.864 119.181 309.85 119.231C309.818 119.349 309.753 119.492 309.655 119.66C309.558 119.828 309.465 119.946 309.377 120.013C309.315 120.114 309.168 120.367 308.937 120.77C308.705 121.174 308.436 121.653 308.129 122.208C307.826 122.746 307.517 123.276 307.201 123.798C306.891 124.302 306.62 124.723 306.389 125.059C306.357 125.177 306.273 125.328 306.136 125.513C306.003 125.681 305.918 125.833 305.882 125.967C305.757 126.169 305.602 126.421 305.415 126.724C305.229 127.027 305.124 127.22 305.101 127.304C304.909 127.691 304.693 128.137 304.452 128.641C304.228 129.146 304.029 129.592 303.854 129.978C303.697 130.365 303.612 130.584 303.598 130.634C303.131 130.685 302.807 130.626 302.626 130.458C302.445 130.29 302.268 130.172 302.095 130.105C301.814 129.92 301.677 129.684 301.685 129.398C301.706 129.129 301.864 128.801 302.161 128.414C302.284 128.28 302.478 127.952 302.741 127.43C303.026 126.892 303.309 126.362 303.59 125.841C303.763 125.589 303.963 125.269 304.189 124.882C304.416 124.496 304.632 124.117 304.837 123.747C305.063 123.36 305.257 123.032 305.417 122.763C305.577 122.494 305.679 122.343 305.723 122.309C305.741 122.242 305.757 122.183 305.771 122.133C305.784 122.082 305.791 122.057 305.791 122.057C305.766 122.023 305.598 121.998 305.289 121.981C304.984 121.948 304.586 121.939 304.094 121.956C303.623 121.956 303.104 121.973 302.538 122.006C301.976 122.023 301.433 122.065 300.909 122.133C300.718 122.133 300.439 122.133 300.073 122.133C299.724 122.133 299.48 122.133 299.341 122.133C299.149 122.133 298.984 122.133 298.844 122.133C298.722 122.133 298.661 122.133 298.661 122.133C298.613 122.183 298.498 122.351 298.316 122.637C298.151 122.923 297.944 123.268 297.696 123.672C297.464 124.075 297.222 124.487 296.969 124.908C296.733 125.328 296.515 125.715 296.314 126.068C296.136 126.405 296.009 126.648 295.933 126.8C295.781 127.102 295.583 127.481 295.338 127.935C295.11 128.389 294.863 128.852 294.596 129.323C294.342 129.81 294.115 130.231 293.915 130.584C293.732 130.937 293.609 131.164 293.547 131.265ZM308.242 128.54C308.139 128.406 308.089 128.204 308.093 127.935C308.113 127.666 308.167 127.405 308.252 127.153C308.343 126.884 308.441 126.682 308.547 126.547C308.583 126.413 308.628 126.312 308.681 126.245C308.756 126.161 308.794 126.085 308.795 126.018C308.796 125.95 308.845 125.833 308.943 125.665C309.041 125.496 309.136 125.337 309.23 125.185C309.425 124.916 309.657 124.571 309.928 124.151C310.204 123.714 310.479 123.276 310.754 122.839C311.034 122.385 311.269 121.998 311.461 121.679C311.656 121.342 311.772 121.14 311.808 121.073C311.862 120.871 312.031 120.762 312.315 120.745C312.542 120.678 312.772 120.762 313.004 120.997C313.237 121.233 313.404 121.485 313.505 121.754C313.608 121.889 313.612 122.065 313.518 122.284C313.424 122.503 313.227 122.814 312.926 123.217C312.819 123.352 312.671 123.579 312.48 123.899C312.31 124.201 312.181 124.454 312.092 124.655C311.985 124.79 311.846 124.983 311.673 125.236C311.522 125.471 311.382 125.698 311.253 125.917C311.196 126.001 311.117 126.161 311.019 126.396C310.925 126.615 310.82 126.842 310.704 127.077C310.587 127.313 310.468 127.498 310.344 127.632C310 128.322 309.612 128.725 309.18 128.843C308.764 128.961 308.452 128.86 308.242 128.54ZM313.806 118.424C313.651 118.29 313.546 118.13 313.492 117.945C313.459 117.743 313.455 117.566 313.478 117.415C313.519 117.264 313.562 117.171 313.606 117.138C313.83 116.953 314.044 116.709 314.248 116.406C314.47 116.103 314.693 115.826 314.918 115.573C314.967 115.523 315.029 115.456 315.104 115.372C315.201 115.271 315.286 115.212 315.361 115.195C315.606 115.06 315.891 115.069 316.216 115.22C316.559 115.372 316.78 115.582 316.882 115.851C316.952 116.17 316.907 116.498 316.746 116.835C316.602 117.171 316.324 117.524 315.91 117.894C315.557 118.231 315.167 118.449 314.739 118.55C314.315 118.634 314.004 118.592 313.806 118.424ZM320.197 129.802C320.175 129.886 320.131 129.886 320.067 129.802C319.998 129.735 319.886 129.634 319.731 129.499C319.615 129.348 319.484 129.154 319.339 128.919C319.194 128.683 319.173 128.406 319.277 128.086C319.469 127.7 319.778 127.136 320.205 126.396C320.637 125.639 321.121 124.849 321.658 124.025C321.78 123.705 321.905 123.436 322.034 123.217C322.18 122.999 322.253 122.889 322.253 122.889C322.28 122.856 322.328 122.805 322.399 122.738C322.474 122.654 322.568 122.595 322.682 122.561C322.787 122.494 322.856 122.368 322.889 122.183C322.926 121.981 322.943 121.855 322.939 121.805C323.118 121.401 323.423 120.854 323.854 120.165C324.289 119.458 324.777 118.718 325.318 117.945C325.863 117.154 326.375 116.423 326.854 115.75C326.982 115.599 327.099 115.456 327.205 115.321C327.316 115.17 327.371 115.094 327.371 115.094C327.337 115.027 327.294 114.96 327.243 114.892C327.191 114.825 327.138 114.732 327.083 114.615C326.994 114.43 326.944 114.228 326.933 114.009C326.945 113.774 327.063 113.564 327.287 113.379C327.362 113.295 327.488 113.185 327.664 113.051C327.857 112.916 328.057 112.79 328.263 112.672C328.723 112.454 329.16 112.285 329.576 112.168C330.013 112.033 330.377 112.008 330.668 112.092C331.221 112.109 331.628 112.151 331.888 112.218C332.166 112.285 332.376 112.378 332.519 112.496C332.605 112.563 332.678 112.613 332.739 112.647C332.817 112.681 332.926 112.697 333.065 112.697C333.352 112.731 333.671 112.84 334.022 113.025C334.377 113.194 334.686 113.37 334.95 113.555C335.213 113.74 335.362 113.866 335.396 113.934C335.667 114.22 335.867 114.606 335.997 115.094C336.126 115.582 336.13 116.145 336.009 116.784C335.904 117.171 335.793 117.516 335.677 117.819C335.564 118.105 335.408 118.391 335.209 118.676C335.014 118.946 334.727 119.265 334.348 119.635C333.611 120.426 332.746 121.208 331.752 121.981C330.776 122.755 329.609 123.461 328.25 124.1C328.197 124.168 328.133 124.243 328.058 124.327C328.005 124.395 327.979 124.428 327.979 124.428C327.942 124.563 327.981 124.739 328.096 124.958C328.229 125.177 328.4 125.412 328.611 125.665C328.826 125.9 329.05 126.135 329.282 126.371C329.532 126.606 329.754 126.817 329.947 127.002C330.163 127.17 330.323 127.287 330.427 127.355C330.672 127.287 330.861 127.262 330.996 127.279C331.136 127.279 331.224 127.338 331.262 127.456C331.3 127.573 331.289 127.775 331.229 128.061C331.152 128.28 331.034 128.49 330.875 128.692C330.716 128.894 330.605 129.011 330.544 129.045C330.377 129.146 330.215 129.264 330.056 129.398C329.915 129.533 329.762 129.617 329.596 129.65C329.43 129.684 329.232 129.608 329.004 129.423C328.283 129.188 327.698 128.742 327.249 128.086C326.817 127.43 326.337 126.724 325.81 125.967C325.704 125.782 325.607 125.656 325.521 125.589C325.439 125.505 325.337 125.463 325.215 125.463C325.093 125.463 324.904 125.488 324.646 125.538C324.502 125.555 324.372 125.522 324.255 125.437C324.156 125.353 324.055 125.244 323.952 125.109C323.922 125.025 323.866 124.975 323.784 124.958C323.719 124.941 323.646 124.983 323.567 125.084C323.504 125.185 323.387 125.362 323.214 125.614C323.063 125.85 322.903 126.085 322.735 126.32C322.584 126.556 322.447 126.741 322.323 126.875C322.317 127.027 322.185 127.355 321.926 127.859C321.672 128.347 321.376 128.86 321.039 129.398C320.95 129.533 320.84 129.65 320.708 129.751C320.571 129.869 320.486 129.894 320.452 129.827C320.405 129.743 320.356 129.701 320.303 129.701C320.268 129.701 320.233 129.735 320.197 129.802ZM326.956 122.511C327.502 122.36 328.06 122.133 328.63 121.83C329.222 121.51 329.795 121.132 330.349 120.695C330.904 120.257 331.386 119.795 331.797 119.307C331.964 119.206 332.138 119.046 332.319 118.828C332.505 118.592 332.648 118.449 332.749 118.399C332.956 118.214 333.099 118.071 333.179 117.97C333.276 117.869 333.301 117.743 333.255 117.592C333.291 117.457 333.343 117.331 333.41 117.213C333.499 117.079 333.576 116.953 333.643 116.835C333.794 116.599 333.851 116.389 333.814 116.204C333.794 116.019 333.599 115.809 333.227 115.573C333.097 115.473 332.955 115.388 332.799 115.321C332.665 115.237 332.511 115.161 332.337 115.094C332.186 115.01 332.011 114.917 331.811 114.817C331.533 114.817 331.261 114.758 330.997 114.64C330.754 114.505 330.552 114.447 330.391 114.463C330.299 114.48 330.185 114.581 330.048 114.766C329.932 114.934 329.788 115.178 329.614 115.498C329.472 115.767 329.318 116.011 329.155 116.229C329.013 116.431 328.863 116.566 328.705 116.633C328.67 116.7 328.528 116.936 328.279 117.339C328.03 117.743 327.735 118.222 327.393 118.777C327.055 119.316 326.715 119.862 326.373 120.417C326.036 120.955 325.754 121.418 325.527 121.805C325.3 122.191 325.178 122.419 325.159 122.486C325.15 122.519 325.187 122.578 325.268 122.662C325.368 122.746 325.458 122.797 325.541 122.814C325.541 122.814 325.563 122.797 325.607 122.763C325.651 122.73 325.688 122.721 325.718 122.738L326.218 123.016L326.956 122.511ZM335.043 129.423C334.084 129.423 333.417 129.154 333.04 128.616C332.68 128.078 332.651 127.254 332.952 126.144C333.116 125.538 333.409 124.874 333.831 124.151C334.271 123.428 334.776 122.721 335.347 122.032C335.934 121.342 336.532 120.745 337.139 120.241C337.75 119.719 338.319 119.358 338.844 119.156C339.041 119.072 339.24 119.013 339.441 118.979C339.664 118.929 339.871 118.903 340.062 118.903C340.272 118.903 340.493 118.92 340.728 118.954C340.985 118.971 341.215 119.021 341.419 119.105C341.788 119.223 342.075 119.45 342.28 119.786C342.503 120.123 342.527 120.611 342.354 121.25C342.309 121.418 342.241 121.603 342.151 121.805C342.067 121.99 341.955 122.175 341.818 122.36C341.441 122.915 340.949 123.444 340.342 123.949C339.752 124.454 339.177 124.807 338.617 125.009C338.46 125.076 338.307 125.126 338.158 125.16C338.032 125.177 337.899 125.185 337.759 125.185C337.393 125.185 337.076 125.135 336.807 125.034C336.556 124.933 336.331 124.798 336.132 124.63L335.971 124.454L335.772 124.706C335.563 125.025 335.403 125.294 335.292 125.513C335.198 125.732 335.137 125.892 335.11 125.992C335.055 126.194 335.007 126.405 334.965 126.623C334.928 126.825 334.934 126.993 334.985 127.128C335.032 127.212 335.101 127.279 335.192 127.33C335.3 127.38 335.441 127.405 335.616 127.405C335.72 127.405 335.816 127.405 335.903 127.405C336.012 127.388 336.104 127.372 336.178 127.355C336.51 127.287 336.792 127.178 337.025 127.027C337.28 126.859 337.536 126.716 337.795 126.598L337.913 126.547L337.907 126.472C338.245 126.32 338.47 126.228 338.584 126.194C338.702 126.144 338.792 126.102 338.853 126.068C338.941 126.001 339.029 125.967 339.116 125.967C339.369 125.934 339.586 126.001 339.767 126.169C339.97 126.32 340.039 126.514 339.975 126.749C339.948 126.85 339.826 127.01 339.61 127.229C339.412 127.447 339.169 127.666 338.884 127.885C338.62 128.086 338.359 128.246 338.1 128.364C338.044 128.381 337.984 128.406 337.923 128.44C337.866 128.456 337.807 128.482 337.746 128.515H337.772C337.56 128.717 337.376 128.818 337.219 128.818H337.01C336.909 128.936 336.648 129.062 336.228 129.196C335.804 129.348 335.409 129.423 335.043 129.423ZM338.049 123.344C338.206 123.344 338.352 123.318 338.488 123.268C338.641 123.217 338.788 123.159 338.928 123.091C339.423 122.805 339.794 122.435 340.039 121.981C340.284 121.527 340.334 121.182 340.188 120.947C340.167 120.896 340.133 120.863 340.085 120.846C340.042 120.812 339.985 120.796 339.916 120.796C339.724 120.796 339.49 120.854 339.214 120.972C338.956 121.09 338.684 121.258 338.398 121.477C338.112 121.695 337.833 121.956 337.559 122.259L337.076 122.789C337.115 122.772 337.143 122.763 337.161 122.763C337.2 122.746 337.229 122.738 337.246 122.738C337.403 122.738 337.494 122.789 337.519 122.889C337.544 122.99 337.577 123.091 337.62 123.192C337.679 123.293 337.823 123.344 338.049 123.344ZM339.468 134.217C338.808 134.334 338.203 134.351 337.651 134.267C337.094 134.2 336.653 134.057 336.329 133.838C335.988 133.62 335.81 133.376 335.796 133.107C335.796 132.72 335.926 132.434 336.185 132.249C336.444 132.064 336.726 131.955 337.032 131.921C337.32 131.887 337.493 131.921 337.553 132.022C337.67 132.106 337.853 132.232 338.104 132.4C338.372 132.568 338.744 132.611 339.22 132.526C339.643 132.442 340.051 132.257 340.442 131.971C340.833 131.686 341.194 131.383 341.524 131.063C341.718 130.861 342.052 130.5 342.524 129.978C342.996 129.457 343.491 128.885 344.008 128.263C344.547 127.624 345.012 127.035 345.401 126.497C345.49 126.362 345.594 126.203 345.714 126.018C345.834 125.833 345.962 125.681 346.099 125.564C346.258 125.362 346.395 125.177 346.51 125.009C346.648 124.824 346.734 124.697 346.77 124.63C346.81 124.546 346.934 124.378 347.142 124.126C347.349 123.873 347.549 123.621 347.739 123.369C347.894 123.117 348.125 122.746 348.432 122.259C348.738 121.771 349.019 121.376 349.276 121.073C349.59 120.686 349.839 120.375 350.025 120.14C350.233 119.887 350.422 119.736 350.593 119.686C350.781 119.568 350.945 119.509 351.085 119.509C351.224 119.509 351.376 119.559 351.54 119.66C351.695 119.862 351.806 120.064 351.873 120.266C351.962 120.451 351.951 120.686 351.838 120.972C351.748 121.241 351.508 121.611 351.119 122.082C350.871 122.486 350.614 122.856 350.348 123.192C350.105 123.512 349.926 123.722 349.811 123.823C349.67 124.025 349.503 124.252 349.313 124.504C349.145 124.739 348.99 124.958 348.848 125.16C348.352 125.833 347.934 126.379 347.593 126.8C347.253 127.22 346.948 127.607 346.678 127.96C346.408 128.313 346.113 128.725 345.794 129.196C345.225 129.819 344.673 130.407 344.139 130.962C343.618 131.534 343.083 132.064 342.533 132.552C342.317 132.703 342.012 132.896 341.617 133.132C341.235 133.384 340.843 133.611 340.44 133.813C340.049 134.032 339.725 134.166 339.468 134.217ZM344.28 128.515C344.027 128.482 343.785 128.313 343.554 128.011C343.34 127.708 343.174 127.388 343.056 127.052C342.955 126.716 342.94 126.48 343.012 126.346C343.034 126.262 343.053 126.194 343.066 126.144C343.08 126.093 343.087 126.068 343.087 126.068C342.982 126.068 342.934 125.925 342.942 125.639C342.971 125.337 343.03 124.958 343.119 124.504C343.224 124.05 343.343 123.579 343.475 123.091C343.625 122.604 343.772 122.158 343.916 121.754C344.063 121.468 344.182 121.157 344.273 120.821C344.369 120.468 344.453 120.19 344.525 119.988C344.581 119.719 344.692 119.501 344.86 119.332C345.045 119.164 345.179 119.055 345.262 119.004C345.98 118.735 346.412 118.878 346.557 119.433C346.703 119.988 346.569 120.871 346.153 122.082C345.936 122.755 345.743 123.402 345.575 124.025C345.411 124.63 345.33 125.152 345.334 125.589C345.337 126.026 345.462 126.337 345.708 126.522C345.812 126.59 345.817 126.732 345.723 126.951C345.629 127.17 345.486 127.405 345.296 127.657C345.11 127.893 344.914 128.103 344.707 128.288C344.522 128.456 344.38 128.532 344.28 128.515ZM353.852 124.908C353.341 124.992 353.01 124.798 352.859 124.327C352.712 123.84 352.96 122.99 353.601 121.779C353.761 121.578 353.9 121.384 354.02 121.199C354.144 120.997 354.222 120.838 354.254 120.72C354.383 120.501 354.539 120.249 354.721 119.963C354.925 119.66 355.122 119.383 355.312 119.131C355.507 118.861 355.642 118.685 355.717 118.601C355.787 118.601 355.873 118.542 355.974 118.424C356.093 118.306 356.169 118.189 356.201 118.071C356.237 117.936 356.304 117.785 356.402 117.617C356.517 117.449 356.619 117.331 356.707 117.264C356.73 117.18 356.789 117.087 356.887 116.986C356.984 116.885 357.041 116.801 357.059 116.734C357.078 116.667 357.111 116.608 357.16 116.557C357.225 116.507 357.268 116.448 357.286 116.381C357.516 116.112 357.823 115.716 358.208 115.195C358.615 114.657 359.021 114.093 359.424 113.505C359.845 112.916 360.204 112.395 360.501 111.941C360.799 111.487 360.961 111.209 360.988 111.108C361.06 110.974 361.146 110.847 361.248 110.73C361.349 110.612 361.465 110.57 361.595 110.604C361.679 110.553 361.79 110.528 361.93 110.528C362.074 110.511 362.18 110.503 362.25 110.503C362.25 110.503 362.319 110.536 362.458 110.604C362.597 110.671 362.709 110.772 362.794 110.906C362.902 111.024 362.937 111.184 362.9 111.386C362.862 111.587 362.816 111.789 362.762 111.991C362.658 112.311 362.438 112.672 362.102 113.076C361.766 113.48 361.393 113.925 360.982 114.413C360.721 114.732 360.464 115.035 360.213 115.321C359.978 115.607 359.852 115.784 359.834 115.851C359.816 115.918 359.754 116.019 359.647 116.154C359.541 116.288 359.417 116.456 359.275 116.658C359.125 116.826 358.966 117.028 358.798 117.264C358.647 117.499 358.509 117.718 358.385 117.92C358.265 118.105 358.198 118.222 358.185 118.273C358.149 118.34 358.105 118.407 358.051 118.475C358.016 118.542 357.954 118.609 357.866 118.676C357.796 118.676 357.739 118.727 357.694 118.828C357.672 118.912 357.66 118.954 357.66 118.954C357.642 119.021 357.555 119.181 357.4 119.433C357.266 119.669 357.067 119.955 356.801 120.291C356.229 121.182 355.8 121.897 355.515 122.435C355.234 122.957 355.026 123.402 354.891 123.772C354.747 124.176 354.576 124.454 354.378 124.605C354.185 124.739 354.009 124.84 353.852 124.908ZM351.407 128.818C351.004 128.953 350.684 129.011 350.444 128.995C350.2 128.995 349.96 128.885 349.723 128.667C349.465 128.33 349.435 127.994 349.63 127.657C349.848 127.304 350.253 126.968 350.845 126.648C351.252 126.43 351.535 126.32 351.691 126.32C351.87 126.304 352.107 126.362 352.402 126.497C352.898 126.85 353.053 127.245 352.864 127.683C352.681 128.103 352.195 128.482 351.407 128.818Z" fill="black"/>
<defs>
<linearGradient id="paint0_linear_2054_7205" x1="225.531" y1="109.498" x2="246.327" y2="160.533" gradientUnits="userSpaceOnUse">
<stop stop-color="#FFD15C"/>
<stop offset="1" stop-color="#FFBF1B"/>
</linearGradient>
<linearGradient id="paint1_linear_2054_7205" x1="515.913" y1="254.593" x2="533.162" y2="277.732" gradientUnits="userSpaceOnUse">
<stop stop-color="#6C39FE"/>
<stop offset="1" stop-color="#4100FB"/>
</linearGradient>
<linearGradient id="paint2_linear_2054_7205" x1="2.12049" y1="282.649" x2="76.7067" y2="426.379" gradientUnits="userSpaceOnUse">
<stop stop-color="#6C39FE"/>
<stop offset="1" stop-color="#4100FB"/>
</linearGradient>
<linearGradient id="paint3_linear_2054_7205" x1="332.678" y1="127.865" x2="332.678" y2="402.872" gradientUnits="userSpaceOnUse">
<stop stop-color="#070717"/>
<stop offset="1" stop-color="#4100FB"/>
</linearGradient>
<linearGradient id="paint4_linear_2054_7205" x1="363.723" y1="205.003" x2="366.506" y2="243.89" gradientUnits="userSpaceOnUse">
<stop stop-color="#070717"/>
<stop offset="1" stop-color="#4100FB"/>
</linearGradient>
<linearGradient id="paint5_linear_2054_7205" x1="189.255" y1="310.299" x2="255.035" y2="384.821" gradientUnits="userSpaceOnUse">
<stop stop-color="#FFD15C"/>
<stop offset="1" stop-color="#FFBF1B"/>
</linearGradient>
<radialGradient id="paint6_radial_2054_7205" cx="0" cy="0" r="1" gradientUnits="userSpaceOnUse" gradientTransform="translate(211.276 96.9743) rotate(159.382) scale(155.725 75.2085)">
<stop stop-color="#FF6363"/>
<stop offset="1" stop-color="#4100FB"/>
</radialGradient>
<radialGradient id="paint7_radial_2054_7205" cx="0" cy="0" r="1" gradientUnits="userSpaceOnUse" gradientTransform="translate(457.581 271.077) rotate(169.635) scale(254.499 66.0003)">
<stop stop-color="#FF6363"/>
<stop offset="1" stop-color="#4100FB"/>
</radialGradient>
</defs>
</svg>
