<svg width="821" height="663" viewBox="0 0 821 663" fill="none" xmlns="http://www.w3.org/2000/svg">
<path d="M598.678 107.395L594.936 117.077H347.596L309.36 215.984H298.824L305.618 225.656H563.493L605.472 117.077L598.678 107.395Z" fill="#F4B562"/>
<path d="M598.678 107.395L597.529 110.355L556.7 215.984H298.824L302.117 207.455L340.802 107.395H598.678Z" fill="url(#paint0_linear_1705_23173)"/>
<path d="M681.694 -7.82806e-06L664.946 25.0967L755.299 79.4592L772.046 54.3625L681.694 -7.82806e-06Z" fill="#FF6363"/>
<path d="M820.283 397.423L793.125 382.667L740.001 470.822L767.159 485.578L820.283 397.423Z" fill="url(#paint1_linear_1705_23173)"/>
<path d="M193.304 385.516L163 392.915L189.636 491.282L219.94 483.883L193.304 385.516Z" fill="#FFD15C"/>
<path d="M670.577 281.857H622.921V426.577H670.577V281.857Z" fill="white"/>
<path d="M598.678 107.395L597.529 110.355L538.768 140.98C538.149 141.301 537.451 141.461 536.746 141.442C536.041 141.424 535.353 141.229 534.753 140.876L514.776 129.044L493.18 145.135C492.748 145.454 492.252 145.685 491.722 145.814C491.192 145.942 490.64 145.966 490.1 145.883C489.56 145.8 489.044 145.613 488.584 145.332C488.124 145.052 487.729 144.684 487.425 144.252L471.934 122.281L434.102 153.789C433.358 154.409 432.397 154.743 431.408 154.726C430.418 154.709 429.471 154.341 428.752 153.695L417.812 143.941L407.637 154.724C407.099 155.294 406.391 155.695 405.608 155.875C404.824 156.055 404.002 156.005 403.249 155.731C402.496 155.457 401.848 154.973 401.392 154.343C400.935 153.712 400.69 152.965 400.69 152.2V130.592L354.106 181.038C353.637 181.55 353.031 181.933 352.352 182.146C351.674 182.359 350.947 182.393 350.249 182.247C349.551 182.1 348.907 181.777 348.387 181.312C347.866 180.847 347.487 180.257 347.29 179.604L340.977 158.983L301.45 215.984H298.824L302.106 207.455L337.827 156.022C338.247 155.421 338.839 154.947 339.534 154.655C340.229 154.363 340.997 154.265 341.748 154.375C342.499 154.484 343.202 154.795 343.773 155.271C344.344 155.747 344.759 156.368 344.971 157.061L351.316 177.838L398.119 127.153C398.65 126.573 399.356 126.16 400.141 125.971C400.926 125.782 401.753 125.826 402.512 126.096C403.27 126.366 403.923 126.85 404.384 127.483C404.844 128.116 405.09 128.867 405.088 129.636V151.254L414.847 140.928C415.2 140.536 415.635 140.218 416.125 139.995C416.615 139.771 417.148 139.647 417.691 139.63C418.223 139.611 418.753 139.693 419.251 139.871C419.749 140.05 420.205 140.321 420.59 140.668L431.531 150.454L469.428 118.894C469.854 118.541 470.355 118.278 470.896 118.122C471.437 117.966 472.007 117.922 472.568 117.991C473.129 118.065 473.668 118.25 474.148 118.535C474.629 118.819 475.041 119.197 475.358 119.642L490.806 141.572L512.325 125.585C512.969 125.108 513.752 124.829 514.567 124.787C515.383 124.744 516.192 124.939 516.888 125.346L536.908 137.199L594.17 107.415L598.678 107.395Z" fill="white"/>
<path d="M256.844 414.33L0 660.409H250.5L341.818 444.612L256.844 414.33Z" fill="url(#paint2_linear_1705_23173)"/>
<path d="M550.903 660.461H240.547L431.456 153.249C433.325 148.28 436.766 143.982 441.308 140.943C445.85 137.904 451.271 136.273 456.827 136.274H720.38C723.522 136.275 726.617 136.993 729.405 138.367C732.194 139.741 734.594 141.731 736.403 144.17C738.212 146.609 739.377 149.425 739.801 152.38C740.224 155.336 739.894 158.345 738.836 161.154L550.903 660.461Z" fill="url(#paint3_linear_1705_23173)"/>
<path d="M513.79 662.539H249.285L442.689 154.817C443.827 151.824 445.907 149.236 448.647 147.404C451.387 145.571 454.654 144.584 458.005 144.574H694.547C696.413 144.571 698.253 144.994 699.91 145.809C701.568 146.624 702.993 147.807 704.067 149.256C705.141 150.706 705.83 152.38 706.077 154.136C706.325 155.893 706.122 157.68 705.487 159.347L513.79 662.539Z" fill="white"/>
<path d="M725.508 207.933L720.596 220.773H475.674L426.519 349.309L412.898 351.044L420.94 363.884H678.815L733.55 220.773L725.508 207.933Z" fill="#4100FB"/>
<path d="M360.976 328.667C384.148 328.667 402.932 310.83 402.932 288.827C402.932 266.825 384.148 248.988 360.976 248.988C337.804 248.988 319.02 266.825 319.02 288.827C319.02 310.83 337.804 328.667 360.976 328.667Z" fill="#FF6363"/>
<path d="M670.774 351.044H412.898L467.633 207.933H725.508L670.774 351.044Z" fill="#E8E8F7"/>
<path d="M639.897 351.044H440.367L457.04 308.503H656.571L639.897 351.044Z" fill="url(#paint4_linear_1705_23173)"/>
<path d="M677.02 242.589H544.051L549.598 226.768H682.567L677.02 242.589Z" fill="#CFCFE8"/>
<path d="M518.743 398.986H385.773L391.309 383.164H524.289L518.743 398.986Z" fill="#CFCFE8"/>
<path d="M509.097 426.951H376.117L381.664 411.13H514.633L509.097 426.951Z" fill="#CFCFE8"/>
<path d="M480.233 354.347L538.381 398.363L574.419 344.489L514.936 302.083L480.233 354.347Z" fill="#FF6363"/>
<path d="M544.984 265.807C544.218 262.306 540.28 260.613 536.812 261.184C534.859 261.556 533.033 262.378 531.494 263.577C529.954 264.776 528.749 266.316 527.983 268.061C526.637 271.718 529.361 274.73 532.6 276.372C534.315 277.021 535.948 277.85 537.468 278.844C538.212 279.526 538.788 280.355 539.155 281.273C539.522 282.191 539.671 283.174 539.591 284.153C539.405 286.428 536.56 287.009 534.591 287.145C531.914 287.237 529.241 286.885 526.692 286.106C526.286 286.035 525.866 286.111 525.516 286.32C525.166 286.528 524.912 286.853 524.802 287.232C524.692 287.61 524.735 288.013 524.923 288.362C525.111 288.711 525.43 288.981 525.817 289.118C529.7 290.157 534.208 290.957 538.136 289.648C539.726 289.19 541.104 288.229 542.041 286.926C542.938 285.249 543.129 283.31 542.577 281.504C542.24 279.773 541.377 278.173 540.094 276.902C538.75 275.778 537.21 274.885 535.543 274.263C533.999 273.746 532.615 272.871 531.517 271.718C530.324 270.18 531.145 268.445 532.348 267.178C533.721 265.652 535.6 264.615 537.676 264.238C538.565 264.066 539.489 264.223 540.26 264.677C541.031 265.131 541.59 265.847 541.822 266.679C542.249 268.643 545.411 267.812 544.984 265.848V265.807Z" fill="#4100FB"/>
<path d="M539.96 259.969C534.994 271.362 530.86 283.066 527.586 294.998C527.485 295.392 527.548 295.808 527.764 296.157C527.98 296.507 528.331 296.763 528.742 296.871C529.154 296.979 529.593 296.931 529.968 296.737C530.342 296.542 530.622 296.217 530.748 295.829C534.021 283.894 538.156 272.186 543.122 260.79C543.931 258.94 540.748 258.13 539.96 259.969Z" fill="#4100FB"/>
<path d="M566.48 281.649C570.43 279.571 574.926 276.559 575.156 271.853C575.276 269.349 573.581 267.625 571.261 266.721C569.292 265.952 566.787 265.235 564.697 265.827C562.093 266.565 561.284 269.069 560.999 271.375C560.838 272.576 560.968 273.796 561.377 274.942C561.787 276.089 562.465 277.132 563.362 277.992C564.97 279.623 567.213 280.776 568.428 282.75C569.642 284.724 568.537 286.615 566.59 287.602C565.349 288.175 563.997 288.497 562.618 288.547C561.973 288.547 560.43 288.703 560.003 288.059C559.446 287.228 561.327 285.721 561.831 285.233C562.934 284.17 564.127 283.193 565.397 282.314C567.082 281.15 565.452 278.439 563.734 279.623C561.476 281.085 559.465 282.864 557.772 284.901C556.328 286.77 556.131 289.388 558.362 290.791C560.222 291.965 562.662 291.767 564.752 291.414C567.261 291.086 569.531 289.827 571.064 287.913C571.741 287.004 572.141 285.936 572.22 284.825C572.299 283.715 572.055 282.605 571.513 281.618C570.419 279.54 568.46 278.221 566.71 276.735C565.799 276.047 565.053 275.183 564.522 274.2C564.084 272.967 564.084 271.632 564.522 270.398C564.752 269.526 565.014 268.85 566.054 268.747C567.178 268.733 568.294 268.935 569.336 269.339C570.342 269.65 571.622 270.055 571.885 271.157C571.996 272.368 571.603 273.572 570.791 274.512C569.379 276.527 567.016 277.836 564.817 278.958C562.968 279.924 564.62 282.615 566.48 281.649Z" fill="#4100FB"/>
<path d="M581.929 265.755C580.286 268.37 579.041 271.192 578.231 274.138C577.574 276.58 576.305 280.527 579.412 281.898C582.027 283.052 585.178 281.898 587.191 280.164C589.576 278.148 590.648 275.136 591.567 272.331C592.136 270.679 589.379 269.515 588.569 271.126C585.678 276.97 583.409 283.074 581.797 289.347C581.294 291.3 584.456 292.131 584.959 290.178C586.484 284.164 588.639 278.311 591.392 272.705L588.394 271.5C587.865 273.55 586.921 275.484 585.616 277.192C584.989 277.929 584.186 278.513 583.274 278.896C582.716 279.114 581.261 279.54 580.725 279.073C580.189 278.605 580.911 276.829 581.01 276.341C581.25 275.302 581.535 274.263 581.885 273.224C582.602 271.169 583.552 269.194 584.719 267.334C584.919 266.978 584.967 266.562 584.851 266.174C584.735 265.786 584.465 265.455 584.098 265.252C583.731 265.049 583.295 264.989 582.883 265.084C582.47 265.18 582.112 265.424 581.885 265.765L581.929 265.755Z" fill="#4100FB"/>
<path d="M612.919 267.106C610.731 266.939 608.543 266.794 606.355 266.659C604.517 266.545 602.329 266.16 600.611 267.002C598.894 267.843 598.358 269.661 597.668 271.219C596.837 273.11 596.06 275.032 595.338 276.964C595.259 277.263 595.274 277.576 595.38 277.867C595.487 278.158 595.68 278.412 595.937 278.6C596.194 278.788 596.503 278.9 596.826 278.923C597.149 278.946 597.472 278.879 597.756 278.73C598.948 278.024 601.333 276.652 602.132 278.418C602.931 280.41 603.057 282.589 602.493 284.651C602.282 285.534 601.882 286.366 601.317 287.095C600.752 287.825 600.035 288.436 599.211 288.89C597.231 289.929 595.141 289.368 593.172 288.568C592.792 288.376 592.35 288.327 591.935 288.431C591.519 288.535 591.16 288.784 590.929 289.129C590.726 289.48 590.673 289.891 590.781 290.278C590.889 290.665 591.15 290.997 591.509 291.207C594.572 292.443 597.624 293.149 600.721 291.612C602.075 290.893 603.243 289.894 604.137 288.69C605.03 287.485 605.628 286.105 605.884 284.651C606.388 281.94 606.322 277.951 604.287 275.749C602.099 273.328 598.533 274.554 596.093 275.967L598.511 277.733C599.101 276.133 599.732 274.544 600.403 272.965C600.808 272.019 601.3 269.848 602.471 269.599C603.131 269.5 603.803 269.5 604.462 269.599L607.296 269.765L612.963 270.16C615.074 270.326 615.063 267.209 612.963 267.043L612.919 267.106Z" fill="#4100FB"/>
<path d="M616.255 286.781L615.883 286.449C615.737 286.301 615.557 286.187 615.358 286.116C615.157 286.034 614.941 285.991 614.723 285.991C614.505 285.991 614.289 286.034 614.089 286.116C613.887 286.184 613.707 286.298 613.563 286.449L613.301 286.76C613.156 287 613.08 287.273 613.082 287.55V287.955C613.156 288.219 613.303 288.459 613.509 288.651L613.881 288.983C614.029 289.13 614.213 289.241 614.417 289.305C614.61 289.398 614.824 289.444 615.04 289.44C615.26 289.444 615.478 289.397 615.675 289.305C615.877 289.243 616.058 289.132 616.2 288.983L616.463 288.661C616.606 288.424 616.682 288.156 616.682 287.882L616.627 287.467C616.555 287.205 616.407 286.967 616.2 286.781H616.255Z" fill="#4100FB"/>
<path d="M626.782 270.097C623.988 272.873 622.119 276.372 621.41 280.153C620.863 283.217 620.48 288.048 623.598 290.094C627.351 292.588 631.333 287.581 633.16 285.015C635.348 281.898 637.307 277.743 636.782 273.92C636.685 272.909 636.337 271.935 635.766 271.077C635.196 270.219 634.419 269.502 633.5 268.985C632.641 268.493 631.654 268.241 630.652 268.257C629.649 268.274 628.672 268.558 627.832 269.079C627.467 269.296 627.204 269.638 627.096 270.034C626.988 270.43 627.044 270.85 627.253 271.208C627.473 271.549 627.823 271.797 628.229 271.901C628.636 272.006 629.069 271.958 629.441 271.769C629.814 271.512 630.264 271.373 630.726 271.373C631.188 271.373 631.638 271.512 632.012 271.769C632.486 272.087 632.874 272.507 633.144 272.994C633.414 273.482 633.559 274.023 633.565 274.574C633.784 277.369 632.351 280.34 630.83 282.667C630.035 283.887 629.1 285.02 628.04 286.043C627.526 286.552 626.268 288.027 625.404 287.487C624.539 286.947 624.496 285.482 624.441 284.672C624.332 283.282 624.417 281.885 624.692 280.516C625.316 277.424 626.857 274.566 629.134 272.278C630.589 270.824 628.27 268.611 626.815 270.066L626.782 270.097Z" fill="#4100FB"/>
<path d="M643.469 273.411C643.722 273.111 644.042 272.868 644.405 272.697C644.768 272.526 645.166 272.433 645.571 272.423C645.976 272.413 646.379 272.487 646.75 272.64C647.122 272.792 647.455 273.02 647.724 273.307C648.961 274.647 648.348 276.424 647.32 277.743C646.094 279.27 644.245 280.257 642.659 281.4C640.955 282.609 639.356 283.947 637.878 285.399C636.576 286.698 635.263 288.215 635.252 290.116C635.229 290.969 635.505 291.805 636.038 292.491C636.571 293.178 637.33 293.676 638.195 293.907C640.34 294.305 642.52 294.499 644.705 294.489L652.133 295.019C654.234 295.175 654.223 292.058 652.133 291.902C648.184 291.622 644.234 291.352 640.296 291.061C639.815 291.061 638.972 291.061 638.655 290.656C638.338 290.251 638.655 289.43 638.95 289.025C639.95 287.694 641.148 286.508 642.506 285.503C645.088 283.353 648.403 281.815 650.35 279.052C652.133 276.528 652.254 273.058 649.803 270.876C649.159 270.316 648.396 269.893 647.566 269.635C646.735 269.378 645.856 269.292 644.988 269.383C644.12 269.475 643.282 269.742 642.531 270.166C641.781 270.59 641.134 271.162 640.635 271.842C640.439 272.196 640.39 272.606 640.5 272.992C640.61 273.377 640.869 273.709 641.226 273.92C641.598 274.104 642.03 274.149 642.435 274.045C642.84 273.941 643.19 273.696 643.414 273.359L643.469 273.411Z" fill="#4100FB"/>
<path d="M576.197 339.098C576.662 333.263 572.629 328.215 567.188 327.824C561.748 327.433 556.96 331.846 556.495 337.682C556.03 343.517 560.063 348.565 565.503 348.956C570.944 349.347 575.731 344.934 576.197 339.098Z" fill="#FF6363"/>
<path d="M614.782 569.303H356.907L350.364 558.074L384.279 497.748L635.601 486.519L642.155 497.748L614.782 569.303Z" fill="#4100FB"/>
<path d="M608.24 558.074H350.364L377.726 486.519H635.601L608.24 558.074Z" fill="#E8E8F7"/>
<path d="M560.162 328.139C560.627 322.304 556.594 317.256 551.153 316.865C545.713 316.474 540.925 320.887 540.46 326.723C539.994 332.558 544.028 337.606 549.468 337.997C554.909 338.388 559.696 333.975 560.162 328.139Z" fill="#FF6363"/>
<path d="M545.412 316.445C545.878 310.609 541.845 305.562 536.404 305.171C530.964 304.779 526.176 309.193 525.711 315.028C525.245 320.864 529.279 325.911 534.719 326.302C540.16 326.694 544.947 322.28 545.412 316.445Z" fill="#FF6363"/>
<path d="M552.723 281.076C555.613 277.058 554.525 271.577 550.294 268.833C546.063 266.09 540.29 267.122 537.401 271.14L513.702 304.091C510.812 308.109 511.9 313.59 516.131 316.334C520.363 319.078 526.135 318.045 529.025 314.027L552.723 281.076Z" fill="#FF6363"/>
<path d="M554.157 263.274L554.148 263.269C551.135 261.314 547.023 262.05 544.965 264.912L541.713 269.433C539.655 272.294 540.43 276.198 543.444 278.153L543.453 278.159C546.466 280.113 550.578 279.377 552.636 276.516L555.888 271.995C557.946 269.133 557.171 265.229 554.157 263.274Z" fill="#070717"/>
<path d="M512.28 316.45L510.475 315.308C508.678 314.171 506.624 313.453 504.479 313.213C502.335 312.973 500.161 313.217 498.135 313.926C496.109 314.635 494.288 315.788 492.82 317.292C491.352 318.796 490.279 320.607 489.688 322.58L480.258 354.326L507.324 338.037L512.28 316.45Z" fill="#FF6363"/>
<path d="M543.942 529.806H410.973L416.519 513.985H549.489L543.942 529.806Z" fill="#CFCFE8"/>
<path d="M370.765 312.116L343.086 297.012L322.513 331.003L350.191 346.108L370.765 312.116Z" fill="#FF6363"/>
<path d="M392.262 245.435C392.262 245.435 415.762 253.798 412.392 278.595C411.885 281.8 411.56 285.028 411.419 288.267L399.089 286.656L399.57 270.534L395.686 285.275L377.952 282.262L373.51 300.961C371.468 309.537 372.239 318.501 375.721 326.648C379.202 334.795 385.226 341.735 392.984 346.535L328.677 325.436C319.087 322.293 311.117 315.802 306.385 307.282C301.652 298.762 300.512 288.85 303.197 279.561L305.943 270.035C307.646 264.13 310.574 258.608 314.556 253.793C318.537 248.977 323.492 244.966 329.129 241.994C334.766 239.022 340.971 237.15 347.381 236.486C353.791 235.823 360.275 236.383 366.454 238.132L392.262 245.435Z" fill="#070717"/>
<path d="M321.416 327.514L349.117 342.701L369.554 377.897C374.181 385.643 375.934 394.64 374.531 403.445C373.129 412.25 368.652 420.353 361.819 426.452L356.349 431.47C351.933 435.489 346.485 438.34 340.548 439.738C334.611 441.136 328.392 441.033 322.51 439.438L269.231 425.102C266.408 424.34 263.823 422.941 261.694 421.023C259.566 419.105 257.959 416.727 257.01 414.09C254.843 408.065 254.515 401.581 256.064 395.386C257.612 389.191 260.975 383.539 265.763 379.082L321.416 327.514Z" fill="#F4B562"/>
<path d="M310.647 446.357C335.492 446.357 355.634 427.232 355.634 403.64C355.634 380.048 335.492 360.923 310.647 360.923C285.801 360.923 265.66 380.048 265.66 403.64C265.66 427.232 285.801 446.357 310.647 446.357Z" fill="#FFD15C"/>
<path d="M269.514 386.322L245.533 466.728C238.943 488.817 241.598 512.47 252.944 532.743C264.29 553.016 283.449 568.341 306.416 575.515C345.399 587.684 387.776 585.485 425.13 569.355C464.139 552.501 495.936 523.529 515.279 487.214L550.397 406.974C550.397 406.974 549.675 355.614 480.302 341.34L408.501 443.583C405.496 448.073 401.261 451.701 396.25 454.081C391.24 456.46 385.641 457.499 380.056 457.088C375.585 456.765 371.242 455.522 367.328 453.445C363.414 451.368 360.024 448.506 357.393 445.058C354.762 441.611 352.953 437.661 352.093 433.482C351.232 429.304 351.34 424.998 352.41 420.863L354.838 411.514L269.514 386.322Z" fill="url(#paint5_linear_1705_23173)"/>
<path d="M527.582 144.574L530.055 147.577C531.028 148.75 532.269 149.699 533.685 150.35C535.101 151.002 536.654 151.339 538.227 151.337H591.43C595.089 151.343 598.657 150.252 601.626 148.221L606.889 144.595L527.582 144.574Z" fill="#070717"/>
<path d="M156.204 127.528C157.779 124.71 160.014 122.273 162.737 120.404C165.459 118.534 168.597 117.283 171.909 116.746C178.991 115.503 186.302 116.968 192.252 120.821C206.617 129.702 211.646 146.291 213.995 161.506C215.32 170.086 216.751 179.139 215.336 187.762C214.748 191.351 213.83 195.298 210.924 197.772C209.945 198.601 208.258 199.745 206.873 199.202C205.111 198.401 205.202 195.584 205.111 194.04C204.343 179.739 212.46 161.864 228.436 158.188C236.959 156.229 244.367 160.834 248.011 168.013C252.528 176.836 250.526 187.132 248.749 196.356C248.671 196.754 248.754 197.164 248.98 197.507C249.205 197.85 249.558 198.099 249.969 198.207C250.379 198.315 250.817 198.273 251.196 198.089C251.575 197.905 251.868 197.593 252.016 197.214C255.705 188.048 267.993 185.388 277.042 187.919C288.983 191.28 297.295 200.975 305.276 209.37C309.779 214.423 314.9 218.95 320.529 222.855C322.336 224.042 324.023 221.253 322.246 220.081C310.952 212.687 303.679 201.233 293.214 192.91C284.18 185.76 272.329 180.998 260.75 185.273C258.038 186.186 255.561 187.635 253.484 189.527C251.407 191.418 249.777 193.707 248.704 196.242L251.971 197.1C253.793 187.604 255.72 177.337 251.73 168.084C248.583 160.791 242.108 154.842 233.51 154.399C224.912 153.956 216.947 158.775 211.677 164.738C205.726 171.675 202.228 180.216 201.678 189.149C201.437 192.795 200.925 198.373 204.027 201.133C206.843 203.621 210.758 202.148 213.243 200.003C216.646 197.143 217.76 192.695 218.528 188.563C219.253 183.639 219.354 178.651 218.829 173.704C217.323 155.686 214.146 135.236 199.555 122.223C192.734 116.145 183.654 112.213 174.168 113.128C165.524 113.957 157.167 118.29 153.192 125.841C152.228 127.7 155.15 129.33 156.204 127.471V127.528Z" fill="url(#paint6_radial_1705_23173)"/>
<path d="M582.783 511.107L594.293 525.651L594.555 523.76C589.894 527.207 584.712 529.967 579.184 531.946C577.226 532.653 578.09 535.665 580.048 534.949C586.104 532.779 591.777 529.749 596.875 525.963C597.132 525.721 597.296 525.405 597.342 525.064C597.387 524.723 597.312 524.378 597.126 524.082L585.617 509.539C584.359 507.949 581.514 509.539 582.783 511.107Z" fill="#4100FB"/>
<path d="M412.494 428.53C407.867 416.355 415.011 403.255 425.623 396.253C436.563 389.044 450.436 387.07 463.389 388.898C478.432 390.976 492.425 397.417 505.52 404.481C518.442 411.501 530.72 419.539 542.225 428.509C548.016 432.997 553.629 437.679 559.062 442.554C564.117 447.073 569.937 451.904 572.114 458.407C573.821 463.487 572.924 470.26 567.487 472.951C562.049 475.641 555.069 473.055 551.711 468.504C543.899 457.919 549.883 443.302 558.001 434.649C567.475 424.84 580.549 418.855 594.531 417.923C610.263 416.885 624.683 423.284 639.562 427.003C654.865 430.83 670.638 432.702 686.463 432.571C690.358 432.571 694.242 432.374 698.125 432.104C700.215 431.958 700.237 428.842 698.125 428.987C681.1 430.219 663.977 429.085 647.296 425.621C638.982 423.876 630.941 421.341 622.823 418.952C615.022 416.656 607.025 414.745 598.754 414.713C583.807 414.663 569.402 420.023 558.472 429.704C548.757 438.492 541.536 452.558 546.295 465.294C548.56 471.372 553.625 476.161 560.518 477.023C563.627 477.494 566.812 476.905 569.508 475.359C572.204 473.813 574.236 471.41 575.243 468.577C577.53 462.344 575.243 455.654 571.348 450.501C566.819 444.58 560.682 439.656 554.938 434.805C543.089 424.684 530.376 415.515 516.931 407.39C503.464 399.328 489.011 391.807 473.574 387.787C459.527 384.151 444.462 383.985 431.027 389.75C418.457 395.142 408.282 406.309 407.724 419.814C407.588 423.061 408.111 426.302 409.267 429.361C409.978 431.241 413.151 430.4 412.429 428.54L412.494 428.53Z" fill="url(#paint7_radial_1705_23173)"/>
<path d="M460.543 165.435L448.585 195.561C447.841 197.441 451.014 198.252 451.747 196.392L463.704 166.318C464.459 164.437 461.287 163.627 460.543 165.487V165.435Z" fill="#070717"/>
<path d="M451.2 184.684C455.673 185.141 460.168 185.37 464.667 185.37C465.102 185.37 465.52 185.205 465.828 184.913C466.135 184.621 466.308 184.225 466.308 183.811C466.308 183.398 466.135 183.002 465.828 182.709C465.52 182.417 465.102 182.253 464.667 182.253C460.168 182.253 455.673 182.024 451.2 181.567C450.764 181.567 450.347 181.732 450.039 182.024C449.731 182.316 449.559 182.712 449.559 183.126C449.57 183.536 449.746 183.926 450.051 184.216C450.357 184.506 450.768 184.673 451.2 184.684Z" fill="#070717"/>
<path d="M462.337 196.226C465.532 187.389 469.051 178.666 472.895 170.057C473.715 168.229 470.893 166.64 470.061 168.478C466.101 177.329 462.472 186.305 459.175 195.405C458.486 197.306 461.659 198.117 462.337 196.226Z" fill="#070717"/>
<path d="M474.647 182.679C472.897 186.961 471.496 191.365 470.457 195.851C470.349 196.244 470.402 196.66 470.605 197.017C470.808 197.374 471.146 197.644 471.551 197.773C471.963 197.881 472.403 197.833 472.778 197.639C473.154 197.445 473.435 197.121 473.564 196.734C474.636 192.227 476.073 187.806 477.864 183.51C477.978 183.111 477.922 182.684 477.706 182.324C477.491 181.964 477.135 181.7 476.715 181.588C476.303 181.486 475.866 181.536 475.492 181.729C475.118 181.922 474.836 182.243 474.702 182.627L474.647 182.679Z" fill="#070717"/>
<path d="M478.485 179.157C478.92 179.157 479.337 178.993 479.645 178.701C479.953 178.409 480.126 178.012 480.126 177.599C480.126 177.186 479.953 176.789 479.645 176.497C479.337 176.205 478.92 176.041 478.485 176.041C478.05 176.041 477.632 176.205 477.324 176.497C477.017 176.789 476.844 177.186 476.844 177.599C476.844 178.012 477.017 178.409 477.324 178.701C477.632 178.993 478.05 179.157 478.485 179.157Z" fill="#070717"/>
<path d="M494.195 197.337C497.477 188.84 500.759 180.165 505.726 172.405C506.678 170.644 508.119 169.164 509.894 168.125C511.415 167.377 513.647 167.18 514.872 168.52C517.771 171.637 513.778 176.021 511.415 178.15C508.133 181.163 503.549 183.708 498.812 182.742C498.401 182.656 497.971 182.724 497.611 182.931C497.251 183.138 496.989 183.468 496.878 183.853C496.767 184.238 496.816 184.649 497.015 185.001C497.214 185.353 497.548 185.619 497.947 185.744C500.015 186.367 501 188.424 501.634 190.242C502.542 192.808 503.122 195.499 503.822 198.127C504.348 200.07 507.509 199.239 506.984 197.296C506.313 194.16 505.406 191.074 504.271 188.061C503.177 185.63 501.547 183.552 498.801 182.742L497.937 185.744C503.199 186.783 508.177 184.768 512.214 181.589C515.912 178.711 519.872 174.421 518.898 169.549C517.925 164.676 511.896 163.17 507.706 165.674C505.59 167.094 503.858 168.97 502.652 171.148C501.164 173.558 499.829 176.052 498.582 178.586C495.716 184.414 493.363 190.46 491.022 196.496C490.289 198.376 493.462 199.187 494.184 197.317L494.195 197.337Z" fill="#070717"/>
<path d="M514.402 191.021C517.411 191.935 521.043 192.61 523.581 190.273C524.298 189.701 524.751 188.885 524.843 188C524.935 187.114 524.658 186.23 524.073 185.536C522.94 184.497 521.446 183.887 519.872 183.822C513.811 183.23 507.969 189.432 510.595 195.01C511.25 196.375 512.401 197.471 513.838 198.095C515.275 198.719 516.901 198.83 518.417 198.407C518.832 198.289 519.183 198.023 519.397 197.665C519.611 197.307 519.671 196.884 519.566 196.485C519.437 196.096 519.153 195.77 518.776 195.576C518.398 195.382 517.955 195.336 517.542 195.446C517.324 195.521 517.101 195.58 516.874 195.623C516.623 195.675 517.115 195.623 516.874 195.623C516.751 195.633 516.626 195.633 516.502 195.623H516.152C516.229 195.623 516.437 195.685 516.152 195.623C515.868 195.561 515.649 195.498 515.408 195.415C515.671 195.509 515.179 195.311 515.091 195.27L514.818 195.114C514.818 195.114 514.435 194.844 514.599 194.979C514.763 195.114 514.489 194.885 514.468 194.854C514.367 194.773 514.273 194.686 514.183 194.595L513.964 194.376C513.778 194.179 513.964 194.376 513.888 194.272C513.757 194.088 513.637 193.897 513.527 193.701C513.527 193.649 513.417 193.431 513.527 193.701L513.428 193.4C513.281 193.015 513.225 192.603 513.264 192.195C513.264 192.06 513.264 191.925 513.264 191.779C513.264 191.634 513.264 191.977 513.264 191.707C513.264 191.436 513.374 191.218 513.439 190.979C513.556 190.572 513.737 190.183 513.975 189.826C514.424 189.089 515.045 188.46 515.791 187.988C516.57 187.485 517.462 187.161 518.395 187.042C518.68 187.042 518.187 187.042 518.472 187.042H518.909H519.599C520.024 187.087 520.442 187.178 520.846 187.312C521.141 187.395 521.021 187.312 520.944 187.312C521.08 187.37 521.211 187.436 521.338 187.51C521.338 187.51 521.655 187.707 521.535 187.624C521.415 187.541 521.721 187.801 521.612 187.686V187.759C521.612 187.759 521.612 187.593 521.612 187.603C521.612 187.614 521.535 187.884 521.612 187.717C521.612 187.717 521.349 188.123 521.469 187.977L521.24 188.206C520.977 188.476 521.371 188.206 521.043 188.362C520.952 188.423 520.857 188.479 520.758 188.528C520.758 188.528 520.299 188.736 520.539 188.642C520.272 188.737 519.998 188.814 519.719 188.871C519.719 188.871 519.402 188.871 519.642 188.871C519.471 188.881 519.299 188.881 519.128 188.871C517.801 188.819 516.493 188.559 515.255 188.102C515.045 188.04 514.825 188.019 514.606 188.04C514.388 188.061 514.176 188.123 513.983 188.224C513.791 188.324 513.621 188.459 513.485 188.623C513.348 188.786 513.248 188.974 513.189 189.175C513.131 189.376 513.115 189.586 513.144 189.793C513.172 189.999 513.244 190.199 513.355 190.379C513.466 190.558 513.614 190.715 513.79 190.84C513.966 190.965 514.167 191.054 514.38 191.104L514.402 191.021Z" fill="#070717"/>
<path d="M528.624 184.455C527.678 186.954 527.161 189.581 527.092 192.236C527.038 194.314 527.278 197.69 530.374 197.254C532.562 196.942 534.641 194.781 535.845 193.098C537.155 191.212 537.872 189.01 537.912 186.751C537.97 186.338 537.853 185.92 537.586 185.588C537.454 185.424 537.29 185.287 537.101 185.183C536.913 185.08 536.706 185.012 536.49 184.985C536.055 184.93 535.614 185.041 535.266 185.295C534.917 185.548 534.688 185.922 534.63 186.336C533.736 190.292 532.57 194.19 531.14 198.002C530.645 199.553 529.781 200.975 528.613 202.157C528.104 202.678 527.44 203.04 526.709 203.194C525.978 203.348 525.215 203.287 524.521 203.019C522.65 202.084 520.998 204.765 522.858 205.71C527.234 207.912 531.611 204.671 533.394 200.942C535.354 196.496 536.82 191.869 537.77 187.135L534.554 186.72C534.537 188.16 534.147 189.574 533.418 190.837C532.689 192.1 531.644 193.172 530.374 193.961C530.242 194.05 530.103 194.13 529.959 194.2C530.331 194.542 530.484 194.605 530.418 194.376C530.41 194.029 530.381 193.682 530.331 193.337C530.309 192.443 530.341 191.548 530.429 190.657C530.628 188.828 531.073 187.03 531.753 185.307C532.475 183.427 529.302 182.606 528.58 184.486L528.624 184.455Z" fill="#070717"/>
<path d="M565.557 160.957L548.49 191.374C547.495 193.14 550.328 194.719 551.324 192.943L568.391 162.525C569.375 160.759 566.553 159.18 565.557 160.957Z" fill="#070717"/>
<path d="M548.34 198.117C548.776 198.117 549.193 197.952 549.501 197.66C549.808 197.368 549.981 196.972 549.981 196.558C549.981 196.145 549.808 195.749 549.501 195.456C549.193 195.164 548.776 195 548.34 195C547.905 195 547.488 195.164 547.18 195.456C546.872 195.749 546.699 196.145 546.699 196.558C546.699 196.972 546.872 197.368 547.18 197.66C547.488 197.952 547.905 198.117 548.34 198.117Z" fill="#070717"/>
<defs>
<linearGradient id="paint0_linear_1705_23173" x1="345.148" y1="167.13" x2="376.974" y2="245.233" gradientUnits="userSpaceOnUse">
<stop stop-color="#FFD15C"/>
<stop offset="1" stop-color="#FFBF1B"/>
</linearGradient>
<linearGradient id="paint1_linear_1705_23173" x1="789.543" y1="389.179" x2="815.94" y2="424.591" gradientUnits="userSpaceOnUse">
<stop stop-color="#6C39FE"/>
<stop offset="1" stop-color="#4100FB"/>
</linearGradient>
<linearGradient id="paint2_linear_1705_23173" x1="3.24515" y1="432.117" x2="117.39" y2="652.077" gradientUnits="userSpaceOnUse">
<stop stop-color="#6C39FE"/>
<stop offset="1" stop-color="#4100FB"/>
</linearGradient>
<linearGradient id="paint3_linear_1705_23173" x1="509.122" y1="195.238" x2="509.122" y2="616.103" gradientUnits="userSpaceOnUse">
<stop stop-color="#070717"/>
<stop offset="1" stop-color="#4100FB"/>
</linearGradient>
<linearGradient id="paint4_linear_1705_23173" x1="556.633" y1="313.288" x2="560.893" y2="372.801" gradientUnits="userSpaceOnUse">
<stop stop-color="#070717"/>
<stop offset="1" stop-color="#4100FB"/>
</linearGradient>
<linearGradient id="paint5_linear_1705_23173" x1="289.63" y1="474.431" x2="390.299" y2="588.479" gradientUnits="userSpaceOnUse">
<stop stop-color="#FFD15C"/>
<stop offset="1" stop-color="#FFBF1B"/>
</linearGradient>
<radialGradient id="paint6_radial_1705_23173" cx="0" cy="0" r="1" gradientUnits="userSpaceOnUse" gradientTransform="translate(323.332 147.963) rotate(159.382) scale(238.319 115.097)">
<stop stop-color="#FF6363"/>
<stop offset="1" stop-color="#4100FB"/>
</radialGradient>
<radialGradient id="paint7_radial_1705_23173" cx="0" cy="0" r="1" gradientUnits="userSpaceOnUse" gradientTransform="translate(700.271 414.407) rotate(169.635) scale(389.48 101.005)">
<stop stop-color="#FF6363"/>
<stop offset="1" stop-color="#4100FB"/>
</radialGradient>
</defs>
</svg>
