<svg width="452" height="283" viewBox="0 0 452 283" fill="none" xmlns="http://www.w3.org/2000/svg">
<ellipse cx="112.007" cy="211" rx="71.9985" ry="72" fill="#4100FB"/>
<ellipse cx="320.005" cy="45" rx="44.9991" ry="45" fill="#FF6363"/>
<path d="M3.51299 57.5749C10.5349 46.9826 21.6907 39.509 34.5262 36.7982C47.3617 34.0874 60.8255 36.3615 71.9557 43.12C83.0859 49.8786 90.9708 60.5682 93.8758 72.8371C96.7808 85.106 94.468 97.9492 87.446 108.541L62.8409 93.5945C65.7445 89.2133 66.7004 83.9014 65.4983 78.8273C64.9031 76.3148 63.7959 73.9364 62.2401 71.8277C60.6843 69.7191 58.7103 67.9216 56.4308 66.5377C54.1513 65.1539 51.6109 64.211 48.9547 63.7627C46.2985 63.3144 43.5785 63.3695 40.9501 63.925C35.6416 65.0467 31.0281 68.1383 28.1245 72.5194L3.51299 57.5749Z" fill="#FFD15C"/>
<path d="M370.502 72.2952L404.255 35.1965L401.697 85.1047L452 82.5498L414.612 116.044L450.532 148.807L401.339 147.351L404.255 196.873L370.502 159.792L336.748 196.873L339.307 146.965L289.003 149.52L326.391 116.044L289.003 82.5498L339.307 85.1047L336.748 35.1965L370.502 72.2952Z" fill="url(#paint0_linear_2044_12784)"/>
<rect x="191.007" y="213" width="249.995" height="70" fill="url(#paint1_linear_2044_12784)"/>
<g clip-path="url(#clip0_2044_12784)">
<rect x="112.008" y="26" width="227.914" height="442.595" rx="27.9379" fill="#070717"/>
<rect x="116.418" y="30.4111" width="219.092" height="454.358" rx="23.5266" fill="#F7F7F9"/>
<rect x="130.512" y="235.283" width="192.056" height="0.587326" fill="#CBCBCB"/>
<path d="M136.591 66.1478H138.824C138.792 64.1834 137.177 62.8272 134.723 62.8272C132.307 62.8272 130.536 64.1619 130.547 66.164C130.541 67.7893 131.688 68.7204 133.55 69.1671L134.75 69.4684C135.95 69.7591 136.617 70.1035 136.623 70.8462C136.617 71.6535 135.853 72.2024 134.669 72.2024C133.458 72.2024 132.586 71.6427 132.511 70.5394H130.256C130.315 72.9236 132.021 74.1561 134.696 74.1561C137.387 74.1561 138.969 72.8698 138.975 70.8516C138.969 69.0164 137.586 68.0422 135.67 67.6117L134.68 67.3749C133.722 67.1542 132.92 66.799 132.936 66.0079C132.936 65.2975 133.566 64.7754 134.707 64.7754C135.821 64.7754 136.504 65.2813 136.591 66.1478ZM144.896 65.7334H143.341V63.7529H141.048V65.7334H139.918V67.4556H141.048V71.7611C141.037 73.3811 142.141 74.183 143.804 74.113C144.396 74.0915 144.815 73.9731 145.047 73.8977L144.686 72.1917C144.573 72.2132 144.331 72.267 144.116 72.267C143.658 72.267 143.341 72.0948 143.341 71.4597V67.4556H144.896V65.7334ZM146.39 74H148.682V69.3231C148.682 68.306 149.425 67.6063 150.437 67.6063C150.754 67.6063 151.19 67.6601 151.406 67.7301V65.6957C151.201 65.6473 150.916 65.615 150.684 65.615C149.759 65.615 149 66.1532 148.698 67.1758H148.612V65.7334H146.39V74ZM155.973 74.1615C158.019 74.1615 159.396 73.1658 159.719 71.632L157.599 71.492C157.367 72.1217 156.775 72.45 156.011 72.45C154.865 72.45 154.138 71.6912 154.138 70.4587V70.4533H159.768V69.8237C159.768 67.0143 158.067 65.6258 155.882 65.6258C153.449 65.6258 151.872 67.3534 151.872 69.9044C151.872 72.5254 153.428 74.1615 155.973 74.1615ZM154.138 69.0325C154.187 68.0907 154.902 67.3372 155.92 67.3372C156.915 67.3372 157.604 68.0476 157.61 69.0325H154.138ZM163.621 74.1561C164.843 74.1561 165.634 73.6233 166.038 72.8537H166.102V74H168.276V68.4244C168.276 66.4546 166.608 65.6258 164.767 65.6258C162.787 65.6258 161.485 66.573 161.167 68.0799L163.287 68.2521C163.444 67.7032 163.933 67.2995 164.757 67.2995C165.537 67.2995 165.984 67.6924 165.984 68.3705V68.4028C165.984 68.9356 165.419 69.0056 163.982 69.1455C162.346 69.2962 160.876 69.8452 160.876 71.6912C160.876 73.3273 162.044 74.1561 163.621 74.1561ZM164.278 72.5738C163.573 72.5738 163.067 72.2455 163.067 71.6158C163.067 70.97 163.6 70.6525 164.407 70.5394C164.907 70.4695 165.725 70.3511 166 70.1681V71.0453C166 71.9118 165.284 72.5738 164.278 72.5738ZM170.055 74H172.348V69.0379C172.348 68.123 172.929 67.5148 173.693 67.5148C174.447 67.5148 174.953 68.0315 174.953 68.8441V74H177.175V68.9518C177.175 68.0961 177.665 67.5148 178.499 67.5148C179.231 67.5148 179.78 67.9723 179.78 68.8926V74H182.068V68.4405C182.068 66.6483 181.002 65.6258 179.463 65.6258C178.252 65.6258 177.31 66.2447 176.971 67.1919H176.885C176.621 66.2339 175.776 65.6258 174.641 65.6258C173.527 65.6258 172.682 66.2178 172.337 67.1919H172.24V65.7334H170.055V74ZM190.757 68.0907C190.552 66.5676 189.325 65.6258 187.237 65.6258C185.122 65.6258 183.728 66.6053 183.733 68.1983C183.728 69.4362 184.508 70.2381 186.123 70.561L187.554 70.8462C188.276 70.9915 188.604 71.2552 188.615 71.6696C188.604 72.1594 188.071 72.5092 187.269 72.5092C186.451 72.5092 185.908 72.1594 185.768 71.4867L183.513 71.6051C183.728 73.1873 185.073 74.1615 187.264 74.1615C189.406 74.1615 190.94 73.0689 190.945 71.4382C190.94 70.2434 190.159 69.5276 188.555 69.1994L187.059 68.898C186.29 68.7311 186.004 68.4674 186.01 68.0692C186.004 67.574 186.564 67.2511 187.275 67.2511C188.071 67.2511 188.545 67.687 188.658 68.2198L190.757 68.0907Z" fill="#070717"/>
<path d="M131.739 93.9971H132.6L134.12 88.5075H134.174L135.694 93.9971H136.556L138.439 87.1082H137.592L136.152 92.7189H136.085L134.618 87.1082H133.676L132.21 92.7189H132.142L130.703 87.1082H129.855L131.739 93.9971ZM141.056 94.1047C142.106 94.1047 142.873 93.58 143.115 92.7996L142.348 92.5843C142.146 93.1225 141.678 93.3916 141.056 93.3916C140.124 93.3916 139.482 92.7895 139.445 91.6829H143.196V91.3465C143.196 89.4225 142.052 88.7632 140.975 88.7632C139.576 88.7632 138.648 89.8665 138.648 91.4541C138.648 93.0418 139.563 94.1047 141.056 94.1047ZM139.445 90.9967C139.499 90.1927 140.067 89.4763 140.975 89.4763C141.837 89.4763 142.388 90.1221 142.388 90.9967H139.445ZM149.018 94.1047C150.014 94.1047 150.35 93.4858 150.525 93.2032H150.619V93.9971H151.386V87.1082H150.592V89.6512H150.525C150.35 89.3821 150.041 88.7632 149.031 88.7632C147.726 88.7632 146.825 89.7992 146.825 91.4272C146.825 93.0687 147.726 94.1047 149.018 94.1047ZM149.126 93.3916C148.13 93.3916 147.619 92.5171 147.619 91.4138C147.619 90.3239 148.117 89.4763 149.126 89.4763C150.094 89.4763 150.606 90.2567 150.606 91.4138C150.606 92.5843 150.081 93.3916 149.126 93.3916ZM152.95 93.9971H153.744V90.7276C153.744 90.0279 154.296 89.5166 155.049 89.5166C155.261 89.5166 155.48 89.557 155.533 89.5705V88.7632C155.443 88.7565 155.234 88.7497 155.116 88.7497C154.497 88.7497 153.959 89.0995 153.771 89.6108H153.717V88.8305H152.95V93.9971ZM156.474 93.9971H157.268V88.8305H156.474V93.9971ZM156.878 87.9694C157.188 87.9694 157.443 87.7272 157.443 87.4312C157.443 87.1352 157.188 86.893 156.878 86.893C156.569 86.893 156.313 87.1352 156.313 87.4312C156.313 87.7272 156.569 87.9694 156.878 87.9694ZM158.722 95.9346H159.516V93.2032H159.583C159.758 93.4858 160.095 94.1047 161.09 94.1047C162.382 94.1047 163.283 93.0687 163.283 91.4272C163.283 89.7992 162.382 88.7632 161.077 88.7632C160.068 88.7632 159.758 89.3821 159.583 89.6512H159.489V88.8305H158.722V95.9346ZM159.503 91.4138C159.503 90.2567 160.014 89.4763 160.983 89.4763C161.992 89.4763 162.49 90.3239 162.49 91.4138C162.49 92.5171 161.978 93.3916 160.983 93.3916C160.027 93.3916 159.503 92.5843 159.503 91.4138ZM167.158 95.9346H167.952V93.2032H168.019C168.194 93.4858 168.531 94.1047 169.526 94.1047C170.818 94.1047 171.72 93.0687 171.72 91.4272C171.72 89.7992 170.818 88.7632 169.513 88.7632C168.504 88.7632 168.194 89.3821 168.019 89.6512H167.925V88.8305H167.158V95.9346ZM167.939 91.4138C167.939 90.2567 168.45 89.4763 169.419 89.4763C170.428 89.4763 170.926 90.3239 170.926 91.4138C170.926 92.5171 170.414 93.3916 169.419 93.3916C168.463 93.3916 167.939 92.5843 167.939 91.4138ZM175.029 94.1047C176.429 94.1047 177.371 93.0418 177.371 91.4407C177.371 89.8261 176.429 88.7632 175.029 88.7632C173.63 88.7632 172.688 89.8261 172.688 91.4407C172.688 93.0418 173.63 94.1047 175.029 94.1047ZM175.029 93.3916C173.966 93.3916 173.482 92.4767 173.482 91.4407C173.482 90.4047 173.966 89.4763 175.029 89.4763C176.092 89.4763 176.577 90.4047 176.577 91.4407C176.577 92.4767 176.092 93.3916 175.029 93.3916ZM178.582 93.9971H179.376V90.7276C179.376 90.0279 179.928 89.5166 180.681 89.5166C180.893 89.5166 181.112 89.557 181.166 89.5705V88.7632C181.075 88.7565 180.866 88.7497 180.748 88.7497C180.13 88.7497 179.591 89.0995 179.403 89.6108H179.349V88.8305H178.582V93.9971ZM184.677 88.8305H183.574V87.5926H182.78V88.8305H182V89.5032H182.78V92.7323C182.78 93.6338 183.507 94.0643 184.179 94.0643C184.475 94.0643 184.664 94.0105 184.771 93.9702L184.61 93.2571C184.543 93.2705 184.435 93.2974 184.26 93.2974C183.91 93.2974 183.574 93.1898 183.574 92.5171V89.5032H184.677V88.8305ZM185.871 93.9971H186.665V88.8305H185.871V93.9971ZM186.275 87.9694C186.584 87.9694 186.84 87.7272 186.84 87.4312C186.84 87.1352 186.584 86.893 186.275 86.893C185.966 86.893 185.71 87.1352 185.71 87.4312C185.71 87.7272 185.966 87.9694 186.275 87.9694ZM190.218 94.1047C191.617 94.1047 192.559 93.0418 192.559 91.4407C192.559 89.8261 191.617 88.7632 190.218 88.7632C188.819 88.7632 187.877 89.8261 187.877 91.4407C187.877 93.0418 188.819 94.1047 190.218 94.1047ZM190.218 93.3916C189.155 93.3916 188.671 92.4767 188.671 91.4407C188.671 90.4047 189.155 89.4763 190.218 89.4763C191.281 89.4763 191.765 90.4047 191.765 91.4407C191.765 92.4767 191.281 93.3916 190.218 93.3916ZM194.565 90.889C194.565 89.9876 195.123 89.4763 195.883 89.4763C196.62 89.4763 197.067 89.9573 197.067 90.7679V93.9971H197.861V90.7141C197.861 89.3956 197.158 88.7632 196.112 88.7632C195.332 88.7632 194.847 89.113 194.605 89.6377H194.538V88.8305H193.771V93.9971H194.565V90.889ZM202.972 89.9876C202.723 89.2543 202.164 88.7632 201.142 88.7632C200.052 88.7632 199.245 89.3821 199.245 90.2567C199.245 90.9698 199.668 91.4474 200.617 91.6694L201.478 91.8712C201.999 91.9923 202.245 92.2412 202.245 92.5978C202.245 93.0418 201.774 93.4051 201.034 93.4051C200.385 93.4051 199.978 93.1259 199.837 92.5709L199.083 92.7592C199.268 93.6372 199.991 94.1047 201.047 94.1047C202.248 94.1047 203.066 93.4488 203.066 92.5574C203.066 91.8376 202.615 91.3835 201.693 91.1581L200.926 90.9698C200.314 90.8184 200.038 90.6132 200.038 90.2163C200.038 89.7723 200.509 89.4494 201.142 89.4494C201.835 89.4494 202.12 89.8328 202.258 90.1894L202.972 89.9876ZM209.024 94.1047C210.423 94.1047 211.365 93.0418 211.365 91.4407C211.365 89.8261 210.423 88.7632 209.024 88.7632C207.624 88.7632 206.682 89.8261 206.682 91.4407C206.682 93.0418 207.624 94.1047 209.024 94.1047ZM209.024 93.3916C207.961 93.3916 207.476 92.4767 207.476 91.4407C207.476 90.4047 207.961 89.4763 209.024 89.4763C210.087 89.4763 210.571 90.4047 210.571 91.4407C210.571 92.4767 210.087 93.3916 209.024 93.3916ZM214.877 88.8305H213.72V88.3057C213.72 87.7944 213.935 87.5253 214.46 87.5253C214.689 87.5253 214.823 87.5792 214.904 87.6061L215.133 86.9199C215.012 86.8661 214.77 86.7853 214.379 86.7853C213.639 86.7853 212.926 87.2293 212.926 88.1174V88.8305H212.092V89.5032H212.926V93.9971H213.72V89.5032H214.877V88.8305ZM219.165 95.9346C219.882 95.9346 220.386 95.5545 220.685 94.7505L222.885 88.8439L222.018 88.8305L220.591 92.9476H220.537L219.111 88.8305H218.25L220.161 94.024L220.013 94.4276C219.723 95.2147 219.367 95.2887 218.788 95.1407L218.587 95.8404C218.667 95.8807 218.896 95.9346 219.165 95.9346ZM225.85 94.1047C227.249 94.1047 228.191 93.0418 228.191 91.4407C228.191 89.8261 227.249 88.7632 225.85 88.7632C224.45 88.7632 223.508 89.8261 223.508 91.4407C223.508 93.0418 224.45 94.1047 225.85 94.1047ZM225.85 93.3916C224.787 93.3916 224.302 92.4767 224.302 91.4407C224.302 90.4047 224.787 89.4763 225.85 89.4763C226.913 89.4763 227.397 90.4047 227.397 91.4407C227.397 92.4767 226.913 93.3916 225.85 93.3916ZM232.659 91.8847C232.659 92.8534 231.919 93.2974 231.327 93.2974C230.667 93.2974 230.196 92.8131 230.196 92.0596V88.8305H229.402V92.1134C229.402 93.432 230.102 94.0643 231.071 94.0643C231.851 94.0643 232.363 93.6472 232.605 93.1225H232.659V93.9971H233.452V88.8305H232.659V91.8847ZM234.906 93.9971H235.7V90.7276C235.7 90.0279 236.252 89.5166 237.005 89.5166C237.217 89.5166 237.436 89.557 237.49 89.5705V88.7632C237.399 88.7565 237.19 88.7497 237.073 88.7497C236.454 88.7497 235.915 89.0995 235.727 89.6108H235.673V88.8305H234.906V93.9971ZM243.261 94.1047C244.31 94.1047 245.077 93.58 245.319 92.7996L244.553 92.5843C244.351 93.1225 243.883 93.3916 243.261 93.3916C242.329 93.3916 241.687 92.7895 241.65 91.6829H245.4V91.3465C245.4 89.4225 244.257 88.7632 243.18 88.7632C241.781 88.7632 240.852 89.8665 240.852 91.4541C240.852 93.0418 241.767 94.1047 243.261 94.1047ZM241.65 90.9967C241.703 90.1927 242.272 89.4763 243.18 89.4763C244.041 89.4763 244.593 90.1221 244.593 90.9967H241.65ZM248.128 94.1182C249.03 94.1182 249.5 93.6338 249.662 93.2974H249.702V93.9971H250.496V90.593C250.496 88.9515 249.245 88.7632 248.586 88.7632C247.805 88.7632 246.917 89.0323 246.514 89.9741L247.267 90.2432C247.442 89.8665 247.856 89.4628 248.612 89.4628C249.342 89.4628 249.702 89.8496 249.702 90.5123V90.5392C249.702 90.9227 249.312 90.889 248.37 91.0101C247.412 91.1346 246.366 91.3465 246.366 92.5305C246.366 93.5396 247.146 94.1182 248.128 94.1182ZM248.249 93.4051C247.617 93.4051 247.159 93.1225 247.159 92.5709C247.159 91.9654 247.711 91.777 248.33 91.6963C248.666 91.6559 249.568 91.5618 249.702 91.4003V92.1269C249.702 92.7727 249.191 93.4051 248.249 93.4051ZM251.945 93.9971H252.739V90.7276C252.739 90.0279 253.291 89.5166 254.044 89.5166C254.256 89.5166 254.475 89.557 254.528 89.5705V88.7632C254.438 88.7565 254.229 88.7497 254.111 88.7497C253.492 88.7497 252.954 89.0995 252.766 89.6108H252.712V88.8305H251.945V93.9971ZM256.263 90.889C256.263 89.9876 256.822 89.4763 257.582 89.4763C258.318 89.4763 258.766 89.9573 258.766 90.7679V93.9971H259.56V90.7141C259.56 89.3956 258.857 88.7632 257.81 88.7632C257.03 88.7632 256.546 89.113 256.304 89.6377H256.236V88.8305H255.469V93.9971H256.263V90.889ZM261.01 93.9971H261.804V88.8305H261.01V93.9971ZM261.414 87.9694C261.723 87.9694 261.979 87.7272 261.979 87.4312C261.979 87.1352 261.723 86.893 261.414 86.893C261.104 86.893 260.849 87.1352 260.849 87.4312C260.849 87.7272 261.104 87.9694 261.414 87.9694ZM264.052 90.889C264.052 89.9876 264.61 89.4763 265.37 89.4763C266.107 89.4763 266.554 89.9573 266.554 90.7679V93.9971H267.348V90.7141C267.348 89.3956 266.645 88.7632 265.599 88.7632C264.819 88.7632 264.334 89.113 264.092 89.6377H264.025V88.8305H263.258V93.9971H264.052V90.889ZM270.884 96.0422C272.122 96.0422 273.118 95.4771 273.118 94.1451V88.8305H272.351V89.6512H272.27C272.095 89.3821 271.772 88.7632 270.763 88.7632C269.458 88.7632 268.557 89.7992 268.557 91.3869C268.557 93.0014 269.498 93.9163 270.75 93.9163C271.759 93.9163 272.082 93.3243 272.257 93.0418H272.324V94.0913C272.324 94.9524 271.718 95.3425 270.884 95.3425C269.946 95.3425 269.616 94.8481 269.404 94.5622L268.772 95.0062C269.095 95.5477 269.731 96.0422 270.884 96.0422ZM270.857 93.2032C269.862 93.2032 269.35 92.4498 269.35 91.3734C269.35 90.3239 269.848 89.4763 270.857 89.4763C271.826 89.4763 272.337 90.2567 272.337 91.3734C272.337 92.5171 271.813 93.2032 270.857 93.2032ZM278.231 89.9876C277.982 89.2543 277.423 88.7632 276.401 88.7632C275.311 88.7632 274.504 89.3821 274.504 90.2567C274.504 90.9698 274.927 91.4474 275.876 91.6694L276.737 91.8712C277.258 91.9923 277.504 92.2412 277.504 92.5978C277.504 93.0418 277.033 93.4051 276.293 93.4051C275.644 93.4051 275.237 93.1259 275.096 92.5709L274.342 92.7592C274.527 93.6372 275.25 94.1047 276.307 94.1047C277.507 94.1047 278.325 93.4488 278.325 92.5574C278.325 91.8376 277.874 91.3835 276.952 91.1581L276.185 90.9698C275.573 90.8184 275.297 90.6132 275.297 90.2163C275.297 89.7723 275.768 89.4494 276.401 89.4494C277.094 89.4494 277.38 89.8328 277.517 90.1894L278.231 89.9876ZM282.184 93.9971H282.978V88.8305H282.184V93.9971ZM282.587 87.9694C282.897 87.9694 283.152 87.7272 283.152 87.4312C283.152 87.1352 282.897 86.893 282.587 86.893C282.278 86.893 282.022 87.1352 282.022 87.4312C282.022 87.7272 282.278 87.9694 282.587 87.9694ZM285.225 90.889C285.225 89.9876 285.784 89.4763 286.544 89.4763C287.281 89.4763 287.728 89.9573 287.728 90.7679V93.9971H288.522V90.7141C288.522 89.3956 287.819 88.7632 286.773 88.7632C285.992 88.7632 285.508 89.113 285.266 89.6377H285.198V88.8305H284.431V93.9971H285.225V90.889ZM292.219 88.8305H291.116V87.5926H290.322V88.8305H289.542V89.5032H290.322V92.7323C290.322 93.6338 291.049 94.0643 291.721 94.0643C292.017 94.0643 292.206 94.0105 292.313 93.9702L292.152 93.2571C292.085 93.2705 291.977 93.2974 291.802 93.2974C291.452 93.2974 291.116 93.1898 291.116 92.5171V89.5032H292.219V88.8305ZM295.457 94.1047C296.856 94.1047 297.798 93.0418 297.798 91.4407C297.798 89.8261 296.856 88.7632 295.457 88.7632C294.058 88.7632 293.116 89.8261 293.116 91.4407C293.116 93.0418 294.058 94.1047 295.457 94.1047ZM295.457 93.3916C294.394 93.3916 293.91 92.4767 293.91 91.4407C293.91 90.4047 294.394 89.4763 295.457 89.4763C296.52 89.4763 297.004 90.4047 297.004 91.4407C297.004 92.4767 296.52 93.3916 295.457 93.3916ZM134.255 102.83H135.062C135.025 101.791 134.066 101.014 132.734 101.014C131.416 101.014 130.38 101.781 130.38 102.938C130.38 103.866 131.053 104.418 132.129 104.728L132.977 104.97C133.703 105.172 134.349 105.427 134.349 106.113C134.349 106.867 133.622 107.365 132.667 107.365C131.846 107.365 131.12 107.001 131.053 106.221H130.192C130.272 107.351 131.187 108.118 132.667 108.118C134.255 108.118 135.156 107.244 135.156 106.127C135.156 104.835 133.932 104.418 133.219 104.23L132.519 104.041C132.008 103.907 131.187 103.638 131.187 102.898C131.187 102.238 131.793 101.754 132.708 101.754C133.542 101.754 134.174 102.151 134.255 102.83ZM138.667 102.83H137.564V101.593H136.77V102.83H135.99V103.503H136.77V106.732C136.77 107.634 137.497 108.064 138.169 108.064C138.465 108.064 138.654 108.011 138.761 107.97L138.6 107.257C138.533 107.271 138.425 107.297 138.25 107.297C137.9 107.297 137.564 107.19 137.564 106.517V103.503H138.667V102.83ZM139.861 107.997H140.655V104.728C140.655 104.028 141.207 103.517 141.96 103.517C142.172 103.517 142.391 103.557 142.445 103.57V102.763C142.354 102.756 142.145 102.75 142.027 102.75C141.409 102.75 140.87 103.1 140.682 103.611H140.628V102.83H139.861V107.997ZM145.395 108.105C146.444 108.105 147.211 107.58 147.453 106.8L146.686 106.584C146.484 107.123 146.017 107.392 145.395 107.392C144.463 107.392 143.82 106.79 143.783 105.683H147.534V105.346C147.534 103.422 146.39 102.763 145.314 102.763C143.914 102.763 142.986 103.866 142.986 105.454C142.986 107.042 143.901 108.105 145.395 108.105ZM143.783 104.997C143.837 104.193 144.406 103.476 145.314 103.476C146.175 103.476 146.727 104.122 146.727 104.997H143.783ZM150.262 108.118C151.163 108.118 151.634 107.634 151.796 107.297H151.836V107.997H152.63V104.593C152.63 102.952 151.379 102.763 150.719 102.763C149.939 102.763 149.051 103.032 148.647 103.974L149.401 104.243C149.576 103.866 149.989 103.463 150.746 103.463C151.476 103.463 151.836 103.85 151.836 104.512V104.539C151.836 104.923 151.446 104.889 150.504 105.01C149.545 105.135 148.499 105.346 148.499 106.531C148.499 107.54 149.28 108.118 150.262 108.118ZM150.383 107.405C149.75 107.405 149.293 107.123 149.293 106.571C149.293 105.965 149.845 105.777 150.464 105.696C150.8 105.656 151.701 105.562 151.836 105.4V106.127C151.836 106.773 151.325 107.405 150.383 107.405ZM154.079 107.997H154.873V104.768C154.873 104.011 155.424 103.476 156.043 103.476C156.645 103.476 157.066 103.87 157.066 104.458V107.997H157.873V104.633C157.873 103.967 158.29 103.476 159.017 103.476C159.582 103.476 160.066 103.776 160.066 104.539V107.997H160.86V104.539C160.86 103.325 160.207 102.763 159.286 102.763C158.546 102.763 158.004 103.103 157.738 103.638H157.685C157.429 103.086 156.978 102.763 156.299 102.763C155.626 102.763 155.128 103.086 154.913 103.638H154.846V102.83H154.079V107.997ZM165.971 103.988C165.722 103.254 165.164 102.763 164.141 102.763C163.051 102.763 162.244 103.382 162.244 104.257C162.244 104.97 162.668 105.447 163.616 105.669L164.478 105.871C164.999 105.992 165.244 106.241 165.244 106.598C165.244 107.042 164.774 107.405 164.034 107.405C163.384 107.405 162.977 107.126 162.836 106.571L162.083 106.759C162.268 107.637 162.991 108.105 164.047 108.105C165.248 108.105 166.065 107.449 166.065 106.557C166.065 105.838 165.614 105.383 164.693 105.158L163.926 104.97C163.314 104.818 163.038 104.613 163.038 104.216C163.038 103.772 163.509 103.449 164.141 103.449C164.834 103.449 165.12 103.833 165.258 104.189L165.971 103.988ZM172.171 102.83H171.068V101.593H170.274V102.83H169.494V103.503H170.274V106.732C170.274 107.634 171.001 108.064 171.673 108.064C171.969 108.064 172.158 108.011 172.265 107.97L172.104 107.257C172.037 107.271 171.929 107.297 171.754 107.297C171.404 107.297 171.068 107.19 171.068 106.517V103.503H172.171V102.83ZM175.409 108.105C176.808 108.105 177.75 107.042 177.75 105.441C177.75 103.826 176.808 102.763 175.409 102.763C174.009 102.763 173.068 103.826 173.068 105.441C173.068 107.042 174.009 108.105 175.409 108.105ZM175.409 107.392C174.346 107.392 173.861 106.477 173.861 105.441C173.861 104.405 174.346 103.476 175.409 103.476C176.472 103.476 176.956 104.405 176.956 105.441C176.956 106.477 176.472 107.392 175.409 107.392ZM183.725 108.105C184.868 108.105 185.622 107.405 185.756 106.49H184.962C184.814 107.055 184.343 107.392 183.725 107.392C182.783 107.392 182.177 106.611 182.177 105.414C182.177 104.243 182.796 103.476 183.725 103.476C184.424 103.476 184.841 103.907 184.962 104.378H185.756C185.622 103.409 184.801 102.763 183.711 102.763C182.312 102.763 181.383 103.866 181.383 105.441C181.383 106.988 182.271 108.105 183.725 108.105ZM189.016 108.105C190.415 108.105 191.357 107.042 191.357 105.441C191.357 103.826 190.415 102.763 189.016 102.763C187.616 102.763 186.674 103.826 186.674 105.441C186.674 107.042 187.616 108.105 189.016 108.105ZM189.016 107.392C187.953 107.392 187.468 106.477 187.468 105.441C187.468 104.405 187.953 103.476 189.016 103.476C190.079 103.476 190.563 104.405 190.563 105.441C190.563 106.477 190.079 107.392 189.016 107.392ZM196.608 102.83H195.747L194.321 106.948H194.267L192.841 102.83H191.98L193.89 107.997H194.698L196.608 102.83ZM199.637 108.105C200.687 108.105 201.454 107.58 201.696 106.8L200.929 106.584C200.727 107.123 200.26 107.392 199.637 107.392C198.706 107.392 198.063 106.79 198.026 105.683H201.777V105.346C201.777 103.422 200.633 102.763 199.557 102.763C198.157 102.763 197.229 103.866 197.229 105.454C197.229 107.042 198.144 108.105 199.637 108.105ZM198.026 104.997C198.08 104.193 198.648 103.476 199.557 103.476C200.418 103.476 200.969 104.122 200.969 104.997H198.026ZM202.984 107.997H203.778V104.728C203.778 104.028 204.33 103.517 205.083 103.517C205.295 103.517 205.514 103.557 205.567 103.57V102.763C205.477 102.756 205.268 102.75 205.15 102.75C204.531 102.75 203.993 103.1 203.805 103.611H203.751V102.83H202.984V107.997ZM209.684 109.935C210.4 109.935 210.905 109.554 211.204 108.751L213.404 102.844L212.536 102.83L211.11 106.948H211.056L209.63 102.83H208.769L210.679 108.024L210.531 108.428C210.242 109.215 209.886 109.289 209.307 109.141L209.105 109.84C209.186 109.881 209.415 109.935 209.684 109.935ZM216.368 108.105C217.768 108.105 218.709 107.042 218.709 105.441C218.709 103.826 217.768 102.763 216.368 102.763C214.969 102.763 214.027 103.826 214.027 105.441C214.027 107.042 214.969 108.105 216.368 108.105ZM216.368 107.392C215.305 107.392 214.821 106.477 214.821 105.441C214.821 104.405 215.305 103.476 216.368 103.476C217.431 103.476 217.916 104.405 217.916 105.441C217.916 106.477 217.431 107.392 216.368 107.392ZM223.177 105.885C223.177 106.853 222.437 107.297 221.845 107.297C221.186 107.297 220.715 106.813 220.715 106.06V102.83H219.921V106.113C219.921 107.432 220.621 108.064 221.589 108.064C222.37 108.064 222.881 107.647 223.123 107.123H223.177V107.997H223.971V102.83H223.177V105.885ZM225.425 107.997H226.219V104.728C226.219 104.028 226.77 103.517 227.524 103.517C227.736 103.517 227.954 103.557 228.008 103.57V102.763C227.917 102.756 227.709 102.75 227.591 102.75C226.972 102.75 226.434 103.1 226.246 103.611H226.192V102.83H225.425V107.997ZM233.914 102.83H232.757V102.306C232.757 101.794 232.972 101.525 233.497 101.525C233.726 101.525 233.86 101.579 233.941 101.606L234.17 100.92C234.049 100.866 233.806 100.785 233.416 100.785C232.676 100.785 231.963 101.229 231.963 102.117V102.83H231.129V103.503H231.963V107.997H232.757V103.503H233.914V102.83ZM235.027 107.997H235.82V102.83H235.027V107.997ZM235.43 101.969C235.74 101.969 235.995 101.727 235.995 101.431C235.995 101.135 235.74 100.893 235.43 100.893C235.121 100.893 234.865 101.135 234.865 101.431C234.865 101.727 235.121 101.969 235.43 101.969ZM238.068 104.889C238.068 103.988 238.627 103.476 239.387 103.476C240.123 103.476 240.571 103.957 240.571 104.768V107.997H241.365V104.714C241.365 103.396 240.662 102.763 239.615 102.763C238.835 102.763 238.351 103.113 238.109 103.638H238.041V102.83H237.274V107.997H238.068V104.889ZM244.336 108.118C245.237 108.118 245.708 107.634 245.869 107.297H245.91V107.997H246.704V104.593C246.704 102.952 245.452 102.763 244.793 102.763C244.013 102.763 243.125 103.032 242.721 103.974L243.474 104.243C243.649 103.866 244.063 103.463 244.82 103.463C245.55 103.463 245.91 103.85 245.91 104.512V104.539C245.91 104.923 245.52 104.889 244.578 105.01C243.619 105.135 242.573 105.346 242.573 106.531C242.573 107.54 243.353 108.118 244.336 108.118ZM244.457 107.405C243.824 107.405 243.367 107.123 243.367 106.571C243.367 105.965 243.918 105.777 244.537 105.696C244.874 105.656 245.775 105.562 245.91 105.4V106.127C245.91 106.773 245.398 107.405 244.457 107.405ZM248.946 104.889C248.946 103.988 249.505 103.476 250.265 103.476C251.002 103.476 251.449 103.957 251.449 104.768V107.997H252.243V104.714C252.243 103.396 251.54 102.763 250.494 102.763C249.713 102.763 249.229 103.113 248.987 103.638H248.919V102.83H248.152V107.997H248.946V104.889ZM255.792 108.105C256.936 108.105 257.689 107.405 257.824 106.49H257.03C256.882 107.055 256.411 107.392 255.792 107.392C254.85 107.392 254.245 106.611 254.245 105.414C254.245 104.243 254.864 103.476 255.792 103.476C256.492 103.476 256.909 103.907 257.03 104.378H257.824C257.689 103.409 256.869 102.763 255.779 102.763C254.38 102.763 253.451 103.866 253.451 105.441C253.451 106.988 254.339 108.105 255.792 108.105ZM258.984 107.997H259.778V102.83H258.984V107.997ZM259.388 101.969C259.697 101.969 259.953 101.727 259.953 101.431C259.953 101.135 259.697 100.893 259.388 100.893C259.079 100.893 258.823 101.135 258.823 101.431C258.823 101.727 259.079 101.969 259.388 101.969ZM262.753 108.118C263.654 108.118 264.125 107.634 264.286 107.297H264.327V107.997H265.121V104.593C265.121 102.952 263.869 102.763 263.21 102.763C262.43 102.763 261.542 103.032 261.138 103.974L261.891 104.243C262.066 103.866 262.48 103.463 263.237 103.463C263.967 103.463 264.327 103.85 264.327 104.512V104.539C264.327 104.923 263.937 104.889 262.995 105.01C262.036 105.135 260.99 105.346 260.99 106.531C260.99 107.54 261.77 108.118 262.753 108.118ZM262.874 107.405C262.241 107.405 261.784 107.123 261.784 106.571C261.784 105.965 262.335 105.777 262.954 105.696C263.291 105.656 264.192 105.562 264.327 105.4V106.127C264.327 106.773 263.815 107.405 262.874 107.405ZM267.363 101.108H266.569V107.997H267.363V101.108ZM272.275 104.889C272.275 103.988 272.834 103.476 273.594 103.476C274.33 103.476 274.778 103.957 274.778 104.768V107.997H275.572V104.714C275.572 103.396 274.869 102.763 273.822 102.763C273.042 102.763 272.558 103.113 272.315 103.638H272.248V102.83H271.481V107.997H272.275V104.889ZM279.188 108.105C280.238 108.105 281.005 107.58 281.247 106.8L280.48 106.584C280.278 107.123 279.811 107.392 279.188 107.392C278.257 107.392 277.614 106.79 277.577 105.683H281.328V105.346C281.328 103.422 280.184 102.763 279.108 102.763C277.708 102.763 276.78 103.866 276.78 105.454C276.78 107.042 277.695 108.105 279.188 108.105ZM277.577 104.997C277.631 104.193 278.199 103.476 279.108 103.476C279.969 103.476 280.52 104.122 280.52 104.997H277.577ZM284.634 108.105C285.778 108.105 286.531 107.405 286.666 106.49H285.872C285.724 107.055 285.253 107.392 284.634 107.392C283.692 107.392 283.087 106.611 283.087 105.414C283.087 104.243 283.706 103.476 284.634 103.476C285.334 103.476 285.751 103.907 285.872 104.378H286.666C286.531 103.409 285.711 102.763 284.621 102.763C283.221 102.763 282.293 103.866 282.293 105.441C282.293 106.988 283.181 108.105 284.634 108.105ZM289.992 108.105C291.042 108.105 291.809 107.58 292.051 106.8L291.284 106.584C291.082 107.123 290.615 107.392 289.992 107.392C289.061 107.392 288.418 106.79 288.381 105.683H292.132V105.346C292.132 103.422 290.988 102.763 289.912 102.763C288.512 102.763 287.584 103.866 287.584 105.454C287.584 107.042 288.499 108.105 289.992 108.105ZM288.381 104.997C288.435 104.193 289.004 103.476 289.912 103.476C290.773 103.476 291.325 104.122 291.325 104.997H288.381ZM296.999 103.988C296.75 103.254 296.192 102.763 295.169 102.763C294.079 102.763 293.272 103.382 293.272 104.257C293.272 104.97 293.696 105.447 294.644 105.669L295.506 105.871C296.027 105.992 296.272 106.241 296.272 106.598C296.272 107.042 295.802 107.405 295.062 107.405C294.412 107.405 294.005 107.126 293.864 106.571L293.111 106.759C293.296 107.637 294.019 108.105 295.075 108.105C296.276 108.105 297.093 107.449 297.093 106.557C297.093 105.838 296.643 105.383 295.721 105.158L294.954 104.97C294.342 104.818 294.066 104.613 294.066 104.216C294.066 103.772 294.537 103.449 295.169 103.449C295.862 103.449 296.148 103.833 296.286 104.189L296.999 103.988ZM301.948 103.988C301.699 103.254 301.141 102.763 300.118 102.763C299.028 102.763 298.221 103.382 298.221 104.257C298.221 104.97 298.645 105.447 299.593 105.669L300.454 105.871C300.976 105.992 301.221 106.241 301.221 106.598C301.221 107.042 300.75 107.405 300.01 107.405C299.361 107.405 298.954 107.126 298.813 106.571L298.059 106.759C298.244 107.637 298.968 108.105 300.024 108.105C301.225 108.105 302.042 107.449 302.042 106.557C302.042 105.838 301.591 105.383 300.67 105.158L299.903 104.97C299.291 104.818 299.015 104.613 299.015 104.216C299.015 103.772 299.486 103.449 300.118 103.449C300.811 103.449 301.097 103.833 301.235 104.189L301.948 103.988ZM303.237 107.997H304.031V102.83H303.237V107.997ZM303.641 101.969C303.95 101.969 304.206 101.727 304.206 101.431C304.206 101.135 303.95 100.893 303.641 100.893C303.331 100.893 303.076 101.135 303.076 101.431C303.076 101.727 303.331 101.969 303.641 101.969ZM307.732 102.83H306.628V101.593H305.835V102.83H305.054V103.503H305.835V106.732C305.835 107.634 306.561 108.064 307.234 108.064C307.53 108.064 307.718 108.011 307.826 107.97L307.664 107.257C307.597 107.271 307.49 107.297 307.315 107.297C306.965 107.297 306.628 107.19 306.628 106.517V103.503H307.732V102.83ZM308.926 107.997H309.72V102.83H308.926V107.997ZM309.329 101.969C309.639 101.969 309.895 101.727 309.895 101.431C309.895 101.135 309.639 100.893 309.329 100.893C309.02 100.893 308.764 101.135 308.764 101.431C308.764 101.727 309.02 101.969 309.329 101.969ZM313.34 108.105C314.389 108.105 315.156 107.58 315.398 106.8L314.631 106.584C314.43 107.123 313.962 107.392 313.34 107.392C312.408 107.392 311.766 106.79 311.729 105.683H315.479V105.346C315.479 103.422 314.335 102.763 313.259 102.763C311.86 102.763 310.931 103.866 310.931 105.454C310.931 107.042 311.846 108.105 313.34 108.105ZM311.729 104.997C311.782 104.193 312.351 103.476 313.259 103.476C314.12 103.476 314.672 104.122 314.672 104.997H311.729ZM320.346 103.988C320.097 103.254 319.539 102.763 318.517 102.763C317.427 102.763 316.619 103.382 316.619 104.257C316.619 104.97 317.043 105.447 317.992 105.669L318.853 105.871C319.374 105.992 319.62 106.241 319.62 106.598C319.62 107.042 319.149 107.405 318.409 107.405C317.76 107.405 317.353 107.126 317.211 106.571L316.458 106.759C316.643 107.637 317.366 108.105 318.422 108.105C319.623 108.105 320.441 107.449 320.441 106.557C320.441 105.838 319.99 105.383 319.068 105.158L318.301 104.97C317.689 104.818 317.413 104.613 317.413 104.216C317.413 103.772 317.884 103.449 318.517 103.449C319.209 103.449 319.495 103.833 319.633 104.189L320.346 103.988ZM322.214 108.051C322.547 108.051 322.82 107.778 322.82 107.445C322.82 107.112 322.547 106.84 322.214 106.84C321.881 106.84 321.609 107.112 321.609 107.445C321.609 107.778 321.881 108.051 322.214 108.051Z" fill="#696466"/>
<path d="M117.887 127.338H117.527V127.698V182.104V182.464H117.887H385.898C389.939 182.464 393.215 179.188 393.215 175.146V134.656C393.215 130.614 389.939 127.338 385.898 127.338H117.887Z" fill="white" stroke="#F3F3FB" stroke-width="0.720394"/>
<rect x="116.418" y="127.698" width="110.281" height="54.4054" fill="white"/>
<rect x="116.418" y="127.698" width="110.281" height="54.4054" fill="#4100FB" fill-opacity="0.1"/>
<path d="M140.614 170.68C143.312 170.68 144.834 169.002 144.834 166.235C144.834 163.485 143.312 161.825 140.735 161.825H137.881V170.68H140.614ZM138.954 169.729V162.776H140.666C142.741 162.776 143.796 164.091 143.796 166.235C143.796 168.397 142.741 169.729 140.545 169.729H138.954ZM150.679 167.965C150.679 169.21 149.728 169.781 148.967 169.781C148.12 169.781 147.514 169.158 147.514 168.19V164.039H146.494V168.259C146.494 169.954 147.393 170.766 148.638 170.766C149.642 170.766 150.299 170.23 150.61 169.556H150.679V170.68H151.7V164.039H150.679V167.965ZM156.353 170.818C157.702 170.818 158.688 170.144 158.999 169.141L158.013 168.864C157.754 169.556 157.153 169.902 156.353 169.902C155.155 169.902 154.329 169.128 154.282 167.705H159.103V167.273C159.103 164.8 157.633 163.952 156.249 163.952C154.451 163.952 153.257 165.371 153.257 167.411C153.257 169.452 154.433 170.818 156.353 170.818ZM154.282 166.823C154.351 165.79 155.082 164.869 156.249 164.869C157.356 164.869 158.065 165.699 158.065 166.823H154.282ZM164.062 170.68H169.648V169.729H165.532V169.66L167.521 167.532C169.043 165.902 169.492 165.141 169.492 164.16C169.492 162.794 168.386 161.704 166.829 161.704C165.277 161.704 164.096 162.759 164.096 164.316H165.117C165.117 163.308 165.77 162.638 166.794 162.638C167.754 162.638 168.489 163.226 168.489 164.16C168.489 164.977 168.009 165.582 166.985 166.702L164.062 169.902V170.68ZM174.201 170.801C175.887 170.801 177.124 169.556 177.124 167.861C177.124 166.144 175.93 164.886 174.305 164.886C173.708 164.886 173.129 165.098 172.765 165.388H172.713L173.025 162.776H176.726V161.825H172.125L171.589 166.183L172.592 166.304C172.96 166.041 173.587 165.85 174.132 165.855C175.26 165.863 176.086 166.72 176.086 167.878C176.086 169.015 175.29 169.85 174.201 169.85C173.293 169.85 172.571 169.266 172.489 168.466H171.451C171.516 169.815 172.679 170.801 174.201 170.801ZM189.892 166.253C189.892 163.451 188.249 161.704 185.984 161.704C183.718 161.704 182.075 163.451 182.075 166.253C182.075 169.054 183.718 170.801 185.984 170.801C188.249 170.801 189.892 169.054 189.892 166.253ZM188.855 166.253C188.855 168.553 187.592 169.798 185.984 169.798C184.375 169.798 183.113 168.553 183.113 166.253C183.113 163.952 184.375 162.707 185.984 162.707C187.592 162.707 188.855 163.952 188.855 166.253ZM194.255 170.818C195.725 170.818 196.693 169.919 196.866 168.743H195.846C195.656 169.469 195.05 169.902 194.255 169.902C193.044 169.902 192.266 168.899 192.266 167.359C192.266 165.855 193.061 164.869 194.255 164.869C195.154 164.869 195.69 165.422 195.846 166.028H196.866C196.693 164.783 195.638 163.952 194.237 163.952C192.439 163.952 191.246 165.371 191.246 167.394C191.246 169.383 192.387 170.818 194.255 170.818ZM201.246 164.039H199.828V162.448H198.808V164.039H197.804V164.904H198.808V169.054C198.808 170.213 199.741 170.766 200.606 170.766C200.987 170.766 201.229 170.697 201.367 170.645L201.16 169.729C201.073 169.746 200.935 169.781 200.71 169.781C200.26 169.781 199.828 169.642 199.828 168.778V164.904H201.246V164.039Z" fill="#696466"/>
<path d="M323.94 155.261H325.398L325.411 153.834C328.085 153.631 329.635 152.21 329.641 150.067C329.635 147.96 328.048 146.842 325.849 146.348L325.485 146.262L325.509 143.174C326.331 143.365 326.831 143.89 326.905 144.668H329.469C329.438 142.624 327.912 141.16 325.534 140.901L325.546 139.449H324.089L324.076 140.888C321.661 141.123 319.957 142.581 319.969 144.687C319.963 146.552 321.278 147.621 323.415 148.133L324.008 148.282L323.978 151.549C322.971 151.358 322.291 150.74 322.223 149.708H319.635C319.697 152.204 321.334 153.6 323.953 153.828L323.94 155.261ZM325.435 151.549L325.46 148.665C326.417 148.967 326.936 149.356 326.942 150.06C326.936 150.808 326.368 151.364 325.435 151.549ZM324.027 145.885C323.255 145.619 322.699 145.218 322.711 144.508C322.711 143.847 323.181 143.334 324.052 143.155L324.027 145.885ZM336.085 153.853C338.939 153.853 340.989 152.327 340.996 150.277C340.989 148.695 339.773 147.405 338.253 147.151V147.065C339.575 146.793 340.52 145.65 340.526 144.261C340.52 142.303 338.642 140.857 336.085 140.857C333.522 140.857 331.644 142.303 331.65 144.261C331.644 145.644 332.577 146.793 333.923 147.065V147.151C332.379 147.405 331.175 148.695 331.181 150.277C331.175 152.327 333.232 153.853 336.085 153.853ZM336.085 151.889C334.813 151.889 333.96 151.135 333.96 150.067C333.96 148.973 334.856 148.183 336.085 148.183C337.308 148.183 338.21 148.973 338.21 150.067C338.21 151.141 337.351 151.889 336.085 151.889ZM336.085 146.237C335.017 146.237 334.257 145.539 334.257 144.539C334.257 143.55 335.004 142.871 336.085 142.871C337.16 142.871 337.913 143.557 337.913 144.539C337.913 145.539 337.148 146.237 336.085 146.237ZM347.442 140.857C344.614 140.845 342.705 142.698 342.717 145.243C342.723 147.602 344.36 149.313 346.602 149.313C347.992 149.313 349.227 148.64 349.79 147.528H349.876C349.87 150.036 348.999 151.561 347.35 151.561C346.38 151.561 345.682 151.03 345.478 150.11H342.841C343.088 152.241 344.817 153.853 347.35 153.853C350.481 153.853 352.501 151.32 352.495 147.028C352.489 142.445 350.043 140.87 347.442 140.857ZM347.461 142.957C348.69 142.957 349.598 143.958 349.61 145.162C349.617 146.373 348.659 147.374 347.436 147.374C346.201 147.374 345.318 146.41 345.311 145.169C345.299 143.933 346.219 142.957 347.461 142.957ZM355.384 153.841C356.175 153.841 356.86 153.18 356.866 152.358C356.86 151.549 356.175 150.888 355.384 150.888C354.569 150.888 353.895 151.549 353.902 152.358C353.895 153.18 354.569 153.841 355.384 153.841ZM359.002 153.68H368.02V151.493H362.708V151.407L364.555 149.597C367.155 147.225 367.853 146.039 367.853 144.6C367.853 142.408 366.062 140.857 363.35 140.857C360.694 140.857 358.872 142.445 358.878 144.928H361.417C361.411 143.717 362.177 142.976 363.332 142.976C364.443 142.976 365.271 143.668 365.271 144.779C365.271 145.786 364.653 146.478 363.505 147.584L359.002 151.753V153.68ZM374.534 140.857C371.706 140.845 369.797 142.698 369.809 145.243C369.816 147.602 371.452 149.313 373.694 149.313C375.084 149.313 376.32 148.64 376.882 147.528H376.968C376.962 150.036 376.091 151.561 374.442 151.561C373.472 151.561 372.774 151.03 372.57 150.11H369.933C370.18 152.241 371.909 153.853 374.442 153.853C377.573 153.853 379.593 151.32 379.587 147.028C379.581 142.445 377.135 140.87 374.534 140.857ZM374.553 142.957C375.782 142.957 376.69 143.958 376.702 145.162C376.709 146.373 375.751 147.374 374.528 147.374C373.293 147.374 372.41 146.41 372.404 145.169C372.391 143.933 373.312 142.957 374.553 142.957Z" fill="#070717"/>
<path d="M328.608 162.41H327.674L324.82 173.012H325.754L328.608 162.41ZM335.836 172.787H336.545V171.823C338.361 171.697 339.381 170.625 339.381 169.276C339.381 167.616 337.808 167.08 336.891 166.837L336.545 166.742V163.668C337.462 163.759 338.127 164.252 338.223 165.039H339.26C339.217 163.776 338.11 162.817 336.545 162.713V161.718H335.836V162.726C334.353 162.877 333.242 163.82 333.242 165.177C333.242 166.371 334.107 167.08 335.49 167.477L335.836 167.577V170.85C334.928 170.755 334.184 170.288 334.107 169.397H333C333.099 170.759 334.137 171.71 335.836 171.823V172.787ZM336.545 170.85V167.78L336.58 167.789C337.514 168.048 338.344 168.377 338.344 169.259C338.344 170.128 337.591 170.733 336.545 170.85ZM335.836 166.552C335.179 166.366 334.279 166.003 334.279 165.125C334.279 164.377 334.885 163.807 335.836 163.681V166.552ZM340.989 171.68H346.575V170.729H342.459V170.66L344.448 168.532C345.969 166.902 346.419 166.141 346.419 165.16C346.419 163.794 345.312 162.704 343.756 162.704C342.204 162.704 341.023 163.759 341.023 165.316H342.044C342.044 164.308 342.696 163.638 343.721 163.638C344.681 163.638 345.416 164.226 345.416 165.16C345.416 165.977 344.936 166.582 343.911 167.702L340.989 170.902V171.68ZM351.128 171.801C352.814 171.801 354.05 170.556 354.05 168.861C354.05 167.144 352.857 165.886 351.231 165.886C350.635 165.886 350.055 166.098 349.692 166.388H349.64L349.951 163.776H353.653V162.825H349.052L348.516 167.183L349.519 167.304C349.887 167.041 350.514 166.85 351.058 166.855C352.187 166.863 353.013 167.72 353.013 168.878C353.013 170.015 352.217 170.85 351.128 170.85C350.22 170.85 349.498 170.266 349.415 169.466H348.378C348.443 170.815 349.606 171.801 351.128 171.801ZM358.656 171.801C360.61 171.801 361.734 170.145 361.734 167.253C361.734 164.382 360.593 162.704 358.656 162.704C356.719 162.704 355.578 164.382 355.578 167.253C355.578 170.145 356.702 171.801 358.656 171.801ZM358.656 170.85C357.368 170.85 356.615 169.557 356.615 167.253C356.615 164.952 357.376 163.638 358.656 163.638C359.936 163.638 360.697 164.952 360.697 167.253C360.697 169.557 359.944 170.85 358.656 170.85ZM363.829 171.749C364.257 171.749 364.607 171.399 364.607 170.971C364.607 170.543 364.257 170.193 363.829 170.193C363.401 170.193 363.051 170.543 363.051 170.971C363.051 171.399 363.401 171.749 363.829 171.749ZM369 171.801C370.955 171.801 372.079 170.145 372.079 167.253C372.079 164.382 370.937 162.704 369 162.704C367.063 162.704 365.922 164.382 365.922 167.253C365.922 170.145 367.046 171.801 369 171.801ZM369 170.85C367.712 170.85 366.96 169.557 366.96 167.253C366.96 164.952 367.72 163.638 369 163.638C370.28 163.638 371.041 164.952 371.041 167.253C371.041 169.557 370.289 170.85 369 170.85ZM376.61 171.801C378.564 171.801 379.688 170.145 379.688 167.253C379.688 164.382 378.547 162.704 376.61 162.704C374.673 162.704 373.531 164.382 373.531 167.253C373.531 170.145 374.656 171.801 376.61 171.801ZM376.61 170.85C375.321 170.85 374.569 169.557 374.569 167.253C374.569 164.952 375.33 163.638 376.61 163.638C377.89 163.638 378.651 164.952 378.651 167.253C378.651 169.557 377.898 170.85 376.61 170.85Z" fill="#696466"/>
<path d="M137.634 150.52H139.64V147.157H141.103L142.901 150.52H145.115L143.1 146.832C144.179 146.369 144.777 145.429 144.777 144.132C144.777 142.246 143.531 141.033 141.377 141.033H137.634V150.52ZM139.64 145.545V142.672H140.992C142.15 142.672 142.711 143.187 142.711 144.132C142.711 145.072 142.15 145.545 141.001 145.545H139.64ZM149.285 150.659C151.046 150.659 152.232 149.802 152.51 148.482L150.684 148.361C150.485 148.903 149.976 149.186 149.318 149.186C148.331 149.186 147.706 148.532 147.706 147.472V147.467H152.551V146.925C152.551 144.507 151.087 143.312 149.207 143.312C147.113 143.312 145.755 144.799 145.755 146.994C145.755 149.25 147.094 150.659 149.285 150.659ZM147.706 146.244C147.747 145.433 148.364 144.785 149.239 144.785C150.096 144.785 150.689 145.396 150.694 146.244H147.706ZM155.813 146.406C155.817 145.489 156.364 144.952 157.161 144.952C157.953 144.952 158.43 145.47 158.425 146.341V150.52H160.399V145.989C160.399 144.331 159.426 143.312 157.943 143.312C156.887 143.312 156.123 143.831 155.803 144.66H155.72V143.404H153.839V150.52H155.813V146.406ZM165.739 143.404H164.4V141.7H162.426V143.404H161.454V144.887H162.426V148.593C162.417 149.987 163.367 150.677 164.798 150.617C165.308 150.599 165.669 150.497 165.868 150.432L165.558 148.963C165.461 148.982 165.252 149.028 165.067 149.028C164.673 149.028 164.4 148.88 164.4 148.333V144.887H165.739V143.404ZM173.258 150.659C175.417 150.659 176.76 149.181 176.76 146.99C176.76 144.785 175.417 143.312 173.258 143.312C171.1 143.312 169.756 144.785 169.756 146.99C169.756 149.181 171.1 150.659 173.258 150.659ZM173.268 149.13C172.272 149.13 171.762 148.217 171.762 146.976C171.762 145.734 172.272 144.817 173.268 144.817C174.245 144.817 174.755 145.734 174.755 146.976C174.755 148.217 174.245 149.13 173.268 149.13ZM178.044 150.52H180.017V146.494C180.017 145.619 180.656 145.016 181.527 145.016C181.801 145.016 182.176 145.063 182.361 145.123V143.372C182.185 143.33 181.939 143.302 181.74 143.302C180.944 143.302 180.29 143.766 180.031 144.646H179.957V143.404H178.044V150.52ZM186.401 150.52H188.374V146.249C188.374 145.461 188.874 144.938 189.532 144.938C190.181 144.938 190.616 145.382 190.616 146.082V150.52H192.529V146.175C192.529 145.438 192.951 144.938 193.669 144.938C194.299 144.938 194.771 145.331 194.771 146.124V150.52H196.74V145.734C196.74 144.192 195.823 143.312 194.498 143.312C193.456 143.312 192.645 143.844 192.353 144.66H192.279C192.052 143.835 191.325 143.312 190.347 143.312C189.388 143.312 188.661 143.821 188.365 144.66H188.281V143.404H186.401V150.52ZM201.514 150.659C203.673 150.659 205.016 149.181 205.016 146.99C205.016 144.785 203.673 143.312 201.514 143.312C199.355 143.312 198.012 144.785 198.012 146.99C198.012 149.181 199.355 150.659 201.514 150.659ZM201.523 149.13C200.527 149.13 200.018 148.217 200.018 146.976C200.018 145.734 200.527 144.817 201.523 144.817C202.501 144.817 203.01 145.734 203.01 146.976C203.01 148.217 202.501 149.13 201.523 149.13ZM206.299 150.52H208.273V146.494C208.273 145.619 208.912 145.016 209.783 145.016C210.056 145.016 210.431 145.063 210.617 145.123V143.372C210.441 143.33 210.195 143.302 209.996 143.302C209.199 143.302 208.546 143.766 208.287 144.646H208.212V143.404H206.299V150.52ZM215.778 143.404H214.44V141.7H212.466V143.404H211.493V144.887H212.466V148.593C212.457 149.987 213.407 150.677 214.838 150.617C215.348 150.599 215.709 150.497 215.908 150.432L215.598 148.963C215.5 148.982 215.292 149.028 215.107 149.028C214.713 149.028 214.44 148.88 214.44 148.333V144.887H215.778V143.404ZM220.193 153.336C222.227 153.336 223.672 152.41 223.672 150.589V143.404H221.712V144.6H221.638C221.374 144.02 220.795 143.312 219.605 143.312C218.044 143.312 216.723 144.525 216.723 146.948C216.723 149.315 218.007 150.418 219.609 150.418C220.744 150.418 221.379 149.848 221.638 149.26H221.722V150.561C221.722 151.539 221.096 151.919 220.239 151.919C219.368 151.919 218.928 151.539 218.766 151.108L216.941 151.354C217.177 152.475 218.275 153.336 220.193 153.336ZM220.235 148.935C219.267 148.935 218.738 148.166 218.738 146.939C218.738 145.73 219.257 144.882 220.235 144.882C221.194 144.882 221.731 145.693 221.731 146.939C221.731 148.194 221.184 148.935 220.235 148.935ZM227.271 150.654C228.323 150.654 229.004 150.196 229.351 149.533H229.407V150.52H231.278V145.721C231.278 144.025 229.842 143.312 228.258 143.312C226.553 143.312 225.432 144.127 225.159 145.424L226.984 145.572C227.119 145.1 227.54 144.752 228.249 144.752C228.921 144.752 229.305 145.091 229.305 145.674V145.702C229.305 146.161 228.819 146.221 227.582 146.341C226.174 146.471 224.909 146.944 224.909 148.532C224.909 149.941 225.914 150.654 227.271 150.654ZM227.837 149.292C227.23 149.292 226.794 149.01 226.794 148.468C226.794 147.912 227.253 147.638 227.948 147.541C228.379 147.481 229.083 147.379 229.319 147.221V147.977C229.319 148.722 228.703 149.292 227.837 149.292ZM236.015 153.336C238.049 153.336 239.494 152.41 239.494 150.589V143.404H237.535V144.6H237.46C237.196 144.02 236.617 143.312 235.427 143.312C233.866 143.312 232.545 144.525 232.545 146.948C232.545 149.315 233.829 150.418 235.431 150.418C236.566 150.418 237.201 149.848 237.46 149.26H237.544V150.561C237.544 151.539 236.918 151.919 236.061 151.919C235.191 151.919 234.751 151.539 234.588 151.108L232.763 151.354C232.999 152.475 234.097 153.336 236.015 153.336ZM236.057 148.935C235.089 148.935 234.561 148.166 234.561 146.939C234.561 145.73 235.079 144.882 236.057 144.882C237.016 144.882 237.553 145.693 237.553 146.939C237.553 148.194 237.007 148.935 236.057 148.935ZM244.307 150.659C246.068 150.659 247.253 149.802 247.531 148.482L245.706 148.361C245.507 148.903 244.997 149.186 244.34 149.186C243.353 149.186 242.728 148.532 242.728 147.472V147.467H247.573V146.925C247.573 144.507 246.109 143.312 244.228 143.312C242.135 143.312 240.777 144.799 240.777 146.994C240.777 149.25 242.116 150.659 244.307 150.659ZM242.728 146.244C242.769 145.433 243.385 144.785 244.261 144.785C245.118 144.785 245.711 145.396 245.715 146.244H242.728ZM254.781 145.433C254.605 144.122 253.549 143.312 251.752 143.312C249.931 143.312 248.731 144.155 248.736 145.526C248.731 146.591 249.403 147.282 250.793 147.56L252.025 147.805C252.646 147.93 252.928 148.157 252.937 148.514C252.928 148.935 252.47 149.237 251.779 149.237C251.075 149.237 250.607 148.935 250.487 148.356L248.546 148.458C248.731 149.82 249.889 150.659 251.775 150.659C253.618 150.659 254.939 149.718 254.943 148.315C254.939 147.286 254.267 146.67 252.887 146.388L251.599 146.128C250.936 145.985 250.691 145.758 250.695 145.415C250.691 144.989 251.173 144.711 251.784 144.711C252.47 144.711 252.877 145.086 252.975 145.545L254.781 145.433Z" fill="#696466"/>
<path d="M117.887 196.766H117.496V197.157V257.444V257.836H117.887H414.705C419.095 257.836 422.654 254.277 422.654 249.886V204.716C422.654 200.325 419.095 196.766 414.705 196.766H117.887Z" fill="white" stroke="#F3F3FB" stroke-width="0.78264"/>
<rect x="116.418" y="196.808" width="122.092" height="61.2664" fill="white"/>
<rect x="116.418" y="196.808" width="122.092" height="61.2664" fill="#4100FB" fill-opacity="0.1"/>
<path d="M143.708 243.382C146.639 243.382 148.293 241.559 148.293 238.553C148.293 235.565 146.639 233.762 143.84 233.762H140.74V243.382H143.708ZM141.905 242.348V234.795H143.765C146.019 234.795 147.165 236.223 147.165 238.553C147.165 240.901 146.019 242.348 143.633 242.348H141.905ZM154.643 240.432C154.643 241.785 153.61 242.405 152.783 242.405C151.863 242.405 151.205 241.728 151.205 240.676V236.167H150.096V240.751C150.096 242.592 151.073 243.476 152.426 243.476C153.516 243.476 154.23 242.893 154.568 242.16H154.643V243.382H155.752V236.167H154.643V240.432ZM160.807 243.532C162.273 243.532 163.344 242.799 163.682 241.709L162.611 241.409C162.329 242.16 161.676 242.536 160.807 242.536C159.506 242.536 158.609 241.695 158.557 240.15H163.795V239.68C163.795 236.993 162.198 236.073 160.694 236.073C158.74 236.073 157.444 237.613 157.444 239.831C157.444 242.048 158.722 243.532 160.807 243.532ZM158.557 239.192C158.632 238.069 159.426 237.069 160.694 237.069C161.897 237.069 162.667 237.97 162.667 239.192H158.557ZM172.32 243.513C174.443 243.513 175.664 241.714 175.664 238.572C175.664 235.453 174.424 233.63 172.32 233.63C170.216 233.63 168.976 235.453 168.976 238.572C168.976 241.714 170.197 243.513 172.32 243.513ZM172.32 242.48C170.92 242.48 170.103 241.075 170.103 238.572C170.103 236.073 170.93 234.645 172.32 234.645C173.71 234.645 174.537 236.073 174.537 238.572C174.537 241.075 173.72 242.48 172.32 242.48ZM180.831 233.762H179.666L177.261 235.359V236.542L179.61 234.983H179.666V243.382H180.831V233.762ZM195.604 238.572C195.604 235.528 193.819 233.63 191.358 233.63C188.896 233.63 187.111 235.528 187.111 238.572C187.111 241.615 188.896 243.513 191.358 243.513C193.819 243.513 195.604 241.615 195.604 238.572ZM194.477 238.572C194.477 241.071 193.105 242.423 191.358 242.423C189.61 242.423 188.239 241.071 188.239 238.572C188.239 236.073 189.61 234.72 191.358 234.72C193.105 234.72 194.477 236.073 194.477 238.572ZM200.343 243.532C201.941 243.532 202.993 242.555 203.181 241.277H202.072C201.865 242.066 201.208 242.536 200.343 242.536C199.028 242.536 198.183 241.446 198.183 239.774C198.183 238.14 199.047 237.069 200.343 237.069C201.321 237.069 201.903 237.67 202.072 238.327H203.181C202.993 236.975 201.847 236.073 200.325 236.073C198.371 236.073 197.074 237.613 197.074 239.812C197.074 241.972 198.314 243.532 200.343 243.532ZM207.939 236.167H206.398V234.438H205.29V236.167H204.2V237.106H205.29V241.615C205.29 242.874 206.304 243.476 207.244 243.476C207.657 243.476 207.92 243.4 208.07 243.344L207.845 242.348C207.751 242.367 207.601 242.405 207.356 242.405C206.868 242.405 206.398 242.254 206.398 241.315V237.106H207.939V236.167Z" fill="#696466"/>
<path d="M344.51 227.412H346.093L346.107 225.862C349.012 225.641 350.697 224.097 350.703 221.769C350.697 219.481 348.972 218.266 346.583 217.729L346.187 217.635L346.214 214.28C347.107 214.488 347.65 215.059 347.731 215.904H350.515C350.482 213.683 348.824 212.093 346.241 211.811L346.254 210.234H344.671L344.657 211.797C342.034 212.052 340.182 213.636 340.195 215.924C340.188 217.951 341.618 219.112 343.939 219.669L344.584 219.83L344.55 223.379C343.456 223.171 342.718 222.5 342.644 221.38H339.833C339.9 224.091 341.678 225.607 344.523 225.855L344.51 227.412ZM346.134 223.379L346.16 220.246C347.201 220.574 347.764 220.997 347.771 221.762C347.764 222.574 347.147 223.178 346.134 223.379ZM344.604 217.226C343.765 216.937 343.161 216.501 343.174 215.73C343.174 215.012 343.684 214.455 344.63 214.26L344.604 217.226ZM357.657 225.882C360.744 225.882 362.951 224.185 362.945 221.836C362.951 220.125 361.864 218.904 359.844 218.649V218.541C361.381 218.266 362.441 217.179 362.435 215.636C362.441 213.468 360.542 211.764 357.697 211.764C354.879 211.764 352.758 213.415 352.718 215.79H355.503C355.536 214.743 356.496 214.065 357.684 214.065C358.858 214.065 359.643 214.777 359.636 215.81C359.643 216.89 358.724 217.622 357.402 217.622H356.12V219.756H357.402C358.959 219.756 359.932 220.534 359.925 221.641C359.932 222.735 358.992 223.487 357.664 223.487C356.382 223.487 355.422 222.816 355.369 221.809H352.443C352.49 224.211 354.637 225.882 357.657 225.882ZM370.16 225.882C373.26 225.882 375.488 224.225 375.494 221.997C375.488 220.279 374.166 218.877 372.515 218.602V218.508C373.951 218.212 374.978 216.971 374.984 215.461C374.978 213.334 372.938 211.764 370.16 211.764C367.375 211.764 365.335 213.334 365.342 215.461C365.335 216.964 366.348 218.212 367.811 218.508V218.602C366.134 218.877 364.825 220.279 364.832 221.997C364.825 224.225 367.06 225.882 370.16 225.882ZM370.16 223.748C368.777 223.748 367.851 222.93 367.851 221.769C367.851 220.581 368.824 219.722 370.16 219.722C371.488 219.722 372.468 220.581 372.468 221.769C372.468 222.936 371.535 223.748 370.16 223.748ZM370.16 217.608C368.999 217.608 368.174 216.85 368.174 215.763C368.174 214.689 368.985 213.951 370.16 213.951C371.327 213.951 372.146 214.696 372.146 215.763C372.146 216.85 371.314 217.608 370.16 217.608ZM378.836 225.869C379.695 225.869 380.44 225.151 380.447 224.258C380.44 223.379 379.695 222.661 378.836 222.661C377.95 222.661 377.219 223.379 377.226 224.258C377.219 225.151 377.95 225.869 378.836 225.869ZM387.583 225.996C391.039 225.996 393.126 223.366 393.132 218.836C393.139 214.341 391.025 211.764 387.583 211.764C384.134 211.764 382.04 214.334 382.034 218.836C382.02 223.352 384.12 225.99 387.583 225.996ZM387.583 223.587C386.006 223.587 384.986 222.004 384.993 218.836C385 215.716 386.013 214.146 387.583 214.146C389.146 214.146 390.166 215.716 390.166 218.836C390.173 222.004 389.153 223.587 387.583 223.587ZM400.593 225.996C404.048 225.996 406.135 223.366 406.142 218.836C406.149 214.341 404.035 211.764 400.593 211.764C397.143 211.764 395.05 214.334 395.043 218.836C395.03 223.352 397.13 225.99 400.593 225.996ZM400.593 223.587C399.016 223.587 397.996 222.004 398.002 218.836C398.009 215.716 399.022 214.146 400.593 214.146C402.156 214.146 403.176 215.716 403.176 218.836C403.183 222.004 402.163 223.587 400.593 223.587Z" fill="#070717"/>
<path d="M358.619 235.624H357.604L354.504 247.141H355.519L358.619 235.624ZM366.471 246.897H367.242V245.849C369.215 245.713 370.323 244.548 370.323 243.083C370.323 241.279 368.613 240.697 367.618 240.433L367.242 240.33V236.99C368.238 237.089 368.961 237.625 369.064 238.479H370.192C370.145 237.108 368.942 236.065 367.242 235.952V234.872H366.471V235.966C364.86 236.131 363.653 237.155 363.653 238.63C363.653 239.926 364.593 240.697 366.096 241.129L366.471 241.237V244.792C365.485 244.689 364.677 244.182 364.593 243.214H363.39C363.498 244.694 364.625 245.727 366.471 245.849V246.897ZM367.242 244.792V241.457L367.279 241.467C368.294 241.749 369.196 242.106 369.196 243.064C369.196 244.008 368.378 244.666 367.242 244.792ZM366.471 240.123C365.757 239.921 364.78 239.527 364.78 238.573C364.78 237.761 365.438 237.141 366.471 237.005V240.123ZM375.263 245.826C377.208 245.849 378.476 244.384 378.476 242.594C378.476 240.734 377.1 239.4 375.451 239.4C374.46 239.4 373.61 239.884 373.084 240.678H373.009C373.013 238.334 373.925 236.976 375.414 236.976C376.428 236.976 377.039 237.615 377.255 238.479H378.401C378.166 236.986 377.03 235.943 375.414 235.943C373.248 235.943 371.919 237.859 371.919 241.26C371.919 244.816 373.685 245.807 375.263 245.826ZM375.263 244.792C374.056 244.792 373.173 243.764 373.178 242.613C373.183 241.462 374.108 240.433 375.301 240.433C376.48 240.433 377.349 241.401 377.349 242.594C377.349 243.815 376.442 244.792 375.263 244.792ZM383.461 245.826C385.584 245.826 386.806 244.027 386.806 240.884C386.806 237.765 385.566 235.943 383.461 235.943C381.357 235.943 380.117 237.765 380.117 240.884C380.117 244.027 381.338 245.826 383.461 245.826ZM383.461 244.792C382.061 244.792 381.244 243.388 381.244 240.884C381.244 238.386 382.071 236.958 383.461 236.958C384.852 236.958 385.678 238.386 385.678 240.884C385.678 243.388 384.861 244.792 383.461 244.792ZM389.081 245.769C389.546 245.769 389.927 245.389 389.927 244.924C389.927 244.459 389.546 244.079 389.081 244.079C388.616 244.079 388.236 244.459 388.236 244.924C388.236 245.389 388.616 245.769 389.081 245.769ZM394.699 245.826C396.822 245.826 398.044 244.027 398.044 240.884C398.044 237.765 396.804 235.943 394.699 235.943C392.595 235.943 391.355 237.765 391.355 240.884C391.355 244.027 392.576 245.826 394.699 245.826ZM394.699 244.792C393.299 244.792 392.482 243.388 392.482 240.884C392.482 238.386 393.309 236.958 394.699 236.958C396.09 236.958 396.916 238.386 396.916 240.884C396.916 243.388 396.099 244.792 394.699 244.792ZM402.966 245.826C405.089 245.826 406.311 244.027 406.311 240.884C406.311 237.765 405.071 235.943 402.966 235.943C400.862 235.943 399.622 237.765 399.622 240.884C399.622 244.027 400.843 245.826 402.966 245.826ZM402.966 244.792C401.567 244.792 400.749 243.388 400.749 240.884C400.749 238.386 401.576 236.958 402.966 236.958C404.357 236.958 405.183 238.386 405.183 240.884C405.183 243.388 404.366 244.792 402.966 244.792Z" fill="#696466"/>
<path d="M147.305 215.418H149.519C149.238 213.379 147.441 211.945 145.111 211.945C142.388 211.945 140.289 213.908 140.289 217.25C140.289 220.511 142.252 222.534 145.156 222.534C147.758 222.534 149.615 220.888 149.615 218.176V216.877H145.302V218.518H147.516C147.486 219.796 146.615 220.606 145.166 220.606C143.53 220.606 142.499 219.384 142.499 217.23C142.499 215.086 143.571 213.873 145.146 213.873C146.268 213.873 147.028 214.451 147.305 215.418ZM152.535 225.292C154.131 225.292 154.976 224.477 155.414 223.228L158.418 214.673L156.149 214.663L154.533 220.34H154.453L152.852 214.663H150.598L153.371 222.615L153.245 222.942C152.963 223.666 152.424 223.702 151.67 223.47L151.186 225.07C151.493 225.201 151.992 225.292 152.535 225.292ZM159.516 222.393H161.659V217.753C161.659 216.897 162.203 216.329 162.918 216.329C163.622 216.329 164.095 216.812 164.095 217.572V222.393H166.174V217.672C166.174 216.872 166.632 216.329 167.412 216.329C168.096 216.329 168.61 216.756 168.61 217.617V222.393H170.749V217.194C170.749 215.518 169.752 214.562 168.313 214.562C167.18 214.562 166.3 215.141 165.983 216.027H165.902C165.655 215.131 164.865 214.562 163.803 214.562C162.762 214.562 161.972 215.116 161.649 216.027H161.559V214.663H159.516V222.393Z" fill="#696466"/>
</g>
<defs>
<linearGradient id="paint0_linear_2044_12784" x1="314.184" y1="124.135" x2="381.575" y2="184.515" gradientUnits="userSpaceOnUse">
<stop stop-color="#FFD15C"/>
<stop offset="1" stop-color="#FFBF1B"/>
</linearGradient>
<linearGradient id="paint1_linear_2044_12784" x1="193.38" y1="218.06" x2="208.783" y2="294.371" gradientUnits="userSpaceOnUse">
<stop stop-color="#6C39FE"/>
<stop offset="1" stop-color="#4100FB"/>
</linearGradient>
<clipPath id="clip0_2044_12784">
<rect width="311.994" height="257" fill="white" transform="translate(112.008 26)"/>
</clipPath>
</defs>
</svg>
