<svg width="536" height="236" viewBox="0 0 536 236" fill="none" xmlns="http://www.w3.org/2000/svg">
<path d="M345 213C372.614 213 395 190.614 395 163C395 135.386 372.614 113 345 113C317.386 113 295 135.386 295 163C295 190.614 317.386 213 345 213Z" fill="#FFD15C"/>
<path d="M174.674 118.703C139.764 128.338 137.168 137.369 162.752 162.701C128.069 152.865 121.566 159.355 131.421 193.97C106.039 168.436 96.9906 171.028 87.3369 205.869C77.6832 171.028 68.6597 168.436 43.2778 193.97C53.1079 159.355 46.6301 152.865 11.9474 162.701C37.5309 137.369 34.9096 128.338 0 118.703C34.9096 109.068 37.5309 100.037 11.9474 74.705C46.6301 84.541 53.1079 78.0759 43.2778 43.436C68.6597 68.9946 77.6832 66.3783 87.3369 31.5371C96.9906 66.3783 106.039 68.9946 131.421 43.436C121.566 78.0759 128.069 84.541 162.752 74.705C137.168 100.037 139.764 108.968 174.674 118.703Z" fill="#FFD15C"/>
<path d="M415.067 219.31C405.688 211.596 397.93 202.09 392.244 191.342C386.557 180.594 383.056 168.818 381.941 156.695C380.826 144.572 382.121 132.344 385.75 120.718C389.379 109.092 395.27 98.2998 403.083 88.9657C410.895 79.6316 420.474 71.9412 431.263 66.3399C442.053 60.7387 453.839 57.3378 465.94 56.3342C478.041 55.3306 490.216 56.7443 501.76 60.4933C513.305 64.2423 523.988 70.2522 533.193 78.1751L415.067 219.31Z" fill="#FF6363"/>
<path d="M107.598 153.162C112.866 147.752 120.467 146.226 127.719 147.201C135.782 148.274 142.88 152.244 149.084 157.442C155.833 163.093 161.66 169.831 167.947 175.933C174.181 181.992 181.239 187.12 188.907 191.162C203.704 198.846 220.919 202.251 237.365 198.903C252.465 195.87 265.958 187.39 275.33 175.044C280.076 168.879 283.257 161.633 284.594 153.939C285.712 146.537 284.692 138.315 279.424 132.623C271.865 124.458 253.742 126.294 253.057 139.417C252.736 145.477 257.417 150.224 262.559 152.526C265.478 153.864 268.648 154.549 271.853 154.534C275.058 154.519 278.222 153.806 281.129 152.442C288.521 148.938 294.18 142.723 300.146 137.256C305.697 131.868 312.487 127.96 319.904 125.884C333.877 122.296 349.848 125.701 360.663 135.547C372.945 146.735 377.137 163.983 378.381 180.03C378.688 184.07 378.828 188.124 378.856 192.179C378.893 192.574 379.075 192.942 379.365 193.209C379.656 193.477 380.035 193.625 380.428 193.625C380.821 193.625 381.2 193.477 381.491 193.209C381.781 192.942 381.963 192.574 382 192.179C381.874 176.527 380.295 160.07 372.736 146.099C369.306 139.684 364.448 134.162 358.546 129.97C352.644 125.778 345.858 123.03 338.726 121.943C331.857 120.86 324.841 121.245 318.129 123.073C311.161 125.142 304.75 128.784 299.378 133.724C293.425 138.979 288.059 145.167 280.989 148.967C278.248 150.488 275.18 151.31 272.053 151.359C268.926 151.408 265.835 150.684 263.048 149.249C258.213 146.749 254.189 141.324 257.235 135.801C259.904 130.97 266.485 130.009 271.334 131.379C278.069 133.272 281.408 140.025 281.841 146.692C282.344 154.476 279.676 162.16 275.749 168.757C268.078 181.655 255.041 190.865 240.817 194.82C224.971 199.228 207.868 196.727 193.127 189.707C185.394 186.007 178.257 181.149 171.958 175.298C165.768 169.563 160.248 163.149 154.002 157.485C148.287 152.3 141.972 147.78 134.566 145.477C127.859 143.387 120.23 142.906 113.606 145.477C110.54 146.665 107.762 148.506 105.46 150.874C105.165 151.171 105 151.575 105 151.997C105 152.418 105.165 152.822 105.46 153.12C105.755 153.418 106.154 153.585 106.571 153.585C106.988 153.585 107.387 153.418 107.682 153.12L107.598 153.162Z" fill="url(#paint0_radial_3_23)"/>
<path d="M288.796 59.9123L296.793 27.0776C296.793 27.0776 397.142 37.3204 395.434 39.3602C393.727 41.4001 384.215 72.6238 384.215 72.6238L288.796 59.9123Z" fill="#4100FB"/>
<path d="M345.508 38.751C331.959 38.0746 320.694 43.1256 320.348 50.0329C320.002 56.9402 330.705 63.088 344.254 63.7644C357.803 64.4408 369.068 59.3897 369.414 52.4824C369.76 45.5752 359.057 39.4274 345.508 38.751Z" fill="#625FFF"/>
<path d="M263.702 42.3052C262.478 43.3361 204.886 56.8298 228.559 124.075L253.73 137.373C253.73 137.373 245.763 111.092 256.279 93.8395C262.38 83.6431 271.272 75.3977 281.908 70.0735L263.702 42.3052Z" fill="#4100FB"/>
<path d="M233.544 102.249C238.489 105.282 247.319 99.9097 253.266 90.2505C259.214 80.5914 260.027 70.3027 255.082 67.2701C250.137 64.2375 241.308 69.6093 235.36 79.2684C229.413 88.9276 228.6 99.2163 233.544 102.249Z" fill="#625FFF"/>
<defs>
<radialGradient id="paint0_radial_3_23" cx="0" cy="0" r="1" gradientUnits="userSpaceOnUse" gradientTransform="translate(382.541 146.373) rotate(170.615) scale(368.378 86.8487)">
<stop stop-color="#FF6363"/>
<stop offset="1" stop-color="#4100FB"/>
</radialGradient>
</defs>
</svg>
