<svg width="317" height="315" viewBox="0 0 317 315" fill="none" xmlns="http://www.w3.org/2000/svg">
<path d="M172.638 294.152C244.235 294.152 302.276 236.096 302.276 164.48C302.276 92.864 244.235 34.8079 172.638 34.8079C101.041 34.8079 43 92.864 43 164.48C43 236.096 101.041 294.152 172.638 294.152Z" fill="#FF6363"/>
<path d="M185.255 271.396L207.031 233.669L78.092 159.206L56.3157 196.934L185.255 271.396Z" fill="#FF6363"/>
<path d="M316.002 170.821L295.168 132.565L164.421 203.804L185.254 242.06L316.002 170.821Z" fill="#070717"/>
<path d="M214.512 169.212C193.911 161.832 189.48 165.399 193.285 186.843C179.584 169.903 174.109 170.853 166.91 191.418C163.275 169.945 157.902 168.078 140.988 181.965C148.366 161.359 144.812 156.936 123.374 160.742C140.297 147.028 139.36 141.561 118.8 134.359C140.268 130.723 142.121 125.34 128.238 108.421C148.839 115.801 153.282 112.243 149.477 90.7994C163.179 107.739 168.632 106.793 175.853 86.2244C179.479 107.71 184.848 109.555 201.762 95.6678C194.384 116.275 197.942 120.719 219.388 116.9C202.445 130.618 203.403 136.082 223.962 143.283C202.495 146.919 200.664 152.243 214.512 169.212Z" fill="#FFD15C"/>
<path d="M55.844 183.923C66.8623 190.898 78.585 196.691 90.8177 201.206C96.9726 203.479 103.247 205.412 109.614 206.997C115.428 208.449 121.66 210.232 127.7 210.146C132.94 210.112 138.59 207.907 141.009 202.885C141.983 200.814 142.406 198.019 140.802 196.144C139.198 194.268 136.445 194.396 134.361 195.239C125.265 198.872 123.289 211.305 127.088 219.347C132.152 230.089 144.566 234.812 155.509 236.783C166.451 238.755 178.003 238.063 189.109 236.498C200.566 234.882 211.849 232.138 223.296 230.775C234.742 229.413 248.772 229.647 255.815 240.143C262.153 249.659 260.062 262.997 256.086 273.033C251.64 284.266 244.01 293.963 236.168 303.008C234.165 305.323 232.178 307.537 230.16 309.768C228.694 311.399 231.504 313.361 232.961 311.741C247.204 295.934 263.661 277.141 263.183 254.465C262.957 244.206 258.617 234.684 249.082 230.052C239.08 225.184 227.046 226.561 216.463 228.364C195.623 231.902 173.777 237.769 152.662 232.784C142.625 230.426 130.401 224.719 128.787 213.204C128.425 210.984 128.562 208.712 129.187 206.552C129.813 204.392 130.912 202.398 132.404 200.716C133.38 199.727 137.595 196.492 138.415 198.952C139.235 201.411 135.984 204.282 134.154 205.266C129.106 208.044 122.834 206.475 117.53 205.384C111.486 204.115 105.51 202.535 99.6283 200.651C87.8335 196.884 76.4533 191.925 65.664 185.849C63.0075 184.331 60.3861 182.764 57.8085 181.134C55.9544 179.958 53.9687 182.751 55.8353 183.936L55.844 183.923Z" fill="url(#paint0_radial_8_47)"/>
<path d="M56.9468 20.524C64.4058 10.3542 79.5942 10.3542 87.0532 20.524C90.7274 25.5334 96.6527 28.3869 102.86 28.1361C115.462 27.627 124.932 39.5019 121.631 51.6743C120.005 57.6702 121.469 64.082 125.535 68.7787C133.79 78.3137 130.41 93.1213 118.836 98.1303C113.134 100.598 109.034 105.739 107.897 111.847C105.589 124.246 91.905 130.836 80.7721 124.91C75.2883 121.99 68.7117 121.99 63.2279 124.91C52.095 130.836 38.4107 124.246 36.1029 111.847C34.9661 105.739 30.8656 100.598 25.1643 98.1303C13.5896 93.1213 10.2099 78.3137 18.4649 68.7787C22.5312 64.082 23.9946 57.6702 22.3689 51.6743C19.0684 39.5019 28.5383 27.627 41.14 28.1361C47.3473 28.3869 53.2726 25.5334 56.9468 20.524Z" fill="url(#paint1_radial_8_47)"/>
<path d="M58.9427 25.0979C65.413 16.2761 78.5882 16.2761 85.0585 25.0979C88.6544 30.0006 94.4536 32.7933 100.529 32.5479C111.46 32.1063 119.675 42.4071 116.812 52.9661C115.221 58.8343 116.653 65.1095 120.632 69.7062C127.793 77.9773 124.862 90.8222 114.821 95.1673C109.241 97.582 105.228 102.614 104.115 108.592C102.114 119.347 90.2431 125.064 80.5859 119.923C75.2189 117.066 68.7823 117.066 63.4153 119.923C53.7581 125.064 41.8877 119.347 39.8857 108.592C38.7732 102.614 34.76 97.582 29.18 95.1673C19.1396 90.8222 16.2079 77.9773 23.3687 69.7062C27.3484 65.1095 28.7807 58.8343 27.1895 52.9661C24.3266 42.4071 32.5412 32.1063 43.4725 32.5479C49.5476 32.7933 55.3468 30.0006 58.9427 25.0979Z" stroke="white" stroke-width="2.07692"/>
<path d="M51.2992 61.3259C50.8965 58.4175 48.6593 56.73 45.7573 56.73C42.3375 56.73 39.7615 59.2229 39.7615 63.4544C39.7615 67.6796 42.3056 70.1789 45.7573 70.1789C48.8702 70.1789 50.9348 68.1654 51.2992 65.6661L48.9086 65.6533C48.6081 67.1874 47.3553 68.0503 45.7892 68.0503C43.6671 68.0503 42.1458 66.4587 42.1458 63.4544C42.1458 60.5013 43.6543 58.8586 45.7956 58.8586C47.3873 58.8586 48.6337 59.7598 48.9086 61.3259H51.2992ZM57.6513 70.1917C60.5277 70.1917 62.3558 68.1654 62.3558 65.1292C62.3558 62.0865 60.5277 60.0539 57.6513 60.0539C54.7749 60.0539 52.9467 62.0865 52.9467 65.1292C52.9467 68.1654 54.7749 70.1917 57.6513 70.1917ZM57.6641 68.338C56.0724 68.338 55.2926 66.9189 55.2926 65.1228C55.2926 63.3266 56.0724 61.8884 57.6641 61.8884C59.2301 61.8884 60.0099 63.3266 60.0099 65.1228C60.0099 66.9189 59.2301 68.338 57.6641 68.338ZM64.3198 69.9999H66.6337V64.0297C66.6337 62.8216 67.4391 62.0035 68.4363 62.0035C69.4142 62.0035 70.0854 62.6618 70.0854 63.6718V69.9999H72.3546V63.8763C72.3546 62.7705 73.013 62.0035 74.1316 62.0035C75.0648 62.0035 75.8063 62.5532 75.8063 63.7677V69.9999H78.1266V63.4097C78.1266 61.2172 76.861 60.0539 75.0584 60.0539C73.633 60.0539 72.5463 60.757 72.1117 61.85H72.0094C71.6323 60.7378 70.6799 60.0539 69.3567 60.0539C68.04 60.0539 67.0556 60.7314 66.6465 61.85H66.5314V60.1817H64.3198V69.9999ZM80.4741 69.9999H82.788V60.1817H80.4741V69.9999ZM81.6374 58.7883C82.3725 58.7883 82.9734 58.2258 82.9734 57.5354C82.9734 56.8387 82.3725 56.2762 81.6374 56.2762C80.896 56.2762 80.2951 56.8387 80.2951 57.5354C80.2951 58.2258 80.896 58.7883 81.6374 58.7883ZM87.4814 64.2471C87.4814 62.828 88.3379 62.0098 89.5588 62.0098C90.7541 62.0098 91.47 62.7961 91.47 64.1064V69.9999H93.7839V63.7485C93.7903 61.3962 92.448 60.0539 90.4217 60.0539C88.9515 60.0539 87.9416 60.757 87.4941 61.85H87.3791V60.1817H85.1674V69.9999H87.4814V64.2471ZM100.406 73.8863C103.059 73.8863 105.015 72.6718 105.015 70.1597V60.1817H102.733V61.8053H102.605C102.253 61.0958 101.518 60.0539 99.786 60.0539C97.5169 60.0539 95.7335 61.8309 95.7335 65.0588C95.7335 68.2613 97.5169 69.8593 99.7797 69.8593C101.461 69.8593 102.247 68.958 102.605 68.2357H102.72V70.0958C102.72 71.5404 101.761 72.1348 100.444 72.1348C99.051 72.1348 98.4373 71.4765 98.1561 70.9012L96.0723 71.4061C96.4941 72.7804 97.9068 73.8863 100.406 73.8863ZM100.425 68.0439C98.8975 68.0439 98.0922 66.8551 98.0922 65.0462C98.0922 63.2628 98.8848 61.9523 100.425 61.9523C101.915 61.9523 102.733 63.1861 102.733 65.0462C102.733 66.919 101.902 68.0439 100.425 68.0439ZM60.0739 80.7769C59.7543 79.115 58.4247 78.0539 56.1236 78.0539C53.7585 78.0539 52.1477 79.2172 52.1541 81.0326C52.1477 82.4644 53.0298 83.4104 54.9155 83.8003L56.5902 84.1519C57.4915 84.35 57.9134 84.7144 57.9134 85.2705C57.9134 85.9417 57.1847 86.4466 56.0852 86.4466C55.0241 86.4466 54.3338 85.9864 54.1357 85.1043L51.8793 85.3216C52.1669 87.1242 53.6818 88.1917 56.0916 88.1917C58.5462 88.1917 60.2784 86.9196 60.2848 85.0596C60.2784 83.6597 59.3771 82.8032 57.5234 82.4005L55.8487 82.0425C54.8516 81.8188 54.4553 81.4736 54.4616 80.9047C54.4553 80.24 55.1903 79.7797 56.1555 79.7797C57.223 79.7797 57.7855 80.3614 57.9645 81.007L60.0739 80.7769ZM66.4755 88.1917C69.3519 88.1917 71.18 86.1654 71.18 83.1292C71.18 80.0865 69.3519 78.0539 66.4755 78.0539C63.5991 78.0539 61.771 80.0865 61.771 83.1292C61.771 86.1654 63.5991 88.1917 66.4755 88.1917ZM66.4883 86.338C64.8967 86.338 64.1168 84.9189 64.1168 83.1228C64.1168 81.3266 64.8967 79.8884 66.4883 79.8884C68.0543 79.8884 68.8342 81.3266 68.8342 83.1228C68.8342 84.9189 68.0543 86.338 66.4883 86.338ZM77.4267 88.1917C80.3031 88.1917 82.1312 86.1654 82.1312 83.1292C82.1312 80.0865 80.3031 78.0539 77.4267 78.0539C74.5502 78.0539 72.7221 80.0865 72.7221 83.1292C72.7221 86.1654 74.5502 88.1917 77.4267 88.1917ZM77.4395 86.338C75.8478 86.338 75.068 84.9189 75.068 83.1228C75.068 81.3266 75.8478 79.8884 77.4395 79.8884C79.0055 79.8884 79.7853 81.3266 79.7853 83.1228C79.7853 84.9189 79.0055 86.338 77.4395 86.338ZM86.4091 82.2471C86.4091 80.828 87.2656 80.0098 88.4865 80.0098C89.6818 80.0098 90.3977 80.7961 90.3977 82.1064V87.9999H92.7116V81.7485C92.718 79.3962 91.3757 78.0539 89.3494 78.0539C87.8793 78.0539 86.8693 78.757 86.4219 79.85H86.3068V78.1817H84.0952V87.9999H86.4091V82.2471Z" fill="white"/>
<defs>
<radialGradient id="paint0_radial_8_47" cx="0" cy="0" r="1" gradientUnits="userSpaceOnUse" gradientTransform="translate(264.721 270.976) rotate(-156.358) scale(297.422 85.343)">
<stop stop-color="#FF6363"/>
<stop offset="1" stop-color="#4100FB"/>
</radialGradient>
<radialGradient id="paint1_radial_8_47" cx="0" cy="0" r="1" gradientUnits="userSpaceOnUse" gradientTransform="translate(144.281 45.7143) rotate(149.857) scale(218.484 139.029)">
<stop stop-color="#FF6363"/>
<stop offset="1" stop-color="#4100FB"/>
</radialGradient>
</defs>
</svg>
