<svg width="582" height="564" viewBox="0 0 582 564" fill="none" xmlns="http://www.w3.org/2000/svg">
<path d="M95.3459 477.726L74.5781 455.385L-0.00138502 524.713L20.7664 547.054L95.3459 477.726Z" fill="#FF6363"/>
<path d="M180.543 413.548L220.645 369.138L217.584 428.896L277.352 425.845L232.931 465.947L277.352 506.038L217.584 502.987L220.645 562.745L180.543 518.335L140.442 562.745L143.492 502.987L83.7344 506.038L128.155 465.947L83.7344 425.845L143.492 428.896L140.442 369.138L180.543 413.548Z" fill="#FFD15C"/>
<path d="M446.886 325.452L408.562 339.926L425.399 384.505L463.722 370.031L446.886 325.452Z" fill="#F3B462"/>
<path d="M416.043 364.402C452.869 364.402 482.722 334.549 482.722 297.723C482.722 260.897 452.869 231.043 416.043 231.043C379.217 231.043 349.363 260.897 349.363 297.723C349.363 334.549 379.217 364.402 416.043 364.402Z" fill="#FFD15C"/>
<path d="M363.315 287.58L386.48 340.075L306.298 354.772C304.565 355.09 302.779 354.953 301.115 354.375C299.45 353.798 297.963 352.798 296.8 351.475C295.636 350.151 294.836 348.549 294.476 346.824C294.117 345.099 294.21 343.31 294.748 341.632C295.191 340.242 295.928 338.963 296.909 337.883C297.89 336.803 299.092 335.946 300.433 335.371L322.179 326.018C333.953 320.955 344.202 312.908 351.914 302.672L363.315 287.58Z" fill="#FF6363"/>
<path d="M412.961 322.147C425.76 322.147 436.137 311.77 436.137 298.971C436.137 286.171 425.76 275.795 412.961 275.795C400.161 275.795 389.785 286.171 389.785 298.971C389.785 311.77 400.161 322.147 412.961 322.147Z" fill="white"/>
<path d="M412.968 302.81C415.089 302.81 416.808 301.091 416.808 298.971C416.808 296.85 415.089 295.131 412.968 295.131C410.848 295.131 409.129 296.85 409.129 298.971C409.129 301.091 410.848 302.81 412.968 302.81Z" fill="#070717"/>
<path d="M565.965 443.531V422.914V309.605C554.42 299.8 538.417 299.425 527.244 300.972C518.292 302.251 509.931 306.286 503.271 312.542L439.002 372.309L348.887 375.283C347.5 375.324 346.122 375.525 344.78 375.882C329.368 380.098 315.641 389.168 305.54 401.81C295.438 414.451 289.474 430.024 288.491 446.326L286.022 487.289C285.797 491.802 283.974 496.077 280.893 499.313C277.812 502.55 273.686 504.526 269.285 504.873C264.59 505.156 259.976 503.527 256.45 500.341C252.923 497.156 250.771 492.671 250.461 487.866C248.333 453.712 243.63 380.218 242.545 379.848C241.13 379.358 163.805 374.215 163.805 374.215V563.888H411.096H413.043C456.531 563.748 486.106 563.654 522.032 563.538C529.993 563.561 538.262 563.536 547.062 563.495C557.518 563.446 565.965 554.95 565.965 544.494V443.531Z" fill="#4100FB"/>
<path d="M163.285 372.22V330.86H232.791V353.257L244.214 366.28L244.182 395.353H163.285V372.22Z" fill="#F3B462"/>
<path d="M248.838 276.697L248.828 276.694C243.547 274.79 237.723 277.528 235.819 282.809L213.908 343.602C212.005 348.883 214.743 354.707 220.024 356.611L220.034 356.614C225.315 358.518 231.139 355.78 233.042 350.499L254.953 289.706C256.857 284.425 254.119 278.601 248.838 276.697Z" fill="#F3B462"/>
<path d="M170.378 309.807H170.367C164.754 309.807 160.203 314.357 160.203 319.971V341.728C160.203 347.341 164.754 351.892 170.367 351.892H170.378C175.991 351.892 180.542 347.341 180.542 341.728V319.971C180.542 314.357 175.991 309.807 170.378 309.807Z" fill="#FFD15C"/>
<path d="M187.882 309.807H187.871C182.258 309.807 177.707 314.357 177.707 319.971V341.728C177.707 347.341 182.258 351.892 187.871 351.892H187.882C193.495 351.892 198.046 347.341 198.046 341.728V319.971C198.046 314.357 193.495 309.807 187.882 309.807Z" fill="#FFD15C"/>
<path d="M208.214 309.807H208.203C202.59 309.807 198.039 314.357 198.039 319.971V341.728C198.039 347.341 202.59 351.892 208.203 351.892H208.214C213.827 351.892 218.378 347.341 218.378 341.728V319.971C218.378 314.357 213.827 309.807 208.214 309.807Z" fill="#FFD15C"/>
<path d="M244.773 362.046V362.035C244.773 356.421 240.223 351.871 234.609 351.871H210.655C205.042 351.871 200.491 356.421 200.491 362.035V362.046C200.491 367.659 205.042 372.21 210.655 372.21H234.609C240.223 372.21 244.773 367.659 244.773 362.046Z" fill="#FFD15C"/>
<path d="M267.319 265.752C268.185 269.902 268.224 274.182 267.437 278.348C267.36 278.656 267.405 278.981 267.562 279.257C267.719 279.533 267.975 279.738 268.279 279.83C268.586 279.912 268.913 279.869 269.189 279.711C269.464 279.554 269.666 279.293 269.751 278.987C270.628 274.403 270.588 269.691 269.634 265.122C269.314 263.608 266.999 264.248 267.319 265.762V265.752Z" fill="#070717"/>
<path d="M274.813 262.467C276.094 266.699 275.772 271.256 273.906 275.265C273.752 275.541 273.71 275.866 273.789 276.172C273.869 276.478 274.064 276.742 274.333 276.908C274.607 277.067 274.934 277.112 275.242 277.032C275.549 276.953 275.813 276.754 275.975 276.481C278.138 271.917 278.548 266.717 277.127 261.87C277.022 261.587 276.814 261.354 276.546 261.217C276.277 261.08 275.967 261.049 275.677 261.129C275.386 261.209 275.136 261.396 274.976 261.651C274.816 261.907 274.758 262.213 274.813 262.509V262.467Z" fill="#070717"/>
<path d="M221.598 278.644C221.918 273.904 224.04 269.466 227.528 266.241C228.658 265.174 226.963 263.489 225.832 264.545C221.903 268.227 219.53 273.271 219.198 278.644C219.102 280.191 221.502 280.18 221.598 278.644Z" fill="#070717"/>
<path d="M215.079 269.153C215.82 267.574 216.694 266.061 217.692 264.63L217.873 264.396C217.745 264.556 217.969 264.268 217.969 264.268L218.353 263.82C218.639 263.505 218.942 263.206 219.26 262.924L219.484 262.732C219.484 262.732 219.687 262.572 219.559 262.668C219.74 262.529 219.932 262.401 220.124 262.273C220.316 262.145 220.454 262.071 220.614 261.986L220.934 261.825C220.934 261.825 221.276 261.666 221.073 261.751C221.373 261.657 221.627 261.453 221.783 261.18C221.939 260.907 221.986 260.585 221.916 260.279C221.828 259.972 221.624 259.712 221.347 259.554C221.069 259.397 220.741 259.354 220.433 259.436C216.732 260.994 214.727 264.503 212.967 267.969C212.808 268.243 212.763 268.57 212.844 268.877C212.925 269.184 213.125 269.446 213.399 269.606C213.674 269.766 214 269.81 214.307 269.729C214.614 269.648 214.877 269.448 215.036 269.174L215.079 269.153Z" fill="#070717"/>
<path d="M561.702 265.524C556.305 260.33 548.114 260.789 541.8 263.924C538.16 265.883 534.802 268.327 531.818 271.188C528.842 273.854 525.984 276.67 523.285 279.613C512.343 291.526 503.64 305.924 500.43 321.912C498.757 330.035 498.583 338.395 499.918 346.581C500.607 350.727 501.755 354.783 503.341 358.675C504.661 362.196 506.569 365.467 508.983 368.349C511.207 370.987 514.346 372.686 517.771 373.105C519.276 373.273 520.799 373.112 522.236 372.633C523.672 372.155 524.987 371.369 526.09 370.332C531.231 365.128 526.656 357.609 520.875 355.465C513.655 352.788 506.488 358.408 502.189 363.677C494.501 373.265 489.934 384.979 489.103 397.241C488.868 400.664 488.655 404.451 490.042 407.693C491.204 410.402 493.934 412.46 496.974 411.5C498.45 410.973 499.704 409.959 500.529 408.626C501.355 407.293 501.703 405.72 501.518 404.163C501.048 400.963 498.318 398.595 495.321 397.625C491.588 396.42 487.642 397.55 484.24 399.203C477.516 402.691 471.455 407.329 466.333 412.908C455.827 423.968 448.575 437.694 442.869 451.73C439.776 459.409 437.28 467.344 433.622 474.788C429.933 482.338 424.662 489.005 418.168 494.338C405.007 505.195 389.19 513.312 373.054 518.687C369.115 519.988 365.137 521.129 361.119 522.11C359.615 522.473 360.255 524.787 361.759 524.425C376.912 520.724 391.408 514.721 404.74 506.624C411.248 502.798 417.361 498.336 422.989 493.303C428.549 488.104 433.051 481.879 436.246 474.97C439.445 468.261 441.76 461.212 444.469 454.322C447.009 447.736 449.976 441.323 453.353 435.124C459.976 423.126 468.647 411.927 480.208 404.333C483.173 402.392 486.383 400.387 489.914 399.715C493.049 399.107 496.91 399.939 498.595 402.915C499.982 405.357 498.339 409.815 495.022 409.314C492.047 408.845 491.481 404.707 491.396 402.318C491.219 394.902 492.513 387.526 495.204 380.614C497.806 373.756 501.773 366.813 507.223 361.821C509.643 359.398 512.768 357.804 516.15 357.267C517.732 357.118 519.326 357.376 520.78 358.017C522.234 358.657 523.5 359.658 524.458 360.925C526.272 363.304 526.592 366.557 524.299 368.754C523.229 369.664 521.95 370.297 520.577 370.594C519.204 370.892 517.779 370.846 516.427 370.46C509.655 368.679 506.285 360.339 504.322 354.377C501.965 347.035 501.027 339.31 501.56 331.617C502.509 316.547 508.685 302.394 517.558 290.321C521.92 284.451 526.835 279.012 532.234 274.078C537.566 269.182 543.784 263.86 551.431 263.946C554.62 263.891 557.709 265.063 560.059 267.22C561.179 268.287 562.875 266.601 561.755 265.524H561.702Z" fill="url(#paint0_radial_1705_23867)"/>
<path d="M129.065 314.292L144.316 287.876L54.0118 235.739L38.7604 262.155L129.065 314.292Z" fill="#4100FB"/>
<path d="M564.999 38L564.999 1.50003L490.063 48.8704L506.641 74.4755L564.999 38Z" fill="#070717"/>
<path d="M504.889 413.161C514.474 416.517 523.3 421.738 530.856 428.523C538.412 435.309 544.549 443.524 548.911 452.695C553.274 461.866 555.777 471.811 556.274 481.954C556.772 492.098 555.254 502.239 551.81 511.793C548.366 521.347 543.063 530.123 536.207 537.616C529.351 545.108 521.079 551.168 511.868 555.445C502.657 559.723 492.69 562.132 482.542 562.535C472.394 562.938 462.267 561.327 452.746 557.794L468.04 515.388C471.968 516.804 476.136 517.433 480.307 517.238C484.478 517.043 488.57 516.028 492.348 514.252C496.127 512.476 499.519 509.973 502.33 506.886C505.142 503.799 507.318 500.188 508.734 496.26C510.15 492.332 510.778 488.164 510.583 483.993C510.388 479.822 509.374 475.731 507.597 471.952C505.821 468.173 503.318 464.781 500.231 461.97C497.144 459.158 493.533 456.983 489.605 455.567L504.889 413.161Z" fill="#FF6363"/>
<defs>
<radialGradient id="paint0_radial_1705_23867" cx="0" cy="0" r="1" gradientUnits="userSpaceOnUse" gradientTransform="translate(562.517 345.039) rotate(142.903) scale(332.061 234.093)">
<stop stop-color="#FF6363"/>
<stop offset="1" stop-color="#4100FB"/>
</radialGradient>
</defs>
</svg>
