<svg width="264" height="270" viewBox="0 0 264 270" fill="none" xmlns="http://www.w3.org/2000/svg">
<path d="M130 260C201.797 260 260 201.797 260 130C260 58.203 201.797 0 130 0C58.203 0 0 58.203 0 130C0 201.797 58.203 260 130 260Z" fill="url(#paint0_linear_1711_12794)"/>
<path d="M92.0478 213.362C118.558 213.362 140.048 191.872 140.048 165.362C140.048 138.852 118.558 117.362 92.0478 117.362C65.5382 117.362 44.0479 138.852 44.0479 165.362C44.0479 191.872 65.5382 213.362 92.0478 213.362Z" fill="white"/>
<path d="M89.6634 129.136C77.9606 122.322 68.0772 111.521 65.7497 98.4176C63.5206 85.8861 69.0278 72.1494 81.0748 65.9687C88.6963 61.9975 97.6127 60.9623 106.119 59.9888C108.447 59.7261 108.463 56.2495 106.119 56.5121C97.9241 57.4547 89.5486 58.459 81.9271 61.6885C75.0428 64.5641 69.4053 69.5681 65.9464 75.8734C58.9805 88.5439 60.8817 103.687 69.0606 115.399C73.9357 122.224 80.3286 127.966 87.7949 132.226C89.8273 133.401 91.6794 130.388 89.6634 129.136Z" fill="#070717"/>
<path d="M216.855 223.36L240.293 185.088L101.513 109.552L78.0748 147.823L216.855 223.36Z" fill="#FF6363"/>
<path d="M179.855 50.3654C161.681 55.129 160.329 59.5941 173.648 72.1187C155.592 67.2556 152.206 70.4645 157.337 87.5786C144.123 74.9544 139.412 76.2355 134.386 93.4615C129.36 76.2355 124.649 74.9544 111.435 87.5786C116.566 70.4645 113.18 67.2556 95.1239 72.1187C108.443 59.5941 107.092 55.129 88.917 50.3654C107.092 45.6018 108.443 41.1491 95.1239 28.6245C113.18 33.4751 116.566 30.2787 111.435 13.1646C124.649 25.7887 129.36 24.4952 134.386 7.26923C139.412 24.4952 144.123 25.7887 157.337 13.1646C152.206 30.2787 155.592 33.4751 173.648 28.6245C160.329 41.1491 161.681 45.6018 179.855 50.3654Z" fill="#FFD15C"/>
<path d="M26.7197 235.259C40.736 234.597 54.6401 232.551 68.2039 229.156C75.0255 227.436 81.7443 225.373 88.3313 222.975C94.3466 220.796 100.936 218.633 106.197 215.033C110.786 211.942 114.392 206.812 113.409 201.219C112.983 198.947 111.639 196.382 109.049 195.764C106.459 195.146 104.132 196.846 102.82 198.855C97.0675 207.168 103.034 218.648 111.36 223.099C122.473 229.032 136.323 225.71 147.173 220.951C158.023 216.192 167.759 208.852 176.561 201.08C185.641 193.045 193.869 184.175 203.097 176.357C212.325 168.538 224.815 160.518 237.517 165.123C248.99 169.31 255.415 181.595 258.136 192.226C261.185 204.155 260.48 216.64 259.185 228.738C258.857 231.829 258.48 234.811 258.087 237.855C257.808 240.065 261.496 240.049 261.775 237.855C264.529 216.423 267.348 191.221 252.875 172.679C246.319 164.304 236.599 158.958 225.339 160.673C213.522 162.481 203.786 170.67 195.59 178.334C179.446 193.462 163.858 211.092 142.19 219.297C131.897 223.207 117.605 225.602 109.049 217.01C107.358 215.376 106.073 213.409 105.285 211.25C104.497 209.091 104.226 206.794 104.492 204.525C104.738 203.135 106.443 198.005 108.688 199.565C110.934 201.126 109.852 205.406 108.852 207.291C106.131 212.545 99.6407 214.909 94.2975 217.088C88.198 219.581 81.9606 221.763 75.6124 223.624C62.9036 227.407 49.8149 229.944 36.5539 231.195C33.2759 231.504 29.9978 231.736 26.7197 231.891C24.3595 231.999 24.3431 235.475 26.7197 235.367V235.259Z" fill="url(#paint1_radial_1711_12794)"/>
<defs>
<linearGradient id="paint0_linear_1711_12794" x1="2.46838" y1="18.7932" x2="142.398" y2="212.916" gradientUnits="userSpaceOnUse">
<stop stop-color="#6C39FE"/>
<stop offset="1" stop-color="#4100FB"/>
</linearGradient>
<radialGradient id="paint1_radial_1711_12794" cx="0" cy="0" r="1" gradientUnits="userSpaceOnUse" gradientTransform="translate(264.467 185.481) rotate(169.117) scale(319.407 86.7818)">
<stop stop-color="#4100FB"/>
<stop offset="0.682292" stop-color="#FF6363"/>
</radialGradient>
</defs>
</svg>
