<svg width="531" height="262" viewBox="0 0 531 262" fill="none" xmlns="http://www.w3.org/2000/svg">
<path d="M373.833 111.546C360.272 135.026 337.939 152.157 311.748 159.171C285.556 166.184 257.65 162.506 234.171 148.945C210.691 135.384 193.56 113.051 186.546 86.8589C179.532 60.6671 183.211 32.7618 196.772 9.28198L248.682 39.257C245.906 44.066 244.104 49.3748 243.38 54.8802C242.655 60.3856 243.022 65.9798 244.46 71.3434C247.363 82.1757 254.45 91.411 264.162 97.0177C273.875 102.625 285.417 104.143 296.249 101.24C307.081 98.3372 316.316 91.25 321.923 81.5376L373.833 111.546Z" fill="#070717"/>
<path d="M357.393 52.0773L397.345 7.8147L394.31 67.3727L453.857 64.327L409.595 104.29L453.857 144.242L394.31 141.196L397.345 200.754L357.393 156.491L317.43 200.754L320.476 141.196L260.918 144.242L305.181 104.29L260.918 64.327L320.476 67.3727L317.43 7.8147L357.393 52.0773Z" fill="url(#paint0_linear_1705_23797)"/>
<path d="M308.746 31.2619C321.824 24.8235 337.858 32.4935 345.697 43.5788C350.5 50.2971 353.176 58.3031 354.71 66.3875C355.485 70.6163 356.019 74.8855 356.311 79.1747C356.703 82.841 356.815 86.5319 356.647 90.2152C356.222 95.713 353.994 104.895 346.816 104.178L348.082 105.443C346.962 92.7234 353.434 79.9137 363.97 72.7923C370.118 68.6381 377.172 67.0929 384.495 66.6674C392.232 66.2084 399.958 66.3987 407.673 65.5477C436.282 62.1885 463.01 49.8716 486.446 33.5013C499.767 24.116 512.278 13.6284 523.844 2.14909C524.08 1.913 524.213 1.59282 524.213 1.25893C524.213 0.925053 524.08 0.604797 523.844 0.368707C523.608 0.132617 523.288 0 522.954 0C522.62 0 522.3 0.132617 522.064 0.368707C501.125 20.9716 477.275 39.3014 450.301 51.1705C437.025 57.0813 422.96 61.0268 408.546 62.8828C400.708 63.8457 392.87 63.7002 385.032 64.1256C377.743 64.5175 370.543 65.8388 364.217 69.6683C352.113 76.9913 344.353 91.2565 345.585 105.499C345.596 105.828 345.731 106.141 345.964 106.374C346.197 106.607 346.51 106.742 346.839 106.753C353.747 107.448 357.308 100.584 358.54 94.8172C359.214 91.318 359.421 87.7448 359.156 84.1911C358.932 79.5779 358.562 74.9869 357.924 70.4185C356.67 61.4607 354.251 52.5589 349.504 44.8105C345.362 37.9903 339.242 32.5928 331.958 29.3359C324.119 25.9095 315.274 25.3049 307.503 29.1344C306.047 29.851 307.324 32.0232 308.768 31.3066L308.746 31.2619Z" fill="url(#paint1_radial_1705_23797)"/>
<path d="M249.302 252.601L305.16 184.865L125.931 37.0668L70.0731 104.804L249.302 252.601Z" fill="#4100FB"/>
<path d="M299.238 157.253L395.109 105.846C397.739 104.438 400.753 103.912 403.705 104.348C406.657 104.783 409.39 106.157 411.502 108.265C412.825 109.591 413.867 111.171 414.565 112.91C415.262 114.65 415.601 116.512 415.56 118.385C415.519 120.259 415.1 122.104 414.328 123.812C413.555 125.519 412.445 127.052 411.065 128.319L386.655 150.714L299.238 157.253Z" fill="#FF6363"/>
<path d="M412.812 138.173L425.958 125.733C431.166 119.981 435.508 113.5 438.846 106.496L452.652 77.4614C453.314 76.0643 454.244 74.8111 455.39 73.7736C456.536 72.7361 457.875 71.9345 459.33 71.4146C460.786 70.8947 462.33 70.6667 463.874 70.7436C465.418 70.8205 466.931 71.2008 468.328 71.8628C470.82 73.0534 472.813 75.0815 473.962 77.5926C475.11 80.1038 475.339 82.9385 474.61 85.6017L469.336 104.939C464.7 121.978 456.906 137.995 446.359 152.158L412.812 138.173Z" fill="#FF6363"/>
<path d="M441.856 152.471L452.281 140.972C457.49 135.216 461.831 128.732 465.169 121.724L478.975 92.6895C479.636 91.2914 480.565 90.0373 481.711 88.999C482.857 87.9606 484.196 87.1585 485.652 86.6384C487.108 86.1184 488.652 85.8906 490.197 85.9683C491.741 86.0459 493.255 86.4274 494.651 87.0909C497.141 88.2751 499.136 90.2959 500.288 92.8007C501.44 95.3054 501.676 98.1352 500.955 100.796L495.681 120.134C491.038 137.169 483.24 153.181 472.694 167.341L441.856 152.471Z" fill="#FF6363"/>
<path d="M520.453 102.219C519.056 101.557 517.542 101.177 515.999 101.1C514.455 101.023 512.911 101.251 511.455 101.771C509.999 102.291 508.66 103.093 507.514 104.13C506.369 105.168 505.438 106.421 504.777 107.818L490.971 136.852C487.633 143.857 483.291 150.337 478.083 156.089L469.304 165.775L419.521 137.244L318.332 151.33C303.559 153.385 290.027 160.714 280.235 171.965C270.443 183.216 265.051 197.63 265.056 212.545V261.813H397.586C402.994 242.072 414.203 230.662 430.058 219.499C434 216.75 438.114 214.255 442.375 212.03L479.729 192.357C494.618 184.616 506.534 172.173 513.623 156.962C516.819 149.949 519.44 142.688 521.461 135.251L526.723 115.913C527.442 113.258 527.208 110.434 526.063 107.933C524.917 105.432 522.933 103.41 520.453 102.219Z" fill="#FF6363"/>
<path d="M417.229 107.82L417.222 107.811C413.717 103.56 407.429 102.956 403.178 106.461L396.241 112.182C391.99 115.687 391.385 121.975 394.891 126.226L394.898 126.235C398.404 130.486 404.692 131.09 408.943 127.585L415.88 121.864C420.131 118.359 420.735 112.071 417.229 107.82Z" fill="#070717"/>
<path d="M468.79 67.4018L468.779 67.3993C464.699 66.4632 460.632 69.0124 459.696 73.093L457.21 83.9303C456.274 88.0109 458.823 92.0777 462.903 93.0138L462.914 93.0163C466.995 93.9524 471.062 91.4033 471.998 87.3227L474.484 76.4853C475.42 72.4047 472.871 68.3379 468.79 67.4018Z" fill="#070717"/>
<path d="M496.067 73.6669L496.057 73.6644C491.976 72.7283 487.909 75.2775 486.973 79.3581L484.487 90.1954C483.551 94.2761 486.1 98.3429 490.181 99.279L490.192 99.2815C494.272 100.218 498.339 97.6684 499.275 93.5878L501.761 82.7505C502.697 78.6699 500.148 74.603 496.067 73.6669Z" fill="#070717"/>
<path d="M522.907 88.2677L522.896 88.2652C518.816 87.3291 514.749 89.8783 513.813 93.9589L511.327 104.796C510.391 108.877 512.94 112.944 517.02 113.88L517.031 113.882C521.112 114.818 525.179 112.269 526.115 108.189L528.601 97.3512C529.537 93.2706 526.988 89.2038 522.907 88.2677Z" fill="#070717"/>
<path d="M230.888 157.253L135.039 105.847C132.411 104.437 129.399 103.911 126.449 104.347C123.498 104.782 120.767 106.156 118.658 108.265C117.331 109.59 116.286 111.17 115.587 112.909C114.888 114.649 114.548 116.512 114.589 118.386C114.63 120.26 115.05 122.107 115.825 123.814C116.599 125.521 117.711 127.054 119.095 128.32L143.504 150.714L230.888 157.253Z" fill="#FF6363"/>
<path d="M117.309 138.173L104.175 125.733C98.9632 119.984 94.6211 113.503 91.287 106.496L77.4696 77.4614C76.8081 76.0643 75.8779 74.8111 74.732 73.7736C73.5861 72.7361 72.2471 71.9345 70.7913 71.4146C69.3356 70.8947 67.7917 70.6667 66.2478 70.7436C64.704 70.8205 63.1904 71.2008 61.7935 71.8628C59.3019 73.0474 57.3063 75.0706 56.1559 77.5782C55.0055 80.0857 54.7735 82.918 55.5006 85.5793L60.7633 104.917C65.3977 121.959 73.1959 137.977 83.7512 152.136L117.309 138.173Z" fill="#FF6363"/>
<path d="M88.3035 152.471L77.8789 140.972C72.6702 135.219 68.3319 128.734 65.0021 121.724L51.1848 92.6895C50.5244 91.2914 49.5948 90.0373 48.4491 88.999C47.3035 87.9606 45.9642 87.1585 44.5081 86.6384C43.052 86.1184 41.5076 85.8906 39.9633 85.9683C38.4191 86.0459 36.9053 86.4274 35.5087 87.0909C33.018 88.2735 31.0227 90.2946 29.8722 92.8003C28.7217 95.306 28.4894 98.1365 29.2158 100.796L34.4449 120.134C39.0793 137.172 46.8776 153.186 57.4328 167.341L88.3035 152.471Z" fill="#FF6363"/>
<path d="M9.66558 102.219C11.0624 101.557 12.5761 101.177 14.1199 101.1C15.6638 101.023 17.2077 101.251 18.6634 101.771C20.1192 102.291 21.4582 103.093 22.6041 104.13C23.75 105.168 24.6802 106.421 25.3417 107.818L39.159 136.852C42.493 143.857 46.8309 150.337 52.0359 156.089L60.8145 165.775L110.608 137.244L211.787 151.33C226.561 153.384 240.094 160.713 249.888 171.964C259.682 183.215 265.076 197.629 265.074 212.545V261.813H132.533C127.136 242.072 115.927 230.662 100.061 219.499C96.1198 216.747 92.0057 214.253 87.7438 212.03L50.4011 192.357C35.5082 184.62 23.5917 172.176 16.5071 156.962C13.3011 149.953 10.6795 142.692 8.66903 135.251L3.40634 115.913C2.68257 113.259 2.91254 110.435 4.05623 107.933C5.19991 105.431 7.18488 103.409 9.66558 102.219Z" fill="#FF6363"/>
<path d="M135.142 126.308L135.149 126.299C138.654 122.048 138.05 115.76 133.799 112.255L126.862 106.534C122.611 103.029 116.323 103.633 112.817 107.884L112.81 107.893C109.305 112.144 109.909 118.432 114.16 121.937L121.097 127.657C125.348 131.163 131.636 130.559 135.142 126.308Z" fill="#070717"/>
<path d="M67.37 93.0168L67.3809 93.0143C71.4615 92.0782 74.0107 88.0113 73.0746 83.9307L70.5885 73.0934C69.6525 69.0128 65.5856 66.4637 61.505 67.3998L61.4941 67.4023C57.4135 68.3383 54.8643 72.4051 55.8004 76.4857L58.2865 87.3231C59.2226 91.4037 63.2894 93.9529 67.37 93.0168Z" fill="#070717"/>
<path d="M40.0849 99.2792L40.0958 99.2767C44.1764 98.3406 46.7255 94.2738 45.7894 90.1932L43.3034 79.3558C42.3673 75.2752 38.3005 72.7261 34.2198 73.6621L34.2089 73.6646C30.1283 74.6007 27.5792 78.6676 28.5153 82.7482L31.0013 93.5855C31.9374 97.6661 36.0042 100.215 40.0849 99.2792Z" fill="#070717"/>
<path d="M13.2645 113.892L13.2755 113.89C17.3561 112.954 19.9052 108.887 18.9691 104.806L16.4831 93.969C15.547 89.8884 11.4802 87.3392 7.39955 88.2753L7.38863 88.2778C3.30802 89.2139 0.758885 93.2807 1.69497 97.3614L4.18103 108.199C5.11712 112.279 9.18394 114.828 13.2645 113.892Z" fill="#070717"/>
<defs>
<linearGradient id="paint0_linear_1705_23797" x1="290.725" y1="113.951" x2="371.072" y2="185.356" gradientUnits="userSpaceOnUse">
<stop stop-color="#FFD15C"/>
<stop offset="1" stop-color="#FFBF1B"/>
</linearGradient>
<radialGradient id="paint1_radial_1705_23797" cx="0" cy="0" r="1" gradientUnits="userSpaceOnUse" gradientTransform="translate(524.638 33.9054) rotate(164.075) scale(296.567 114.663)">
<stop stop-color="#FF6363"/>
<stop offset="1" stop-color="#4100FB"/>
</radialGradient>
</defs>
</svg>
