<svg width="274" height="238" viewBox="0 0 274 238" fill="none" xmlns="http://www.w3.org/2000/svg">
<path d="M138.575 237.179C204.02 237.179 257.075 184.228 257.075 118.911C257.075 53.5932 204.02 0.642822 138.575 0.642822C73.1286 0.642822 20.0742 53.5932 20.0742 118.911C20.0742 184.228 73.1286 237.179 138.575 237.179Z" fill="#FF6363"/>
<path d="M140.283 203.227C120.517 209.123 99.2211 207.032 80.9856 197.404C62.7502 187.777 49.035 171.384 42.7963 151.758C36.5575 132.133 38.2947 110.847 47.6335 92.4884C56.9722 74.1295 73.1646 60.1678 92.7208 53.6124L140.283 203.227Z" fill="#FFD15C"/>
<path d="M193.774 193.731L80.7383 144.556L192.609 100.209L193.774 193.731Z" fill="white"/>
<path d="M2.61885 25.3815C32.1043 21.0454 62.0574 20.9098 91.5811 24.9786C118.182 28.7464 143.872 37.3242 167.389 50.2911C171.121 52.1536 174.597 54.4883 177.731 57.2374C179.122 58.7102 180.18 60.4629 180.836 62.3777C182.016 65.2226 182.424 68.3277 182.019 71.3801C181.301 74.6539 179.642 77.6475 177.244 79.9936C174.882 82.6337 172.318 85.0862 169.574 87.3289C163.979 91.98 157.791 95.8714 151.172 98.9015C144.577 102.02 137.231 103.21 129.986 102.333C128.889 102.278 127.815 102.004 126.826 101.527C125.935 100.777 126.464 100.027 126.826 99.0821C128.011 96.4398 129.699 94.0524 131.796 92.0524C141.54 82.6748 156.559 81.3411 169.38 82.4665C185.137 83.8557 200.504 89.2461 215.218 94.7754C230.224 100.416 244.853 106.987 259.4 113.711L270.271 118.768C272.679 119.893 274.809 116.309 272.373 115.17C256.713 107.862 241.053 100.569 225.045 94.1363C209.385 87.8707 193.113 81.8135 176.409 79.1878C162.085 76.9511 145.785 77.1317 133.257 85.5784C130.674 87.2922 128.369 89.3912 126.423 91.8023C124.641 94.0668 122.358 97.276 122.094 100.221C121.439 107.279 132.325 107.043 136.793 106.765C144.592 106.115 152.134 103.671 158.828 99.6239C165.459 95.9161 171.595 91.3884 177.091 86.148C182.269 81.0911 186.835 75.4368 186.25 67.8097C185.889 62.6972 183.842 57.029 179.875 53.5975C176.036 50.4863 171.868 47.803 167.445 45.5953C161.682 42.4834 155.682 39.7048 149.613 37.0652C136.253 31.254 122.348 26.7772 108.104 23.7005C76.8955 17.0876 44.4204 16.4902 12.7804 19.9495C9.02201 20.3663 5.26827 20.8294 1.51917 21.3387C-1.13953 21.7 -0.0120215 25.7288 2.61885 25.3537V25.3815Z" fill="url(#paint0_radial_5_37)"/>
<defs>
<radialGradient id="paint0_radial_5_37" cx="0" cy="0" r="1" gradientUnits="userSpaceOnUse" gradientTransform="translate(273.984 49.9692) rotate(167.881) scale(366.967 110.374)">
<stop stop-color="#FF6363"/>
<stop offset="1" stop-color="#4100FB"/>
</radialGradient>
</defs>
</svg>
