<svg width="560" height="211" viewBox="0 0 560 211" fill="none" xmlns="http://www.w3.org/2000/svg">
<path d="M0 189.21V43.4956L127 189.21H0Z" fill="#FF6363"/>
<path d="M351 77.4864C358.242 64.6074 367.965 53.2936 379.608 44.2002C391.25 35.1067 404.58 28.4143 418.825 24.5103C433.071 20.6063 447.949 19.5684 462.598 21.4567C477.247 23.345 491.376 28.1219 504.168 35.5108C516.959 42.8998 528.158 52.7541 537.116 64.503C546.074 76.2519 552.614 89.662 556.356 103.957C560.098 118.252 560.969 133.147 558.918 147.781C556.866 162.415 551.934 176.496 544.405 189.21L351 77.4864Z" fill="#4100FB"/>
<path d="M55.0115 143.625C58.5371 136.833 65.4955 133.08 72.8579 131.839C81.0402 130.449 89.1448 132.137 96.7434 135.277C105.008 138.689 112.697 143.425 120.647 147.41C128.531 151.369 136.941 154.185 145.623 155.771C162.342 158.722 180.144 156.826 195.185 148.66C209.006 141.202 219.639 128.983 225.101 114.28C227.894 106.918 228.837 98.9866 227.849 91.1774C226.734 83.7152 223.291 76.1067 216.458 72.2093C206.654 66.6206 189.527 73.8353 192.769 86.6752C194.26 92.6061 200.239 95.7688 205.939 96.4401C209.184 96.8503 212.48 96.5568 215.601 95.5795C218.722 94.6022 221.595 92.9642 224.024 90.7773C230.189 85.183 233.856 77.4983 238.046 70.4421C241.855 63.5863 247.312 57.7835 253.926 53.5561C266.484 45.9023 283.073 44.3798 296.553 50.6083C311.863 57.6879 321.089 73.0333 327.081 88.1088C328.585 91.906 329.929 95.7671 331.164 99.6618C331.317 100.032 331.604 100.331 331.967 100.501C332.33 100.671 332.744 100.7 333.127 100.582C333.511 100.464 333.836 100.207 334.04 99.8621C334.244 99.5172 334.311 99.1089 334.229 98.7169C329.445 83.6862 323.003 68.3171 311.469 57.1389C306.214 51.9935 299.832 48.1376 292.827 45.8756C285.822 43.6136 278.387 43.0075 271.107 44.1051C264.087 45.1269 257.359 47.6063 251.358 51.3831C245.18 55.4689 240.012 60.9023 236.245 67.2731C232.005 74.1212 228.615 81.6905 222.852 87.4738C220.632 89.7628 217.885 91.4755 214.851 92.4628C211.816 93.45 208.585 93.6818 205.44 93.138C199.981 92.1839 194.44 88.171 195.766 81.9381C196.929 76.4848 203.061 73.5821 208.198 73.444C215.33 73.2422 220.598 78.7392 223.006 85.0281C225.815 92.3703 225.501 100.571 223.637 108.102C219.998 122.824 210.028 135.609 197.335 143.692C183.195 152.698 165.772 155.431 149.304 153.102C140.662 151.864 132.255 149.333 124.369 145.593C116.624 141.932 109.331 137.416 101.553 133.84C94.435 130.566 86.9294 128.113 79.0215 128.122C71.8581 128.125 64.275 129.955 58.5819 134.421C55.9452 136.486 53.7842 139.093 52.245 142.064C52.0464 142.44 52.0054 142.878 52.1309 143.284C52.2563 143.689 52.538 144.028 52.9141 144.227C53.2901 144.425 53.7296 144.466 54.136 144.341C54.5423 144.215 54.8821 143.934 55.0807 143.559L55.0115 143.625Z" fill="url(#paint0_radial_2_14)"/>
<path d="M407.747 128.009L441.678 164.867L391.345 160.773L383.24 209.876L355.101 168.565L311.076 192.931L326.317 145.504L279.514 126.791L326.665 108.984L312.33 61.2752L355.884 86.473L384.805 45.7041L391.972 94.9515L442.374 91.814L407.747 128.009Z" fill="url(#paint1_linear_2_14)"/>
<path d="M157.174 180.238L125.189 168.454C125.189 168.454 147.067 69.455 148.914 71.3956C150.761 73.3362 180.956 86.4457 180.956 86.4457L157.174 180.238Z" fill="#4100FB"/>
<path d="M142.52 121.176C140.274 134.625 144.033 146.455 150.916 147.6C157.799 148.745 165.2 138.771 167.445 125.322C169.691 111.873 165.932 100.043 159.049 98.8981C152.166 97.7532 144.765 107.727 142.52 121.176Z" fill="#625FFF"/>
<path d="M189.795 0.580078L209.953 30.0375L132.612 61.1096C132.612 61.1096 116.969 39.813 111 22.7387L189.795 0.580078Z" fill="#4100FB"/>
<path d="M163.657 38.3655C173.857 35.8066 181.064 29.516 179.754 24.3151C178.444 19.1142 169.113 16.9724 158.914 19.5313C148.714 22.0902 141.507 28.3807 142.817 33.5816C144.127 38.7825 153.457 40.9244 163.657 38.3655Z" fill="#625FFF"/>
<defs>
<radialGradient id="paint0_radial_2_14" cx="0" cy="0" r="1" gradientUnits="userSpaceOnUse" gradientTransform="translate(321.113 54.456) rotate(153.599) scale(375.725 87.5667)">
<stop stop-color="#FF6363"/>
<stop offset="1" stop-color="#4100FB"/>
</radialGradient>
<linearGradient id="paint1_linear_2_14" x1="353.168" y1="70.7685" x2="291.695" y2="137.945" gradientUnits="userSpaceOnUse">
<stop stop-color="#FFD15C"/>
<stop offset="1" stop-color="#FFBF1B"/>
</linearGradient>
</defs>
</svg>
