<svg width="608" height="392" viewBox="0 0 608 392" fill="none" xmlns="http://www.w3.org/2000/svg">
<path d="M166 70.2154L234.75 0L229.539 94.4595L332 89.624L255.846 153.017L329.009 215.027L228.811 212.27L234.75 306L166 235.818L97.2496 306L102.461 211.54L0 216.376L76.1537 153.017L0 89.624L102.461 94.4595L97.2496 0L166 70.2154Z" fill="url(#paint0_linear_2044_12636)"/>
<ellipse cx="446" cy="284.5" rx="113" ry="107.5" fill="#FF6363"/>
<circle cx="130" cy="319" r="73" fill="#4100FB"/>
<path d="M487.467 100.278L508.849 86.4795L531.933 138.692C531.933 138.692 516.48 149.393 504.055 153.521L487.467 100.278Z" fill="#4100FB"/>
<path d="M603.743 97.7537L595.318 119.471C595.318 119.471 522.976 105.159 524.382 103.899C525.788 102.638 535.189 82.1259 535.189 82.1259L603.743 97.7537Z" fill="#4100FB"/>
<path d="M519.437 77.8265C520.332 77.2651 559.913 72.7188 548.933 29.1275L533.029 19.1262C533.029 19.1262 536.459 36.0764 528.157 46.1423C523.327 52.0991 516.768 56.6493 509.253 59.2577L519.437 77.8265Z" fill="#4100FB"/>
<path d="M560.735 107.972C570.559 109.424 579.169 106.819 579.968 102.152C580.766 97.4856 573.45 92.5251 563.626 91.0726C553.802 89.6201 545.192 92.2256 544.393 96.8922C543.595 101.559 550.912 106.519 560.735 107.972Z" fill="#625FFF"/>
<path d="M544.016 43.7133C540.922 41.4862 534.614 44.2461 529.926 49.8777C525.238 55.5094 523.945 61.8802 527.039 64.1073C530.133 66.3344 536.441 63.5746 541.129 57.9429C545.817 52.3113 547.11 45.9405 544.016 43.7133Z" fill="#625FFF"/>
<path d="M515.172 117.786C513.251 110.892 508.623 106.044 504.835 106.958C501.048 107.871 499.536 114.2 501.457 121.093C503.379 127.987 508.007 132.835 511.794 131.922C515.581 131.008 517.094 124.679 515.172 117.786Z" fill="#625FFF"/>
<g clip-path="url(#clip0_2044_12636)">
<rect x="137.695" y="31.1731" width="320.517" height="622.422" rx="39.2891" fill="#070717"/>
<g clip-path="url(#clip1_2044_12636)">
<rect x="144.777" y="37.0723" width="307.336" height="546.648" rx="36.3776" fill="#F7F7F9"/>
<path d="M144.777 256.868H432.444C436.065 256.868 439 259.803 439 263.425V299.485C439 303.106 436.065 306.042 432.444 306.042H144.777V256.868Z" fill="white"/>
<path d="M373.755 288.471H375.129L375.14 287.126C377.661 286.934 379.122 285.596 379.127 283.576C379.122 281.591 377.626 280.537 375.553 280.072L375.21 279.99L375.233 277.08C376.007 277.26 376.479 277.755 376.549 278.488H378.964C378.935 276.562 377.498 275.182 375.257 274.938L375.268 273.57H373.895L373.883 274.926C371.607 275.147 370 276.521 370.012 278.506C370.006 280.264 371.246 281.271 373.26 281.754L373.819 281.894L373.79 284.973C372.841 284.792 372.201 284.21 372.137 283.238H369.698C369.756 285.59 371.298 286.905 373.766 287.121L373.755 288.471ZM375.163 284.973L375.187 282.255C376.089 282.54 376.578 282.906 376.584 283.57C376.578 284.274 376.042 284.798 375.163 284.973ZM373.836 279.635C373.109 279.385 372.585 279.007 372.596 278.337C372.596 277.714 373.039 277.231 373.86 277.062L373.836 279.635ZM385.107 287.144C387.761 287.144 389.565 285.415 389.56 283.005C389.565 280.724 387.971 279.082 385.823 279.082C384.775 279.082 383.873 279.519 383.454 280.107H383.384L383.692 277.121H388.902V275.06H381.614L381.05 281.346L383.291 281.748C383.657 281.253 384.367 280.945 385.072 280.945C386.271 280.951 387.132 281.818 387.132 283.069C387.132 284.309 386.288 285.165 385.107 285.165C384.106 285.165 383.296 284.536 383.238 283.611H380.794C380.84 285.671 382.639 287.144 385.107 287.144ZM395.893 287.144C398.547 287.156 400.357 285.415 400.351 282.988C400.357 280.753 398.797 279.14 396.684 279.14C395.375 279.14 394.216 279.769 393.681 280.823H393.599C393.611 278.5 394.426 277.057 395.98 277.057C396.894 277.057 397.551 277.557 397.744 278.39H400.229C399.99 276.428 398.361 274.897 395.98 274.897C393.035 274.897 391.143 277.284 391.131 281.288C391.125 285.654 393.442 287.132 395.893 287.144ZM395.881 285.165C394.717 285.165 393.855 284.228 393.855 283.064C393.861 281.905 394.74 280.962 395.898 280.962C397.063 280.962 397.912 281.876 397.907 283.058C397.912 284.251 397.045 285.165 395.881 285.165ZM403.115 287.132C403.86 287.132 404.506 286.509 404.512 285.735C404.506 284.973 403.86 284.35 403.115 284.35C402.346 284.35 401.712 284.973 401.718 285.735C401.712 286.509 402.346 287.132 403.115 287.132ZM406.547 286.981H409.149L414.097 277.15V275.06H405.733V277.121H411.489V277.202L406.547 286.981ZM420.242 287.243C423.24 287.243 425.05 284.961 425.056 281.032C425.062 277.132 423.228 274.897 420.242 274.897C417.25 274.897 415.434 277.126 415.428 281.032C415.417 284.95 417.239 287.237 420.242 287.243ZM420.242 285.153C418.874 285.153 417.99 283.78 417.995 281.032C418.001 278.325 418.88 276.963 420.242 276.963C421.598 276.963 422.483 278.325 422.483 281.032C422.489 283.78 421.604 285.153 420.242 285.153Z" fill="#070717"/>
<path d="M165.224 277.424H167.115V273.731H170.751V272.173H167.115V270.042H171.144V268.484H165.224V277.424ZM174.918 277.555C176.952 277.555 178.218 276.163 178.218 274.098C178.218 272.02 176.952 270.632 174.918 270.632C172.884 270.632 171.618 272.02 171.618 274.098C171.618 276.163 172.884 277.555 174.918 277.555ZM174.927 276.115C173.988 276.115 173.508 275.255 173.508 274.085C173.508 272.915 173.988 272.05 174.927 272.05C175.848 272.05 176.328 272.915 176.328 274.085C176.328 275.255 175.848 276.115 174.927 276.115ZM182.457 277.555C184.492 277.555 185.758 276.163 185.758 274.098C185.758 272.02 184.492 270.632 182.457 270.632C180.423 270.632 179.157 272.02 179.157 274.098C179.157 276.163 180.423 277.555 182.457 277.555ZM182.466 276.115C181.528 276.115 181.047 275.255 181.047 274.085C181.047 272.915 181.528 272.05 182.466 272.05C183.387 272.05 183.867 272.915 183.867 274.085C183.867 275.255 183.387 276.115 182.466 276.115ZM189.438 277.534C190.521 277.534 191.084 276.909 191.341 276.351H191.42V277.424H193.253V268.484H191.398V271.845H191.341C191.092 271.3 190.556 270.632 189.434 270.632C187.962 270.632 186.718 271.775 186.718 274.08C186.718 276.324 187.91 277.534 189.438 277.534ZM190.027 276.054C189.115 276.054 188.617 275.242 188.617 274.072C188.617 272.91 189.106 272.112 190.027 272.112C190.931 272.112 191.437 272.876 191.437 274.072C191.437 275.268 190.922 276.054 190.027 276.054ZM200.369 277.555C201.151 277.555 201.998 277.337 202.657 276.822L203.198 277.424H205.137L203.792 275.883C204.29 275.224 204.604 274.277 204.604 273.063H203.063C203.063 273.648 202.919 274.168 202.683 274.609L201.207 272.915L201.731 272.539C202.482 271.998 202.919 271.317 202.919 270.474C202.919 269.331 202.033 268.366 200.596 268.366C199.129 268.366 198.156 269.366 198.156 270.662C198.156 271.457 198.54 272.12 199.007 272.714C198.034 273.382 197.379 274.015 197.379 275.05C197.379 276.46 198.51 277.555 200.369 277.555ZM201.653 275.704C201.277 275.936 200.867 276.062 200.461 276.062C199.684 276.062 199.182 275.582 199.182 274.945C199.182 274.604 199.413 274.211 199.907 273.853L199.959 273.818L201.653 275.704ZM200.313 271.854C199.981 271.435 199.749 271.064 199.749 270.693C199.749 270.243 200.09 269.868 200.609 269.863C201.133 269.859 201.43 270.226 201.43 270.579C201.43 270.955 201.225 271.265 200.78 271.548L200.313 271.854ZM211.228 277.534C212.31 277.534 212.873 276.909 213.131 276.351H213.21V277.424H215.043V268.484H213.188V271.845H213.131C212.882 271.3 212.345 270.632 211.223 270.632C209.752 270.632 208.508 271.775 208.508 274.08C208.508 276.324 209.7 277.534 211.228 277.534ZM211.817 276.054C210.905 276.054 210.407 275.242 210.407 274.072C210.407 272.91 210.896 272.112 211.817 272.112C212.721 272.112 213.227 272.876 213.227 274.072C213.227 275.268 212.712 276.054 211.817 276.054ZM216.572 277.424H218.432V273.631C218.432 272.806 219.034 272.238 219.855 272.238C220.113 272.238 220.466 272.282 220.641 272.339V270.688C220.475 270.649 220.244 270.623 220.056 270.623C219.305 270.623 218.689 271.059 218.445 271.889H218.375V270.719H216.572V277.424ZM221.602 277.424H223.462V270.719H221.602V277.424ZM222.537 269.855C223.091 269.855 223.545 269.431 223.545 268.912C223.545 268.396 223.091 267.973 222.537 267.973C221.986 267.973 221.532 268.396 221.532 268.912C221.532 269.431 221.986 269.855 222.537 269.855ZM226.812 273.548C226.816 272.683 227.331 272.177 228.082 272.177C228.828 272.177 229.278 272.666 229.274 273.487V277.424H231.133V273.155C231.133 271.592 230.217 270.632 228.82 270.632C227.824 270.632 227.104 271.121 226.803 271.902H226.724V270.719H224.952V277.424H226.812V273.548ZM232.599 277.424H234.459V275.294L234.961 274.722L236.79 277.424H238.969L236.354 273.622L238.842 270.719H236.707L234.559 273.264H234.459V268.484H232.599V277.424ZM245.334 272.631C245.168 271.396 244.172 270.632 242.478 270.632C240.763 270.632 239.632 271.426 239.636 272.718C239.632 273.722 240.265 274.373 241.575 274.635L242.736 274.866C243.321 274.984 243.587 275.198 243.596 275.534C243.587 275.931 243.155 276.215 242.505 276.215C241.841 276.215 241.4 275.931 241.287 275.386L239.457 275.482C239.632 276.765 240.723 277.555 242.5 277.555C244.238 277.555 245.482 276.669 245.486 275.346C245.482 274.377 244.849 273.797 243.548 273.53L242.334 273.286C241.71 273.151 241.479 272.937 241.483 272.614C241.479 272.212 241.933 271.95 242.509 271.95C243.155 271.95 243.539 272.304 243.631 272.736L245.334 272.631Z" fill="#696466"/>
<path d="M165.458 295.274H170.347V294.378H166.468V286.93H165.458V295.274ZM174.405 295.405C175.677 295.405 176.606 294.769 176.899 293.824L175.97 293.563C175.726 294.215 175.159 294.541 174.405 294.541C173.277 294.541 172.499 293.812 172.454 292.471H176.997V292.064C176.997 289.733 175.611 288.934 174.308 288.934C172.613 288.934 171.488 290.271 171.488 292.194C171.488 294.117 172.596 295.405 174.405 295.405ZM172.454 291.64C172.519 290.666 173.207 289.798 174.308 289.798C175.351 289.798 176.019 290.58 176.019 291.64H172.454ZM181.247 289.016H179.845V288.38C179.845 287.761 180.106 287.435 180.741 287.435C181.018 287.435 181.181 287.5 181.279 287.533L181.556 286.701C181.41 286.636 181.116 286.539 180.644 286.539C179.747 286.539 178.883 287.076 178.883 288.152V289.016H177.873V289.831H178.883V295.274H179.845V289.831H181.247V289.016ZM185.316 289.016H183.98V287.516H183.018V289.016H182.073V289.831H183.018V293.742C183.018 294.834 183.898 295.356 184.713 295.356C185.071 295.356 185.3 295.291 185.43 295.242L185.234 294.378C185.153 294.394 185.023 294.427 184.811 294.427C184.387 294.427 183.98 294.296 183.98 293.482V289.831H185.316V289.016ZM192.711 289.016H191.375V287.516H190.413V289.016H189.468V289.831H190.413V293.742C190.413 294.834 191.293 295.356 192.108 295.356C192.467 295.356 192.695 295.291 192.825 295.242L192.63 294.378C192.548 294.394 192.418 294.427 192.206 294.427C191.782 294.427 191.375 294.296 191.375 293.482V289.831H192.711V289.016ZM196.633 295.405C198.328 295.405 199.469 294.117 199.469 292.178C199.469 290.222 198.328 288.934 196.633 288.934C194.938 288.934 193.797 290.222 193.797 292.178C193.797 294.117 194.938 295.405 196.633 295.405ZM196.633 294.541C195.345 294.541 194.759 293.433 194.759 292.178C194.759 290.923 195.345 289.798 196.633 289.798C197.921 289.798 198.507 290.923 198.507 292.178C198.507 293.433 197.921 294.541 196.633 294.541ZM208.597 290.417C208.295 289.529 207.619 288.934 206.38 288.934C205.06 288.934 204.082 289.684 204.082 290.743C204.082 291.607 204.596 292.186 205.745 292.455L206.788 292.699C207.419 292.846 207.717 293.147 207.717 293.579C207.717 294.117 207.146 294.557 206.25 294.557C205.463 294.557 204.97 294.219 204.799 293.547L203.887 293.775C204.111 294.838 204.987 295.405 206.266 295.405C207.721 295.405 208.711 294.61 208.711 293.53C208.711 292.658 208.165 292.108 207.048 291.835L206.119 291.607C205.378 291.424 205.044 291.175 205.044 290.695C205.044 290.157 205.614 289.766 206.38 289.766C207.22 289.766 207.566 290.23 207.733 290.662L208.597 290.417ZM210.158 297.621H211.12V294.313H211.201C211.413 294.655 211.821 295.405 213.027 295.405C214.591 295.405 215.683 294.15 215.683 292.161C215.683 290.189 214.591 288.934 213.011 288.934C211.788 288.934 211.413 289.684 211.201 290.01H211.087V289.016H210.158V297.621ZM211.104 292.145C211.104 290.743 211.723 289.798 212.896 289.798C214.119 289.798 214.722 290.825 214.722 292.145C214.722 293.482 214.102 294.541 212.896 294.541C211.739 294.541 211.104 293.563 211.104 292.145ZM219.774 295.405C221.045 295.405 221.974 294.769 222.268 293.824L221.339 293.563C221.094 294.215 220.528 294.541 219.774 294.541C218.646 294.541 217.867 293.812 217.823 292.471H222.366V292.064C222.366 289.733 220.98 288.934 219.676 288.934C217.981 288.934 216.857 290.271 216.857 292.194C216.857 294.117 217.965 295.405 219.774 295.405ZM217.823 291.64C217.888 290.666 218.576 289.798 219.676 289.798C220.72 289.798 221.388 290.58 221.388 291.64H217.823ZM224.79 291.509C224.79 290.417 225.466 289.798 226.387 289.798C227.28 289.798 227.821 290.381 227.821 291.363V295.274H228.783V291.298C228.783 289.7 227.931 288.934 226.664 288.934C225.719 288.934 225.132 289.358 224.839 289.994H224.757V289.016H223.828V295.274H224.79V291.509ZM232.903 295.405C234.109 295.405 234.517 294.655 234.729 294.313H234.843V295.274H235.772V286.93H234.81V290.01H234.729C234.517 289.684 234.142 288.934 232.92 288.934C231.339 288.934 230.247 290.189 230.247 292.161C230.247 294.15 231.339 295.405 232.903 295.405ZM233.034 294.541C231.828 294.541 231.208 293.482 231.208 292.145C231.208 290.825 231.811 289.798 233.034 289.798C234.207 289.798 234.827 290.743 234.827 292.145C234.827 293.563 234.191 294.541 233.034 294.541ZM243.615 289.016H242.279V287.516H241.317V289.016H240.372V289.831H241.317V293.742C241.317 294.834 242.197 295.356 243.012 295.356C243.371 295.356 243.599 295.291 243.729 295.242L243.534 294.378C243.452 294.394 243.322 294.427 243.11 294.427C242.686 294.427 242.279 294.296 242.279 293.482V289.831H243.615V289.016ZM245.062 295.274H246.023V289.016H245.062V295.274ZM245.551 287.973C245.926 287.973 246.235 287.679 246.235 287.321C246.235 286.962 245.926 286.669 245.551 286.669C245.176 286.669 244.866 286.962 244.866 287.321C244.866 287.679 245.176 287.973 245.551 287.973ZM248.746 286.93H247.785V295.274H248.746V286.93ZM251.469 286.93H250.507V295.274H251.469V286.93ZM256.441 295.274H261.705V294.378H257.826V294.313L259.701 292.308C261.135 290.772 261.558 290.055 261.558 289.13C261.558 287.842 260.515 286.816 259.049 286.816C257.586 286.816 256.473 287.81 256.473 289.277H257.435C257.435 288.327 258.05 287.696 259.016 287.696C259.921 287.696 260.613 288.25 260.613 289.13C260.613 289.9 260.161 290.47 259.195 291.526L256.441 294.541V295.274ZM273.802 291.102C273.802 288.462 272.254 286.816 270.119 286.816C267.984 286.816 266.436 288.462 266.436 291.102C266.436 293.742 267.984 295.388 270.119 295.388C272.254 295.388 273.802 293.742 273.802 291.102ZM272.825 291.102C272.825 293.27 271.635 294.443 270.119 294.443C268.603 294.443 267.414 293.27 267.414 291.102C267.414 288.934 268.603 287.761 270.119 287.761C271.635 287.761 272.825 288.934 272.825 291.102ZM277.914 295.405C279.299 295.405 280.212 294.557 280.375 293.449H279.413C279.234 294.133 278.663 294.541 277.914 294.541C276.773 294.541 276.039 293.596 276.039 292.145C276.039 290.727 276.789 289.798 277.914 289.798C278.761 289.798 279.266 290.32 279.413 290.89H280.375C280.212 289.717 279.217 288.934 277.897 288.934C276.202 288.934 275.078 290.271 275.078 292.178C275.078 294.052 276.153 295.405 277.914 295.405ZM284.502 289.016H283.166V287.516H282.204V289.016H281.259V289.831H282.204V293.742C282.204 294.834 283.084 295.356 283.899 295.356C284.258 295.356 284.486 295.291 284.616 295.242L284.421 294.378C284.339 294.394 284.209 294.427 283.997 294.427C283.573 294.427 283.166 294.296 283.166 293.482V289.831H284.502V289.016Z" fill="#696466"/>
<path d="M144.777 194.582H432.444C436.065 194.582 439 197.517 439 201.138V237.199C439 240.82 436.065 243.755 432.444 243.755H144.777V194.582Z" fill="white"/>
<path d="M372.651 226.184H374.024L374.036 224.84C376.556 224.648 378.017 223.309 378.023 221.289C378.017 219.304 376.521 218.251 374.449 217.785L374.106 217.704L374.129 214.793C374.903 214.974 375.375 215.468 375.445 216.202H377.86C377.831 214.275 376.393 212.896 374.152 212.651L374.164 211.283H372.79L372.779 212.64C370.503 212.861 368.896 214.234 368.908 216.219C368.902 217.977 370.142 218.984 372.156 219.467L372.715 219.607L372.685 222.686C371.737 222.506 371.096 221.924 371.032 220.952H368.593C368.652 223.303 370.194 224.619 372.662 224.834L372.651 226.184ZM374.059 222.686L374.082 219.968C374.985 220.253 375.474 220.62 375.479 221.283C375.474 221.988 374.938 222.512 374.059 222.686ZM372.732 217.349C372.004 217.098 371.481 216.72 371.492 216.051C371.492 215.428 371.935 214.945 372.755 214.776L372.732 217.349ZM383.962 212.61C381.296 212.599 379.497 214.345 379.509 216.743C379.515 218.967 381.057 220.579 383.17 220.579C384.48 220.579 385.644 219.945 386.174 218.897H386.255C386.249 221.26 385.429 222.698 383.874 222.698C382.961 222.698 382.303 222.197 382.111 221.33H379.625C379.858 223.338 381.488 224.857 383.874 224.857C386.826 224.857 388.729 222.471 388.723 218.425C388.717 214.106 386.412 212.622 383.962 212.61ZM383.979 214.59C385.138 214.59 385.993 215.532 386.005 216.668C386.011 217.808 385.108 218.751 383.956 218.751C382.792 218.751 381.959 217.843 381.954 216.673C381.942 215.509 382.809 214.59 383.979 214.59ZM395.044 224.857C397.699 224.869 399.509 223.129 399.503 220.701C399.509 218.466 397.949 216.854 395.836 216.854C394.526 216.854 393.368 217.482 392.833 218.536H392.751C392.763 216.214 393.578 214.77 395.132 214.77C396.046 214.77 396.703 215.271 396.895 216.103H399.381C399.142 214.141 397.512 212.61 395.132 212.61C392.186 212.61 390.295 214.997 390.283 219.002C390.277 223.367 392.594 224.846 395.044 224.857ZM395.033 222.878C393.869 222.878 393.007 221.941 393.007 220.777C393.013 219.619 393.892 218.676 395.05 218.676C396.214 218.676 397.064 219.59 397.058 220.771C397.064 221.964 396.197 222.878 395.033 222.878ZM402.267 224.846C403.012 224.846 403.658 224.223 403.664 223.449C403.658 222.686 403.012 222.063 402.267 222.063C401.498 222.063 400.864 222.686 400.87 223.449C400.864 224.223 401.498 224.846 402.267 224.846ZM405.676 224.694H414.174V222.634H409.168V222.552L410.909 220.847C413.359 218.612 414.017 217.494 414.017 216.138C414.017 214.071 412.329 212.61 409.774 212.61C407.271 212.61 405.554 214.106 405.56 216.446H407.952C407.946 215.305 408.668 214.607 409.756 214.607C410.804 214.607 411.584 215.259 411.584 216.307C411.584 217.255 411.002 217.907 409.919 218.949L405.676 222.878V224.694ZM415.564 222.599H421.286V224.694H423.696V222.599H425.174V220.579H423.696V212.773H420.541L415.564 220.614V222.599ZM421.332 220.579H418.102V220.486L421.239 215.521H421.332V220.579Z" fill="#070717"/>
<path d="M170.074 208.768H171.886C171.86 207.175 170.55 206.075 168.56 206.075C166.599 206.075 165.163 207.157 165.172 208.781C165.168 210.1 166.097 210.855 167.608 211.217L168.581 211.462C169.555 211.698 170.096 211.977 170.101 212.579C170.096 213.234 169.476 213.68 168.516 213.68C167.534 213.68 166.826 213.226 166.765 212.331H164.936C164.984 214.265 166.368 215.264 168.538 215.264C170.721 215.264 172.004 214.221 172.008 212.584C172.004 211.095 170.882 210.305 169.328 209.956L168.525 209.764C167.748 209.585 167.097 209.297 167.11 208.655C167.11 208.079 167.621 207.655 168.547 207.655C169.45 207.655 170.005 208.065 170.074 208.768ZM175.157 215.264C176.148 215.264 176.79 214.832 177.117 214.208H177.17V215.138H178.933V210.615C178.933 209.017 177.58 208.345 176.087 208.345C174.48 208.345 173.424 209.113 173.166 210.336L174.886 210.475C175.013 210.03 175.41 209.703 176.078 209.703C176.711 209.703 177.074 210.021 177.074 210.571V210.598C177.074 211.03 176.615 211.086 175.45 211.2C174.122 211.322 172.931 211.767 172.931 213.265C172.931 214.592 173.878 215.264 175.157 215.264ZM175.69 213.981C175.118 213.981 174.707 213.715 174.707 213.204C174.707 212.68 175.14 212.422 175.794 212.331C176.2 212.274 176.864 212.178 177.087 212.029V212.741C177.087 213.444 176.506 213.981 175.69 213.981ZM183.982 208.432H182.651V207.983C182.651 207.529 182.834 207.262 183.38 207.262C183.602 207.262 183.829 207.31 183.978 207.358L184.305 205.961C184.074 205.891 183.563 205.778 182.991 205.778C181.729 205.778 180.791 206.49 180.791 207.948V208.432H179.844V209.829H180.791V215.138H182.651V209.829H183.982V208.432ZM187.934 215.269C189.593 215.269 190.71 214.461 190.972 213.217L189.252 213.103C189.065 213.614 188.584 213.88 187.965 213.88C187.035 213.88 186.445 213.265 186.445 212.265V212.261H191.012V211.75C191.012 209.471 189.632 208.345 187.86 208.345C185.887 208.345 184.607 209.746 184.607 211.816C184.607 213.942 185.869 215.269 187.934 215.269ZM186.445 211.108C186.485 210.344 187.065 209.733 187.89 209.733C188.698 209.733 189.257 210.309 189.261 211.108H186.445ZM199.956 208.768H201.767C201.741 207.175 200.432 206.075 198.441 206.075C196.481 206.075 195.044 207.157 195.053 208.781C195.049 210.1 195.979 210.855 197.489 211.217L198.463 211.462C199.436 211.698 199.977 211.977 199.982 212.579C199.977 213.234 199.358 213.68 198.397 213.68C197.415 213.68 196.708 213.226 196.647 212.331H194.817C194.865 214.265 196.249 215.264 198.419 215.264C200.602 215.264 201.885 214.221 201.89 212.584C201.885 211.095 200.763 210.305 199.209 209.956L198.406 209.764C197.629 209.585 196.978 209.297 196.991 208.655C196.991 208.079 197.502 207.655 198.428 207.655C199.331 207.655 199.886 208.065 199.956 208.768ZM203.126 217.652H204.986V214.064H205.043C205.3 214.623 205.863 215.247 206.946 215.247C208.474 215.247 209.666 214.038 209.666 211.794C209.666 209.489 208.422 208.345 206.95 208.345C205.828 208.345 205.291 209.013 205.043 209.559H204.96V208.432H203.126V217.652ZM204.947 211.785C204.947 210.589 205.453 209.825 206.357 209.825C207.278 209.825 207.767 210.624 207.767 211.785C207.767 212.955 207.269 213.767 206.357 213.767C205.462 213.767 204.947 212.981 204.947 211.785ZM213.961 215.269C215.62 215.269 216.738 214.461 217 213.217L215.28 213.103C215.092 213.614 214.612 213.88 213.992 213.88C213.062 213.88 212.473 213.265 212.473 212.265V212.261H217.039V211.75C217.039 209.471 215.66 208.345 213.887 208.345C211.914 208.345 210.635 209.746 210.635 211.816C210.635 213.942 211.897 215.269 213.961 215.269ZM212.473 211.108C212.512 210.344 213.093 209.733 213.918 209.733C214.725 209.733 215.284 210.309 215.289 211.108H212.473ZM220.113 211.261C220.117 210.397 220.632 209.89 221.383 209.89C222.129 209.89 222.579 210.379 222.575 211.2V215.138H224.434V210.868C224.434 209.305 223.518 208.345 222.121 208.345C221.125 208.345 220.405 208.834 220.104 209.615H220.025V208.432H218.253V215.138H220.113V211.261ZM228.371 215.247C229.454 215.247 230.017 214.623 230.275 214.064H230.353V215.138H232.187V206.197H230.331V209.559H230.275C230.026 209.013 229.489 208.345 228.367 208.345C226.896 208.345 225.651 209.489 225.651 211.794C225.651 214.038 226.843 215.247 228.371 215.247ZM228.96 213.767C228.048 213.767 227.55 212.955 227.55 211.785C227.55 210.624 228.039 209.825 228.96 209.825C229.864 209.825 230.371 210.589 230.371 211.785C230.371 212.981 229.855 213.767 228.96 213.767Z" fill="#696466"/>
<path d="M165.458 232.988H170.347V232.092H166.468V224.643H165.458V232.988ZM174.405 233.118C175.677 233.118 176.606 232.483 176.899 231.538L175.97 231.277C175.726 231.929 175.159 232.255 174.405 232.255C173.277 232.255 172.499 231.525 172.454 230.185H176.997V229.777C176.997 227.447 175.611 226.648 174.308 226.648C172.613 226.648 171.488 227.985 171.488 229.908C171.488 231.831 172.596 233.118 174.405 233.118ZM172.454 229.354C172.519 228.38 173.207 227.512 174.308 227.512C175.351 227.512 176.019 228.294 176.019 229.354H172.454ZM181.247 226.73H179.845V226.094C179.845 225.475 180.106 225.149 180.741 225.149C181.018 225.149 181.181 225.214 181.279 225.246L181.556 224.415C181.41 224.35 181.116 224.252 180.644 224.252C179.747 224.252 178.883 224.79 178.883 225.866V226.73H177.873V227.544H178.883V232.988H179.845V227.544H181.247V226.73ZM185.316 226.73H183.98V225.23H183.018V226.73H182.073V227.544H183.018V231.456C183.018 232.548 183.898 233.07 184.713 233.07C185.071 233.07 185.3 233.004 185.43 232.955L185.234 232.092C185.153 232.108 185.023 232.141 184.811 232.141C184.387 232.141 183.98 232.01 183.98 231.195V227.544H185.316V226.73ZM192.711 226.73H191.375V225.23H190.413V226.73H189.468V227.544H190.413V231.456C190.413 232.548 191.293 233.07 192.108 233.07C192.467 233.07 192.695 233.004 192.825 232.955L192.63 232.092C192.548 232.108 192.418 232.141 192.206 232.141C191.782 232.141 191.375 232.01 191.375 231.195V227.544H192.711V226.73ZM196.633 233.118C198.328 233.118 199.469 231.831 199.469 229.891C199.469 227.936 198.328 226.648 196.633 226.648C194.938 226.648 193.797 227.936 193.797 229.891C193.797 231.831 194.938 233.118 196.633 233.118ZM196.633 232.255C195.345 232.255 194.759 231.146 194.759 229.891C194.759 228.636 195.345 227.512 196.633 227.512C197.921 227.512 198.507 228.636 198.507 229.891C198.507 231.146 197.921 232.255 196.633 232.255ZM208.597 228.131C208.295 227.243 207.619 226.648 206.38 226.648C205.06 226.648 204.082 227.398 204.082 228.457C204.082 229.321 204.596 229.9 205.745 230.168L206.788 230.413C207.419 230.56 207.717 230.861 207.717 231.293C207.717 231.831 207.146 232.271 206.25 232.271C205.463 232.271 204.97 231.933 204.799 231.26L203.887 231.489C204.111 232.552 204.987 233.118 206.266 233.118C207.721 233.118 208.711 232.324 208.711 231.244C208.711 230.372 208.165 229.822 207.048 229.549L206.119 229.321C205.378 229.138 205.044 228.889 205.044 228.408C205.044 227.87 205.614 227.479 206.38 227.479C207.22 227.479 207.566 227.944 207.733 228.376L208.597 228.131ZM210.158 235.335H211.12V232.026H211.201C211.413 232.369 211.821 233.118 213.027 233.118C214.591 233.118 215.683 231.863 215.683 229.875C215.683 227.903 214.591 226.648 213.011 226.648C211.788 226.648 211.413 227.398 211.201 227.724H211.087V226.73H210.158V235.335ZM211.104 229.859C211.104 228.457 211.723 227.512 212.896 227.512C214.119 227.512 214.722 228.539 214.722 229.859C214.722 231.195 214.102 232.255 212.896 232.255C211.739 232.255 211.104 231.277 211.104 229.859ZM219.774 233.118C221.045 233.118 221.974 232.483 222.268 231.538L221.339 231.277C221.094 231.929 220.528 232.255 219.774 232.255C218.646 232.255 217.867 231.525 217.823 230.185H222.366V229.777C222.366 227.447 220.98 226.648 219.676 226.648C217.981 226.648 216.857 227.985 216.857 229.908C216.857 231.831 217.965 233.118 219.774 233.118ZM217.823 229.354C217.888 228.38 218.576 227.512 219.676 227.512C220.72 227.512 221.388 228.294 221.388 229.354H217.823ZM224.79 229.223C224.79 228.131 225.466 227.512 226.387 227.512C227.28 227.512 227.821 228.095 227.821 229.076V232.988H228.783V229.011C228.783 227.414 227.931 226.648 226.664 226.648C225.719 226.648 225.132 227.072 224.839 227.707H224.757V226.73H223.828V232.988H224.79V229.223ZM232.903 233.118C234.109 233.118 234.517 232.369 234.729 232.026H234.843V232.988H235.772V224.643H234.81V227.724H234.729C234.517 227.398 234.142 226.648 232.92 226.648C231.339 226.648 230.247 227.903 230.247 229.875C230.247 231.863 231.339 233.118 232.903 233.118ZM233.034 232.255C231.828 232.255 231.208 231.195 231.208 229.859C231.208 228.539 231.811 227.512 233.034 227.512C234.207 227.512 234.827 228.457 234.827 229.859C234.827 231.277 234.191 232.255 233.034 232.255ZM243.615 226.73H242.279V225.23H241.317V226.73H240.372V227.544H241.317V231.456C241.317 232.548 242.197 233.07 243.012 233.07C243.371 233.07 243.599 233.004 243.729 232.955L243.534 232.092C243.452 232.108 243.322 232.141 243.11 232.141C242.686 232.141 242.279 232.01 242.279 231.195V227.544H243.615V226.73ZM245.062 232.988H246.023V226.73H245.062V232.988ZM245.551 225.686C245.926 225.686 246.235 225.393 246.235 225.035C246.235 224.676 245.926 224.383 245.551 224.383C245.176 224.383 244.866 224.676 244.866 225.035C244.866 225.393 245.176 225.686 245.551 225.686ZM248.746 224.643H247.785V232.988H248.746V224.643ZM251.469 224.643H250.507V232.988H251.469V224.643ZM256.441 232.988H261.705V232.092H257.826V232.026L259.701 230.022C261.135 228.486 261.558 227.769 261.558 226.844C261.558 225.556 260.515 224.529 259.049 224.529C257.586 224.529 256.473 225.524 256.473 226.99H257.435C257.435 226.041 258.05 225.409 259.016 225.409C259.921 225.409 260.613 225.964 260.613 226.844C260.613 227.614 260.161 228.184 259.195 229.239L256.441 232.255V232.988ZM273.802 228.816C273.802 226.175 272.254 224.529 270.119 224.529C267.984 224.529 266.436 226.175 266.436 228.816C266.436 231.456 267.984 233.102 270.119 233.102C272.254 233.102 273.802 231.456 273.802 228.816ZM272.825 228.816C272.825 230.983 271.635 232.157 270.119 232.157C268.603 232.157 267.414 230.983 267.414 228.816C267.414 226.648 268.603 225.475 270.119 225.475C271.635 225.475 272.825 226.648 272.825 228.816ZM277.914 233.118C279.299 233.118 280.212 232.271 280.375 231.163H279.413C279.234 231.847 278.663 232.255 277.914 232.255C276.773 232.255 276.039 231.309 276.039 229.859C276.039 228.441 276.789 227.512 277.914 227.512C278.761 227.512 279.266 228.033 279.413 228.604H280.375C280.212 227.43 279.217 226.648 277.897 226.648C276.202 226.648 275.078 227.985 275.078 229.891C275.078 231.766 276.153 233.118 277.914 233.118ZM284.502 226.73H283.166V225.23H282.204V226.73H281.259V227.544H282.204V231.456C282.204 232.548 283.084 233.07 283.899 233.07C284.258 233.07 284.486 233.004 284.616 232.955L284.421 232.092C284.339 232.108 284.209 232.141 283.997 232.141C283.573 232.141 283.166 232.01 283.166 231.195V227.544H284.502V226.73Z" fill="#696466"/>
<path d="M144.777 72.4663H245.583C249.205 72.4663 252.14 75.4018 252.14 79.0228V174.912C252.14 178.533 249.205 181.468 245.583 181.468H144.777V72.4663Z" fill="white"/>
<path d="M168.214 119.621H169.313L169.323 118.546C171.339 118.392 172.508 117.321 172.512 115.705C172.508 114.117 171.311 113.274 169.653 112.902L169.379 112.837L169.397 110.508C170.017 110.653 170.394 111.048 170.45 111.635H172.382C172.359 110.094 171.209 108.99 169.416 108.795L169.425 107.7H168.326L168.317 108.785C166.496 108.962 165.211 110.061 165.22 111.649C165.216 113.055 166.207 113.861 167.819 114.248L168.266 114.359L168.242 116.823C167.483 116.678 166.971 116.213 166.92 115.435H164.969C165.015 117.316 166.249 118.369 168.224 118.541L168.214 119.621ZM169.341 116.823L169.36 114.648C170.082 114.876 170.473 115.17 170.478 115.7C170.473 116.264 170.045 116.683 169.341 116.823ZM168.28 112.553C167.698 112.352 167.278 112.05 167.288 111.514C167.288 111.016 167.642 110.629 168.298 110.494L168.28 112.553ZM173.813 118.429H180.611V116.781H176.607V116.716L177.999 115.351C179.96 113.563 180.486 112.669 180.486 111.584C180.486 109.931 179.135 108.762 177.091 108.762C175.089 108.762 173.715 109.959 173.72 111.831H175.634C175.629 110.918 176.206 110.359 177.077 110.359C177.915 110.359 178.539 110.881 178.539 111.719C178.539 112.478 178.074 113 177.208 113.833L173.813 116.976V118.429ZM185.556 118.56C187.679 118.56 189.123 117.177 189.118 115.249C189.123 113.423 187.847 112.11 186.128 112.11C185.29 112.11 184.568 112.459 184.233 112.93H184.177L184.424 110.541H188.592V108.892H182.762L182.31 113.922L184.103 114.243C184.396 113.847 184.964 113.6 185.528 113.6C186.487 113.605 187.176 114.299 187.176 115.3C187.176 116.292 186.501 116.976 185.556 116.976C184.755 116.976 184.107 116.473 184.061 115.733H182.105C182.142 117.381 183.581 118.56 185.556 118.56ZM194.673 108.892H192.778L190.417 110.387V112.175L192.601 110.806H192.657V118.429H194.673V108.892ZM197.619 118.55C198.215 118.55 198.731 118.052 198.736 117.433C198.731 116.823 198.215 116.324 197.619 116.324C197.004 116.324 196.496 116.823 196.501 117.433C196.496 118.052 197.004 118.55 197.619 118.55ZM203.304 108.892H201.409L199.048 110.387V112.175L201.232 110.806H201.288V118.429H203.304V108.892ZM205.571 118.429H212.37V116.781H208.365V116.716L209.757 115.351C211.718 113.563 212.244 112.669 212.244 111.584C212.244 109.931 210.893 108.762 208.849 108.762C206.847 108.762 205.473 109.959 205.478 111.831H207.392C207.387 110.918 207.964 110.359 208.835 110.359C209.673 110.359 210.297 110.881 210.297 111.719C210.297 112.478 209.832 113 208.966 113.833L205.571 116.976V118.429Z" fill="#070717"/>
<path d="M165.458 98.5793H168.473C170.445 98.5793 171.26 97.6178 171.26 96.3628C171.26 95.0427 170.347 94.3255 169.581 94.2766V94.1952C170.298 93.9996 170.934 93.5269 170.934 92.4513C170.934 91.2289 170.119 90.2347 168.375 90.2347H165.458V98.5793ZM166.468 97.6829V94.7819H168.522C169.614 94.7819 170.298 95.5153 170.298 96.3628C170.298 97.0962 169.793 97.6829 168.473 97.6829H166.468ZM166.468 93.9018V91.1311H168.375C169.483 91.1311 169.972 91.7178 169.972 92.4513C169.972 93.3314 169.255 93.9018 168.343 93.9018H166.468ZM174.632 98.726C175.724 98.726 176.294 98.1393 176.49 97.7318H176.538V98.5793H177.5V94.4559C177.5 92.4676 175.984 92.2394 175.186 92.2394C174.24 92.2394 173.165 92.5653 172.676 93.7062L173.588 94.0322C173.8 93.5758 174.302 93.0869 175.218 93.0869C176.102 93.0869 176.538 93.5555 176.538 94.3581V94.3907C176.538 94.8552 176.066 94.8145 174.925 94.9612C173.764 95.1119 172.496 95.3686 172.496 96.8029C172.496 98.0252 173.442 98.726 174.632 98.726ZM174.778 97.8622C174.012 97.8622 173.458 97.52 173.458 96.8517C173.458 96.1183 174.126 95.8902 174.876 95.7924C175.283 95.7435 176.375 95.6294 176.538 95.4338V96.3139C176.538 97.0962 175.919 97.8622 174.778 97.8622ZM180.217 94.8145C180.217 93.7225 180.893 93.1032 181.814 93.1032C182.706 93.1032 183.248 93.6858 183.248 94.6678V98.5793H184.21V94.6026C184.21 93.0054 183.358 92.2394 182.091 92.2394C181.146 92.2394 180.559 92.6631 180.266 93.2988H180.184V92.3209H179.255V98.5793H180.217V94.8145ZM185.967 98.5793H186.928V96.2365L187.601 95.6131L189.944 98.5793H191.166L188.326 94.9938L190.97 92.3209H189.781L187.043 95.1078H186.928V90.2347H185.967V98.5793ZM197.277 98.726C198.369 98.726 198.939 98.1393 199.135 97.7318H199.184V98.5793H200.145V94.4559C200.145 92.4676 198.629 92.2394 197.831 92.2394C196.886 92.2394 195.81 92.5653 195.321 93.7062L196.234 94.0322C196.446 93.5758 196.947 93.0869 197.863 93.0869C198.748 93.0869 199.184 93.5555 199.184 94.3581V94.3907C199.184 94.8552 198.711 94.8145 197.57 94.9612C196.409 95.1119 195.142 95.3686 195.142 96.8029C195.142 98.0252 196.087 98.726 197.277 98.726ZM197.423 97.8622C196.657 97.8622 196.103 97.52 196.103 96.8517C196.103 96.1183 196.771 95.8902 197.521 95.7924C197.929 95.7435 199.021 95.6294 199.184 95.4338V96.3139C199.184 97.0962 198.564 97.8622 197.423 97.8622ZM204.443 98.7097C205.828 98.7097 206.741 97.8622 206.904 96.754H205.942C205.763 97.4385 205.193 97.8459 204.443 97.8459C203.302 97.8459 202.569 96.9006 202.569 95.4501C202.569 94.0322 203.318 93.1032 204.443 93.1032C205.29 93.1032 205.796 93.6247 205.942 94.1952H206.904C206.741 93.0217 205.747 92.2394 204.427 92.2394C202.732 92.2394 201.607 93.5758 201.607 95.4827C201.607 97.357 202.683 98.7097 204.443 98.7097ZM210.852 98.7097C212.237 98.7097 213.15 97.8622 213.313 96.754H212.351C212.172 97.4385 211.602 97.8459 210.852 97.8459C209.711 97.8459 208.978 96.9006 208.978 95.4501C208.978 94.0322 209.727 93.1032 210.852 93.1032C211.7 93.1032 212.205 93.6247 212.351 94.1952H213.313C213.15 93.0217 212.156 92.2394 210.836 92.2394C209.141 92.2394 208.016 93.5758 208.016 95.4827C208.016 97.357 209.092 98.7097 210.852 98.7097ZM217.261 98.7097C218.956 98.7097 220.097 97.4222 220.097 95.4827C220.097 93.5269 218.956 92.2394 217.261 92.2394C215.566 92.2394 214.425 93.5269 214.425 95.4827C214.425 97.4222 215.566 98.7097 217.261 98.7097ZM217.261 97.8459C215.974 97.8459 215.387 96.7377 215.387 95.4827C215.387 94.2278 215.974 93.1032 217.261 93.1032C218.549 93.1032 219.136 94.2278 219.136 95.4827C219.136 96.7377 218.549 97.8459 217.261 97.8459ZM225.509 96.0205C225.509 97.194 224.613 97.7318 223.896 97.7318C223.097 97.7318 222.527 97.1451 222.527 96.2324V92.3209H221.565V96.2976C221.565 97.8948 222.412 98.6608 223.586 98.6608C224.531 98.6608 225.151 98.1556 225.444 97.52H225.509V98.5793H226.471V92.3209H225.509V96.0205ZM229.194 94.8145C229.194 93.7225 229.87 93.1032 230.791 93.1032C231.683 93.1032 232.225 93.6858 232.225 94.6678V98.5793H233.187V94.6026C233.187 93.0054 232.335 92.2394 231.068 92.2394C230.123 92.2394 229.536 92.6631 229.242 93.2988H229.161V92.3209H228.232V98.5793H229.194V94.8145ZM237.665 92.3209H236.329V90.8214H235.367V92.3209H234.422V93.1358H235.367V97.0473C235.367 98.1393 236.248 98.6608 237.062 98.6608C237.421 98.6608 237.649 98.5956 237.78 98.5467L237.584 97.6829C237.502 97.6992 237.372 97.7318 237.16 97.7318C236.736 97.7318 236.329 97.6015 236.329 96.7866V93.1358H237.665V92.3209Z" fill="#070717"/>
<rect x="164.037" y="141.719" width="27.0455" height="27.0455" rx="3.68803" fill="white" stroke="#696466" stroke-width="0.819562"/>
<path fill-rule="evenodd" clip-rule="evenodd" d="M181.139 155.764L177.548 163.438L185.754 155.241L183.697 153.204" fill="#070717"/>
<path fill-rule="evenodd" clip-rule="evenodd" d="M169.364 155.242L177.549 163.438L181.141 155.764L183.698 153.204L177.55 147.047" fill="#FFCC00"/>
<path d="M166.65 351.937C166.577 351.936 166.506 351.919 166.442 351.887C166.367 351.852 166.302 351.801 166.25 351.737C166.203 351.67 166.164 351.597 166.134 351.521C166.106 351.44 166.092 351.356 166.092 351.271V348.582C166.084 348.51 166.084 348.438 166.092 348.366V336.987C166.099 336.877 166.127 336.769 166.175 336.67C166.315 336.338 166.542 336.051 166.833 335.838C167.091 335.648 167.403 335.546 167.723 335.547C168.061 335.536 168.394 335.635 168.672 335.83C168.963 336.046 169.194 336.332 169.346 336.662C169.402 336.793 169.49 336.908 169.603 336.995C169.704 337.058 169.818 337.095 169.936 337.103C170.059 337.096 170.177 337.056 170.277 336.987C170.388 336.902 170.479 336.794 170.544 336.67C170.699 336.336 170.941 336.049 171.243 335.838C171.505 335.651 171.819 335.55 172.141 335.547C172.465 335.548 172.78 335.653 173.04 335.846C173.327 336.062 173.554 336.349 173.697 336.679C173.756 336.804 173.844 336.913 173.955 336.995C174.052 337.071 174.173 337.112 174.296 337.112C174.42 337.114 174.541 337.072 174.637 336.995C174.753 336.917 174.841 336.803 174.887 336.67C175.04 336.34 175.275 336.053 175.569 335.838C175.814 335.668 176.103 335.573 176.401 335.563H176.543C176.84 335.57 177.129 335.662 177.375 335.83C177.654 336.032 177.882 336.297 178.041 336.604C178.096 336.724 178.185 336.826 178.298 336.895C178.397 336.968 178.517 337.006 178.64 337.003C178.759 337.005 178.876 336.967 178.972 336.895C179.08 336.82 179.169 336.72 179.23 336.604C179.378 336.293 179.605 336.026 179.888 335.83C180.121 335.668 180.395 335.575 180.678 335.563H180.736C181.084 335.559 181.425 335.664 181.71 335.863C182.006 336.078 182.243 336.364 182.4 336.695C182.459 336.817 182.485 336.952 182.475 337.087V351.238C182.474 351.323 182.46 351.407 182.434 351.488C182.408 351.566 182.369 351.639 182.317 351.704C182.268 351.767 182.206 351.818 182.134 351.854C182.064 351.887 181.987 351.904 181.91 351.904H166.65V351.937ZM167.59 348.333C167.524 348.337 167.459 348.354 167.399 348.383C167.315 348.426 167.239 348.482 167.174 348.549V350.572H181.385V348.641L181.335 348.599C181.246 348.529 181.148 348.471 181.044 348.424C180.925 348.348 180.786 348.308 180.645 348.308C180.53 348.309 180.418 348.34 180.32 348.399C180.206 348.478 180.116 348.588 180.062 348.716C179.916 349.044 179.69 349.33 179.405 349.548C179.167 349.735 178.875 349.84 178.573 349.848H178.523C178.187 349.848 177.86 349.746 177.583 349.556C177.299 349.339 177.075 349.052 176.934 348.724C176.868 348.603 176.778 348.498 176.668 348.416C176.572 348.342 176.456 348.298 176.335 348.291C176.215 348.298 176.1 348.338 176.002 348.408C175.887 348.489 175.798 348.602 175.744 348.732C175.596 349.062 175.367 349.348 175.078 349.565C174.815 349.757 174.497 349.859 174.171 349.856C173.845 349.854 173.528 349.749 173.265 349.556C172.99 349.336 172.775 349.05 172.64 348.724C172.575 348.601 172.484 348.493 172.374 348.408C172.278 348.341 172.166 348.301 172.05 348.291C171.926 348.298 171.806 348.335 171.7 348.399C171.581 348.485 171.482 348.596 171.409 348.724C171.272 349.058 171.044 349.346 170.752 349.556C170.641 349.63 170.524 349.694 170.402 349.748L170.277 349.798C170.171 349.824 170.062 349.84 169.953 349.848H169.87C169.53 349.858 169.197 349.755 168.921 349.556C168.632 349.34 168.403 349.053 168.256 348.724C168.205 348.608 168.124 348.508 168.023 348.433C167.93 348.371 167.825 348.331 167.715 348.316H167.648L167.59 348.333ZM172.091 346.984C172.418 346.985 172.735 347.09 172.998 347.284C173.29 347.496 173.517 347.784 173.656 348.116C173.718 348.236 173.806 348.341 173.914 348.424C174.012 348.498 174.131 348.539 174.255 348.541C174.379 348.54 174.5 348.496 174.596 348.416C174.707 348.333 174.795 348.225 174.854 348.1C174.995 347.769 175.222 347.481 175.511 347.267C175.778 347.061 176.106 346.95 176.443 346.951C176.771 346.952 177.09 347.053 177.358 347.242C177.646 347.458 177.872 347.745 178.016 348.075C178.058 348.177 178.12 348.271 178.199 348.349C178.301 348.424 178.422 348.47 178.548 348.482C178.67 348.476 178.788 348.435 178.889 348.366C178.999 348.281 179.09 348.173 179.155 348.05C179.298 347.738 179.526 347.472 179.813 347.284C179.93 347.189 180.062 347.113 180.204 347.059H180.27C180.366 347.033 180.463 347.014 180.562 347.001H180.72C180.902 347.011 181.083 347.039 181.261 347.084H181.41V344.87L181.31 344.695C181.239 344.588 181.149 344.495 181.044 344.42C180.938 344.366 180.822 344.334 180.703 344.329C180.589 344.33 180.477 344.361 180.379 344.42C180.268 344.503 180.179 344.611 180.121 344.737C179.985 345.071 179.757 345.36 179.463 345.569C179.2 345.769 178.879 345.877 178.548 345.877C178.215 345.866 177.895 345.75 177.633 345.544C177.346 345.329 177.122 345.042 176.984 344.712C176.916 344.593 176.825 344.488 176.718 344.404C176.619 344.328 176.5 344.285 176.376 344.279C176.256 344.284 176.141 344.325 176.044 344.395C175.933 344.482 175.845 344.593 175.786 344.72C175.644 345.051 175.417 345.338 175.128 345.552C174.865 345.743 174.547 345.846 174.221 345.844C173.894 345.845 173.576 345.74 173.314 345.544C173.003 345.339 172.755 345.05 172.599 344.712C172.531 344.592 172.441 344.488 172.333 344.404C172.235 344.338 172.124 344.295 172.008 344.279C171.883 344.291 171.763 344.334 171.659 344.404C171.551 344.486 171.463 344.591 171.401 344.712C171.264 345.045 171.036 345.334 170.743 345.544C170.503 345.727 170.213 345.834 169.911 345.852H169.787C169.674 345.845 169.563 345.829 169.454 345.802L169.312 345.752C169.21 345.71 169.112 345.657 169.021 345.594C168.704 345.39 168.451 345.102 168.289 344.762C168.231 344.638 168.142 344.532 168.031 344.454C167.934 344.388 167.823 344.345 167.706 344.329C167.602 344.326 167.498 344.352 167.407 344.404C167.342 344.449 167.283 344.502 167.232 344.562V346.976H167.365H167.573H167.773C168.098 346.967 168.417 347.073 168.672 347.275C168.964 347.486 169.191 347.775 169.329 348.108C169.394 348.231 169.485 348.339 169.595 348.424C169.698 348.484 169.811 348.523 169.928 348.541C170.058 348.541 170.185 348.503 170.294 348.433C170.407 348.347 170.498 348.236 170.56 348.108C170.704 347.778 170.93 347.491 171.218 347.275C171.471 347.089 171.777 346.987 172.091 346.984ZM172.091 342.955C172.42 342.956 172.741 343.061 173.007 343.255C173.294 343.471 173.52 343.758 173.664 344.087C173.726 344.208 173.814 344.313 173.922 344.395C174.02 344.47 174.14 344.511 174.263 344.512C174.385 344.512 174.504 344.474 174.604 344.404C174.717 344.318 174.804 344.203 174.854 344.071C175.001 343.741 175.23 343.454 175.519 343.238C175.788 343.05 176.107 342.946 176.435 342.939H176.51C176.806 342.949 177.094 343.041 177.342 343.205C177.636 343.419 177.871 343.706 178.024 344.037C178.083 344.155 178.169 344.257 178.273 344.337C178.368 344.419 178.489 344.464 178.615 344.462C178.742 344.462 178.866 344.418 178.964 344.337C179.071 344.254 179.159 344.149 179.222 344.029C179.368 343.719 179.595 343.454 179.879 343.263C180.147 343.09 180.459 342.998 180.778 342.997C180.93 343.003 181.081 343.029 181.227 343.072L181.385 343.122V340.733C181.331 340.616 181.248 340.516 181.144 340.441C181.087 340.415 181.024 340.401 180.961 340.4H180.861H180.645C180.584 340.391 180.522 340.391 180.462 340.4C180.331 340.466 180.223 340.57 180.154 340.699C180 341.009 179.771 341.275 179.488 341.473C179.225 341.649 178.915 341.742 178.598 341.74C178.251 341.749 177.911 341.64 177.633 341.432C177.345 341.239 177.113 340.976 176.959 340.666C176.903 340.537 176.818 340.423 176.709 340.333C176.611 340.265 176.496 340.227 176.376 340.225C176.321 340.214 176.265 340.214 176.21 340.225C176.147 340.248 176.087 340.282 176.035 340.325C175.927 340.408 175.842 340.517 175.786 340.641C175.644 340.972 175.417 341.259 175.128 341.473C174.869 341.667 174.554 341.772 174.23 341.773C173.907 341.771 173.592 341.676 173.323 341.498C173.038 341.304 172.806 341.04 172.649 340.733C172.596 340.604 172.51 340.492 172.399 340.408C172.301 340.34 172.186 340.3 172.066 340.291C171.945 340.297 171.828 340.335 171.725 340.4C171.618 340.473 171.53 340.57 171.467 340.683C171.308 340.991 171.077 341.257 170.793 341.457C170.568 341.615 170.303 341.707 170.028 341.723H169.945H169.861C169.564 341.718 169.275 341.625 169.029 341.457C168.746 341.259 168.517 340.993 168.364 340.683C168.295 340.571 168.204 340.475 168.097 340.4C168.004 340.354 167.902 340.329 167.798 340.325C167.743 340.338 167.692 340.364 167.648 340.4C167.585 340.406 167.523 340.422 167.465 340.45C167.377 340.48 167.297 340.532 167.232 340.599V343.097L167.39 343.047C167.506 343.008 167.626 342.985 167.748 342.98H167.798C168.097 342.99 168.387 343.089 168.63 343.263C168.926 343.474 169.16 343.762 169.304 344.096C169.367 344.216 169.458 344.319 169.57 344.395C169.669 344.461 169.785 344.495 169.903 344.495C170.021 344.495 170.137 344.461 170.236 344.395C170.352 344.32 170.444 344.213 170.502 344.087C170.646 343.758 170.872 343.471 171.159 343.255C171.418 343.06 171.734 342.955 172.058 342.955H172.091ZM172.175 338.926C172.321 338.936 172.466 338.961 172.607 339.001H172.707C172.826 339.052 172.94 339.113 173.048 339.184C173.367 339.403 173.616 339.709 173.764 340.067C173.824 340.186 173.909 340.291 174.013 340.375C174.115 340.449 174.237 340.489 174.363 340.491C174.481 340.486 174.597 340.448 174.696 340.383C174.804 340.293 174.894 340.182 174.962 340.058C175.103 339.73 175.327 339.443 175.611 339.226C175.879 339.027 176.201 338.914 176.534 338.901C176.831 338.903 177.121 338.993 177.367 339.159C177.655 339.376 177.884 339.663 178.032 339.992C178.088 340.112 178.177 340.213 178.29 340.283C178.391 340.352 178.509 340.39 178.631 340.391C178.75 340.389 178.866 340.351 178.964 340.283C179.073 340.209 179.162 340.109 179.222 339.992C179.359 339.712 179.558 339.467 179.804 339.276H179.921C180.047 339.196 180.184 339.137 180.329 339.101C180.443 339.072 180.56 339.055 180.678 339.051H180.786C180.93 339.06 181.072 339.085 181.211 339.126L181.369 339.176V337.395C181.317 337.274 181.23 337.173 181.119 337.103C181.025 337.051 180.919 337.022 180.811 337.02C180.753 337.014 180.695 337.014 180.637 337.02C180.57 337.012 180.503 337.012 180.437 337.02C180.313 337.092 180.21 337.196 180.137 337.32C179.979 337.626 179.751 337.891 179.472 338.094C179.208 338.27 178.898 338.363 178.581 338.36C178.245 338.375 177.912 338.282 177.633 338.094C177.349 337.894 177.118 337.628 176.959 337.32C176.901 337.194 176.816 337.083 176.709 336.995C176.609 336.932 176.495 336.895 176.376 336.887C176.252 336.887 176.13 336.925 176.027 336.995C175.921 337.084 175.836 337.195 175.777 337.32C175.631 337.65 175.401 337.937 175.112 338.152C174.872 338.335 174.581 338.437 174.28 338.443H174.122C173.823 338.443 173.533 338.35 173.289 338.177C173.006 337.979 172.777 337.713 172.624 337.403C172.581 337.278 172.509 337.164 172.416 337.07H172.374C172.306 337.035 172.233 337.013 172.158 337.003H172.1C171.971 336.989 171.841 337.012 171.725 337.07C171.616 337.152 171.53 337.261 171.476 337.386C171.316 337.69 171.085 337.95 170.802 338.144C170.56 338.32 170.269 338.416 169.97 338.418H169.961H169.87C169.571 338.414 169.28 338.318 169.038 338.144C168.753 337.951 168.523 337.687 168.372 337.378C168.307 337.249 168.205 337.142 168.081 337.07C167.99 336.994 167.875 336.952 167.756 336.953C167.655 336.95 167.555 336.973 167.465 337.02C167.391 337.058 167.323 337.109 167.265 337.17V339.009L167.423 338.96C167.564 338.918 167.709 338.893 167.856 338.885C168.155 338.89 168.445 338.985 168.688 339.159C168.977 339.359 169.213 339.624 169.379 339.933C169.429 340.061 169.516 340.171 169.628 340.25C169.726 340.318 169.842 340.355 169.961 340.358C170.084 340.351 170.202 340.311 170.302 340.241C170.415 340.162 170.507 340.057 170.569 339.933C170.72 339.622 170.949 339.355 171.234 339.159C171.479 338.989 171.768 338.894 172.066 338.885H172.141L172.175 338.926Z" fill="#4100FB"/>
<path d="M192.22 338.648H191.009L194.511 348.185H195.703L199.205 338.648H197.994L195.163 346.676H195.051L192.22 338.648ZM201.066 348.185H202.165V341.033H201.066V348.185ZM201.624 339.84C202.053 339.84 202.407 339.505 202.407 339.095C202.407 338.686 202.053 338.35 201.624 338.35C201.196 338.35 200.842 338.686 200.842 339.095C200.842 339.505 201.196 339.84 201.624 339.84ZM207.701 348.334C209.154 348.334 210.215 347.608 210.551 346.527L209.489 346.229C209.21 346.974 208.562 347.347 207.701 347.347C206.411 347.347 205.522 346.513 205.47 344.981H210.662V344.516C210.662 341.852 209.079 340.939 207.589 340.939C205.652 340.939 204.367 342.467 204.367 344.665C204.367 346.863 205.633 348.334 207.701 348.334ZM205.47 344.031C205.545 342.918 206.332 341.927 207.589 341.927C208.781 341.927 209.545 342.821 209.545 344.031H205.47ZM214.479 348.185H215.559L217.124 342.69H217.236L218.8 348.185H219.881L222.06 341.033H220.905L219.359 346.49H219.285L217.776 341.033H216.603L215.075 346.509H215.001L213.455 341.033H212.3L214.479 348.185ZM228.79 348.185L229.749 345.484H233.605L234.564 348.185H235.775L232.273 338.648H231.081L227.579 348.185H228.79ZM230.113 344.46L231.64 340.157H231.715L233.242 344.46H230.113ZM238.735 338.648H237.636V348.185H238.735V338.648ZM242.371 338.648H241.272V348.185H242.371V338.648ZM254.486 341.033H255.603C255.552 339.594 254.225 338.518 252.381 338.518C250.555 338.518 249.121 339.58 249.121 341.182C249.121 342.467 250.053 343.23 251.543 343.659L252.716 343.994C253.722 344.274 254.616 344.627 254.616 345.577C254.616 346.62 253.61 347.31 252.288 347.31C251.151 347.31 250.146 346.807 250.053 345.726H248.86C248.972 347.291 250.239 348.353 252.288 348.353C254.486 348.353 255.734 347.142 255.734 345.596C255.734 343.808 254.039 343.23 253.051 342.97L252.083 342.709C251.375 342.523 250.239 342.15 250.239 341.126C250.239 340.213 251.077 339.542 252.344 339.542C253.498 339.542 254.374 340.092 254.486 341.033ZM261.118 341.033H259.591V339.319H258.492V341.033H257.412V341.964H258.492V346.434C258.492 347.682 259.498 348.278 260.429 348.278C260.839 348.278 261.1 348.204 261.249 348.148L261.025 347.161C260.932 347.179 260.783 347.216 260.541 347.216C260.057 347.216 259.591 347.067 259.591 346.136V341.964H261.118V341.033ZM263.296 348.185H264.395V343.659C264.395 342.69 265.159 341.982 266.202 341.982C266.495 341.982 266.798 342.038 266.872 342.057V340.939C266.747 340.93 266.458 340.921 266.295 340.921C265.438 340.921 264.693 341.405 264.432 342.113H264.358V341.033H263.296V348.185ZM271.481 348.334C272.934 348.334 273.995 347.608 274.331 346.527L273.269 346.229C272.989 346.974 272.342 347.347 271.481 347.347C270.191 347.347 269.301 346.513 269.25 344.981H274.442V344.516C274.442 341.852 272.859 340.939 271.369 340.939C269.432 340.939 268.147 342.467 268.147 344.665C268.147 346.863 269.413 348.334 271.481 348.334ZM269.25 344.031C269.325 342.918 270.112 341.927 271.369 341.927C272.561 341.927 273.325 342.821 273.325 344.031H269.25ZM278.743 348.353C279.991 348.353 280.643 347.682 280.867 347.216H280.923V348.185H282.022V343.473C282.022 341.2 280.289 340.939 279.377 340.939C278.296 340.939 277.067 341.312 276.508 342.616L277.551 342.988C277.793 342.467 278.366 341.908 279.414 341.908C280.424 341.908 280.923 342.443 280.923 343.361V343.398C280.923 343.929 280.382 343.882 279.079 344.05C277.751 344.222 276.303 344.516 276.303 346.155C276.303 347.552 277.384 348.353 278.743 348.353ZM278.911 347.365C278.035 347.365 277.402 346.974 277.402 346.211C277.402 345.372 278.166 345.112 279.023 345C279.488 344.944 280.736 344.814 280.923 344.59V345.596C280.923 346.49 280.215 347.365 278.911 347.365ZM284.552 348.185H285.651V343.715C285.651 342.667 286.415 341.927 287.271 341.927C288.105 341.927 288.687 342.471 288.687 343.286V348.185H289.805V343.528C289.805 342.606 290.382 341.927 291.388 341.927C292.17 341.927 292.841 342.341 292.841 343.398V348.185H293.94V343.398C293.94 341.717 293.036 340.939 291.76 340.939C290.736 340.939 289.986 341.41 289.618 342.15H289.544C289.19 341.386 288.566 340.939 287.625 340.939C286.694 340.939 286.005 341.386 285.707 342.15H285.614V341.033H284.552V348.185ZM301.54 342.634C301.195 341.619 300.422 340.939 299.007 340.939C297.498 340.939 296.38 341.796 296.38 343.007C296.38 343.994 296.967 344.655 298.28 344.963L299.472 345.242C300.194 345.41 300.534 345.754 300.534 346.248C300.534 346.863 299.882 347.365 298.858 347.365C297.959 347.365 297.395 346.979 297.2 346.211L296.157 346.471C296.413 347.687 297.414 348.334 298.876 348.334C300.539 348.334 301.67 347.426 301.67 346.192C301.67 345.196 301.046 344.567 299.77 344.255L298.709 343.994C297.861 343.785 297.479 343.501 297.479 342.951C297.479 342.336 298.131 341.889 299.007 341.889C299.966 341.889 300.362 342.42 300.553 342.914L301.54 342.634Z" fill="#4100FB"/>
<path d="M422.58 343.419L416.807 338.91C416.792 338.898 416.774 338.891 416.754 338.889C416.735 338.887 416.716 338.89 416.699 338.899C416.682 338.907 416.667 338.92 416.657 338.937C416.647 338.953 416.642 338.972 416.642 338.991V339.981C416.642 340.043 416.671 340.104 416.72 340.142L421.33 343.742L416.72 347.341C416.67 347.38 416.642 347.44 416.642 347.503V348.493C416.642 348.578 416.74 348.626 416.807 348.573L422.58 344.064C422.629 344.026 422.668 343.977 422.696 343.921C422.723 343.865 422.737 343.804 422.737 343.742C422.737 343.68 422.723 343.618 422.696 343.562C422.668 343.506 422.629 343.457 422.58 343.419Z" fill="#4100FB"/>
<path d="M144.777 318.745H144.368V319.155V368.328V368.738H144.777H432.444C436.291 368.738 439.41 365.619 439.41 361.772V325.711C439.41 321.864 436.291 318.745 432.444 318.745H144.777Z" stroke="#4100FB" stroke-width="0.819562"/>
<g filter="url(#filter0_d_2044_12636)">
<rect x="258.695" y="72.4663" width="180.304" height="109.002" rx="6.55649" fill="url(#paint1_radial_2044_12636)"/>
</g>
<path d="M318.297 130.174V106.332H319.824V130.174H318.297ZM321.613 114.677C321.563 114.056 321.33 113.572 320.914 113.224C320.504 112.876 319.88 112.703 319.042 112.703C318.508 112.703 318.07 112.768 317.729 112.898C317.394 113.022 317.145 113.193 316.984 113.41C316.822 113.628 316.739 113.876 316.732 114.156C316.72 114.385 316.76 114.593 316.854 114.779C316.953 114.96 317.108 115.124 317.319 115.273C317.53 115.416 317.8 115.546 318.129 115.664C318.459 115.782 318.85 115.888 319.303 115.981L320.868 116.316C321.923 116.54 322.826 116.835 323.578 117.201C324.329 117.567 324.944 117.999 325.422 118.495C325.9 118.986 326.251 119.539 326.474 120.153C326.704 120.768 326.822 121.438 326.828 122.165C326.822 123.419 326.508 124.481 325.887 125.35C325.266 126.219 324.379 126.88 323.224 127.334C322.075 127.787 320.694 128.014 319.079 128.014C317.422 128.014 315.975 127.768 314.739 127.278C313.51 126.787 312.554 126.033 311.871 125.015C311.194 123.99 310.853 122.68 310.847 121.085H315.764C315.795 121.668 315.941 122.159 316.202 122.556C316.462 122.953 316.829 123.255 317.301 123.459C317.779 123.664 318.347 123.767 319.005 123.767C319.557 123.767 320.02 123.698 320.393 123.562C320.765 123.425 321.048 123.236 321.24 122.994C321.433 122.752 321.532 122.475 321.538 122.165C321.532 121.873 321.436 121.618 321.249 121.401C321.069 121.178 320.771 120.979 320.355 120.805C319.939 120.625 319.377 120.457 318.67 120.302L316.77 119.892C315.081 119.526 313.749 118.915 312.774 118.058C311.806 117.195 311.325 116.018 311.331 114.528C311.325 113.317 311.647 112.259 312.299 111.352C312.958 110.44 313.867 109.729 315.028 109.22C316.195 108.71 317.533 108.456 319.042 108.456C320.582 108.456 321.914 108.713 323.038 109.229C324.161 109.744 325.027 110.471 325.636 111.408C326.251 112.339 326.561 113.429 326.567 114.677H321.613ZM336.286 108.456C337.397 108.456 338.449 108.633 339.443 108.987C340.436 109.334 341.315 109.884 342.078 110.635C342.848 111.386 343.45 112.367 343.885 113.578C344.326 114.783 344.549 116.242 344.556 117.955C344.562 119.52 344.366 120.926 343.969 122.174C343.578 123.416 343.016 124.475 342.283 125.35C341.557 126.225 340.681 126.896 339.657 127.362C338.639 127.821 337.502 128.051 336.248 128.051C334.839 128.051 333.6 127.781 332.532 127.241C331.464 126.7 330.614 125.974 329.981 125.061C329.347 124.149 328.978 123.133 328.872 122.016H333.976C334.1 122.593 334.373 123.012 334.795 123.273C335.218 123.528 335.702 123.655 336.248 123.655C337.341 123.655 338.139 123.183 338.642 122.239C339.151 121.289 339.409 120.023 339.415 118.44H339.303C339.061 119.023 338.695 119.523 338.204 119.939C337.714 120.355 337.142 120.675 336.49 120.898C335.839 121.122 335.149 121.234 334.423 121.234C333.274 121.234 332.268 120.976 331.405 120.461C330.542 119.939 329.869 119.228 329.384 118.328C328.9 117.421 328.655 116.391 328.649 115.236C328.643 113.882 328.962 112.696 329.608 111.678C330.254 110.66 331.151 109.868 332.299 109.303C333.448 108.738 334.777 108.456 336.286 108.456ZM336.323 112.367C335.807 112.367 335.348 112.485 334.944 112.721C334.547 112.957 334.234 113.277 334.004 113.681C333.78 114.084 333.672 114.54 333.678 115.05C333.684 115.559 333.799 116.015 334.022 116.419C334.252 116.822 334.563 117.142 334.954 117.378C335.351 117.614 335.807 117.732 336.323 117.732C336.702 117.732 337.052 117.667 337.375 117.536C337.698 117.4 337.977 117.21 338.213 116.968C338.456 116.72 338.642 116.434 338.772 116.111C338.909 115.782 338.974 115.428 338.968 115.05C338.962 114.54 338.844 114.084 338.614 113.681C338.384 113.277 338.071 112.957 337.673 112.721C337.276 112.485 336.826 112.367 336.323 112.367ZM346.789 127.79V124.065L353.904 118.179C354.376 117.788 354.779 117.421 355.115 117.08C355.456 116.732 355.717 116.375 355.897 116.009C356.083 115.643 356.176 115.236 356.176 114.789C356.176 114.298 356.071 113.879 355.86 113.532C355.655 113.184 355.369 112.917 355.003 112.731C354.636 112.538 354.214 112.442 353.736 112.442C353.258 112.442 352.836 112.538 352.47 112.731C352.109 112.923 351.83 113.206 351.631 113.578C351.433 113.951 351.333 114.404 351.333 114.938H346.416C346.416 113.597 346.717 112.442 347.319 111.473C347.922 110.505 348.772 109.76 349.871 109.238C350.97 108.717 352.258 108.456 353.736 108.456C355.264 108.456 356.586 108.701 357.704 109.192C358.827 109.676 359.694 110.359 360.302 111.24C360.917 112.122 361.224 113.156 361.224 114.342C361.224 115.074 361.072 115.804 360.768 116.53C360.463 117.251 359.917 118.048 359.129 118.924C358.34 119.799 357.219 120.842 355.766 122.053L353.978 123.543V123.655H361.429V127.79H346.789ZM371.38 128.051C369.915 128.051 368.614 127.793 367.478 127.278C366.348 126.756 365.457 126.039 364.805 125.126C364.159 124.214 363.83 123.164 363.818 121.979H368.847C368.865 122.637 369.12 123.161 369.611 123.553C370.107 123.944 370.697 124.139 371.38 124.139C371.908 124.139 372.373 124.028 372.777 123.804C373.181 123.574 373.497 123.251 373.727 122.835C373.957 122.419 374.068 121.935 374.062 121.383C374.068 120.824 373.957 120.339 373.727 119.93C373.497 119.514 373.181 119.194 372.777 118.97C372.373 118.741 371.908 118.626 371.38 118.626C370.834 118.626 370.328 118.759 369.862 119.026C369.403 119.287 369.064 119.65 368.847 120.116L364.302 119.222L365.047 108.717H377.862V112.852H369.294L368.921 117.061H369.033C369.331 116.484 369.846 116.006 370.579 115.627C371.312 115.242 372.162 115.05 373.131 115.05C374.267 115.05 375.279 115.313 376.167 115.841C377.061 116.369 377.766 117.098 378.281 118.03C378.803 118.955 379.06 120.023 379.054 121.234C379.06 122.562 378.744 123.742 378.104 124.773C377.471 125.797 376.58 126.601 375.431 127.185C374.283 127.762 372.932 128.051 371.38 128.051ZM383.58 128.088C382.86 128.088 382.242 127.837 381.727 127.334C381.218 126.825 380.966 126.207 380.973 125.48C380.966 124.773 381.218 124.167 381.727 123.664C382.242 123.161 382.86 122.91 383.58 122.91C384.263 122.91 384.866 123.161 385.387 123.664C385.915 124.167 386.182 124.773 386.188 125.48C386.182 125.965 386.055 126.405 385.806 126.803C385.564 127.194 385.247 127.508 384.856 127.743C384.465 127.973 384.04 128.088 383.58 128.088ZM396.407 128.312C394.675 128.305 393.178 127.905 391.918 127.11C390.658 126.315 389.686 125.17 389.003 123.674C388.32 122.177 387.982 120.383 387.988 118.291C387.994 116.192 388.335 114.41 389.012 112.945C389.695 111.48 390.664 110.365 391.918 109.601C393.178 108.838 394.675 108.456 396.407 108.456C398.139 108.456 399.635 108.841 400.896 109.611C402.156 110.374 403.128 111.489 403.811 112.954C404.494 114.419 404.832 116.198 404.826 118.291C404.826 120.395 404.485 122.196 403.802 123.692C403.119 125.189 402.147 126.334 400.887 127.129C399.632 127.917 398.139 128.312 396.407 128.312ZM396.407 124.102C397.301 124.102 398.034 123.636 398.605 122.705C399.182 121.768 399.468 120.296 399.462 118.291C399.462 116.981 399.331 115.909 399.07 115.078C398.81 114.246 398.45 113.631 397.99 113.234C397.531 112.83 397.003 112.628 396.407 112.628C395.513 112.628 394.783 113.081 394.218 113.988C393.653 114.894 393.365 116.329 393.352 118.291C393.346 119.625 393.473 120.724 393.734 121.587C393.995 122.444 394.355 123.078 394.814 123.487C395.28 123.897 395.811 124.102 396.407 124.102ZM415.564 128.312C413.832 128.305 412.336 127.905 411.075 127.11C409.815 126.315 408.843 125.17 408.16 123.674C407.477 122.177 407.139 120.383 407.145 118.291C407.151 116.192 407.493 114.41 408.169 112.945C408.852 111.48 409.821 110.365 411.075 109.601C412.336 108.838 413.832 108.456 415.564 108.456C417.296 108.456 418.793 108.841 420.053 109.611C421.314 110.374 422.285 111.489 422.968 112.954C423.651 114.419 423.99 116.198 423.983 118.291C423.983 120.395 423.642 122.196 422.959 123.692C422.276 125.189 421.304 126.334 420.044 127.129C418.79 127.917 417.296 128.312 415.564 128.312ZM415.564 124.102C416.458 124.102 417.191 123.636 417.762 122.705C418.34 121.768 418.625 120.296 418.619 118.291C418.619 116.981 418.489 115.909 418.228 115.078C417.967 114.246 417.607 113.631 417.147 113.234C416.688 112.83 416.16 112.628 415.564 112.628C414.67 112.628 413.941 113.081 413.376 113.988C412.811 114.894 412.522 116.329 412.509 118.291C412.503 119.625 412.631 120.724 412.891 121.587C413.152 122.444 413.512 123.078 413.972 123.487C414.437 123.897 414.968 124.102 415.564 124.102Z" fill="white"/>
<path d="M331.54 90.2347H330.545V96.8029H330.464L325.9 90.2347H324.923V98.5793H325.933V92.0275H326.014L330.562 98.5793H331.54V90.2347ZM333.431 98.5793H334.393V92.3209H333.431V98.5793ZM333.92 91.2778C334.295 91.2778 334.605 90.9844 334.605 90.6259C334.605 90.2673 334.295 89.9739 333.92 89.9739C333.545 89.9739 333.236 90.2673 333.236 90.6259C333.236 90.9844 333.545 91.2778 333.92 91.2778ZM337.116 94.8145C337.116 93.7225 337.792 93.1032 338.713 93.1032C339.605 93.1032 340.147 93.6858 340.147 94.6678V98.5793H341.109V94.6026C341.109 93.0054 340.257 92.2394 338.99 92.2394C338.045 92.2394 337.458 92.6631 337.164 93.2988H337.083V92.3209H336.154V98.5793H337.116V94.8145ZM345.49 98.7097C346.761 98.7097 347.69 98.0741 347.983 97.1288L347.054 96.868C346.81 97.52 346.243 97.8459 345.49 97.8459C344.361 97.8459 343.583 97.1166 343.538 95.7761H348.081V95.3686C348.081 93.038 346.696 92.2394 345.392 92.2394C343.697 92.2394 342.572 93.5758 342.572 95.499C342.572 97.4222 343.681 98.7097 345.49 98.7097ZM343.538 94.9449C343.603 93.9711 344.292 93.1032 345.392 93.1032C346.435 93.1032 347.103 93.8855 347.103 94.9449H343.538ZM349.528 98.5793H354.792V97.6829H350.913V97.6178L352.787 95.6131C354.221 94.077 354.645 93.3599 354.645 92.435C354.645 91.1474 353.602 90.1206 352.135 90.1206C350.673 90.1206 349.56 91.1148 349.56 92.5816H350.522C350.522 91.6323 351.137 91.0007 352.103 91.0007C353.007 91.0007 353.7 91.5549 353.7 92.435C353.7 93.205 353.248 93.7755 352.282 94.8308L349.528 97.8459V98.5793ZM359.082 98.6934C360.671 98.6934 361.837 97.52 361.837 95.9228C361.837 94.3052 360.712 93.1195 359.18 93.1195C358.618 93.1195 358.072 93.3191 357.73 93.5921H357.681L357.974 91.1311H361.462V90.2347H357.127L356.621 94.3418L357.567 94.4559C357.913 94.2074 358.504 94.0281 359.017 94.0322C360.081 94.0403 360.859 94.8471 360.859 95.9391C360.859 97.0107 360.109 97.797 359.082 97.797C358.227 97.797 357.546 97.247 357.469 96.4932H356.491C356.552 97.7644 357.648 98.6934 359.082 98.6934ZM368.54 98.726C369.632 98.726 370.203 98.1393 370.398 97.7318H370.447V98.5793H371.409V94.4559C371.409 92.4676 369.893 92.2394 369.094 92.2394C368.149 92.2394 367.073 92.5653 366.585 93.7062L367.497 94.0322C367.709 93.5758 368.21 93.0869 369.127 93.0869C370.011 93.0869 370.447 93.5555 370.447 94.3581V94.3907C370.447 94.8552 369.975 94.8145 368.834 94.9612C367.672 95.1119 366.405 95.3686 366.405 96.8029C366.405 98.0252 367.351 98.726 368.54 98.726ZM368.687 97.8622C367.921 97.8622 367.367 97.52 367.367 96.8517C367.367 96.1183 368.035 95.8902 368.785 95.7924C369.192 95.7435 370.284 95.6294 370.447 95.4338V96.3139C370.447 97.0962 369.828 97.8622 368.687 97.8622ZM375.706 98.7097C377.092 98.7097 378.004 97.8622 378.167 96.754H377.206C377.027 97.4385 376.456 97.8459 375.706 97.8459C374.566 97.8459 373.832 96.9006 373.832 95.4501C373.832 94.0322 374.582 93.1032 375.706 93.1032C376.554 93.1032 377.059 93.6247 377.206 94.1952H378.167C378.004 93.0217 377.01 92.2394 375.69 92.2394C373.995 92.2394 372.871 93.5758 372.871 95.4827C372.871 97.357 373.946 98.7097 375.706 98.7097ZM382.116 98.7097C383.501 98.7097 384.414 97.8622 384.577 96.754H383.615C383.436 97.4385 382.865 97.8459 382.116 97.8459C380.975 97.8459 380.241 96.9006 380.241 95.4501C380.241 94.0322 380.991 93.1032 382.116 93.1032C382.963 93.1032 383.468 93.6247 383.615 94.1952H384.577C384.414 93.0217 383.419 92.2394 382.099 92.2394C380.404 92.2394 379.28 93.5758 379.28 95.4827C379.28 97.357 380.355 98.7097 382.116 98.7097ZM388.525 98.7097C390.22 98.7097 391.361 97.4222 391.361 95.4827C391.361 93.5269 390.22 92.2394 388.525 92.2394C386.83 92.2394 385.689 93.5269 385.689 95.4827C385.689 97.4222 386.83 98.7097 388.525 98.7097ZM388.525 97.8459C387.237 97.8459 386.651 96.7377 386.651 95.4827C386.651 94.2278 387.237 93.1032 388.525 93.1032C389.812 93.1032 390.399 94.2278 390.399 95.4827C390.399 96.7377 389.812 97.8459 388.525 97.8459ZM396.773 96.0205C396.773 97.194 395.876 97.7318 395.159 97.7318C394.361 97.7318 393.79 97.1451 393.79 96.2324V92.3209H392.829V96.2976C392.829 97.8948 393.676 98.6608 394.85 98.6608C395.795 98.6608 396.414 98.1556 396.708 97.52H396.773V98.5793H397.734V92.3209H396.773V96.0205ZM400.457 94.8145C400.457 93.7225 401.133 93.1032 402.054 93.1032C402.947 93.1032 403.489 93.6858 403.489 94.6678V98.5793H404.45V94.6026C404.45 93.0054 403.599 92.2394 402.331 92.2394C401.386 92.2394 400.799 92.6631 400.506 93.2988H400.425V92.3209H399.496V98.5793H400.457V94.8145ZM408.929 92.3209H407.593V90.8214H406.631V92.3209H405.686V93.1358H406.631V97.0473C406.631 98.1393 407.511 98.6608 408.326 98.6608C408.685 98.6608 408.913 98.5956 409.043 98.5467L408.848 97.6829C408.766 97.6992 408.636 97.7318 408.424 97.7318C408 97.7318 407.593 97.6015 407.593 96.7866V93.1358H408.929V92.3209Z" fill="white"/>
<path d="M422.579 94.272L416.806 89.7631C416.791 89.7512 416.773 89.7438 416.754 89.7418C416.734 89.7398 416.715 89.7431 416.698 89.7516C416.681 89.76 416.666 89.7731 416.656 89.7894C416.646 89.8057 416.641 89.8246 416.641 89.8438V90.8336C416.641 90.8964 416.67 90.9566 416.719 90.995L421.329 94.5947L416.719 98.1943C416.669 98.2327 416.641 98.2929 416.641 98.3557V99.3456C416.641 99.4313 416.739 99.4787 416.806 99.4262L422.579 94.9174C422.628 94.8791 422.667 94.8301 422.695 94.7742C422.722 94.7183 422.736 94.6569 422.736 94.5947C422.736 94.5324 422.722 94.471 422.695 94.4151C422.667 94.3592 422.628 94.3102 422.579 94.272Z" fill="white"/>
<mask id="mask0_2044_12636" style="mask-type:alpha" maskUnits="userSpaceOnUse" x="258" y="72" width="181" height="110">
<rect x="258.695" y="72.4661" width="180.304" height="109.002" rx="6.55649" fill="#CBCBCB"/>
</mask>
<g mask="url(#mask0_2044_12636)">
<g filter="url(#filter1_d_2044_12636)">
<rect x="271.808" y="140.49" width="154.078" height="95.8887" rx="6.55649" fill="url(#paint2_linear_2044_12636)"/>
<path d="M398.992 147.235L394.7 157.539H391.9L389.788 149.315C389.66 148.809 389.549 148.623 389.158 148.41C388.522 148.062 387.47 147.736 386.546 147.534L386.608 147.235H391.116C391.69 147.235 392.207 147.62 392.337 148.286L393.453 154.248L396.209 147.235H398.992ZM409.964 154.176C409.976 151.456 406.227 151.306 406.253 150.091C406.261 149.721 406.612 149.328 407.377 149.228C407.756 149.178 408.802 149.14 409.989 149.689L410.454 147.504C409.816 147.27 408.996 147.046 407.975 147.046C405.357 147.046 403.514 148.447 403.499 150.453C403.482 151.936 404.813 152.764 405.817 153.257C406.85 153.762 407.196 154.086 407.192 154.538C407.185 155.229 406.369 155.534 405.606 155.546C404.274 155.567 403.502 155.184 402.886 154.895L402.406 157.153C403.025 157.439 404.167 157.688 405.352 157.7C408.135 157.7 409.956 156.317 409.964 154.175L409.964 154.176ZM416.878 157.539H419.328L417.19 147.235H414.928C414.687 147.233 414.45 147.304 414.249 147.439C414.049 147.574 413.892 147.766 413.801 147.991L409.826 157.539H412.607L413.16 156H416.558L416.878 157.539ZM413.923 153.888L415.317 150.019L416.119 153.888L413.923 153.888ZM402.777 147.235L400.587 157.539H397.938L400.129 147.235H402.777Z" fill="white"/>
</g>
</g>
<rect x="278.775" y="147.456" width="65.5649" height="14.7521" rx="2.86847" fill="white"/>
<rect x="278.775" y="147.456" width="65.5649" height="14.7521" rx="2.86847" fill="#4100FB" fill-opacity="0.1"/>
<path d="M290.699 153.812C290.533 152.435 289.491 151.644 288.112 151.644C286.537 151.644 285.335 152.755 285.335 154.705C285.335 156.649 286.517 157.767 288.112 157.767C289.64 157.767 290.562 156.751 290.699 155.654L289.424 155.648C289.305 156.286 288.804 156.652 288.132 156.652C287.227 156.652 286.613 155.98 286.613 154.705C286.613 153.466 287.218 152.758 288.141 152.758C288.831 152.758 289.328 153.157 289.424 153.812H290.699ZM293.599 157.773C294.955 157.773 295.799 156.844 295.799 155.468C295.799 154.083 294.955 153.157 293.599 153.157C292.243 153.157 291.399 154.083 291.399 155.468C291.399 156.844 292.243 157.773 293.599 157.773ZM293.605 156.812C292.979 156.812 292.659 156.239 292.659 155.459C292.659 154.679 292.979 154.103 293.605 154.103C294.219 154.103 294.539 154.679 294.539 155.459C294.539 156.239 294.219 156.812 293.605 156.812ZM296.606 157.686H297.845V155.002C297.845 154.507 298.16 154.179 298.573 154.179C298.98 154.179 299.254 154.458 299.254 154.897V157.686H300.456V154.956C300.456 154.493 300.721 154.179 301.172 154.179C301.568 154.179 301.865 154.426 301.865 154.924V157.686H303.102V154.679C303.102 153.71 302.525 153.157 301.693 153.157C301.038 153.157 300.529 153.492 300.345 154.004H300.299C300.156 153.486 299.699 153.157 299.085 153.157C298.483 153.157 298.026 153.477 297.84 154.004H297.787V153.215H296.606V157.686ZM304.081 157.686H305.321V153.215H304.081V157.686ZM304.704 152.639C305.073 152.639 305.376 152.357 305.376 152.01C305.376 151.667 305.073 151.385 304.704 151.385C304.337 151.385 304.034 151.667 304.034 152.01C304.034 152.357 304.337 152.639 304.704 152.639ZM307.554 155.101C307.557 154.525 307.9 154.187 308.401 154.187C308.898 154.187 309.198 154.513 309.195 155.06V157.686H310.435V154.839C310.435 153.797 309.824 153.157 308.892 153.157C308.229 153.157 307.749 153.483 307.548 154.004H307.495V153.215H306.314V157.686H307.554V155.101ZM313.426 159.455C314.704 159.455 315.612 158.873 315.612 157.729V153.215H314.381V153.966H314.334C314.168 153.602 313.804 153.157 313.056 153.157C312.076 153.157 311.246 153.92 311.246 155.442C311.246 156.929 312.052 157.622 313.059 157.622C313.772 157.622 314.171 157.264 314.334 156.894H314.387V157.712C314.387 158.326 313.994 158.564 313.455 158.564C312.908 158.564 312.632 158.326 312.53 158.055L311.383 158.209C311.531 158.914 312.221 159.455 313.426 159.455ZM313.452 156.69C312.844 156.69 312.512 156.207 312.512 155.436C312.512 154.676 312.838 154.144 313.452 154.144C314.055 154.144 314.392 154.653 314.392 155.436C314.392 156.225 314.049 156.69 313.452 156.69ZM322.215 154.49C322.104 153.666 321.441 153.157 320.311 153.157C319.168 153.157 318.414 153.687 318.417 154.548C318.414 155.218 318.836 155.651 319.709 155.826L320.483 155.98C320.873 156.059 321.051 156.201 321.056 156.425C321.051 156.69 320.762 156.879 320.329 156.879C319.886 156.879 319.592 156.69 319.517 156.326L318.297 156.39C318.414 157.246 319.141 157.773 320.326 157.773C321.484 157.773 322.314 157.182 322.317 156.3C322.314 155.654 321.892 155.267 321.024 155.089L320.215 154.927C319.799 154.836 319.645 154.694 319.648 154.478C319.645 154.211 319.948 154.036 320.332 154.036C320.762 154.036 321.019 154.272 321.08 154.56L322.215 154.49ZM325.117 157.773C326.473 157.773 327.317 156.844 327.317 155.468C327.317 154.083 326.473 153.157 325.117 153.157C323.761 153.157 322.917 154.083 322.917 155.468C322.917 156.844 323.761 157.773 325.117 157.773ZM325.123 156.812C324.497 156.812 324.177 156.239 324.177 155.459C324.177 154.679 324.497 154.103 325.123 154.103C325.737 154.103 326.057 154.679 326.057 155.459C326.057 156.239 325.737 156.812 325.123 156.812ZM330.143 157.773C331.5 157.773 332.344 156.844 332.344 155.468C332.344 154.083 331.5 153.157 330.143 153.157C328.787 153.157 327.943 154.083 327.943 155.468C327.943 156.844 328.787 157.773 330.143 157.773ZM330.149 156.812C329.523 156.812 329.203 156.239 329.203 155.459C329.203 154.679 329.523 154.103 330.149 154.103C330.763 154.103 331.083 154.679 331.083 155.459C331.083 156.239 330.763 156.812 330.149 156.812ZM334.39 155.101C334.392 154.525 334.736 154.187 335.236 154.187C335.734 154.187 336.034 154.513 336.031 155.06V157.686H337.271V154.839C337.271 153.797 336.66 153.157 335.728 153.157C335.065 153.157 334.585 153.483 334.384 154.004H334.331V153.215H333.15V157.686H334.39V155.101Z" fill="url(#paint3_radial_2044_12636)"/>
<rect x="278.775" y="147.456" width="65.5649" height="14.7521" rx="2.86847" stroke="url(#paint4_radial_2044_12636)" stroke-width="0.819562"/>
</g>
</g>
<defs>
<filter id="filter0_d_2044_12636" x="250.5" y="65.9098" width="196.695" height="125.393" filterUnits="userSpaceOnUse" color-interpolation-filters="sRGB">
<feFlood flood-opacity="0" result="BackgroundImageFix"/>
<feColorMatrix in="SourceAlpha" type="matrix" values="0 0 0 0 0 0 0 0 0 0 0 0 0 0 0 0 0 0 127 0" result="hardAlpha"/>
<feOffset dy="1.63912"/>
<feGaussianBlur stdDeviation="4.09781"/>
<feComposite in2="hardAlpha" operator="out"/>
<feColorMatrix type="matrix" values="0 0 0 0 0.254902 0 0 0 0 0 0 0 0 0 0.984314 0 0 0 0.2 0"/>
<feBlend mode="normal" in2="BackgroundImageFix" result="effect1_dropShadow_2044_12636"/>
<feBlend mode="normal" in="SourceGraphic" in2="effect1_dropShadow_2044_12636" result="shape"/>
</filter>
<filter id="filter1_d_2044_12636" x="255.416" y="127.377" width="186.86" height="128.671" filterUnits="userSpaceOnUse" color-interpolation-filters="sRGB">
<feFlood flood-opacity="0" result="BackgroundImageFix"/>
<feColorMatrix in="SourceAlpha" type="matrix" values="0 0 0 0 0 0 0 0 0 0 0 0 0 0 0 0 0 0 127 0" result="hardAlpha"/>
<feOffset dy="3.27825"/>
<feGaussianBlur stdDeviation="8.19562"/>
<feComposite in2="hardAlpha" operator="out"/>
<feColorMatrix type="matrix" values="0 0 0 0 0.028409 0 0 0 0 0.0271181 0 0 0 0 0.0916667 0 0 0 0.2 0"/>
<feBlend mode="normal" in2="BackgroundImageFix" result="effect1_dropShadow_2044_12636"/>
<feBlend mode="normal" in="SourceGraphic" in2="effect1_dropShadow_2044_12636" result="shape"/>
</filter>
<linearGradient id="paint0_linear_2044_12636" x1="51.2899" y1="168.331" x2="179.522" y2="291.976" gradientUnits="userSpaceOnUse">
<stop stop-color="#FFD15C"/>
<stop offset="1" stop-color="#FFBF1B"/>
</linearGradient>
<radialGradient id="paint1_radial_2044_12636" cx="0" cy="0" r="1" gradientUnits="userSpaceOnUse" gradientTransform="translate(439.351 107.07) rotate(160.656) scale(250.727 114.826)">
<stop stop-color="#FF6363"/>
<stop offset="1" stop-color="#4100FB"/>
</radialGradient>
<linearGradient id="paint2_linear_2044_12636" x1="354.664" y1="151.276" x2="354.664" y2="228.264" gradientUnits="userSpaceOnUse">
<stop stop-color="#070717"/>
<stop offset="1" stop-color="#4100FB"/>
</linearGradient>
<radialGradient id="paint3_radial_2044_12636" cx="0" cy="0" r="1" gradientUnits="userSpaceOnUse" gradientTransform="translate(338.297 152.588) rotate(172.368) scale(70.5214 13.6034)">
<stop stop-color="#FF6363"/>
<stop offset="1" stop-color="#4100FB"/>
</radialGradient>
<radialGradient id="paint4_radial_2044_12636" cx="0" cy="0" r="1" gradientUnits="userSpaceOnUse" gradientTransform="translate(344.879 151.99) rotate(172.243) scale(87.9062 17.226)">
<stop stop-color="#FF6363"/>
<stop offset="1" stop-color="#4100FB"/>
</radialGradient>
<clipPath id="clip0_2044_12636">
<rect x="137.695" y="31.1731" width="320.634" height="360.827" fill="white"/>
</clipPath>
<clipPath id="clip1_2044_12636">
<rect x="144.777" y="37.0723" width="307.336" height="546.648" rx="36.3776" fill="white"/>
</clipPath>
</defs>
</svg>
