<svg width="596" height="399" viewBox="0 0 596 399" fill="none" xmlns="http://www.w3.org/2000/svg">
<path d="M169 71.7596L238.993 0.293457L233.688 96.4356L338 91.5139L260.47 156.036L334.955 219.151L232.946 216.345L238.993 311.744L169 240.312L99.0072 311.744L104.312 215.602L0 220.524L77.53 156.036L0 91.5139L104.312 96.4356L99.0072 0.293457L169 71.7596Z" fill="url(#paint0_linear_1705_23300)"/>
<ellipse cx="453.5" cy="289.5" rx="114.5" ry="109.5" fill="#FF6363"/>
<circle cx="132" cy="325" r="74" fill="#4100FB"/>
<path d="M472.652 102.288L494.392 88.2528L517.862 141.359C517.862 141.359 502.151 152.242 489.518 156.441L472.652 102.288Z" fill="#4100FB"/>
<path d="M590.874 99.7198L582.308 121.809C582.308 121.809 508.755 107.252 510.184 105.97C511.614 104.688 521.173 83.8246 521.173 83.8246L590.874 99.7198Z" fill="#4100FB"/>
<path d="M505.158 79.4518C506.068 78.8807 546.311 74.2566 535.147 29.9197L518.978 19.7472C518.978 19.7472 522.465 36.9874 514.024 47.2255C509.113 53.2842 502.445 57.9123 494.803 60.5653L505.158 79.4518Z" fill="#4100FB"/>
<path d="M547.146 110.113C557.133 111.59 565.888 108.94 566.7 104.194C567.512 99.4472 560.073 94.4018 550.085 92.9245C540.097 91.4471 531.342 94.0972 530.53 98.8436C529.719 103.59 537.158 108.635 547.146 110.113Z" fill="#625FFF"/>
<path d="M530.148 44.7549C527.002 42.4897 520.588 45.2968 515.822 51.0248C511.055 56.7528 509.741 63.2325 512.887 65.4978C516.032 67.763 522.446 64.9559 527.213 59.228C531.979 53.5 533.293 47.0202 530.148 44.7549Z" fill="#625FFF"/>
<path d="M500.822 120.095C498.868 113.083 494.163 108.152 490.312 109.081C486.462 110.01 484.924 116.447 486.878 123.459C488.831 130.47 493.537 135.401 497.387 134.472C501.238 133.543 502.776 127.106 500.822 120.095Z" fill="#625FFF"/>
<path d="M30.4874 187.18C41.2357 177.287 55.6618 171.89 70.592 172.178C85.5222 172.465 99.7337 178.413 110.1 188.713C120.466 199.013 126.138 212.821 125.868 227.1C125.598 241.379 119.408 254.959 108.66 264.852L85.745 242.076C90.1898 237.983 92.7492 232.367 92.8602 226.461C92.9151 223.537 92.3673 220.63 91.2479 217.906C90.1286 215.182 88.4598 212.695 86.3366 210.586C84.2134 208.476 81.6776 206.787 78.8738 205.614C76.07 204.441 73.0532 203.807 69.9957 203.749C63.8207 203.631 57.8546 205.863 53.4098 209.956L30.4874 187.18Z" fill="#FF6363"/>
<g clip-path="url(#clip0_1705_23300)">
<rect x="140" y="32" width="326" height="633.071" rx="39.9613" fill="#070717"/>
<g clip-path="url(#clip1_1705_23300)">
<rect x="146.31" y="38.3098" width="313.381" height="466.916" rx="33.6516" fill="#F7F7F9"/>
<g filter="url(#filter0_d_1705_23300)">
<path d="M146.31 51.6807C146.31 44.2962 152.296 38.3098 159.68 38.3098H446.319C453.704 38.3098 459.69 44.2962 459.69 51.6807V717.652H146.31V51.6807Z" fill="white"/>
</g>
<path d="M166.364 116.123C166.364 112.431 169.357 109.438 173.05 109.438H432.947C436.639 109.438 439.632 112.431 439.632 116.123V204.706C439.632 208.398 436.639 211.391 432.947 211.391H173.05C169.357 211.391 166.364 208.398 166.364 204.706V116.123Z" fill="#00845C" fill-opacity="0.1"/>
<path d="M250.554 136.809H251.658V133.479H253.652C255.775 133.479 256.732 132.188 256.732 130.577C256.732 128.966 255.775 127.693 253.634 127.693H250.554V136.809ZM251.658 132.5V128.672H253.599C255.081 128.672 255.646 129.482 255.646 130.577C255.646 131.672 255.081 132.5 253.616 132.5H251.658ZM258.511 136.809H259.615V133.248H261.609C261.689 133.248 261.765 133.248 261.841 133.243L263.764 136.809H265.046L262.985 133.043C264.146 132.647 264.689 131.699 264.689 130.488C264.689 128.877 263.728 127.693 261.591 127.693H258.511V136.809ZM259.615 132.251V128.672H261.556C263.033 128.672 263.603 129.393 263.603 130.488C263.603 131.583 263.033 132.251 261.573 132.251H259.615ZM267.633 127.693H266.529V136.809H267.633V127.693ZM269.846 127.693V136.809H270.879V129.883H270.968L273.817 136.809H274.814L277.663 129.883H277.752V136.809H278.785V127.693H277.467L274.369 135.26H274.262L271.164 127.693H269.846ZM281.372 136.809L282.289 134.227H285.975L286.892 136.809H288.049L284.702 127.693H283.562L280.215 136.809H281.372ZM282.636 133.248L284.097 129.135H284.168L285.628 133.248H282.636ZM289.469 136.809H290.573V133.248H292.568C292.648 133.248 292.723 133.248 292.799 133.243L294.722 136.809H296.004L293.943 133.043C295.105 132.647 295.648 131.699 295.648 130.488C295.648 128.877 294.687 127.693 292.55 127.693H289.469V136.809ZM290.573 132.251V128.672H292.514C293.992 128.672 294.562 129.393 294.562 130.488C294.562 131.583 293.992 132.251 292.532 132.251H290.573ZM296.398 127.693L299.692 133.052V136.809H300.796V133.052L304.09 127.693H302.826L300.298 131.948H300.191L297.662 127.693H296.398ZM314.029 129.972H315.097C315.048 128.596 313.78 127.568 312.017 127.568C310.272 127.568 308.901 128.583 308.901 130.114C308.901 131.343 309.791 132.073 311.216 132.482L312.338 132.803C313.299 133.07 314.154 133.408 314.154 134.316C314.154 135.313 313.192 135.972 311.928 135.972C310.842 135.972 309.88 135.491 309.791 134.459H308.652C308.759 135.954 309.969 136.969 311.928 136.969C314.029 136.969 315.222 135.812 315.222 134.334C315.222 132.625 313.602 132.073 312.658 131.823L311.732 131.574C311.056 131.396 309.969 131.04 309.969 130.061C309.969 129.188 310.771 128.547 311.981 128.547C313.085 128.547 313.922 129.072 314.029 129.972ZM317.411 136.809L318.328 134.227H322.014L322.931 136.809H324.088L320.741 127.693H319.601L316.254 136.809H317.411ZM318.675 133.248L320.135 129.135H320.207L321.667 133.248H318.675ZM325.508 136.809H330.85V135.83H326.612V127.693H325.508V136.809ZM333.509 136.809L334.426 134.227H338.111L339.028 136.809H340.186L336.838 127.693H335.699L332.351 136.809H333.509ZM334.773 133.248L336.233 129.135H336.304L337.764 133.248H334.773ZM341.606 136.809H342.71V133.248H344.704C344.784 133.248 344.86 133.248 344.935 133.243L346.858 136.809H348.14L346.079 133.043C347.241 132.647 347.784 131.699 347.784 130.488C347.784 128.877 346.823 127.693 344.686 127.693H341.606V136.809ZM342.71 132.251V128.672H344.65C346.128 128.672 346.698 129.393 346.698 130.488C346.698 131.583 346.128 132.251 344.668 132.251H342.71ZM348.534 127.693L351.828 133.052V136.809H352.932V133.052L356.226 127.693H354.962L352.434 131.948H352.327L349.799 127.693H348.534Z" fill="#00845C"/>
<path d="M229.372 184.962H228.359V191.66H228.275L223.622 184.962H222.625V193.471H223.655V186.79H223.739L228.375 193.471H229.372V184.962ZM233.977 193.604C235.273 193.604 236.22 192.956 236.519 191.992L235.572 191.726C235.323 192.391 234.745 192.723 233.977 192.723C232.826 192.723 232.032 191.98 231.987 190.613H236.619V190.197C236.619 187.821 235.207 187.007 233.877 187.007C232.149 187.007 231.002 188.369 231.002 190.33C231.002 192.291 232.132 193.604 233.977 193.604ZM231.987 189.765C232.053 188.772 232.755 187.887 233.877 187.887C234.941 187.887 235.622 188.685 235.622 189.765H231.987ZM240.886 187.09H239.523V185.561H238.543V187.09H237.579V187.921H238.543V191.909C238.543 193.022 239.44 193.554 240.271 193.554C240.637 193.554 240.869 193.488 241.002 193.438L240.803 192.557C240.72 192.574 240.587 192.607 240.371 192.607C239.939 192.607 239.523 192.474 239.523 191.643V187.921H240.886V187.09ZM245.651 195.864H246.632V192.491H246.715C246.931 192.84 247.346 193.604 248.576 193.604C250.172 193.604 251.285 192.325 251.285 190.297C251.285 188.286 250.172 187.007 248.56 187.007C247.313 187.007 246.931 187.771 246.715 188.103H246.599V187.09H245.651V195.864ZM246.615 190.28C246.615 188.851 247.247 187.887 248.443 187.887C249.69 187.887 250.305 188.934 250.305 190.28C250.305 191.643 249.673 192.723 248.443 192.723C247.263 192.723 246.615 191.726 246.615 190.28ZM254.659 193.621C255.772 193.621 256.354 193.022 256.553 192.607H256.603V193.471H257.584V189.267C257.584 187.239 256.038 187.007 255.224 187.007C254.26 187.007 253.163 187.339 252.664 188.502L253.595 188.835C253.811 188.369 254.322 187.871 255.257 187.871C256.158 187.871 256.603 188.348 256.603 189.167V189.2C256.603 189.674 256.121 189.632 254.958 189.782C253.774 189.936 252.482 190.197 252.482 191.66C252.482 192.906 253.445 193.621 254.659 193.621ZM254.808 192.74C254.027 192.74 253.462 192.391 253.462 191.71C253.462 190.962 254.143 190.729 254.908 190.629C255.323 190.58 256.437 190.463 256.603 190.264V191.161C256.603 191.959 255.972 192.74 254.808 192.74ZM259.776 195.864C260.661 195.864 261.284 195.395 261.654 194.402L264.371 187.106L263.299 187.09L261.538 192.175H261.471L259.71 187.09H258.646L261.006 193.504L260.823 194.003C260.466 194.975 260.025 195.067 259.311 194.884L259.062 195.748C259.161 195.798 259.444 195.864 259.776 195.864ZM266.731 192.308H265.667L265.618 192.773C265.497 193.899 265.26 195.021 265.152 195.549H265.9C266.1 194.983 266.523 193.704 266.665 192.757L266.731 192.308ZM272.819 184.962H271.838V193.471H272.819V184.962ZM276.492 193.621C277.606 193.621 278.188 193.022 278.387 192.607H278.437V193.471H279.417V189.267C279.417 187.239 277.872 187.007 277.058 187.007C276.094 187.007 274.997 187.339 274.498 188.502L275.429 188.835C275.645 188.369 276.156 187.871 277.091 187.871C277.992 187.871 278.437 188.348 278.437 189.167V189.2C278.437 189.674 277.955 189.632 276.792 189.782C275.608 189.936 274.315 190.197 274.315 191.66C274.315 192.906 275.279 193.621 276.492 193.621ZM276.642 192.74C275.861 192.74 275.296 192.391 275.296 191.71C275.296 190.962 275.977 190.729 276.742 190.629C277.157 190.58 278.271 190.463 278.437 190.264V191.161C278.437 191.959 277.805 192.74 276.642 192.74ZM285.727 188.519C285.42 187.613 284.73 187.007 283.467 187.007C282.121 187.007 281.124 187.771 281.124 188.851C281.124 189.732 281.647 190.322 282.819 190.596L283.883 190.845C284.527 190.995 284.83 191.302 284.83 191.743C284.83 192.291 284.248 192.74 283.334 192.74C282.532 192.74 282.03 192.395 281.855 191.71L280.924 191.942C281.153 193.027 282.046 193.604 283.351 193.604C284.834 193.604 285.844 192.794 285.844 191.693C285.844 190.804 285.287 190.243 284.148 189.965L283.201 189.732C282.445 189.545 282.104 189.292 282.104 188.801C282.104 188.253 282.686 187.854 283.467 187.854C284.323 187.854 284.676 188.328 284.846 188.768L285.727 188.519ZM290.095 187.09H288.732V185.561H287.752V187.09H286.788V187.921H287.752V191.909C287.752 193.022 288.649 193.554 289.48 193.554C289.846 193.554 290.078 193.488 290.211 193.438L290.012 192.557C289.929 192.574 289.796 192.607 289.58 192.607C289.148 192.607 288.732 192.474 288.732 191.643V187.921H290.095V187.09ZM294.86 195.864H295.841V192.491H295.924C296.14 192.84 296.555 193.604 297.785 193.604C299.381 193.604 300.494 192.325 300.494 190.297C300.494 188.286 299.381 187.007 297.769 187.007C296.522 187.007 296.14 187.771 295.924 188.103H295.808V187.09H294.86V195.864ZM295.824 190.28C295.824 188.851 296.456 187.887 297.652 187.887C298.899 187.887 299.513 188.934 299.513 190.28C299.513 191.643 298.882 192.723 297.652 192.723C296.472 192.723 295.824 191.726 295.824 190.28ZM303.868 193.621C304.981 193.621 305.563 193.022 305.762 192.607H305.812V193.471H306.792V189.267C306.792 187.239 305.247 187.007 304.433 187.007C303.469 187.007 302.372 187.339 301.873 188.502L302.804 188.835C303.02 188.369 303.531 187.871 304.466 187.871C305.367 187.871 305.812 188.348 305.812 189.167V189.2C305.812 189.674 305.33 189.632 304.167 189.782C302.983 189.936 301.691 190.197 301.691 191.66C301.691 192.906 302.654 193.621 303.868 193.621ZM304.017 192.74C303.236 192.74 302.671 192.391 302.671 191.71C302.671 190.962 303.352 190.729 304.117 190.629C304.532 190.58 305.646 190.463 305.812 190.264V191.161C305.812 191.959 305.18 192.74 304.017 192.74ZM308.582 193.471H309.563V187.09H308.582V193.471ZM309.081 186.026C309.463 186.026 309.779 185.727 309.779 185.361C309.779 184.996 309.463 184.697 309.081 184.697C308.698 184.697 308.383 184.996 308.383 185.361C308.383 185.727 308.698 186.026 309.081 186.026ZM313.768 193.604C314.998 193.604 315.413 192.84 315.629 192.491H315.746V193.471H316.693V184.962H315.713V188.103H315.629C315.413 187.771 315.031 187.007 313.785 187.007C312.173 187.007 311.059 188.286 311.059 190.297C311.059 192.325 312.173 193.604 313.768 193.604ZM313.901 192.723C312.671 192.723 312.04 191.643 312.04 190.28C312.04 188.934 312.655 187.887 313.901 187.887C315.098 187.887 315.729 188.851 315.729 190.28C315.729 191.726 315.081 192.723 313.901 192.723ZM324.774 193.588C326.423 193.588 327.649 192.553 327.649 191.161C327.649 190.081 327.009 189.296 325.937 189.117V189.051C326.797 188.789 327.333 188.083 327.333 187.123C327.333 185.918 326.382 184.846 324.807 184.846C323.336 184.846 322.115 185.752 322.065 187.09H323.062C323.1 186.242 323.906 185.744 324.79 185.744C325.729 185.744 326.336 186.313 326.336 187.173C326.336 188.07 325.634 188.652 324.624 188.652H323.943V189.566H324.624C325.916 189.566 326.635 190.222 326.635 191.161C326.635 192.063 325.85 192.673 324.757 192.673C323.773 192.673 322.992 192.167 322.929 191.344H321.882C321.945 192.682 323.124 193.588 324.774 193.588ZM335.065 193.604C336.295 193.604 336.71 192.84 336.926 192.491H337.043V193.471H337.99V184.962H337.009V188.103H336.926C336.71 187.771 336.328 187.007 335.082 187.007C333.47 187.007 332.356 188.286 332.356 190.297C332.356 192.325 333.47 193.604 335.065 193.604ZM335.198 192.723C333.968 192.723 333.337 191.643 333.337 190.28C333.337 188.934 333.952 187.887 335.198 187.887C336.394 187.887 337.026 188.851 337.026 190.28C337.026 191.726 336.378 192.723 335.198 192.723ZM341.8 193.621C342.913 193.621 343.495 193.022 343.694 192.607H343.744V193.471H344.725V189.267C344.725 187.239 343.179 187.007 342.365 187.007C341.401 187.007 340.304 187.339 339.805 188.502L340.736 188.835C340.952 188.369 341.463 187.871 342.398 187.871C343.3 187.871 343.744 188.348 343.744 189.167V189.2C343.744 189.674 343.262 189.632 342.099 189.782C340.915 189.936 339.623 190.197 339.623 191.66C339.623 192.906 340.587 193.621 341.8 193.621ZM341.949 192.74C341.168 192.74 340.603 192.391 340.603 191.71C340.603 190.962 341.285 190.729 342.049 190.629C342.464 190.58 343.578 190.463 343.744 190.264V191.161C343.744 191.959 343.113 192.74 341.949 192.74ZM346.917 195.864C347.802 195.864 348.425 195.395 348.795 194.402L351.512 187.106L350.44 187.09L348.679 192.175H348.612L346.851 187.09H345.787L348.147 193.504L347.964 194.003C347.607 194.975 347.166 195.067 346.452 194.884L346.203 195.748C346.302 195.798 346.585 195.864 346.917 195.864ZM357.33 188.519C357.022 187.613 356.333 187.007 355.07 187.007C353.724 187.007 352.726 187.771 352.726 188.851C352.726 189.732 353.25 190.322 354.422 190.596L355.485 190.845C356.129 190.995 356.432 191.302 356.432 191.743C356.432 192.291 355.851 192.74 354.937 192.74C354.135 192.74 353.632 192.395 353.458 191.71L352.527 191.942C352.756 193.027 353.649 193.604 354.953 193.604C356.437 193.604 357.446 192.794 357.446 191.693C357.446 190.804 356.889 190.243 355.751 189.965L354.804 189.732C354.048 189.545 353.707 189.292 353.707 188.801C353.707 188.253 354.289 187.854 355.07 187.854C355.926 187.854 356.279 188.328 356.449 188.768L357.33 188.519ZM364.091 193.621C365.204 193.621 365.786 193.022 365.985 192.607H366.035V193.471H367.015V189.267C367.015 187.239 365.47 187.007 364.656 187.007C363.692 187.007 362.595 187.339 362.096 188.502L363.027 188.835C363.243 188.369 363.754 187.871 364.689 187.871C365.59 187.871 366.035 188.348 366.035 189.167V189.2C366.035 189.674 365.553 189.632 364.39 189.782C363.206 189.936 361.913 190.197 361.913 191.66C361.913 192.906 362.877 193.621 364.091 193.621ZM364.24 192.74C363.459 192.74 362.894 192.391 362.894 191.71C362.894 190.962 363.575 190.729 364.34 190.629C364.755 190.58 365.869 190.463 366.035 190.264V191.161C366.035 191.959 365.403 192.74 364.24 192.74ZM371.381 195.997C372.91 195.997 374.14 195.299 374.14 193.654V187.09H373.192V188.103H373.093C372.877 187.771 372.478 187.007 371.231 187.007C369.619 187.007 368.506 188.286 368.506 190.247C368.506 192.241 369.669 193.371 371.215 193.371C372.461 193.371 372.86 192.64 373.076 192.291H373.159V193.588C373.159 194.651 372.411 195.133 371.381 195.133C370.222 195.133 369.815 194.522 369.553 194.169L368.772 194.718C369.171 195.386 369.956 195.997 371.381 195.997ZM371.348 192.491C370.118 192.491 369.486 191.56 369.486 190.231C369.486 188.934 370.101 187.887 371.348 187.887C372.544 187.887 373.176 188.851 373.176 190.231C373.176 191.643 372.528 192.491 371.348 192.491ZM378.527 193.604C380.255 193.604 381.419 192.291 381.419 190.314C381.419 188.319 380.255 187.007 378.527 187.007C376.799 187.007 375.635 188.319 375.635 190.314C375.635 192.291 376.799 193.604 378.527 193.604ZM378.527 192.723C377.214 192.723 376.616 191.593 376.616 190.314C376.616 189.034 377.214 187.887 378.527 187.887C379.84 187.887 380.438 189.034 380.438 190.314C380.438 191.593 379.84 192.723 378.527 192.723ZM383.63 193.538C384.041 193.538 384.378 193.201 384.378 192.79C384.378 192.379 384.041 192.042 383.63 192.042C383.219 192.042 382.882 192.379 382.882 192.79C382.882 193.201 383.219 193.538 383.63 193.538Z" fill="#696466"/>
<path d="M241.965 173.804H244.662L244.7 171.553C248.897 171.23 251.366 169.15 251.385 165.637C251.366 162.674 249.6 160.594 245.308 159.673L244.88 159.578L244.937 156.264C245.64 156.587 246.001 157.185 246.067 158.002H251.119C251.1 154.621 248.802 152.256 245.004 151.753L245.042 149.493H242.345L242.307 151.706C238.299 152.085 235.555 154.46 235.583 157.85C235.574 160.889 237.682 162.579 241.129 163.32L242.126 163.538L242.069 167.099C240.863 166.748 240.17 165.884 240.104 164.535H235.09C235.109 168.922 237.777 171.135 242.003 171.534L241.965 173.804ZM244.766 167.08L244.814 164.26C245.65 164.621 245.982 165.057 245.991 165.637C245.982 166.292 245.564 166.814 244.766 167.08ZM242.202 158.875C241.414 158.533 241.063 158.087 241.091 157.47C241.101 156.862 241.452 156.378 242.24 156.14L242.202 158.875ZM262.966 151.924H258.104L253.318 154.849V159.331L257.572 156.786H257.686V171.373H262.966V151.924ZM271.147 168.714H267.197V169.777C267.197 172.36 266.323 175.067 266.019 176.121H269.248C269.704 175.067 270.872 172.522 271.071 169.777L271.147 168.714ZM281.608 171.638C286.365 171.638 289.718 169.217 289.699 165.789C289.718 163.405 288.122 161.724 284.988 161.382V161.23C287.305 160.984 288.996 159.493 288.977 157.318C288.996 154.042 285.957 151.658 281.646 151.658C277.239 151.658 274.105 154.175 274.086 157.736H279.139C279.158 156.558 280.193 155.723 281.646 155.723C282.975 155.723 283.906 156.53 283.887 157.66C283.906 158.837 282.804 159.673 281.228 159.673H279.253V163.32H281.228C282.937 163.32 284.134 164.155 284.115 165.333C284.134 166.539 283.108 167.384 281.646 167.384C280.126 167.384 279.044 166.577 279.025 165.447H273.707C273.726 169.074 277.002 171.638 281.608 171.638ZM299.653 171.638C304.411 171.638 307.763 169.217 307.744 165.789C307.763 163.405 306.168 161.724 303.034 161.382V161.23C305.351 160.984 307.041 159.493 307.022 157.318C307.041 154.042 304.002 151.658 299.691 151.658C295.285 151.658 292.151 154.175 292.132 157.736H297.184C297.203 156.558 298.238 155.723 299.691 155.723C301.021 155.723 301.951 156.53 301.932 157.66C301.951 158.837 300.85 159.673 299.273 159.673H297.298V163.32H299.273C300.983 163.32 302.179 164.155 302.16 165.333C302.179 166.539 301.154 167.384 299.691 167.384C298.172 167.384 297.089 166.577 297.07 165.447H291.752C291.771 169.074 295.047 171.638 299.653 171.638ZM318.572 171.904C323.862 171.914 327.148 168.125 327.157 161.686C327.167 155.286 323.862 151.658 318.572 151.658C313.273 151.658 310.007 155.267 309.988 161.686C309.969 168.096 313.273 171.895 318.572 171.904ZM318.572 167.612C316.749 167.612 315.438 165.779 315.457 161.686C315.476 157.688 316.749 155.912 318.572 155.912C320.396 155.912 321.678 157.688 321.687 161.686C321.697 165.779 320.396 167.612 318.572 167.612ZM331.661 171.676C333.057 171.676 334.301 170.499 334.32 169.017C334.301 167.574 333.057 166.396 331.661 166.396C330.189 166.396 328.983 167.574 329.002 169.017C328.983 170.499 330.189 171.676 331.661 171.676ZM344.918 171.638C349.656 171.638 352.752 168.761 352.743 164.687C352.752 160.993 350.169 158.382 346.703 158.382C344.728 158.382 343.132 159.255 342.525 160.433H342.411L342.79 156.14H351.527V151.924H338.46L337.7 162.636L342.335 163.548C342.781 162.598 343.797 162.028 344.918 162.028C346.532 162.028 347.662 163.139 347.653 164.839C347.662 166.539 346.532 167.65 344.918 167.65C343.522 167.65 342.373 166.795 342.335 165.447H337.207C337.235 169.074 340.435 171.638 344.918 171.638ZM354.829 168.334H364.288V171.373H369.34V168.334H371.581V164.231H369.34V151.924H362.654L354.829 164.231V168.334ZM364.402 164.231H360.033V164.079L364.25 157.394H364.402V164.231Z" fill="#00845C"/>
<rect x="146.31" y="231.448" width="313.381" height="437.062" fill="#F7F7F9"/>
<path d="M218.292 357.781H220.091V354.266H223.743V357.781H225.538V349.272H223.743V352.783H220.091V349.272H218.292V357.781ZM229.871 357.906C231.808 357.906 233.012 356.58 233.012 354.615C233.012 352.638 231.808 351.316 229.871 351.316C227.935 351.316 226.731 352.638 226.731 354.615C226.731 356.58 227.935 357.906 229.871 357.906ZM229.88 356.535C228.986 356.535 228.529 355.716 228.529 354.603C228.529 353.489 228.986 352.667 229.88 352.667C230.756 352.667 231.213 353.489 231.213 354.603C231.213 355.716 230.756 356.535 229.88 356.535ZM235.262 357.781H237.132L238.229 353.768H238.307L239.404 357.781H241.278L243.011 351.399H241.224L240.252 355.662H240.198L239.151 351.399H237.393L236.363 355.687H236.305L235.316 351.399H233.525L235.262 357.781ZM247.921 357.781H249.791L250.888 353.768H250.967L252.064 357.781H253.937L255.67 351.399H253.883L252.911 355.662H252.857L251.81 351.399H250.053L249.022 355.687H248.964L247.975 351.399H246.185L247.921 357.781ZM259.362 357.906C260.941 357.906 262.005 357.137 262.254 355.953L260.617 355.845C260.438 356.331 259.981 356.584 259.391 356.584C258.506 356.584 257.946 355.999 257.946 355.047V355.043H262.291V354.557C262.291 352.388 260.978 351.316 259.292 351.316C257.414 351.316 256.196 352.65 256.196 354.619C256.196 356.643 257.397 357.906 259.362 357.906ZM257.946 353.946C257.983 353.219 258.536 352.638 259.321 352.638C260.089 352.638 260.621 353.186 260.625 353.946H257.946ZM269.037 357.906C270.737 357.906 271.804 356.909 271.888 355.442H270.217C270.114 356.123 269.665 356.506 269.058 356.506C268.231 356.506 267.696 355.812 267.696 354.59C267.696 353.385 268.236 352.696 269.058 352.696C269.706 352.696 270.122 353.124 270.217 353.759H271.888C271.813 352.284 270.695 351.316 269.029 351.316C267.093 351.316 265.897 352.658 265.897 354.615C265.897 356.555 267.072 357.906 269.037 357.906ZM274.841 357.901C275.784 357.901 276.394 357.49 276.706 356.896H276.756V357.781H278.434V353.477C278.434 351.956 277.146 351.316 275.725 351.316C274.197 351.316 273.191 352.048 272.946 353.211L274.583 353.344C274.703 352.92 275.081 352.608 275.717 352.608C276.32 352.608 276.664 352.912 276.664 353.435V353.46C276.664 353.871 276.228 353.925 275.119 354.033C273.856 354.15 272.722 354.574 272.722 355.999C272.722 357.262 273.623 357.901 274.841 357.901ZM275.347 356.68C274.803 356.68 274.413 356.427 274.413 355.94C274.413 355.442 274.824 355.197 275.447 355.11C275.833 355.056 276.465 354.964 276.677 354.823V355.5C276.677 356.169 276.124 356.68 275.347 356.68ZM281.577 349.272H279.807V357.781H281.577V349.272ZM285.878 357.906C287.578 357.906 288.645 356.909 288.729 355.442H287.058C286.954 356.123 286.506 356.506 285.899 356.506C285.072 356.506 284.536 355.812 284.536 354.59C284.536 353.385 285.077 352.696 285.899 352.696C286.547 352.696 286.963 353.124 287.058 353.759H288.729C288.654 352.284 287.536 351.316 285.87 351.316C283.934 351.316 282.737 352.658 282.737 354.615C282.737 356.555 283.913 357.906 285.878 357.906ZM293.954 355.064C293.958 355.92 293.372 356.368 292.737 356.368C292.068 356.368 291.636 355.899 291.632 355.147V351.399H289.862V355.463C289.866 356.954 290.738 357.864 292.022 357.864C292.982 357.864 293.672 357.37 293.958 356.622H294.025V357.781H295.724V351.399H293.954V355.064ZM298.91 349.272H297.14V357.781H298.91V349.272ZM302.147 357.901C303.09 357.901 303.701 357.49 304.013 356.896H304.062V357.781H305.741V353.477C305.741 351.956 304.453 351.316 303.032 351.316C301.503 351.316 300.498 352.048 300.253 353.211L301.889 353.344C302.01 352.92 302.388 352.608 303.024 352.608C303.626 352.608 303.971 352.912 303.971 353.435V353.46C303.971 353.871 303.535 353.925 302.425 354.033C301.162 354.15 300.028 354.574 300.028 355.999C300.028 357.262 300.93 357.901 302.147 357.901ZM302.654 356.68C302.11 356.68 301.719 356.427 301.719 355.94C301.719 355.442 302.13 355.197 302.754 355.11C303.14 355.056 303.772 354.964 303.983 354.823V355.5C303.983 356.169 303.431 356.68 302.654 356.68ZM310.508 351.399H309.308V349.871H307.538V351.399H306.665V352.729H307.538V356.053C307.529 357.303 308.381 357.922 309.665 357.868C310.122 357.852 310.446 357.76 310.625 357.702L310.346 356.385C310.259 356.402 310.072 356.443 309.906 356.443C309.553 356.443 309.308 356.31 309.308 355.82V352.729H310.508V351.399ZM314.501 357.906C316.08 357.906 317.143 357.137 317.393 355.953L315.756 355.845C315.577 356.331 315.12 356.584 314.53 356.584C313.645 356.584 313.084 355.999 313.084 355.047V355.043H317.43V354.557C317.43 352.388 316.117 351.316 314.43 351.316C312.552 351.316 311.335 352.65 311.335 354.619C311.335 356.643 312.536 357.906 314.501 357.906ZM313.084 353.946C313.122 353.219 313.674 352.638 314.459 352.638C315.228 352.638 315.76 353.186 315.764 353.946H313.084ZM325.942 351.719H327.666C327.641 350.203 326.395 349.156 324.5 349.156C322.635 349.156 321.268 350.186 321.276 351.732C321.272 352.987 322.157 353.705 323.594 354.05L324.521 354.283C325.447 354.507 325.963 354.773 325.967 355.346C325.963 355.97 325.373 356.393 324.459 356.393C323.524 356.393 322.851 355.961 322.793 355.11H321.052C321.098 356.95 322.415 357.901 324.479 357.901C326.557 357.901 327.778 356.909 327.782 355.351C327.778 353.934 326.71 353.182 325.231 352.849L324.467 352.667C323.727 352.496 323.108 352.222 323.121 351.611C323.121 351.063 323.607 350.66 324.488 350.66C325.348 350.66 325.875 351.05 325.942 351.719ZM330.779 357.901C331.722 357.901 332.333 357.49 332.644 356.896H332.694V357.781H334.373V353.477C334.373 351.956 333.085 351.316 331.664 351.316C330.135 351.316 329.13 352.048 328.884 353.211L330.521 353.344C330.642 352.92 331.02 352.608 331.656 352.608C332.258 352.608 332.603 352.912 332.603 353.435V353.46C332.603 353.871 332.167 353.925 331.057 354.033C329.794 354.15 328.66 354.574 328.66 355.999C328.66 357.262 329.562 357.901 330.779 357.901ZM331.286 356.68C330.742 356.68 330.351 356.427 330.351 355.94C330.351 355.442 330.762 355.197 331.386 355.11C331.772 355.056 332.403 354.964 332.615 354.823V355.5C332.615 356.169 332.063 356.68 331.286 356.68ZM339.178 351.399H337.91V350.972C337.91 350.539 338.085 350.286 338.604 350.286C338.816 350.286 339.032 350.332 339.173 350.377L339.485 349.048C339.265 348.981 338.779 348.873 338.235 348.873C337.034 348.873 336.141 349.551 336.141 350.938V351.399H335.239V352.729H336.141V357.781H337.91V352.729H339.178V351.399ZM342.939 357.906C344.517 357.906 345.581 357.137 345.83 355.953L344.193 355.845C344.015 356.331 343.558 356.584 342.968 356.584C342.083 356.584 341.522 355.999 341.522 355.047V355.043H345.868V354.557C345.868 352.388 344.555 351.316 342.868 351.316C340.99 351.316 339.773 352.65 339.773 354.619C339.773 356.643 340.973 357.906 342.939 357.906ZM341.522 353.946C341.559 353.219 342.112 352.638 342.897 352.638C343.666 352.638 344.197 353.186 344.202 353.946H341.522ZM354.38 351.719H356.104C356.079 350.203 354.832 349.156 352.938 349.156C351.072 349.156 349.706 350.186 349.714 351.732C349.71 352.987 350.595 353.705 352.032 354.05L352.959 354.283C353.885 354.507 354.4 354.773 354.404 355.346C354.4 355.97 353.81 356.393 352.896 356.393C351.962 356.393 351.288 355.961 351.23 355.11H349.489C349.535 356.95 350.852 357.901 352.917 357.901C354.994 357.901 356.216 356.909 356.22 355.351C356.216 353.934 355.148 353.182 353.669 352.849L352.905 352.667C352.165 352.496 351.546 352.222 351.559 351.611C351.559 351.063 352.045 350.66 352.925 350.66C353.785 350.66 354.313 351.05 354.38 351.719ZM357.397 360.174H359.167V356.759H359.221C359.466 357.291 360.002 357.885 361.032 357.885C362.486 357.885 363.621 356.734 363.621 354.599C363.621 352.405 362.436 351.316 361.036 351.316C359.969 351.316 359.458 351.952 359.221 352.471H359.142V351.399H357.397V360.174ZM359.129 354.59C359.129 353.452 359.611 352.725 360.471 352.725C361.348 352.725 361.813 353.485 361.813 354.59C361.813 355.704 361.34 356.476 360.471 356.476C359.62 356.476 359.129 355.729 359.129 354.59ZM367.709 357.906C369.288 357.906 370.351 357.137 370.6 355.953L368.963 355.845C368.785 356.331 368.328 356.584 367.738 356.584C366.853 356.584 366.292 355.999 366.292 355.047V355.043H370.638V354.557C370.638 352.388 369.325 351.316 367.638 351.316C365.76 351.316 364.543 352.65 364.543 354.619C364.543 356.643 365.744 357.906 367.709 357.906ZM366.292 353.946C366.329 353.219 366.882 352.638 367.667 352.638C368.436 352.638 368.968 353.186 368.972 353.946H366.292ZM373.563 354.092C373.567 353.269 374.057 352.787 374.772 352.787C375.482 352.787 375.91 353.252 375.906 354.033V357.781H377.676V353.718C377.676 352.23 376.803 351.316 375.474 351.316C374.527 351.316 373.841 351.782 373.554 352.525H373.48V351.399H371.793V357.781H373.563V354.092ZM381.422 357.885C382.453 357.885 382.989 357.291 383.234 356.759H383.308V357.781H385.053V349.272H383.288V352.471H383.234C382.997 351.952 382.486 351.316 381.418 351.316C380.018 351.316 378.834 352.405 378.834 354.599C378.834 356.734 379.968 357.885 381.422 357.885ZM381.983 356.476C381.115 356.476 380.641 355.704 380.641 354.59C380.641 353.485 381.107 352.725 381.983 352.725C382.843 352.725 383.325 353.452 383.325 354.59C383.325 355.729 382.835 356.476 381.983 356.476ZM387.543 357.889C388.075 357.889 388.536 357.444 388.54 356.892C388.536 356.348 388.075 355.903 387.543 355.903C386.995 355.903 386.542 356.348 386.546 356.892C386.542 357.444 386.995 357.889 387.543 357.889Z" fill="#FF6363"/>
<path d="M217.553 360.145H389.284V361.263H217.553V360.145Z" fill="#FF6363"/>
<rect x="166.364" y="266.227" width="273.268" height="65.1832" rx="6.68545" fill="white"/>
<path d="M423.53 293.804H422.061C421.961 293.804 421.867 293.853 421.808 293.934L416.244 301.604L410.679 293.934C410.621 293.853 410.527 293.804 410.427 293.804H408.958C408.83 293.804 408.756 293.949 408.83 294.053L415.737 303.574C415.987 303.919 416.5 303.919 416.749 303.574L423.655 294.053C423.732 293.949 423.657 293.804 423.53 293.804Z" fill="#4100FB"/>
<path d="M355.198 307.271H356.879L356.893 305.626C359.977 305.391 361.765 303.753 361.772 301.281C361.765 298.852 359.934 297.563 357.399 296.993L356.979 296.894L357.007 293.333C357.954 293.553 358.531 294.159 358.617 295.056H361.572C361.537 292.699 359.778 291.011 357.036 290.712L357.05 289.038H355.369L355.355 290.697C352.57 290.968 350.604 292.649 350.618 295.078C350.611 297.229 352.128 298.461 354.593 299.052L355.276 299.223L355.241 302.99C354.08 302.77 353.296 302.057 353.218 300.868H350.234C350.305 303.745 352.192 305.355 355.212 305.619L355.198 307.271ZM356.922 302.99L356.95 299.664C358.054 300.013 358.652 300.462 358.659 301.274C358.652 302.136 357.997 302.777 356.922 302.99ZM355.298 296.459C354.407 296.153 353.766 295.69 353.781 294.871C353.781 294.109 354.322 293.518 355.326 293.311L355.298 296.459ZM369.359 305.647C372.607 305.661 374.822 303.532 374.815 300.562C374.822 297.827 372.913 295.854 370.327 295.854C368.725 295.854 367.308 296.623 366.652 297.912H366.553C366.567 295.07 367.564 293.304 369.466 293.304C370.584 293.304 371.389 293.917 371.624 294.935H374.665C374.373 292.535 372.379 290.662 369.466 290.662C365.862 290.662 363.547 293.582 363.533 298.482C363.526 303.824 366.36 305.633 369.359 305.647ZM369.345 303.225C367.92 303.225 366.866 302.079 366.866 300.654C366.873 299.237 367.949 298.083 369.366 298.083C370.79 298.083 371.83 299.201 371.823 300.647C371.83 302.107 370.769 303.225 369.345 303.225ZM382.599 305.647C385.847 305.661 388.062 303.532 388.055 300.562C388.062 297.827 386.153 295.854 383.568 295.854C381.965 295.854 380.548 296.623 379.893 297.912H379.793C379.807 295.07 380.804 293.304 382.706 293.304C383.824 293.304 384.629 293.917 384.864 294.935H387.905C387.613 292.535 385.619 290.662 382.706 290.662C379.102 290.662 376.787 293.582 376.773 298.482C376.766 303.824 379.601 305.633 382.599 305.647ZM382.585 303.225C381.16 303.225 380.106 302.079 380.106 300.654C380.113 299.237 381.189 298.083 382.606 298.083C384.031 298.083 385.071 299.201 385.063 300.647C385.071 302.107 384.009 303.225 382.585 303.225ZM395.961 305.768C399.629 305.768 401.844 302.976 401.851 298.169C401.858 293.397 399.614 290.662 395.961 290.662C392.3 290.662 390.078 293.39 390.07 298.169C390.056 302.962 392.285 305.761 395.961 305.768ZM395.961 303.211C394.287 303.211 393.204 301.53 393.211 298.169C393.219 294.857 394.294 293.19 395.961 293.19C397.62 293.19 398.703 294.857 398.703 298.169C398.71 301.53 397.627 303.211 395.961 303.211Z" fill="#4100FB"/>
<path d="M180.06 284.481L183.354 289.841V293.598H184.458V289.841L187.752 284.481H186.488L183.959 288.737H183.852L181.324 284.481H180.06ZM190.848 293.74C192.7 293.74 193.946 292.334 193.946 290.215C193.946 288.078 192.7 286.671 190.848 286.671C188.996 286.671 187.75 288.078 187.75 290.215C187.75 292.334 188.996 293.74 190.848 293.74ZM190.848 292.797C189.441 292.797 188.8 291.586 188.8 290.215C188.8 288.844 189.441 287.615 190.848 287.615C192.254 287.615 192.895 288.844 192.895 290.215C192.895 291.586 192.254 292.797 190.848 292.797ZM199.859 290.802C199.859 292.084 198.879 292.672 198.096 292.672C197.223 292.672 196.6 292.031 196.6 291.034V286.76H195.55V291.105C195.55 292.85 196.476 293.687 197.758 293.687C198.79 293.687 199.467 293.135 199.787 292.44H199.859V293.598H200.909V286.76H199.859V290.802ZM202.833 293.598H203.884V289.271C203.884 288.345 204.614 287.668 205.611 287.668C205.891 287.668 206.181 287.722 206.252 287.74V286.671C206.132 286.662 205.856 286.654 205.7 286.654C204.881 286.654 204.169 287.116 203.919 287.793H203.848V286.76H202.833V293.598ZM214.068 286.76H212.536V286.066C212.536 285.389 212.821 285.033 213.516 285.033C213.818 285.033 213.996 285.104 214.103 285.14L214.406 284.232C214.246 284.161 213.925 284.054 213.409 284.054C212.429 284.054 211.486 284.642 211.486 285.817V286.76H210.382V287.651H211.486V293.598H212.536V287.651H214.068V286.76ZM218.036 293.74C219.888 293.74 221.134 292.334 221.134 290.215C221.134 288.078 219.888 286.671 218.036 286.671C216.184 286.671 214.938 288.078 214.938 290.215C214.938 292.334 216.184 293.74 218.036 293.74ZM218.036 292.797C216.629 292.797 215.988 291.586 215.988 290.215C215.988 288.844 216.629 287.615 218.036 287.615C219.443 287.615 220.084 288.844 220.084 290.215C220.084 291.586 219.443 292.797 218.036 292.797ZM222.738 293.598H223.788V289.271C223.788 288.345 224.518 287.668 225.516 287.668C225.796 287.668 226.085 287.722 226.157 287.74V286.671C226.036 286.662 225.76 286.654 225.605 286.654C224.785 286.654 224.073 287.116 223.824 287.793H223.753V286.76H222.738V293.598ZM230.804 286.76H229.344V285.122H228.293V286.76H227.26V287.651H228.293V291.924C228.293 293.117 229.255 293.687 230.145 293.687C230.537 293.687 230.786 293.616 230.928 293.562L230.715 292.618C230.626 292.636 230.483 292.672 230.252 292.672C229.789 292.672 229.344 292.529 229.344 291.639V287.651H230.804V286.76ZM233.435 289.485C233.435 288.292 234.174 287.615 235.18 287.615C236.154 287.615 236.746 288.252 236.746 289.324V293.598H237.797V289.253C237.797 287.508 236.867 286.671 235.482 286.671C234.45 286.671 233.809 287.134 233.488 287.829H233.399V286.76H232.384V293.598H233.435V289.485ZM239.717 293.598H240.767V286.76H239.717V293.598ZM240.251 285.621C240.66 285.621 240.999 285.3 240.999 284.909C240.999 284.517 240.66 284.196 240.251 284.196C239.841 284.196 239.503 284.517 239.503 284.909C239.503 285.3 239.841 285.621 240.251 285.621ZM245.451 296.304C247.089 296.304 248.407 295.556 248.407 293.794V286.76H247.392V287.847H247.285C247.054 287.49 246.626 286.671 245.291 286.671C243.564 286.671 242.371 288.042 242.371 290.143C242.371 292.28 243.617 293.491 245.273 293.491C246.609 293.491 247.036 292.707 247.267 292.334H247.356V293.722C247.356 294.862 246.555 295.378 245.451 295.378C244.209 295.378 243.773 294.724 243.493 294.346L242.656 294.933C243.083 295.65 243.924 296.304 245.451 296.304ZM245.416 292.547C244.098 292.547 243.421 291.55 243.421 290.126C243.421 288.737 244.08 287.615 245.416 287.615C246.698 287.615 247.374 288.648 247.374 290.126C247.374 291.639 246.68 292.547 245.416 292.547ZM251.381 289.485C251.381 288.292 252.142 287.615 253.179 287.615C254.167 287.615 254.764 288.238 254.764 289.324V293.598H255.814V289.253C255.814 287.495 254.879 286.671 253.482 286.671C252.404 286.671 251.79 287.121 251.47 287.829H251.381V284.481H250.33V293.598H251.381V289.485ZM260.71 286.76H259.25V285.122H258.199V286.76H257.166V287.651H258.199V291.924C258.199 293.117 259.161 293.687 260.051 293.687C260.443 293.687 260.692 293.616 260.834 293.562L260.621 292.618C260.532 292.636 260.389 292.672 260.158 292.672C259.695 292.672 259.25 292.529 259.25 291.639V287.651H260.71V286.76ZM263.487 284.481H262.437V293.598H263.487V284.481ZM266.088 296.162C267.036 296.162 267.704 295.659 268.1 294.595L271.011 286.778L269.863 286.76L267.975 292.209H267.904L266.017 286.76H264.877L267.406 293.633L267.21 294.168C266.827 295.209 266.355 295.307 265.59 295.111L265.322 296.037C265.429 296.091 265.732 296.162 266.088 296.162ZM185.477 306.103H187.324C187.298 304.478 185.962 303.357 183.933 303.357C181.934 303.357 180.469 304.461 180.478 306.116C180.474 307.461 181.422 308.231 182.962 308.6L183.955 308.85C184.947 309.09 185.499 309.375 185.504 309.989C185.499 310.657 184.867 311.111 183.888 311.111C182.886 311.111 182.165 310.648 182.103 309.736H180.238C180.287 311.707 181.698 312.727 183.91 312.727C186.136 312.727 187.445 311.663 187.449 309.994C187.445 308.476 186.301 307.67 184.716 307.314L183.897 307.118C183.105 306.936 182.441 306.642 182.455 305.987C182.455 305.4 182.975 304.968 183.919 304.968C184.841 304.968 185.406 305.386 185.477 306.103ZM190.66 312.727C191.67 312.727 192.325 312.286 192.658 311.65H192.712V312.598H194.51V307.986C194.51 306.357 193.13 305.671 191.608 305.671C189.97 305.671 188.893 306.455 188.63 307.701L190.384 307.844C190.513 307.39 190.918 307.056 191.599 307.056C192.244 307.056 192.614 307.381 192.614 307.942V307.968C192.614 308.409 192.147 308.467 190.958 308.583C189.605 308.707 188.389 309.161 188.389 310.688C188.389 312.041 189.355 312.727 190.66 312.727ZM191.203 311.418C190.62 311.418 190.201 311.147 190.201 310.626C190.201 310.092 190.642 309.829 191.31 309.736C191.724 309.678 192.4 309.58 192.627 309.428V310.154C192.627 310.871 192.035 311.418 191.203 311.418ZM199.658 305.76H198.301V305.302C198.301 304.839 198.488 304.567 199.044 304.567C199.271 304.567 199.502 304.616 199.654 304.665L199.988 303.241C199.752 303.17 199.231 303.054 198.648 303.054C197.361 303.054 196.404 303.779 196.404 305.266V305.76H195.438V307.185H196.404V312.598H198.301V307.185H199.658V305.76ZM203.688 312.731C205.379 312.731 206.519 311.908 206.786 310.639L205.032 310.523C204.841 311.044 204.351 311.316 203.719 311.316C202.771 311.316 202.17 310.688 202.17 309.669V309.664H206.826V309.143C206.826 306.82 205.42 305.671 203.612 305.671C201.6 305.671 200.296 307.1 200.296 309.21C200.296 311.378 201.582 312.731 203.688 312.731ZM202.17 308.489C202.21 307.71 202.802 307.087 203.643 307.087C204.467 307.087 205.037 307.674 205.041 308.489H202.17ZM215.946 306.103H217.793C217.767 304.478 216.431 303.357 214.401 303.357C212.403 303.357 210.938 304.461 210.947 306.116C210.943 307.461 211.891 308.231 213.431 308.6L214.424 308.85C215.416 309.09 215.968 309.375 215.973 309.989C215.968 310.657 215.336 311.111 214.357 311.111C213.355 311.111 212.634 310.648 212.572 309.736H210.707C210.756 311.707 212.167 312.727 214.379 312.727C216.605 312.727 217.914 311.663 217.918 309.994C217.914 308.476 216.77 307.67 215.185 307.314L214.366 307.118C213.573 306.936 212.91 306.642 212.924 305.987C212.924 305.4 213.444 304.968 214.388 304.968C215.31 304.968 215.875 305.386 215.946 306.103ZM219.179 315.162H221.075V311.503H221.133C221.396 312.073 221.97 312.709 223.074 312.709C224.632 312.709 225.847 311.476 225.847 309.188C225.847 306.838 224.579 305.671 223.078 305.671C221.934 305.671 221.387 306.352 221.133 306.909H221.049V305.76H219.179V315.162ZM221.035 309.179C221.035 307.959 221.552 307.18 222.473 307.18C223.412 307.18 223.911 307.995 223.911 309.179C223.911 310.372 223.403 311.2 222.473 311.2C221.56 311.2 221.035 310.399 221.035 309.179ZM230.227 312.731C231.919 312.731 233.058 311.908 233.326 310.639L231.572 310.523C231.38 311.044 230.891 311.316 230.259 311.316C229.31 311.316 228.709 310.688 228.709 309.669V309.664H233.366V309.143C233.366 306.82 231.959 305.671 230.152 305.671C228.14 305.671 226.835 307.1 226.835 309.21C226.835 311.378 228.122 312.731 230.227 312.731ZM228.709 308.489C228.749 307.71 229.342 307.087 230.183 307.087C231.006 307.087 231.576 307.674 231.581 308.489H228.709ZM236.499 308.645C236.504 307.764 237.029 307.247 237.795 307.247C238.556 307.247 239.014 307.746 239.01 308.583V312.598H240.906V308.244C240.906 306.651 239.972 305.671 238.547 305.671C237.532 305.671 236.798 306.17 236.491 306.967H236.41V305.76H234.603V312.598H236.499V308.645ZM244.92 312.709C246.024 312.709 246.599 312.073 246.861 311.503H246.941V312.598H248.811V303.481H246.919V306.909H246.861C246.608 306.352 246.06 305.671 244.916 305.671C243.416 305.671 242.147 306.838 242.147 309.188C242.147 311.476 243.362 312.709 244.92 312.709ZM245.521 311.2C244.591 311.2 244.084 310.372 244.084 309.179C244.084 307.995 244.582 307.18 245.521 307.18C246.443 307.18 246.959 307.959 246.959 309.179C246.959 310.399 246.434 311.2 245.521 311.2ZM254.1 312.598H255.151V305.76H254.1V312.598ZM254.635 304.621C255.044 304.621 255.382 304.3 255.382 303.909C255.382 303.517 255.044 303.196 254.635 303.196C254.225 303.196 253.887 303.517 253.887 303.909C253.887 304.3 254.225 304.621 254.635 304.621ZM261.918 307.292C261.589 306.321 260.85 305.671 259.497 305.671C258.054 305.671 256.986 306.49 256.986 307.648C256.986 308.591 257.547 309.224 258.802 309.517L259.942 309.784C260.632 309.945 260.957 310.274 260.957 310.746C260.957 311.334 260.334 311.814 259.354 311.814C258.495 311.814 257.956 311.445 257.769 310.71L256.772 310.96C257.017 312.121 257.974 312.74 259.372 312.74C260.961 312.74 262.043 311.872 262.043 310.693C262.043 309.74 261.446 309.139 260.227 308.841L259.212 308.591C258.402 308.391 258.037 308.12 258.037 307.594C258.037 307.007 258.66 306.579 259.497 306.579C260.414 306.579 260.792 307.087 260.975 307.559L261.918 307.292ZM264.39 312.669C264.831 312.669 265.191 312.308 265.191 311.868C265.191 311.427 264.831 311.066 264.39 311.066C263.949 311.066 263.589 311.427 263.589 311.868C263.589 312.308 263.949 312.669 264.39 312.669ZM264.39 307.594C264.831 307.594 265.191 307.234 265.191 306.793C265.191 306.352 264.831 305.992 264.39 305.992C263.949 305.992 263.589 306.352 263.589 306.793C263.589 307.234 263.949 307.594 264.39 307.594Z" fill="#070717"/>
<path d="M239.539 81.3071H242.248C242.209 78.9241 240.25 77.2788 237.273 77.2788C234.342 77.2788 232.194 78.8979 232.207 81.3266C232.2 83.2983 233.591 84.4278 235.85 84.9697L237.306 85.3353C238.762 85.6879 239.571 86.1057 239.578 87.0067C239.571 87.986 238.644 88.6519 237.208 88.6519C235.739 88.6519 234.681 87.9729 234.59 86.6345H231.854C231.926 89.5268 233.996 91.0219 237.241 91.0219C240.505 91.0219 242.424 89.4615 242.431 87.0132C242.424 84.7869 240.746 83.6052 238.422 83.0829L237.221 82.7956C236.059 82.5279 235.086 82.097 235.106 81.1373C235.106 80.2755 235.869 79.6422 237.254 79.6422C238.605 79.6422 239.434 80.2559 239.539 81.3071ZM247.14 91.0219C248.622 91.0219 249.581 90.3755 250.071 89.4419H250.15V90.8325H252.787V84.0687C252.787 81.6792 250.763 80.6738 248.53 80.6738C246.128 80.6738 244.548 81.8228 244.163 83.6509L246.735 83.8598C246.924 83.1939 247.518 82.7042 248.517 82.7042C249.464 82.7042 250.006 83.1808 250.006 84.0034V84.0426C250.006 84.689 249.32 84.7738 247.577 84.9436C245.592 85.1264 243.81 85.7923 243.81 88.0317C243.81 90.0164 245.227 91.0219 247.14 91.0219ZM247.936 89.1024C247.081 89.1024 246.467 88.7041 246.467 87.9403C246.467 87.1568 247.114 86.7716 248.093 86.6345C248.7 86.5497 249.692 86.406 250.025 86.184V87.2482C250.025 88.2994 249.157 89.1024 247.936 89.1024ZM257.726 77.4616H254.945V90.8325H257.726V77.4616ZM262.814 91.0219C264.296 91.0219 265.255 90.3755 265.745 89.4419H265.823V90.8325H268.461V84.0687C268.461 81.6792 266.437 80.6738 264.204 80.6738C261.802 80.6738 260.222 81.8228 259.837 83.6509L262.409 83.8598C262.598 83.1939 263.192 82.7042 264.191 82.7042C265.138 82.7042 265.68 83.1808 265.68 84.0034V84.0426C265.68 84.689 264.994 84.7738 263.251 84.9436C261.266 85.1264 259.484 85.7923 259.484 88.0317C259.484 90.0164 260.901 91.0219 262.814 91.0219ZM263.61 89.1024C262.755 89.1024 262.141 88.7041 262.141 87.9403C262.141 87.1568 262.788 86.7716 263.767 86.6345C264.374 86.5497 265.366 86.406 265.699 86.184V87.2482C265.699 88.2994 264.831 89.1024 263.61 89.1024ZM270.619 90.8325H273.4V85.159C273.4 83.9251 274.301 83.0763 275.528 83.0763C275.914 83.0763 276.442 83.1416 276.704 83.2265V80.7586C276.456 80.6999 276.109 80.6607 275.829 80.6607C274.706 80.6607 273.785 81.3136 273.42 82.554H273.315V80.8043H270.619V90.8325ZM280.164 94.5931C282.233 94.5931 283.33 93.5354 283.898 91.9163L287.796 80.8174L284.852 80.8043L282.756 88.1688H282.651L280.575 80.8043H277.65L281.248 91.1198L281.084 91.5442C280.719 92.4843 280.02 92.53 279.041 92.2297L278.414 94.3058C278.812 94.4756 279.459 94.5931 280.164 94.5931ZM298.005 91.0284C301.048 91.0284 302.941 88.9457 302.941 85.8576C302.941 82.7499 301.048 80.6738 298.005 80.6738C294.963 80.6738 293.07 82.7499 293.07 85.8576C293.07 88.9457 294.963 91.0284 298.005 91.0284ZM298.018 88.8739C296.615 88.8739 295.897 87.5877 295.897 85.838C295.897 84.0883 296.615 82.7956 298.018 82.7956C299.396 82.7956 300.114 84.0883 300.114 85.838C300.114 87.5877 299.396 88.8739 298.018 88.8739ZM313.758 80.8043H310.813L308.737 87.9795H308.633L306.55 80.8043H303.612L307.118 90.8325H310.252L313.758 80.8043ZM319.41 91.0284C321.891 91.0284 323.562 89.8206 323.954 87.9599L321.382 87.7901C321.101 88.554 320.383 88.9522 319.456 88.9522C318.065 88.9522 317.184 88.0317 317.184 86.5366V86.5301H324.013V85.7662C324.013 82.3582 321.95 80.6738 319.299 80.6738C316.348 80.6738 314.435 82.7695 314.435 85.8641C314.435 89.0436 316.322 91.0284 319.41 91.0284ZM317.184 84.8065C317.242 83.6639 318.111 82.7499 319.345 82.7499C320.552 82.7499 321.388 83.6117 321.395 84.8065H317.184ZM325.828 90.8325H328.609V85.159C328.609 83.9251 329.51 83.0763 330.737 83.0763C331.122 83.0763 331.651 83.1416 331.912 83.2265V80.7586C331.664 80.6999 331.318 80.6607 331.038 80.6607C329.915 80.6607 328.994 81.3136 328.628 82.554H328.524V80.8043H325.828V90.8325ZM343.005 80.8043H340.06L337.984 87.9795H337.88L335.797 80.8043H332.859L336.365 90.8325H339.499L343.005 80.8043ZM344.428 90.8325H347.209V80.8043H344.428V90.8325ZM345.825 79.5116C346.654 79.5116 347.333 78.8784 347.333 78.1014C347.333 77.331 346.654 76.6977 345.825 76.6977C345.003 76.6977 344.324 77.331 344.324 78.1014C344.324 78.8784 345.003 79.5116 345.825 79.5116ZM354.007 91.0284C356.488 91.0284 358.16 89.8206 358.551 87.9599L355.979 87.7901C355.698 88.554 354.98 88.9522 354.053 88.9522C352.663 88.9522 351.781 88.0317 351.781 86.5366V86.5301H358.61V85.7662C358.61 82.3582 356.547 80.6738 353.896 80.6738C350.945 80.6738 349.033 82.7695 349.033 85.8641C349.033 89.0436 350.919 91.0284 354.007 91.0284ZM351.781 84.8065C351.84 83.6639 352.708 82.7499 353.942 82.7499C355.15 82.7499 355.986 83.6117 355.992 84.8065H351.781ZM362.332 90.8325H365.27L366.993 84.5257H367.117L368.841 90.8325H371.785L374.508 80.8043H371.7L370.173 87.5029H370.088L368.443 80.8043H365.681L364.062 87.542H363.97L362.416 80.8043H359.603L362.332 90.8325Z" fill="#070717"/>
</g>
</g>
<defs>
<filter id="filter0_d_1705_23300" x="129.596" y="21.5962" width="346.808" height="712.769" filterUnits="userSpaceOnUse" color-interpolation-filters="sRGB">
<feFlood flood-opacity="0" result="BackgroundImageFix"/>
<feColorMatrix in="SourceAlpha" type="matrix" values="0 0 0 0 0 0 0 0 0 0 0 0 0 0 0 0 0 0 127 0" result="hardAlpha"/>
<feOffset/>
<feGaussianBlur stdDeviation="8.35682"/>
<feComposite in2="hardAlpha" operator="out"/>
<feColorMatrix type="matrix" values="0 0 0 0 0.028409 0 0 0 0 0.0271181 0 0 0 0 0.0916667 0 0 0 0.06 0"/>
<feBlend mode="normal" in2="BackgroundImageFix" result="effect1_dropShadow_1705_23300"/>
<feBlend mode="normal" in="SourceGraphic" in2="effect1_dropShadow_1705_23300" result="shape"/>
</filter>
<linearGradient id="paint0_linear_1705_23300" x1="52.2169" y1="171.624" x2="182.735" y2="297.504" gradientUnits="userSpaceOnUse">
<stop stop-color="#FFD15C"/>
<stop offset="1" stop-color="#FFBF1B"/>
</linearGradient>
<clipPath id="clip0_1705_23300">
<rect x="140" y="32" width="326" height="367" fill="white"/>
</clipPath>
<clipPath id="clip1_1705_23300">
<rect x="146.31" y="38.3098" width="313.381" height="466.916" rx="33.6516" fill="white"/>
</clipPath>
</defs>
</svg>
