<svg viewBox="0 0 566 333" fill="none" xmlns="http://www.w3.org/2000/svg">
<g clip-path="url(#clip0_8_62)">
<path d="M95.3458 246.726L74.578 224.385L-0.00146484 293.713L20.7663 316.054L95.3458 246.726Z" fill="#FF6363"/>
<path d="M180.543 182.548L220.645 138.138L217.584 197.896L277.352 194.845L232.931 234.947L277.352 275.038L217.584 271.987L220.645 331.745L180.543 287.335L140.442 331.745L143.492 271.987L83.7344 275.038L128.155 234.947L83.7344 194.845L143.492 197.896L140.442 138.138L180.543 182.548Z" fill="#FFD15C"/>
<path d="M446.886 94.4519L408.562 108.926L425.399 153.505L463.722 139.031L446.886 94.4519Z" fill="#F3B462"/>
<path d="M416.043 133.402C452.869 133.402 482.722 103.549 482.722 66.7228C482.722 29.8967 452.869 0.0432129 416.043 0.0432129C379.217 0.0432129 349.363 29.8967 349.363 66.7228C349.363 103.549 379.217 133.402 416.043 133.402Z" fill="#FFD15C"/>
<path d="M363.315 56.5801L386.48 109.075L306.298 123.772C304.565 124.09 302.779 123.953 301.115 123.375C299.45 122.798 297.963 121.798 296.8 120.475C295.636 119.151 294.836 117.549 294.476 115.824C294.117 114.099 294.21 112.31 294.748 110.632C295.191 109.242 295.928 107.963 296.909 106.883C297.89 105.803 299.092 104.946 300.433 104.371L322.179 95.0179C333.953 89.9553 344.202 81.9081 351.914 71.6715L363.315 56.5801Z" fill="#FF6363"/>
<path d="M412.961 91.1466C425.76 91.1466 436.137 80.7705 436.137 67.9709C436.137 55.1713 425.76 44.7952 412.961 44.7952C400.161 44.7952 389.785 55.1713 389.785 67.9709C389.785 80.7705 400.161 91.1466 412.961 91.1466Z" fill="white"/>
<path d="M412.968 71.8104C415.089 71.8104 416.808 70.0913 416.808 67.9708C416.808 65.8503 415.089 64.1313 412.968 64.1313C410.848 64.1313 409.129 65.8503 409.129 67.9708C409.129 70.0913 410.848 71.8104 412.968 71.8104Z" fill="#070717"/>
<path d="M565.965 212.531V191.914V78.6047C554.42 68.7997 538.417 68.4251 527.244 69.9721C518.292 71.2508 509.931 75.2859 503.271 81.542L439.002 141.309L348.887 144.283C347.5 144.324 346.122 144.525 344.78 144.882C329.368 149.098 315.641 158.168 305.54 170.81C295.438 183.451 289.474 199.024 288.491 215.326L286.022 256.289C285.797 260.802 283.974 265.077 280.893 268.313C277.812 271.55 273.686 273.526 269.285 273.873C264.59 274.156 259.976 272.527 256.45 269.341C252.923 266.156 250.771 261.671 250.461 256.866C248.333 222.712 243.63 149.218 242.545 148.848C241.13 148.358 163.805 143.215 163.805 143.215V332.888H411.096H413.043C456.531 332.748 486.106 332.654 522.032 332.538C529.993 332.561 538.262 332.536 547.062 332.495C557.518 332.446 565.965 323.95 565.965 313.494V212.531Z" fill="#4100FB"/>
<path d="M163.285 141.22V99.8601H232.791V122.257L244.214 135.28L244.182 164.353H163.285V141.22Z" fill="#F3B462"/>
<path d="M248.838 45.6972L248.828 45.6936C243.547 43.7903 237.723 46.5284 235.819 51.8093L213.908 112.602C212.005 117.883 214.743 123.707 220.024 125.611L220.034 125.614C225.315 127.518 231.139 124.78 233.042 119.499L254.953 58.7055C256.857 53.4246 254.119 47.6006 248.838 45.6972Z" fill="#F3B462"/>
<path d="M170.378 78.8066H170.367C164.754 78.8066 160.203 83.3572 160.203 88.9707V110.728C160.203 116.341 164.754 120.892 170.367 120.892H170.378C175.991 120.892 180.542 116.341 180.542 110.728V88.9707C180.542 83.3572 175.991 78.8066 170.378 78.8066Z" fill="#FFD15C"/>
<path d="M187.882 78.8066H187.871C182.258 78.8066 177.707 83.3572 177.707 88.9707V110.728C177.707 116.341 182.258 120.892 187.871 120.892H187.882C193.495 120.892 198.046 116.341 198.046 110.728V88.9707C198.046 83.3572 193.495 78.8066 187.882 78.8066Z" fill="#FFD15C"/>
<path d="M208.214 78.8066H208.203C202.59 78.8066 198.039 83.3572 198.039 88.9707V110.728C198.039 116.341 202.59 120.892 208.203 120.892H208.214C213.827 120.892 218.378 116.341 218.378 110.728V88.9707C218.378 83.3572 213.827 78.8066 208.214 78.8066Z" fill="#FFD15C"/>
<path d="M244.773 131.046V131.035C244.773 125.421 240.223 120.871 234.609 120.871H210.655C205.042 120.871 200.491 125.421 200.491 131.035V131.046C200.491 136.659 205.042 141.21 210.655 141.21H234.609C240.223 141.21 244.773 136.659 244.773 131.046Z" fill="#FFD15C"/>
<path d="M267.319 34.7518C268.185 38.902 268.224 43.1819 267.437 47.3475C267.36 47.6555 267.405 47.9812 267.562 48.2571C267.719 48.533 267.975 48.7381 268.279 48.83C268.586 48.9118 268.913 48.8692 269.189 48.7114C269.464 48.5536 269.666 48.2934 269.751 47.9874C270.628 43.4034 270.588 38.691 269.634 34.1225C269.314 32.608 266.999 33.248 267.319 34.7624V34.7518Z" fill="#070717"/>
<path d="M274.813 31.4668C276.094 35.6993 275.772 40.2557 273.906 44.2652C273.752 44.5412 273.71 44.8661 273.789 45.1721C273.869 45.4782 274.064 45.7416 274.333 45.9076C274.607 46.0675 274.934 46.1123 275.242 46.0324C275.549 45.9525 275.813 45.7544 275.975 45.4811C278.138 40.9166 278.548 35.7165 277.127 30.8696C277.022 30.5871 276.814 30.3543 276.546 30.2172C276.277 30.0802 275.967 30.0487 275.677 30.129C275.386 30.2094 275.136 30.3957 274.976 30.6512C274.816 30.9068 274.758 31.213 274.813 31.5095V31.4668Z" fill="#070717"/>
<path d="M221.598 47.6445C221.918 42.9043 224.04 38.4663 227.528 35.2407C228.658 34.1742 226.963 32.489 225.832 33.5449C221.903 37.2266 219.53 42.2706 219.198 47.6445C219.102 49.191 221.502 49.1803 221.598 47.6445Z" fill="#070717"/>
<path d="M215.079 38.1526C215.82 36.5738 216.694 35.061 217.692 33.6305L217.873 33.3959C217.745 33.5559 217.969 33.2678 217.969 33.2678L218.353 32.8199C218.639 32.5054 218.942 32.2064 219.26 31.9241L219.484 31.732C219.484 31.732 219.687 31.572 219.559 31.668C219.74 31.5294 219.932 31.4014 220.124 31.2734C220.316 31.1454 220.454 31.0708 220.614 30.9855L220.934 30.8255C220.934 30.8255 221.276 30.6655 221.073 30.7508C221.373 30.6568 221.627 30.453 221.783 30.1801C221.939 29.9072 221.986 29.5854 221.916 29.279C221.828 28.9722 221.624 28.7119 221.347 28.5543C221.069 28.3967 220.741 28.3544 220.433 28.4365C216.732 29.9936 214.727 33.5025 212.967 36.9687C212.808 37.2431 212.763 37.5697 212.844 37.8768C212.925 38.1838 213.125 38.446 213.399 38.6058C213.674 38.7656 214 38.8099 214.307 38.7289C214.614 38.6479 214.877 38.4483 215.036 38.1739L215.079 38.1526Z" fill="#070717"/>
<path d="M561.702 34.5242C556.305 29.3302 548.114 29.7888 541.8 32.9244C538.16 34.8832 534.802 37.3265 531.818 40.1875C528.842 42.8538 525.984 45.6695 523.285 48.6131C512.343 60.5263 503.64 74.9244 500.43 90.9118C498.757 99.0348 498.583 107.395 499.918 115.581C500.607 119.727 501.755 123.783 503.341 127.675C504.661 131.196 506.569 134.467 508.983 137.349C511.207 139.987 514.346 141.686 517.771 142.105C519.276 142.273 520.799 142.112 522.236 141.633C523.672 141.155 524.987 140.369 526.09 139.332C531.231 134.128 526.656 126.609 520.875 124.465C513.655 121.788 506.488 127.408 502.189 132.677C494.501 142.265 489.934 153.979 489.103 166.241C488.868 169.664 488.655 173.451 490.042 176.693C491.204 179.402 493.934 181.46 496.974 180.5C498.45 179.973 499.704 178.959 500.529 177.626C501.355 176.293 501.703 174.72 501.518 173.163C501.048 169.963 498.318 167.595 495.321 166.625C491.588 165.42 487.642 166.55 484.24 168.203C477.516 171.691 471.455 176.329 466.333 181.908C455.827 192.968 448.575 206.694 442.869 220.73C439.776 228.409 437.28 236.344 433.622 243.788C429.933 251.338 424.662 258.005 418.168 263.338C405.007 274.195 389.19 282.312 373.054 287.687C369.115 288.988 365.137 290.129 361.119 291.11C359.615 291.473 360.255 293.787 361.759 293.425C376.912 289.724 391.408 283.721 404.74 275.624C411.248 271.798 417.361 267.336 422.989 262.303C428.549 257.104 433.051 250.879 436.246 243.97C439.445 237.261 441.76 230.211 444.469 223.322C447.009 216.736 449.976 210.323 453.353 204.124C459.976 192.126 468.647 180.927 480.208 173.333C483.173 171.392 486.383 169.387 489.914 168.715C493.049 168.107 496.91 168.939 498.595 171.915C499.982 174.357 498.339 178.815 495.022 178.314C492.047 177.845 491.481 173.707 491.396 171.318C491.219 163.902 492.513 156.526 495.204 149.614C497.806 142.756 501.773 135.813 507.223 130.821C509.643 128.398 512.768 126.804 516.15 126.267C517.732 126.118 519.326 126.376 520.78 127.017C522.234 127.657 523.5 128.658 524.458 129.925C526.272 132.304 526.592 135.557 524.299 137.754C523.229 138.664 521.95 139.297 520.577 139.594C519.204 139.892 517.779 139.846 516.427 139.46C509.655 137.679 506.285 129.339 504.322 123.377C501.965 116.035 501.027 108.31 501.56 100.617C502.509 85.5471 508.685 71.3942 517.558 59.3211C521.92 53.4509 526.835 48.0116 532.234 43.0778C537.566 38.1824 543.784 32.8605 551.431 32.9458C554.621 32.8912 557.709 34.0632 560.059 36.22C561.179 37.2865 562.875 35.6014 561.755 34.5242H561.702Z" fill="url(#paint0_radial_8_62)"/>
<path d="M129.065 83.2924L144.316 56.8762L54.0117 4.73884L38.7603 31.155L129.065 83.2924Z" fill="#4100FB"/>
<path d="M504.889 182.161C514.474 185.517 523.3 190.738 530.856 197.523C538.412 204.309 544.549 212.524 548.911 221.695C553.274 230.866 555.777 240.811 556.274 250.954C556.772 261.098 555.254 271.239 551.81 280.793C548.366 290.347 543.063 299.123 536.207 306.616C529.351 314.108 521.079 320.168 511.868 324.445C502.657 328.723 492.69 331.132 482.542 331.535C472.394 331.938 462.267 330.327 452.746 326.794L468.04 284.388C471.968 285.804 476.136 286.433 480.307 286.238C484.478 286.043 488.57 285.028 492.348 283.252C496.127 281.476 499.519 278.973 502.33 275.886C505.142 272.799 507.318 269.188 508.734 265.26C510.15 261.332 510.778 257.164 510.583 252.993C510.388 248.822 509.374 244.731 507.597 240.952C505.821 237.173 503.318 233.781 500.231 230.97C497.144 228.158 493.533 225.983 489.605 224.567L504.889 182.161Z" fill="#FF6363"/>
</g>
<defs>
<radialGradient id="paint0_radial_8_62" cx="0" cy="0" r="1" gradientUnits="userSpaceOnUse" gradientTransform="translate(562.517 114.039) rotate(142.903) scale(332.061 234.093)">
<stop stop-color="#FF6363"/>
<stop offset="1" stop-color="#4100FB"/>
</radialGradient>
<clipPath id="clip0_8_62">
<rect width="566" height="333" fill="white"/>
</clipPath>
</defs>
</svg>
