<svg  viewBox="0 0 528 262" fill="none" xmlns="http://www.w3.org/2000/svg">
<path d="M372.833 111.546C359.272 135.026 336.939 152.157 310.748 159.171C284.556 166.184 256.65 162.506 233.171 148.945C209.691 135.384 192.56 113.051 185.546 86.8589C178.532 60.6671 182.211 32.7618 195.772 9.28198L247.682 39.257C244.906 44.066 243.104 49.3748 242.38 54.8802C241.655 60.3856 242.022 65.9798 243.46 71.3434C246.363 82.1757 253.45 91.411 263.162 97.0177C272.875 102.625 284.417 104.143 295.249 101.24C306.081 98.3372 315.316 91.25 320.923 81.5376L372.833 111.546Z" fill="#070717"/>
<path d="M356.393 52.0773L396.345 7.8147L393.31 67.3727L452.857 64.327L408.595 104.29L452.857 144.242L393.31 141.196L396.345 200.754L356.393 156.491L316.43 200.754L319.476 141.196L259.918 144.242L304.181 104.29L259.918 64.327L319.476 67.3727L316.43 7.8147L356.393 52.0773Z" fill="url(#paint0_linear_1_26)"/>
<path d="M307.746 31.2619C320.824 24.8235 336.858 32.4935 344.697 43.5788C349.5 50.2971 352.176 58.3031 353.71 66.3875C354.485 70.6163 355.019 74.8855 355.311 79.1747C355.703 82.841 355.815 86.5319 355.647 90.2152C355.222 95.713 352.994 104.895 345.816 104.178L347.082 105.443C345.962 92.7234 352.434 79.9137 362.97 72.7923C369.118 68.6381 376.172 67.0929 383.495 66.6674C391.232 66.2084 398.958 66.3987 406.673 65.5477C435.282 62.1885 462.01 49.8716 485.446 33.5013C498.767 24.116 511.278 13.6284 522.844 2.14909C523.08 1.913 523.213 1.59282 523.213 1.25893C523.213 0.925053 523.08 0.604797 522.844 0.368707C522.608 0.132617 522.288 0 521.954 0C521.62 0 521.3 0.132617 521.064 0.368707C500.125 20.9716 476.275 39.3014 449.301 51.1705C436.025 57.0813 421.96 61.0268 407.546 62.8828C399.708 63.8457 391.87 63.7002 384.032 64.1256C376.743 64.5175 369.543 65.8388 363.217 69.6683C351.113 76.9913 343.353 91.2565 344.585 105.499C344.596 105.828 344.731 106.141 344.964 106.374C345.197 106.607 345.51 106.742 345.839 106.753C352.747 107.448 356.308 100.584 357.54 94.8172C358.214 91.318 358.421 87.7448 358.156 84.1911C357.932 79.5779 357.562 74.9869 356.924 70.4185C355.67 61.4607 353.251 52.5589 348.504 44.8105C344.362 37.9903 338.242 32.5928 330.958 29.3359C323.119 25.9095 314.274 25.3049 306.503 29.1344C305.047 29.851 306.324 32.0232 307.768 31.3066L307.746 31.2619Z" fill="url(#paint1_radial_1_26)"/>
<path d="M248.302 252.601L304.16 184.865L124.931 37.0668L69.0731 104.804L248.302 252.601Z" fill="#4100FB"/>
<path d="M298.238 157.253L394.109 105.846C396.739 104.438 399.753 103.912 402.705 104.348C405.657 104.783 408.39 106.157 410.502 108.265C411.825 109.591 412.867 111.171 413.565 112.91C414.262 114.65 414.601 116.512 414.56 118.385C414.519 120.259 414.1 122.104 413.328 123.812C412.555 125.519 411.445 127.052 410.065 128.319L385.655 150.714L298.238 157.253Z" fill="#FF6363"/>
<path d="M411.812 138.173L424.958 125.733C430.166 119.981 434.508 113.5 437.846 106.496L451.652 77.4614C452.314 76.0643 453.244 74.8111 454.39 73.7736C455.536 72.7361 456.875 71.9345 458.33 71.4146C459.786 70.8947 461.33 70.6667 462.874 70.7436C464.418 70.8205 465.931 71.2008 467.328 71.8628C469.82 73.0534 471.813 75.0815 472.962 77.5926C474.11 80.1038 474.339 82.9385 473.61 85.6017L468.336 104.939C463.7 121.978 455.906 137.995 445.359 152.158L411.812 138.173Z" fill="#FF6363"/>
<path d="M440.856 152.471L451.281 140.972C456.49 135.216 460.831 128.732 464.169 121.724L477.975 92.6895C478.636 91.2914 479.565 90.0373 480.711 88.999C481.857 87.9606 483.196 87.1585 484.652 86.6384C486.108 86.1184 487.652 85.8906 489.197 85.9683C490.741 86.0459 492.255 86.4274 493.651 87.0909C496.141 88.2751 498.136 90.2959 499.288 92.8007C500.44 95.3054 500.676 98.1352 499.955 100.796L494.681 120.134C490.038 137.169 482.24 153.181 471.694 167.341L440.856 152.471Z" fill="#FF6363"/>
<path d="M519.453 102.219C518.056 101.557 516.542 101.177 514.999 101.1C513.455 101.023 511.911 101.251 510.455 101.771C508.999 102.291 507.66 103.093 506.514 104.13C505.369 105.168 504.438 106.421 503.777 107.818L489.971 136.852C486.633 143.857 482.291 150.337 477.083 156.089L468.304 165.775L418.521 137.244L317.332 151.33C302.559 153.385 289.027 160.714 279.235 171.965C269.443 183.216 264.051 197.63 264.056 212.545V261.813H396.586C401.994 242.072 413.203 230.662 429.058 219.499C433 216.75 437.114 214.255 441.375 212.03L478.729 192.357C493.618 184.616 505.534 172.173 512.623 156.962C515.819 149.949 518.44 142.688 520.461 135.251L525.723 115.913C526.442 113.258 526.208 110.434 525.063 107.933C523.917 105.432 521.933 103.41 519.453 102.219Z" fill="#FF6363"/>
<path d="M416.229 107.82L416.222 107.811C412.717 103.56 406.429 102.956 402.178 106.461L395.241 112.182C390.99 115.687 390.385 121.975 393.891 126.226L393.898 126.235C397.404 130.486 403.692 131.09 407.943 127.585L414.88 121.864C419.131 118.359 419.735 112.071 416.229 107.82Z" fill="#070717"/>
<path d="M467.79 67.4018L467.779 67.3993C463.699 66.4632 459.632 69.0124 458.696 73.093L456.21 83.9303C455.274 88.0109 457.823 92.0777 461.903 93.0138L461.914 93.0163C465.995 93.9524 470.062 91.4033 470.998 87.3227L473.484 76.4853C474.42 72.4047 471.871 68.3379 467.79 67.4018Z" fill="#070717"/>
<path d="M495.067 73.6669L495.057 73.6644C490.976 72.7283 486.909 75.2775 485.973 79.3581L483.487 90.1954C482.551 94.2761 485.1 98.3429 489.181 99.279L489.192 99.2815C493.272 100.218 497.339 97.6684 498.275 93.5878L500.761 82.7505C501.697 78.6699 499.148 74.603 495.067 73.6669Z" fill="#070717"/>
<path d="M521.907 88.2677L521.896 88.2652C517.816 87.3291 513.749 89.8783 512.813 93.9589L510.327 104.796C509.391 108.877 511.94 112.944 516.02 113.88L516.031 113.882C520.112 114.818 524.179 112.269 525.115 108.189L527.601 97.3512C528.537 93.2706 525.988 89.2038 521.907 88.2677Z" fill="#070717"/>
<path d="M229.888 157.253L134.039 105.847C131.411 104.437 128.399 103.911 125.449 104.347C122.498 104.782 119.767 106.156 117.658 108.265C116.331 109.59 115.286 111.17 114.587 112.909C113.888 114.649 113.548 116.512 113.589 118.386C113.63 120.26 114.05 122.107 114.825 123.814C115.599 125.521 116.711 127.054 118.095 128.32L142.504 150.714L229.888 157.253Z" fill="#FF6363"/>
<path d="M116.309 138.173L103.175 125.733C97.9632 119.984 93.6211 113.503 90.287 106.496L76.4696 77.4614C75.8081 76.0643 74.8779 74.8111 73.732 73.7736C72.5861 72.7361 71.2471 71.9345 69.7913 71.4146C68.3356 70.8947 66.7917 70.6667 65.2478 70.7436C63.704 70.8205 62.1904 71.2008 60.7935 71.8628C58.3019 73.0474 56.3063 75.0706 55.1559 77.5782C54.0055 80.0857 53.7735 82.918 54.5006 85.5793L59.7633 104.917C64.3977 121.959 72.1959 137.977 82.7512 152.136L116.309 138.173Z" fill="#FF6363"/>
<path d="M87.3035 152.471L76.8789 140.972C71.6702 135.219 67.3319 128.734 64.0021 121.724L50.1848 92.6895C49.5244 91.2914 48.5948 90.0373 47.4491 88.999C46.3035 87.9606 44.9642 87.1585 43.5081 86.6384C42.052 86.1184 40.5076 85.8906 38.9633 85.9683C37.4191 86.0459 35.9053 86.4274 34.5087 87.0909C32.018 88.2735 30.0227 90.2946 28.8722 92.8003C27.7217 95.306 27.4894 98.1365 28.2158 100.796L33.4449 120.134C38.0793 137.172 45.8776 153.186 56.4328 167.341L87.3035 152.471Z" fill="#FF6363"/>
<path d="M8.66558 102.219C10.0624 101.557 11.5761 101.177 13.1199 101.1C14.6638 101.023 16.2077 101.251 17.6634 101.771C19.1192 102.291 20.4582 103.093 21.6041 104.13C22.75 105.168 23.6802 106.421 24.3417 107.818L38.159 136.852C41.493 143.857 45.8309 150.337 51.0359 156.089L59.8145 165.775L109.608 137.244L210.787 151.33C225.561 153.384 239.094 160.713 248.888 171.964C258.682 183.215 264.076 197.629 264.074 212.545V261.813H131.533C126.136 242.072 114.927 230.662 99.0607 219.499C95.1198 216.747 91.0057 214.253 86.7438 212.03L49.4011 192.357C34.5082 184.62 22.5917 172.176 15.5071 156.962C12.3011 149.953 9.67947 142.692 7.66903 135.251L2.40634 115.913C1.68257 113.259 1.91254 110.435 3.05623 107.933C4.19991 105.431 6.18488 103.409 8.66558 102.219Z" fill="#FF6363"/>
<path d="M134.142 126.308L134.149 126.299C137.654 122.048 137.05 115.76 132.799 112.255L125.862 106.534C121.611 103.029 115.323 103.633 111.817 107.884L111.81 107.893C108.305 112.144 108.909 118.432 113.16 121.937L120.097 127.657C124.348 131.163 130.636 130.559 134.142 126.308Z" fill="#070717"/>
<path d="M66.37 93.0168L66.3809 93.0143C70.4615 92.0782 73.0107 88.0113 72.0746 83.9307L69.5885 73.0934C68.6525 69.0128 64.5856 66.4637 60.505 67.3998L60.4941 67.4023C56.4135 68.3383 53.8643 72.4051 54.8004 76.4857L57.2865 87.3231C58.2226 91.4037 62.2894 93.9529 66.37 93.0168Z" fill="#070717"/>
<path d="M39.0849 99.2792L39.0958 99.2767C43.1764 98.3406 45.7255 94.2738 44.7894 90.1932L42.3034 79.3558C41.3673 75.2752 37.3005 72.7261 33.2198 73.6621L33.2089 73.6646C29.1283 74.6007 26.5792 78.6676 27.5153 82.7482L30.0013 93.5855C30.9374 97.6661 35.0042 100.215 39.0849 99.2792Z" fill="#070717"/>
<path d="M12.2645 113.892L12.2755 113.89C16.3561 112.954 18.9052 108.887 17.9691 104.806L15.4831 93.969C14.547 89.8884 10.4802 87.3392 6.39954 88.2753L6.38862 88.2778C2.30801 89.2139 -0.241125 93.2807 0.694959 97.3614L3.18102 108.199C4.11711 112.279 8.18393 114.828 12.2645 113.892Z" fill="#070717"/>
<defs>
<linearGradient id="paint0_linear_1_26" x1="289.725" y1="113.951" x2="370.072" y2="185.356" gradientUnits="userSpaceOnUse">
<stop stop-color="#FFD15C"/>
<stop offset="1" stop-color="#FFBF1B"/>
</linearGradient>
<radialGradient id="paint1_radial_1_26" cx="0" cy="0" r="1" gradientUnits="userSpaceOnUse" gradientTransform="translate(523.638 33.9054) rotate(164.075) scale(296.567 114.663)">
<stop stop-color="#FF6363"/>
<stop offset="1" stop-color="#4100FB"/>
</radialGradient>
</defs>
</svg>
