<svg  viewBox="0 0 566 563" fill="none" xmlns="http://www.w3.org/2000/svg">
<g clip-path="url(#clip0_1_25)">
<path d="M95.3459 476.726L74.5781 454.385L-0.00137329 523.713L20.7664 546.054L95.3459 476.726Z" fill="#FF6363"/>
<path d="M180.543 412.548L220.645 368.138L217.584 427.896L277.352 424.845L232.931 464.947L277.352 505.038L217.584 501.987L220.645 561.745L180.543 517.335L140.442 561.745L143.492 501.987L83.7344 505.038L128.155 464.947L83.7344 424.845L143.492 427.896L140.442 368.138L180.543 412.548Z" fill="#FFD15C"/>
<path d="M446.886 324.452L408.562 338.926L425.399 383.505L463.722 369.031L446.886 324.452Z" fill="#F3B462"/>
<path d="M416.043 363.402C452.869 363.402 482.722 333.549 482.722 296.723C482.722 259.897 452.869 230.043 416.043 230.043C379.217 230.043 349.363 259.897 349.363 296.723C349.363 333.549 379.217 363.402 416.043 363.402Z" fill="#FFD15C"/>
<path d="M363.315 286.58L386.48 339.075L306.298 353.772C304.565 354.09 302.779 353.953 301.115 353.375C299.45 352.798 297.963 351.798 296.8 350.475C295.636 349.151 294.836 347.549 294.476 345.824C294.117 344.099 294.21 342.31 294.748 340.632C295.191 339.242 295.928 337.963 296.909 336.883C297.89 335.803 299.092 334.946 300.433 334.371L322.179 325.018C333.953 319.955 344.202 311.908 351.914 301.672L363.315 286.58Z" fill="#FF6363"/>
<path d="M412.961 321.147C425.76 321.147 436.137 310.77 436.137 297.971C436.137 285.171 425.76 274.795 412.961 274.795C400.161 274.795 389.785 285.171 389.785 297.971C389.785 310.77 400.161 321.147 412.961 321.147Z" fill="white"/>
<path d="M412.968 301.81C415.089 301.81 416.808 300.091 416.808 297.971C416.808 295.85 415.089 294.131 412.968 294.131C410.848 294.131 409.129 295.85 409.129 297.971C409.129 300.091 410.848 301.81 412.968 301.81Z" fill="#070717"/>
<path d="M565.965 442.531V421.914V308.605C554.42 298.8 538.417 298.425 527.244 299.972C518.292 301.251 509.931 305.286 503.271 311.542L439.002 371.309L348.887 374.283C347.5 374.324 346.122 374.525 344.78 374.882C329.368 379.098 315.641 388.168 305.54 400.81C295.438 413.451 289.474 429.024 288.491 445.326L286.022 486.289C285.797 490.802 283.974 495.077 280.893 498.313C277.812 501.55 273.686 503.526 269.285 503.873C264.59 504.156 259.976 502.527 256.45 499.341C252.923 496.156 250.771 491.671 250.461 486.866C248.333 452.712 243.63 379.218 242.545 378.848C241.13 378.358 163.805 373.215 163.805 373.215V562.888H411.096H413.043C456.531 562.748 486.106 562.654 522.032 562.538C529.993 562.561 538.262 562.536 547.062 562.495C557.518 562.446 565.965 553.95 565.965 543.494V442.531Z" fill="#4100FB"/>
<path d="M163.285 371.22V329.86H232.791V352.257L244.214 365.28L244.182 394.353H163.285V371.22Z" fill="#F3B462"/>
<path d="M248.838 275.697L248.828 275.694C243.547 273.79 237.723 276.528 235.819 281.809L213.908 342.602C212.005 347.883 214.743 353.707 220.024 355.611L220.034 355.614C225.315 357.518 231.139 354.78 233.042 349.499L254.953 288.706C256.857 283.425 254.119 277.601 248.838 275.697Z" fill="#F3B462"/>
<path d="M170.378 308.807H170.367C164.754 308.807 160.203 313.357 160.203 318.971V340.728C160.203 346.341 164.754 350.892 170.367 350.892H170.378C175.991 350.892 180.542 346.341 180.542 340.728V318.971C180.542 313.357 175.991 308.807 170.378 308.807Z" fill="#FFD15C"/>
<path d="M187.882 308.807H187.871C182.258 308.807 177.707 313.357 177.707 318.971V340.728C177.707 346.341 182.258 350.892 187.871 350.892H187.882C193.495 350.892 198.046 346.341 198.046 340.728V318.971C198.046 313.357 193.495 308.807 187.882 308.807Z" fill="#FFD15C"/>
<path d="M208.214 308.807H208.203C202.59 308.807 198.039 313.357 198.039 318.971V340.728C198.039 346.341 202.59 350.892 208.203 350.892H208.214C213.827 350.892 218.378 346.341 218.378 340.728V318.971C218.378 313.357 213.827 308.807 208.214 308.807Z" fill="#FFD15C"/>
<path d="M244.773 361.046V361.035C244.773 355.421 240.223 350.871 234.609 350.871H210.655C205.042 350.871 200.491 355.421 200.491 361.035V361.046C200.491 366.659 205.042 371.21 210.655 371.21H234.609C240.223 371.21 244.773 366.659 244.773 361.046Z" fill="#FFD15C"/>
<path d="M267.319 264.752C268.185 268.902 268.224 273.182 267.437 277.348C267.36 277.656 267.405 277.981 267.562 278.257C267.719 278.533 267.975 278.738 268.279 278.83C268.586 278.912 268.913 278.869 269.189 278.711C269.464 278.554 269.666 278.293 269.751 277.987C270.628 273.403 270.588 268.691 269.634 264.122C269.314 262.608 266.999 263.248 267.319 264.762V264.752Z" fill="#070717"/>
<path d="M274.813 261.467C276.094 265.699 275.772 270.256 273.906 274.265C273.752 274.541 273.71 274.866 273.789 275.172C273.869 275.478 274.064 275.742 274.333 275.908C274.607 276.067 274.934 276.112 275.242 276.032C275.549 275.953 275.813 275.754 275.975 275.481C278.138 270.917 278.548 265.717 277.127 260.87C277.022 260.587 276.814 260.354 276.546 260.217C276.277 260.08 275.967 260.049 275.677 260.129C275.386 260.209 275.136 260.396 274.976 260.651C274.816 260.907 274.758 261.213 274.813 261.509V261.467Z" fill="#070717"/>
<path d="M221.598 277.644C221.918 272.904 224.04 268.466 227.528 265.241C228.658 264.174 226.963 262.489 225.832 263.545C221.903 267.227 219.53 272.271 219.198 277.644C219.102 279.191 221.502 279.18 221.598 277.644Z" fill="#070717"/>
<path d="M215.079 268.153C215.82 266.574 216.694 265.061 217.692 263.63L217.873 263.396C217.745 263.556 217.969 263.268 217.969 263.268L218.353 262.82C218.639 262.505 218.942 262.206 219.26 261.924L219.484 261.732C219.484 261.732 219.687 261.572 219.559 261.668C219.74 261.529 219.932 261.401 220.124 261.273C220.316 261.145 220.454 261.071 220.614 260.986L220.934 260.825C220.934 260.825 221.276 260.666 221.073 260.751C221.373 260.657 221.627 260.453 221.783 260.18C221.939 259.907 221.986 259.585 221.916 259.279C221.828 258.972 221.624 258.712 221.347 258.554C221.069 258.397 220.741 258.354 220.433 258.436C216.732 259.994 214.727 263.503 212.967 266.969C212.808 267.243 212.763 267.57 212.844 267.877C212.925 268.184 213.125 268.446 213.399 268.606C213.674 268.766 214 268.81 214.307 268.729C214.614 268.648 214.877 268.448 215.036 268.174L215.079 268.153Z" fill="#070717"/>
<path d="M561.702 264.524C556.305 259.33 548.114 259.789 541.8 262.924C538.16 264.883 534.802 267.327 531.818 270.188C528.842 272.854 525.984 275.67 523.285 278.613C512.343 290.526 503.64 304.924 500.43 320.912C498.757 329.035 498.583 337.395 499.918 345.581C500.607 349.727 501.755 353.783 503.341 357.675C504.661 361.196 506.569 364.467 508.983 367.349C511.207 369.987 514.346 371.686 517.771 372.105C519.276 372.273 520.799 372.112 522.236 371.633C523.672 371.155 524.987 370.369 526.09 369.332C531.231 364.128 526.656 356.609 520.875 354.465C513.655 351.788 506.488 357.408 502.189 362.677C494.501 372.265 489.934 383.979 489.103 396.241C488.868 399.664 488.655 403.451 490.042 406.693C491.204 409.402 493.934 411.46 496.974 410.5C498.45 409.973 499.704 408.959 500.529 407.626C501.355 406.293 501.703 404.72 501.518 403.163C501.048 399.963 498.318 397.595 495.321 396.625C491.588 395.42 487.642 396.55 484.24 398.203C477.516 401.691 471.455 406.329 466.333 411.908C455.827 422.968 448.575 436.694 442.869 450.73C439.776 458.409 437.28 466.344 433.622 473.788C429.933 481.338 424.662 488.005 418.168 493.338C405.007 504.195 389.19 512.312 373.054 517.687C369.115 518.988 365.137 520.129 361.119 521.11C359.615 521.473 360.255 523.787 361.759 523.425C376.912 519.724 391.408 513.721 404.74 505.624C411.248 501.798 417.361 497.336 422.989 492.303C428.549 487.104 433.051 480.879 436.246 473.97C439.445 467.261 441.76 460.212 444.469 453.322C447.009 446.736 449.976 440.323 453.353 434.124C459.976 422.126 468.647 410.927 480.208 403.333C483.173 401.392 486.383 399.387 489.914 398.715C493.049 398.107 496.91 398.939 498.595 401.915C499.982 404.357 498.339 408.815 495.022 408.314C492.047 407.845 491.481 403.707 491.396 401.318C491.219 393.902 492.513 386.526 495.204 379.614C497.806 372.756 501.773 365.813 507.223 360.821C509.643 358.398 512.768 356.804 516.15 356.267C517.732 356.118 519.326 356.376 520.78 357.017C522.234 357.657 523.5 358.658 524.458 359.925C526.272 362.304 526.592 365.557 524.299 367.754C523.229 368.664 521.95 369.297 520.577 369.594C519.204 369.892 517.779 369.846 516.427 369.46C509.655 367.679 506.285 359.339 504.322 353.377C501.965 346.035 501.027 338.31 501.56 330.617C502.509 315.547 508.685 301.394 517.558 289.321C521.92 283.451 526.835 278.012 532.234 273.078C537.566 268.182 543.784 262.86 551.431 262.946C554.62 262.891 557.709 264.063 560.059 266.22C561.179 267.287 562.875 265.601 561.755 264.524H561.702Z" fill="url(#paint0_radial_1_25)"/>
<path d="M129.065 313.292L144.316 286.876L54.0118 234.739L38.7604 261.155L129.065 313.292Z" fill="#4100FB"/>
<path d="M564.999 37V0.500031L490.063 47.8704L506.641 73.4755L564.999 37Z" fill="#070717"/>
<path d="M504.889 412.161C514.474 415.517 523.3 420.738 530.856 427.523C538.412 434.309 544.549 442.524 548.911 451.695C553.274 460.866 555.777 470.811 556.274 480.954C556.772 491.098 555.254 501.239 551.81 510.793C548.366 520.347 543.063 529.123 536.207 536.616C529.351 544.108 521.079 550.168 511.868 554.445C502.657 558.723 492.69 561.132 482.542 561.535C472.394 561.938 462.267 560.327 452.746 556.794L468.04 514.388C471.968 515.804 476.136 516.433 480.307 516.238C484.478 516.043 488.57 515.028 492.348 513.252C496.127 511.476 499.519 508.973 502.33 505.886C505.142 502.799 507.318 499.188 508.734 495.26C510.15 491.332 510.778 487.164 510.583 482.993C510.388 478.822 509.374 474.731 507.597 470.952C505.821 467.173 503.318 463.781 500.231 460.97C497.144 458.158 493.533 455.983 489.605 454.567L504.889 412.161Z" fill="#FF6363"/>
</g>
<defs>
<radialGradient id="paint0_radial_1_25" cx="0" cy="0" r="1" gradientUnits="userSpaceOnUse" gradientTransform="translate(562.517 344.039) rotate(142.903) scale(332.061 234.093)">
<stop stop-color="#FF6363"/>
<stop offset="1" stop-color="#4100FB"/>
</radialGradient>
<clipPath id="clip0_1_25">
<rect width="566" height="563" fill="white"/>
</clipPath>
</defs>
</svg>
