<svg width="536" height="366" viewBox="0 0 536 366" fill="none" xmlns="http://www.w3.org/2000/svg">
<path d="M161.991 37.5041L195.552 0.188721L192.992 50.3946L243 47.8412L205.827 81.5289L243 115.234L192.992 112.663L195.552 162.869L161.991 125.554L128.448 162.869L130.99 112.663L81 115.234L118.155 81.5289L81 47.8412L130.99 50.3946L128.448 0.188721L161.991 37.5041Z" fill="url(#paint0_linear_3_32)"/>
<path d="M479.87 218.56C471.756 223.347 462.049 222.731 453.562 219.233C444.123 215.356 436.776 208.32 430.906 200.099C424.519 191.162 419.596 181.219 413.912 171.889C408.28 162.628 401.351 154.218 393.336 146.912C377.833 132.952 358.034 123.341 337.016 122.065C317.734 120.845 298.664 126.665 283.362 138.441C275.641 144.299 269.474 151.956 265.402 160.742C261.688 169.248 260.307 179.423 264.884 187.935C271.454 200.145 294.024 203.77 299.034 188.271C301.354 181.116 297.188 173.927 291.683 169.516C288.568 166.976 284.94 165.137 281.048 164.124C277.155 163.112 273.09 162.949 269.129 163.649C259.046 165.469 250.201 171.095 241.222 175.725C232.771 180.395 223.29 182.893 213.632 182.995C195.538 182.802 177.248 173.591 167.264 158.322C155.927 140.974 156.336 118.967 159.938 99.3468C160.852 94.4089 161.974 89.508 163.231 84.643C163.313 84.1573 163.209 83.6588 162.942 83.245C162.674 82.8312 162.262 82.5319 161.785 82.4055C161.308 82.2792 160.801 82.3349 160.363 82.5619C159.926 82.7888 159.588 83.1706 159.417 83.6326C154.585 102.42 151.259 122.639 155.979 141.803C158.097 150.589 162.231 158.764 168.056 165.682C173.881 172.6 181.237 178.073 189.544 181.667C197.531 185.171 206.165 186.965 214.889 186.933C224.001 186.695 232.939 184.393 241.029 180.202C249.924 175.821 258.404 170.135 268.191 167.856C272.001 166.914 275.985 166.916 279.794 167.862C283.603 168.809 287.122 170.67 290.046 173.284C295.115 177.833 298.269 185.623 292.814 191.26C288.038 196.189 279.748 195.224 274.303 192.025C266.735 187.593 264.835 178.432 266.433 170.306C268.302 160.822 273.987 152.475 280.851 145.835C294.265 132.853 313.014 126.012 331.529 125.846C352.155 125.66 372.107 134.152 387.754 147.299C395.956 154.216 403.066 162.328 408.845 171.361C414.527 180.22 419.18 189.676 424.953 198.468C430.235 206.514 436.457 213.959 444.707 219.097C452.178 223.757 461.28 226.784 470.133 225.833C474.232 225.396 478.188 224.085 481.734 221.988C482.186 221.726 482.516 221.295 482.65 220.791C482.784 220.286 482.712 219.749 482.45 219.298C482.187 218.846 481.756 218.518 481.25 218.384C480.745 218.25 480.207 218.322 479.754 218.584L479.87 218.56Z" fill="url(#paint1_radial_3_32)"/>
<path d="M0 365.471V87.0182L274 365.471H0Z" fill="#FF6363"/>
<path d="M536 185.824H360V365.471H536V185.824Z" fill="#070717"/>
<defs>
<linearGradient id="paint0_linear_3_32" x1="106.027" y1="89.6797" x2="173.739" y2="149.605" gradientUnits="userSpaceOnUse">
<stop stop-color="#FFD15C"/>
<stop offset="1" stop-color="#FFBF1B"/>
</linearGradient>
<radialGradient id="paint1_radial_3_32" cx="0" cy="0" r="1" gradientUnits="userSpaceOnUse" gradientTransform="translate(144.172 138.323) rotate(5.56981) scale(462.215 107.659)">
<stop stop-color="#FF6363"/>
<stop offset="1" stop-color="#4100FB"/>
</radialGradient>
</defs>
</svg>
