<svg width="566" height="357" viewBox="0 0 566 357" fill="none" xmlns="http://www.w3.org/2000/svg">
<path d="M198.255 206.784C158.635 217.774 155.672 228.068 184.711 256.956C145.349 245.755 137.978 253.136 149.147 292.625C120.343 263.5 110.079 266.472 99.1216 306.208C88.176 266.472 77.9594 263.5 49.0964 292.625C60.2772 253.136 52.9056 245.755 13.5439 256.956C42.5832 228.068 39.6204 217.774 0 206.784C39.6204 195.807 42.5832 185.56 13.5439 156.613C52.9056 167.826 60.2772 160.433 49.0964 120.956C77.9124 150.08 88.176 147.109 99.1216 107.372C110.079 147.109 120.343 150.08 149.147 120.956C137.978 160.433 145.349 167.826 184.711 156.613C155.672 185.513 158.635 195.807 198.255 206.784Z" fill="#4100FB"/>
<path d="M258.872 38.1814H90.7617V206.785H258.872V38.1814Z" fill="#CECEE7"/>
<path d="M565.002 356.003H157.688L565.002 169.559V356.003Z" fill="url(#paint0_linear_1705_23896)"/>
<path d="M413.116 175.431C412.505 177.417 411.137 179.08 409.309 180.058C407.481 181.036 405.342 181.251 403.358 180.655L393.635 177.695L392.106 182.753L379.021 178.768C375.383 180.317 371.317 180.535 367.535 179.381L346.972 173.12C344.68 173.534 342.324 173.396 340.095 172.718C337.867 172.039 335.832 170.839 334.157 169.217L329.09 167.672L330.454 164.347L342.116 135.977L344.221 130.848L387.204 143.43C386.11 144.727 384.382 146.707 382.172 149.054C383.763 150.163 385.151 151.539 386.275 153.122L399.819 157.249L398.173 162.685L407.908 165.644C409.887 166.257 411.545 167.629 412.521 169.462C413.497 171.295 413.71 173.441 413.116 175.431Z" fill="#FF6363"/>
<path d="M495.589 147.009C498.821 136.335 492.815 125.055 482.175 121.815C471.535 118.575 460.29 124.602 457.059 135.276L448.885 162.275C445.653 172.949 451.659 184.229 462.299 187.469C472.939 190.709 484.184 184.682 487.415 174.008L495.589 147.009Z" fill="#FF6363"/>
<path d="M458.945 132.006C462.176 121.332 456.17 110.053 445.531 106.812C434.891 103.572 423.646 109.599 420.414 120.273L412.24 147.272C409.009 157.946 415.015 169.226 425.654 172.466C436.294 175.706 447.539 169.68 450.771 159.006L458.945 132.006Z" fill="#FF6363"/>
<path d="M423.788 116.709C427.02 106.035 421.014 94.7552 410.374 91.5151C399.735 88.2751 388.49 94.3015 385.258 104.976L377.084 131.975C373.853 142.649 379.858 153.929 390.498 157.169C401.138 160.409 412.383 154.382 415.614 143.708L423.788 116.709Z" fill="#FF6363"/>
<path d="M487.835 172.861L439.855 356.003H263.432L284.277 284.076C284.277 284.076 246.75 246.427 247.267 212.444C247.573 192.859 238.179 173.97 230.161 161.483C227.858 157.915 226.591 153.775 226.504 149.526C226.417 145.277 227.512 141.088 229.667 137.428C230.681 135.694 231.927 134.107 233.37 132.712C237.587 128.588 243.247 126.285 249.136 126.297C250.636 126.299 252.133 126.449 253.604 126.745C251.98 123.69 251.132 120.28 251.135 116.817C251.136 114.068 251.667 111.346 252.698 108.799C254.541 104.278 257.918 100.557 262.233 98.2931L348.834 52.1892C353.193 49.8744 358.074 48.7288 363.005 48.8636C367.935 48.9984 372.747 50.4091 376.974 52.9587C381.201 55.5084 384.699 59.1103 387.128 63.4153C389.558 67.7202 390.837 72.5819 390.841 77.5287C390.841 77.8942 390.841 78.2479 390.841 78.6135C389.865 104.861 388.56 141.862 388.56 141.862C388.56 141.862 388.09 142.451 387.232 143.465L344.249 130.884L342.144 136.013L337.724 134.669L342.732 114.141C343.009 113.003 342.951 111.81 342.566 110.705C342.182 109.6 341.486 108.63 340.563 107.913C339.64 107.196 338.53 106.762 337.367 106.664C336.204 106.566 335.038 106.808 334.009 107.361L302.853 124.057L281.902 135.282C277.884 137.44 273.271 138.218 268.77 137.499L278.54 152.309L288.745 167.779C294.674 176.785 303.189 183.775 313.164 187.824C314.915 188.541 316.877 188.531 318.621 187.797C320.365 187.063 321.747 185.665 322.463 183.91L329.118 167.72L334.185 169.265C335.86 170.887 337.895 172.087 340.123 172.765C342.351 173.444 344.708 173.582 347 173.168L367.563 179.429C371.345 180.582 375.41 180.365 379.049 178.816L392.134 182.801L393.663 177.743L403.386 180.702C405.37 181.307 407.513 181.097 409.343 180.117C411.173 179.138 412.54 177.469 413.144 175.479C413.747 173.488 413.537 171.339 412.56 169.504C411.584 167.668 409.92 166.297 407.935 165.692L398.201 162.732L399.847 157.297L386.303 153.17C385.179 151.587 383.791 150.21 382.2 149.102C384.41 146.743 386.138 144.774 387.232 143.477L487.835 172.861Z" fill="#FF6363"/>
<path d="M387.208 143.43C386.115 144.727 384.386 146.707 382.176 149.054C374.064 157.744 359.533 171.375 346.976 173.12C344.685 173.534 342.328 173.396 340.1 172.718C337.872 172.039 335.836 170.839 334.161 169.217C332.702 167.779 331.455 166.139 330.458 164.347L337.7 134.633L342.121 135.977L344.225 130.848L387.208 143.43Z" fill="#FF6363"/>
<path d="M251.137 116.782C251.134 120.245 251.982 123.655 253.606 126.711C252.135 126.414 250.638 126.264 249.138 126.262C243.249 126.25 237.589 128.553 233.372 132.677C231.929 134.072 230.683 135.659 229.669 137.393L204.486 129.729C200.958 128.658 197.873 126.465 195.696 123.481C193.52 120.498 192.37 116.885 192.421 113.188C192.471 109.492 193.719 105.912 195.976 102.989C198.233 100.066 201.377 97.9585 204.933 96.9847C208.015 96.1237 211.278 96.1646 214.338 97.1026L252.677 108.776C251.655 111.321 251.132 114.039 251.137 116.782Z" fill="#4100FB"/>
<path d="M413.129 175.432C412.518 177.417 411.15 179.08 409.322 180.059C407.495 181.037 405.356 181.252 403.371 180.655L393.648 177.696L384.654 174.96L379.81 173.486C377.834 172.868 376.179 171.496 375.202 169.665C374.226 167.834 374.006 165.691 374.59 163.699C375.198 161.712 376.566 160.047 378.395 159.068C380.223 158.089 382.364 157.877 384.348 158.476L389.204 159.95L398.186 162.685L407.921 165.645C409.901 166.258 411.559 167.63 412.534 169.463C413.51 171.296 413.724 173.441 413.129 175.432Z" fill="#070717"/>
<path d="M388.763 168.014C387.446 172.326 384.482 175.942 380.518 178.071C376.553 180.2 371.91 180.671 367.601 179.381L347.038 173.12L334.223 169.217L329.156 167.672L278.602 152.273L268.832 137.463C273.333 138.182 277.946 137.404 281.964 135.246L302.915 124.021L337.786 134.633L342.206 135.977L377.477 146.731C381.046 147.83 384.157 150.076 386.33 153.122C387.781 155.16 388.776 157.489 389.245 159.949C389.741 162.637 389.576 165.405 388.763 168.014Z" fill="#4100FB"/>
<path d="M399.831 157.25L398.173 162.686L393.647 177.696L392.119 182.754L379.021 178.769L374.53 177.401L376.364 171.317L380.303 158.346L382.243 151.897L386.287 153.123L399.831 157.25Z" fill="#4100FB"/>
<path d="M200.783 110.781L204.968 96.9731L174.06 102.645L196.609 124.6L200.783 110.781Z" fill="#070717"/>
<path d="M178.339 105.583C179.19 105.843 180.09 105.361 180.348 104.507C180.607 103.653 180.126 102.751 179.275 102.492L171.13 100.012C170.279 99.7524 169.38 100.234 169.121 101.088C168.863 101.942 169.343 102.844 170.195 103.103L178.339 105.583Z" fill="#070717"/>
<path d="M239.918 131.035C235.446 125.399 227.266 124.466 221.647 128.95C216.027 133.435 215.097 141.639 219.568 147.275L231.427 162.222C235.899 167.858 244.079 168.791 249.698 164.307C255.318 159.822 256.248 151.618 251.777 145.982L239.918 131.035Z" fill="#070717"/>
<path d="M246.704 107.466C243.595 109.267 242.529 113.255 244.324 116.373C246.12 119.492 250.096 120.561 253.206 118.76L280.961 102.688C284.071 100.888 285.136 96.8999 283.341 93.7812C281.545 90.6625 277.569 89.5939 274.459 91.3945L246.704 107.466Z" fill="#070717"/>
<path d="M141.88 101.925C155.923 119.505 167.33 139.049 175.739 159.938C176.245 161.188 178.526 161.211 178.337 159.584C175.328 131.945 188.519 106.052 205.237 85.0395C213.561 74.7153 222.492 64.8992 231.984 55.6438C241.389 46.2973 251.269 37.4302 261.623 29.0427C273.344 19.5384 285.582 10.6931 298.28 2.54768C299.715 1.62796 298.386 -0.671335 296.952 0.189428C274.051 14.8851 252.666 31.8302 233.112 50.774C223.287 60.2061 214.011 70.1981 205.331 80.7003C196.831 91.0766 189.13 102.255 183.663 114.565C177.42 128.632 174.011 144.137 175.692 159.56L178.29 159.207C171.637 142.635 163.121 126.878 152.907 112.242C149.992 108.068 146.943 103.996 143.761 100.026C142.691 98.6938 140.833 100.58 141.88 101.901V101.925Z" fill="#070717"/>
<path d="M199.328 302.058C202.303 295.526 205.595 288.581 211.167 283.841C217.563 278.381 225.758 278.558 233.059 282.095C241.041 285.951 247.696 292.13 254.903 297.2C262.182 302.447 269.969 306.947 278.146 310.63C309.889 324.45 346.465 322.681 378.949 312.47C393.057 308.048 406.707 301.692 418.381 292.542C424.196 288.06 429.343 282.767 433.665 276.825C435.747 273.905 437.576 270.812 439.132 267.58C440.707 264.279 442.435 260.588 442.765 256.909C442.956 255.372 442.694 253.812 442.01 252.423C441.327 251.033 440.253 249.875 438.92 249.092C436.27 247.854 433.289 247.519 430.432 248.137C424.459 249.056 416.747 252.358 413.855 258.029C413.137 259.365 412.832 260.884 412.979 262.394C413.126 263.904 413.717 265.336 414.678 266.507C416.876 269.16 420.391 270.281 423.589 271.224C432.586 273.59 441.826 274.907 451.124 275.15C469.711 275.929 488.452 274.101 506.933 276.837C514.904 278.016 523.111 280.067 529.73 284.902C532.759 287.012 535.226 289.835 536.913 293.125C538.6 296.414 539.456 300.069 539.406 303.768C539.326 307.3 538.02 310.695 535.714 313.366C534.538 314.639 536.455 316.526 537.595 315.241C542.145 310.076 543.003 302.883 541.122 296.375C539.1 289.465 534.15 284.124 527.99 280.598C521.288 276.778 513.635 275.056 506.063 274.042C496.861 272.94 487.595 272.467 478.329 272.627C460.294 272.627 441.883 273.57 424.306 268.653C421.156 267.781 416.641 266.531 415.724 262.876C414.807 259.22 418.275 256.355 420.932 254.622C423.604 252.894 426.562 251.66 429.668 250.978C432.348 250.4 435.852 250.035 438.203 251.756C441.612 254.256 439.814 259.055 438.591 262.262C437.32 265.592 435.746 268.797 433.888 271.837C430.077 277.912 425.358 283.364 419.898 288.003C408.787 297.589 395.291 304.251 381.476 308.921C349.815 319.603 313.734 322.068 282.261 309.451C274.043 306.059 266.211 301.794 258.9 296.728C251.846 291.929 245.391 286.116 238.055 281.789C231.542 277.909 223.759 275.292 216.293 277.968C209.792 280.327 205.218 285.81 201.809 291.611C200.102 294.587 198.555 297.653 197.177 300.796C196.471 302.329 198.752 303.685 199.457 302.129L199.328 302.058Z" fill="url(#paint1_radial_1705_23896)"/>
<defs>
<linearGradient id="paint0_linear_1705_23896" x1="220.613" y1="272.122" x2="284.264" y2="395.704" gradientUnits="userSpaceOnUse">
<stop stop-color="#FFD15C"/>
<stop offset="1" stop-color="#FFBF1B"/>
</linearGradient>
<radialGradient id="paint1_radial_1705_23896" cx="0" cy="0" r="1" gradientUnits="userSpaceOnUse" gradientTransform="translate(542.729 270.922) rotate(173.021) scale(456.063 80.5948)">
<stop stop-color="#FF6363"/>
<stop offset="1" stop-color="#4100FB"/>
</radialGradient>
</defs>
</svg>
