<svg width="450" height="283" viewBox="0 0 450 283" fill="none" xmlns="http://www.w3.org/2000/svg">
<circle cx="113" cy="211" r="72" fill="#4100FB"/>
<circle cx="321.002" cy="45" r="45" fill="#FF6363"/>
<path d="M4.50356 57.5749C11.5256 46.9826 22.6816 39.509 35.5174 36.7982C48.3532 34.0874 61.8173 36.3615 72.9477 43.1201C84.0781 49.8786 91.9632 60.5682 94.8683 72.8371C97.7733 85.106 95.4604 97.9492 88.4383 108.541L63.8327 93.5945C66.7364 89.2133 67.6923 83.9014 66.4901 78.8273C65.8949 76.3148 64.7877 73.9364 63.2319 71.8277C61.676 69.7191 59.702 67.9216 57.4225 66.5377C55.1429 65.1539 52.6025 64.211 49.9462 63.7627C47.29 63.3144 44.5699 63.3695 41.9414 63.925C36.6328 65.0467 32.0192 68.1383 29.1156 72.5194L4.50356 57.5749Z" fill="#FFD15C"/>
<path d="M370.502 73.9052L403.014 38.1721L400.55 86.2432L449.002 83.7823L412.99 116.043L447.588 147.601L400.205 146.198L403.014 193.897L370.502 158.181L337.991 193.897L340.455 145.826L292.002 148.287L328.015 116.043L292.002 83.7823L340.455 86.2432L337.991 38.1721L370.502 73.9052Z" fill="url(#paint0_linear_1705_23389)"/>
<rect x="192.001" y="213" width="250" height="70" fill="url(#paint1_linear_1705_23389)"/>
<g clip-path="url(#clip0_1705_23389)">
<rect x="113.001" y="26" width="227.914" height="442.595" rx="27.9379" fill="#070717"/>
<rect x="117.412" y="30.4111" width="219.092" height="454.358" rx="23.5266" fill="#F7F7F9"/>
<rect x="131.505" y="235.283" width="192.056" height="0.587326" fill="#CBCBCB"/>
<path d="M137.584 77.2601H139.817C139.785 75.2957 138.17 73.9395 135.716 73.9395C133.3 73.9395 131.529 75.2742 131.54 77.2763C131.534 78.9016 132.681 79.8327 134.543 80.2794L135.743 80.5808C136.943 80.8714 137.611 81.2158 137.616 81.9585C137.611 82.7658 136.846 83.3148 135.662 83.3148C134.451 83.3148 133.58 82.755 133.504 81.6517H131.249C131.308 84.0359 133.015 85.2684 135.689 85.2684C138.38 85.2684 139.963 83.9821 139.968 81.9639C139.963 80.1287 138.579 79.1546 136.663 78.724L135.673 78.4872C134.715 78.2665 133.913 77.9113 133.929 77.1202C133.929 76.4098 134.559 75.8877 135.7 75.8877C136.814 75.8877 137.498 76.3936 137.584 77.2601ZM145.889 76.8457H144.334V74.8652H142.041V76.8457H140.911V78.5679H142.041V82.8734C142.031 84.4934 143.134 85.2953 144.797 85.2253C145.389 85.2038 145.809 85.0854 146.04 85.01L145.679 83.304C145.566 83.3255 145.324 83.3793 145.109 83.3793C144.652 83.3793 144.334 83.2071 144.334 82.5721V78.5679H145.889V76.8457ZM147.383 85.1123H149.676V80.4354C149.676 79.4183 150.418 78.7186 151.43 78.7186C151.748 78.7186 152.183 78.7724 152.399 78.8424V76.808C152.194 76.7596 151.909 76.7273 151.678 76.7273C150.752 76.7273 149.993 77.2655 149.692 78.2881H149.606V76.8457H147.383V85.1123ZM156.967 85.2738C159.012 85.2738 160.39 84.2781 160.712 82.7443L158.592 82.6043C158.361 83.234 157.769 83.5623 157.004 83.5623C155.858 83.5623 155.131 82.8035 155.131 81.571V81.5656H160.761V80.936C160.761 78.1266 159.06 76.7381 156.875 76.7381C154.443 76.7381 152.866 78.4657 152.866 81.0167C152.866 83.6377 154.421 85.2738 156.967 85.2738ZM155.131 80.1448C155.18 79.203 155.896 78.4495 156.913 78.4495C157.908 78.4495 158.597 79.1599 158.603 80.1448H155.131ZM164.614 85.2684C165.836 85.2684 166.627 84.7356 167.031 83.966H167.095V85.1123H169.27V79.5367C169.27 77.5669 167.601 76.7381 165.761 76.7381C163.78 76.7381 162.478 77.6853 162.16 79.1922L164.281 79.3644C164.437 78.8155 164.926 78.4118 165.75 78.4118C166.53 78.4118 166.977 78.8047 166.977 79.4828V79.5151C166.977 80.0479 166.412 80.1179 164.975 80.2578C163.339 80.4085 161.87 80.9575 161.87 82.8035C161.87 84.4396 163.037 85.2684 164.614 85.2684ZM165.271 83.6861C164.566 83.6861 164.06 83.3578 164.06 82.7281C164.06 82.0823 164.593 81.7648 165.4 81.6517C165.901 81.5818 166.719 81.4634 166.993 81.2804V82.1576C166.993 83.0241 166.277 83.6861 165.271 83.6861ZM171.048 85.1123H173.341V80.1502C173.341 79.2353 173.922 78.6271 174.687 78.6271C175.44 78.6271 175.946 79.1438 175.946 79.9565V85.1123H178.169V80.0641C178.169 79.2084 178.658 78.6271 179.493 78.6271C180.224 78.6271 180.773 79.0846 180.773 80.0049V85.1123H183.061V79.5528C183.061 77.7606 181.995 76.7381 180.456 76.7381C179.245 76.7381 178.303 77.357 177.964 78.3042H177.878C177.614 77.3462 176.769 76.7381 175.634 76.7381C174.52 76.7381 173.675 77.3301 173.33 78.3042H173.233V76.8457H171.048V85.1123ZM191.75 79.203C191.545 77.6799 190.318 76.7381 188.23 76.7381C186.115 76.7381 184.721 77.7176 184.726 79.3106C184.721 80.5485 185.501 81.3504 187.116 81.6733L188.548 81.9585C189.269 82.1038 189.597 82.3675 189.608 82.7819C189.597 83.2717 189.064 83.6215 188.262 83.6215C187.444 83.6215 186.901 83.2717 186.761 82.599L184.506 82.7174C184.721 84.2996 186.067 85.2738 188.257 85.2738C190.399 85.2738 191.933 84.1812 191.938 82.5505C191.933 81.3557 191.152 80.64 189.549 80.3117L188.052 80.0103C187.283 79.8434 186.998 79.5797 187.003 79.1815C186.998 78.6863 187.557 78.3634 188.268 78.3634C189.064 78.3634 189.538 78.7993 189.651 79.3322L191.75 79.203Z" fill="#070717"/>
<path d="M132.732 105.109H133.593L135.113 99.6198H135.167L136.688 105.109H137.549L139.432 98.2206H138.585L137.145 103.831H137.078L135.611 98.2206H134.669L133.203 103.831H133.136L131.696 98.2206H130.848L132.732 105.109ZM142.049 105.217C143.099 105.217 143.866 104.692 144.108 103.912L143.341 103.697C143.139 104.235 142.672 104.504 142.049 104.504C141.118 104.504 140.475 103.902 140.438 102.795H144.189V102.459C144.189 100.535 143.045 99.8755 141.969 99.8755C140.569 99.8755 139.641 100.979 139.641 102.566C139.641 104.154 140.556 105.217 142.049 105.217ZM140.438 102.109C140.492 101.305 141.06 100.589 141.969 100.589C142.83 100.589 143.381 101.234 143.381 102.109H140.438ZM150.011 105.217C151.007 105.217 151.343 104.598 151.518 104.316H151.612V105.109H152.379V98.2206H151.585V100.763H151.518C151.343 100.494 151.034 99.8755 150.025 99.8755C148.72 99.8755 147.818 100.911 147.818 102.54C147.818 104.181 148.72 105.217 150.011 105.217ZM150.119 104.504C149.123 104.504 148.612 103.629 148.612 102.526C148.612 101.436 149.11 100.589 150.119 100.589C151.088 100.589 151.599 101.369 151.599 102.526C151.599 103.697 151.074 104.504 150.119 104.504ZM153.943 105.109H154.737V101.84C154.737 101.14 155.289 100.629 156.042 100.629C156.254 100.629 156.473 100.669 156.527 100.683V99.8755C156.436 99.8688 156.227 99.862 156.11 99.862C155.491 99.862 154.952 100.212 154.764 100.723H154.71V99.9428H153.943V105.109ZM157.468 105.109H158.261V99.9428H157.468V105.109ZM157.871 99.0817C158.181 99.0817 158.436 98.8395 158.436 98.5435C158.436 98.2475 158.181 98.0053 157.871 98.0053C157.562 98.0053 157.306 98.2475 157.306 98.5435C157.306 98.8395 157.562 99.0817 157.871 99.0817ZM159.715 107.047H160.509V104.316H160.577C160.751 104.598 161.088 105.217 162.083 105.217C163.375 105.217 164.277 104.181 164.277 102.54C164.277 100.911 163.375 99.8755 162.07 99.8755C161.061 99.8755 160.751 100.494 160.577 100.763H160.482V99.9428H159.715V107.047ZM160.496 102.526C160.496 101.369 161.007 100.589 161.976 100.589C162.985 100.589 163.483 101.436 163.483 102.526C163.483 103.629 162.971 104.504 161.976 104.504C161.021 104.504 160.496 103.697 160.496 102.526ZM168.152 107.047H168.945V104.316H169.013C169.188 104.598 169.524 105.217 170.52 105.217C171.811 105.217 172.713 104.181 172.713 102.54C172.713 100.911 171.811 99.8755 170.506 99.8755C169.497 99.8755 169.188 100.494 169.013 100.763H168.918V99.9428H168.152V107.047ZM168.932 102.526C168.932 101.369 169.443 100.589 170.412 100.589C171.421 100.589 171.919 101.436 171.919 102.526C171.919 103.629 171.408 104.504 170.412 104.504C169.457 104.504 168.932 103.697 168.932 102.526ZM176.023 105.217C177.422 105.217 178.364 104.154 178.364 102.553C178.364 100.938 177.422 99.8755 176.023 99.8755C174.623 99.8755 173.681 100.938 173.681 102.553C173.681 104.154 174.623 105.217 176.023 105.217ZM176.023 104.504C174.96 104.504 174.475 103.589 174.475 102.553C174.475 101.517 174.96 100.589 176.023 100.589C177.085 100.589 177.57 101.517 177.57 102.553C177.57 103.589 177.085 104.504 176.023 104.504ZM179.575 105.109H180.369V101.84C180.369 101.14 180.921 100.629 181.674 100.629C181.886 100.629 182.105 100.669 182.159 100.683V99.8755C182.068 99.8688 181.859 99.862 181.742 99.862C181.123 99.862 180.585 100.212 180.396 100.723H180.342V99.9428H179.575V105.109ZM185.67 99.9428H184.567V98.7049H183.773V99.9428H182.993V100.615H183.773V103.845C183.773 104.746 184.5 105.177 185.173 105.177C185.469 105.177 185.657 105.123 185.765 105.082L185.603 104.369C185.536 104.383 185.428 104.41 185.253 104.41C184.904 104.41 184.567 104.302 184.567 103.629V100.615H185.67V99.9428ZM186.865 105.109H187.658V99.9428H186.865V105.109ZM187.268 99.0817C187.578 99.0817 187.833 98.8395 187.833 98.5435C187.833 98.2475 187.578 98.0053 187.268 98.0053C186.959 98.0053 186.703 98.2475 186.703 98.5435C186.703 98.8395 186.959 99.0817 187.268 99.0817ZM191.211 105.217C192.611 105.217 193.552 104.154 193.552 102.553C193.552 100.938 192.611 99.8755 191.211 99.8755C189.812 99.8755 188.87 100.938 188.87 102.553C188.87 104.154 189.812 105.217 191.211 105.217ZM191.211 104.504C190.148 104.504 189.664 103.589 189.664 102.553C189.664 101.517 190.148 100.589 191.211 100.589C192.274 100.589 192.759 101.517 192.759 102.553C192.759 103.589 192.274 104.504 191.211 104.504ZM195.558 102.001C195.558 101.1 196.116 100.589 196.877 100.589C197.613 100.589 198.061 101.07 198.061 101.88V105.109H198.854V101.826C198.854 100.508 198.151 99.8755 197.105 99.8755C196.325 99.8755 195.841 100.225 195.598 100.75H195.531V99.9428H194.764V105.109H195.558V102.001ZM203.965 101.1C203.716 100.367 203.157 99.8755 202.135 99.8755C201.045 99.8755 200.238 100.494 200.238 101.369C200.238 102.082 200.662 102.56 201.61 102.782L202.471 102.984C202.993 103.105 203.238 103.354 203.238 103.71C203.238 104.154 202.767 104.517 202.027 104.517C201.378 104.517 200.971 104.238 200.83 103.683L200.076 103.872C200.261 104.749 200.984 105.217 202.041 105.217C203.241 105.217 204.059 104.561 204.059 103.67C204.059 102.95 203.608 102.496 202.686 102.27L201.92 102.082C201.307 101.931 201.032 101.726 201.032 101.329C201.032 100.885 201.502 100.562 202.135 100.562C202.828 100.562 203.114 100.945 203.252 101.302L203.965 101.1ZM210.017 105.217C211.416 105.217 212.358 104.154 212.358 102.553C212.358 100.938 211.416 99.8755 210.017 99.8755C208.617 99.8755 207.676 100.938 207.676 102.553C207.676 104.154 208.617 105.217 210.017 105.217ZM210.017 104.504C208.954 104.504 208.469 103.589 208.469 102.553C208.469 101.517 208.954 100.589 210.017 100.589C211.08 100.589 211.564 101.517 211.564 102.553C211.564 103.589 211.08 104.504 210.017 104.504ZM215.87 99.9428H214.713V99.418C214.713 98.9067 214.929 98.6376 215.453 98.6376C215.682 98.6376 215.817 98.6915 215.897 98.7184L216.126 98.0322C216.005 97.9784 215.763 97.8976 215.373 97.8976C214.633 97.8976 213.919 98.3416 213.919 99.2297V99.9428H213.085V100.615H213.919V105.109H214.713V100.615H215.87V99.9428ZM220.158 107.047C220.875 107.047 221.379 106.667 221.679 105.863L223.879 99.9562L223.011 99.9428L221.584 104.06H221.531L220.104 99.9428H219.243L221.154 105.136L221.006 105.54C220.717 106.327 220.36 106.401 219.782 106.253L219.58 106.953C219.66 106.993 219.889 107.047 220.158 107.047ZM226.843 105.217C228.242 105.217 229.184 104.154 229.184 102.553C229.184 100.938 228.242 99.8755 226.843 99.8755C225.443 99.8755 224.502 100.938 224.502 102.553C224.502 104.154 225.443 105.217 226.843 105.217ZM226.843 104.504C225.78 104.504 225.295 103.589 225.295 102.553C225.295 101.517 225.78 100.589 226.843 100.589C227.906 100.589 228.39 101.517 228.39 102.553C228.39 103.589 227.906 104.504 226.843 104.504ZM233.652 102.997C233.652 103.966 232.912 104.41 232.32 104.41C231.66 104.41 231.189 103.925 231.189 103.172V99.9428H230.396V103.226C230.396 104.544 231.095 105.177 232.064 105.177C232.844 105.177 233.356 104.76 233.598 104.235H233.652V105.109H234.446V99.9428H233.652V102.997ZM235.899 105.109H236.693V101.84C236.693 101.14 237.245 100.629 237.998 100.629C238.21 100.629 238.429 100.669 238.483 100.683V99.8755C238.392 99.8688 238.183 99.862 238.066 99.862C237.447 99.862 236.909 100.212 236.72 100.723H236.666V99.9428H235.899V105.109ZM244.254 105.217C245.303 105.217 246.07 104.692 246.313 103.912L245.546 103.697C245.344 104.235 244.876 104.504 244.254 104.504C243.322 104.504 242.68 103.902 242.643 102.795H246.393V102.459C246.393 100.535 245.25 99.8755 244.173 99.8755C242.774 99.8755 241.846 100.979 241.846 102.566C241.846 104.154 242.761 105.217 244.254 105.217ZM242.643 102.109C242.697 101.305 243.265 100.589 244.173 100.589C245.034 100.589 245.586 101.234 245.586 102.109H242.643ZM249.121 105.23C250.023 105.23 250.494 104.746 250.655 104.41H250.695V105.109H251.489V101.705C251.489 100.064 250.238 99.8755 249.579 99.8755C248.798 99.8755 247.91 100.145 247.507 101.086L248.26 101.356C248.435 100.979 248.849 100.575 249.606 100.575C250.336 100.575 250.695 100.962 250.695 101.625V101.652C250.695 102.035 250.305 102.001 249.363 102.122C248.405 102.247 247.359 102.459 247.359 103.643C247.359 104.652 248.139 105.23 249.121 105.23ZM249.242 104.517C248.61 104.517 248.153 104.235 248.153 103.683C248.153 103.078 248.704 102.889 249.323 102.809C249.659 102.768 250.561 102.674 250.695 102.513V103.239C250.695 103.885 250.184 104.517 249.242 104.517ZM252.938 105.109H253.732V101.84C253.732 101.14 254.284 100.629 255.037 100.629C255.249 100.629 255.468 100.669 255.522 100.683V99.8755C255.431 99.8688 255.222 99.862 255.104 99.862C254.485 99.862 253.947 100.212 253.759 100.723H253.705V99.9428H252.938V105.109ZM257.256 102.001C257.256 101.1 257.815 100.589 258.575 100.589C259.312 100.589 259.759 101.07 259.759 101.88V105.109H260.553V101.826C260.553 100.508 259.85 99.8755 258.804 99.8755C258.023 99.8755 257.539 100.225 257.297 100.75H257.229V99.9428H256.463V105.109H257.256V102.001ZM262.003 105.109H262.797V99.9428H262.003V105.109ZM262.407 99.0817C262.716 99.0817 262.972 98.8395 262.972 98.5435C262.972 98.2475 262.716 98.0053 262.407 98.0053C262.098 98.0053 261.842 98.2475 261.842 98.5435C261.842 98.8395 262.098 99.0817 262.407 99.0817ZM265.045 102.001C265.045 101.1 265.603 100.589 266.363 100.589C267.1 100.589 267.548 101.07 267.548 101.88V105.109H268.341V101.826C268.341 100.508 267.638 99.8755 266.592 99.8755C265.812 99.8755 265.327 100.225 265.085 100.75H265.018V99.9428H264.251V105.109H265.045V102.001ZM271.877 107.154C273.115 107.154 274.111 106.589 274.111 105.257V99.9428H273.344V100.763H273.263C273.088 100.494 272.765 99.8755 271.756 99.8755C270.451 99.8755 269.55 100.911 269.55 102.499C269.55 104.114 270.492 105.029 271.743 105.029C272.752 105.029 273.075 104.437 273.25 104.154H273.317V105.204C273.317 106.065 272.712 106.455 271.877 106.455C270.939 106.455 270.609 105.96 270.397 105.674L269.765 106.118C270.088 106.66 270.724 107.154 271.877 107.154ZM271.851 104.316C270.855 104.316 270.344 103.562 270.344 102.486C270.344 101.436 270.841 100.589 271.851 100.589C272.819 100.589 273.331 101.369 273.331 102.486C273.331 103.629 272.806 104.316 271.851 104.316ZM279.224 101.1C278.975 100.367 278.416 99.8755 277.394 99.8755C276.304 99.8755 275.497 100.494 275.497 101.369C275.497 102.082 275.921 102.56 276.869 102.782L277.73 102.984C278.252 103.105 278.497 103.354 278.497 103.71C278.497 104.154 278.026 104.517 277.286 104.517C276.637 104.517 276.23 104.238 276.089 103.683L275.335 103.872C275.52 104.749 276.243 105.217 277.3 105.217C278.501 105.217 279.318 104.561 279.318 103.67C279.318 102.95 278.867 102.496 277.946 102.27L277.179 102.082C276.566 101.931 276.291 101.726 276.291 101.329C276.291 100.885 276.761 100.562 277.394 100.562C278.087 100.562 278.373 100.945 278.511 101.302L279.224 101.1ZM283.177 105.109H283.971V99.9428H283.177V105.109ZM283.581 99.0817C283.89 99.0817 284.146 98.8395 284.146 98.5435C284.146 98.2475 283.89 98.0053 283.581 98.0053C283.271 98.0053 283.015 98.2475 283.015 98.5435C283.015 98.8395 283.271 99.0817 283.581 99.0817ZM286.218 102.001C286.218 101.1 286.777 100.589 287.537 100.589C288.274 100.589 288.721 101.07 288.721 101.88V105.109H289.515V101.826C289.515 100.508 288.812 99.8755 287.766 99.8755C286.985 99.8755 286.501 100.225 286.259 100.75H286.192V99.9428H285.425V105.109H286.218V102.001ZM293.212 99.9428H292.109V98.7049H291.315V99.9428H290.535V100.615H291.315V103.845C291.315 104.746 292.042 105.177 292.715 105.177C293.011 105.177 293.199 105.123 293.307 105.082L293.145 104.369C293.078 104.383 292.97 104.41 292.795 104.41C292.445 104.41 292.109 104.302 292.109 103.629V100.615H293.212V99.9428ZM296.45 105.217C297.849 105.217 298.791 104.154 298.791 102.553C298.791 100.938 297.849 99.8755 296.45 99.8755C295.051 99.8755 294.109 100.938 294.109 102.553C294.109 104.154 295.051 105.217 296.45 105.217ZM296.45 104.504C295.387 104.504 294.903 103.589 294.903 102.553C294.903 101.517 295.387 100.589 296.45 100.589C297.513 100.589 297.997 101.517 297.997 102.553C297.997 103.589 297.513 104.504 296.45 104.504ZM135.248 113.943H136.055C136.018 112.903 135.06 112.126 133.728 112.126C132.409 112.126 131.373 112.893 131.373 114.05C131.373 114.979 132.046 115.53 133.122 115.84L133.97 116.082C134.696 116.284 135.342 116.54 135.342 117.226C135.342 117.979 134.616 118.477 133.66 118.477C132.84 118.477 132.113 118.114 132.046 117.333H131.185C131.265 118.464 132.18 119.23 133.66 119.23C135.248 119.23 136.149 118.356 136.149 117.239C136.149 115.948 134.925 115.53 134.212 115.342L133.512 115.154C133.001 115.019 132.18 114.75 132.18 114.01C132.18 113.351 132.786 112.866 133.701 112.866C134.535 112.866 135.167 113.263 135.248 113.943ZM139.66 113.943H138.557V112.705H137.763V113.943H136.983V114.615H137.763V117.845C137.763 118.746 138.49 119.177 139.162 119.177C139.458 119.177 139.647 119.123 139.754 119.082L139.593 118.369C139.526 118.383 139.418 118.41 139.243 118.41C138.893 118.41 138.557 118.302 138.557 117.629V114.615H139.66V113.943ZM140.854 119.109H141.648V115.84C141.648 115.14 142.2 114.629 142.953 114.629C143.165 114.629 143.384 114.669 143.438 114.683V113.875C143.347 113.869 143.138 113.862 143.021 113.862C142.402 113.862 141.864 114.212 141.675 114.723H141.621V113.943H140.854V119.109ZM146.388 119.217C147.437 119.217 148.204 118.692 148.446 117.912L147.679 117.697C147.478 118.235 147.01 118.504 146.388 118.504C145.456 118.504 144.813 117.902 144.776 116.795H148.527V116.459C148.527 114.535 147.383 113.875 146.307 113.875C144.908 113.875 143.979 114.979 143.979 116.566C143.979 118.154 144.894 119.217 146.388 119.217ZM144.776 116.109C144.83 115.305 145.399 114.589 146.307 114.589C147.168 114.589 147.72 115.234 147.72 116.109H144.776ZM151.255 119.23C152.156 119.23 152.627 118.746 152.789 118.41H152.829V119.109H153.623V115.705C153.623 114.064 152.372 113.875 151.712 113.875C150.932 113.875 150.044 114.145 149.64 115.086L150.394 115.356C150.569 114.979 150.982 114.575 151.739 114.575C152.469 114.575 152.829 114.962 152.829 115.625V115.652C152.829 116.035 152.439 116.001 151.497 116.122C150.538 116.247 149.492 116.459 149.492 117.643C149.492 118.652 150.273 119.23 151.255 119.23ZM151.376 118.517C150.744 118.517 150.286 118.235 150.286 117.683C150.286 117.078 150.838 116.889 151.457 116.809C151.793 116.768 152.695 116.674 152.829 116.513V117.239C152.829 117.885 152.318 118.517 151.376 118.517ZM155.072 119.109H155.866V115.88C155.866 115.123 156.417 114.589 157.036 114.589C157.638 114.589 158.059 114.982 158.059 115.571V119.109H158.866V115.746C158.866 115.08 159.283 114.589 160.01 114.589C160.575 114.589 161.059 114.888 161.059 115.652V119.109H161.853V115.652C161.853 114.437 161.2 113.875 160.279 113.875C159.539 113.875 158.997 114.215 158.732 114.75H158.678C158.422 114.198 157.971 113.875 157.292 113.875C156.619 113.875 156.121 114.198 155.906 114.75H155.839V113.943H155.072V119.109ZM166.964 115.1C166.715 114.367 166.157 113.875 165.134 113.875C164.044 113.875 163.237 114.494 163.237 115.369C163.237 116.082 163.661 116.56 164.61 116.782L165.471 116.984C165.992 117.105 166.238 117.354 166.238 117.71C166.238 118.154 165.767 118.517 165.027 118.517C164.377 118.517 163.97 118.238 163.829 117.683L163.076 117.872C163.261 118.749 163.984 119.217 165.04 119.217C166.241 119.217 167.058 118.561 167.058 117.67C167.058 116.95 166.608 116.496 165.686 116.27L164.919 116.082C164.307 115.931 164.031 115.726 164.031 115.329C164.031 114.885 164.502 114.562 165.134 114.562C165.827 114.562 166.113 114.945 166.251 115.302L166.964 115.1ZM173.164 113.943H172.061V112.705H171.267V113.943H170.487V114.615H171.267V117.845C171.267 118.746 171.994 119.177 172.666 119.177C172.962 119.177 173.151 119.123 173.258 119.082L173.097 118.369C173.03 118.383 172.922 118.41 172.747 118.41C172.397 118.41 172.061 118.302 172.061 117.629V114.615H173.164V113.943ZM176.402 119.217C177.801 119.217 178.743 118.154 178.743 116.553C178.743 114.938 177.801 113.875 176.402 113.875C175.003 113.875 174.061 114.938 174.061 116.553C174.061 118.154 175.003 119.217 176.402 119.217ZM176.402 118.504C175.339 118.504 174.855 117.589 174.855 116.553C174.855 115.517 175.339 114.589 176.402 114.589C177.465 114.589 177.949 115.517 177.949 116.553C177.949 117.589 177.465 118.504 176.402 118.504ZM184.718 119.217C185.861 119.217 186.615 118.517 186.749 117.602H185.956C185.808 118.168 185.337 118.504 184.718 118.504C183.776 118.504 183.17 117.724 183.17 116.526C183.17 115.356 183.789 114.589 184.718 114.589C185.417 114.589 185.834 115.019 185.956 115.49H186.749C186.615 114.521 185.794 113.875 184.704 113.875C183.305 113.875 182.377 114.979 182.377 116.553C182.377 118.1 183.265 119.217 184.718 119.217ZM190.009 119.217C191.408 119.217 192.35 118.154 192.35 116.553C192.35 114.938 191.408 113.875 190.009 113.875C188.609 113.875 187.668 114.938 187.668 116.553C187.668 118.154 188.609 119.217 190.009 119.217ZM190.009 118.504C188.946 118.504 188.461 117.589 188.461 116.553C188.461 115.517 188.946 114.589 190.009 114.589C191.072 114.589 191.556 115.517 191.556 116.553C191.556 117.589 191.072 118.504 190.009 118.504ZM197.601 113.943H196.74L195.314 118.06H195.26L193.834 113.943H192.973L194.884 119.109H195.691L197.601 113.943ZM200.63 119.217C201.68 119.217 202.447 118.692 202.689 117.912L201.922 117.697C201.72 118.235 201.253 118.504 200.63 118.504C199.699 118.504 199.056 117.902 199.019 116.795H202.77V116.459C202.77 114.535 201.626 113.875 200.55 113.875C199.15 113.875 198.222 114.979 198.222 116.566C198.222 118.154 199.137 119.217 200.63 119.217ZM199.019 116.109C199.073 115.305 199.642 114.589 200.55 114.589C201.411 114.589 201.962 115.234 201.962 116.109H199.019ZM203.977 119.109H204.771V115.84C204.771 115.14 205.323 114.629 206.076 114.629C206.288 114.629 206.507 114.669 206.561 114.683V113.875C206.47 113.869 206.261 113.862 206.143 113.862C205.525 113.862 204.986 114.212 204.798 114.723H204.744V113.943H203.977V119.109ZM210.677 121.047C211.393 121.047 211.898 120.667 212.197 119.863L214.397 113.956L213.529 113.943L212.103 118.06H212.049L210.623 113.943H209.762L211.673 119.136L211.525 119.54C211.235 120.327 210.879 120.401 210.3 120.253L210.098 120.953C210.179 120.993 210.408 121.047 210.677 121.047ZM217.361 119.217C218.761 119.217 219.702 118.154 219.702 116.553C219.702 114.938 218.761 113.875 217.361 113.875C215.962 113.875 215.02 114.938 215.02 116.553C215.02 118.154 215.962 119.217 217.361 119.217ZM217.361 118.504C216.298 118.504 215.814 117.589 215.814 116.553C215.814 115.517 216.298 114.589 217.361 114.589C218.424 114.589 218.909 115.517 218.909 116.553C218.909 117.589 218.424 118.504 217.361 118.504ZM224.17 116.997C224.17 117.966 223.43 118.41 222.838 118.41C222.179 118.41 221.708 117.925 221.708 117.172V113.943H220.914V117.226C220.914 118.544 221.614 119.177 222.583 119.177C223.363 119.177 223.874 118.76 224.116 118.235H224.17V119.109H224.964V113.943H224.17V116.997ZM226.418 119.109H227.212V115.84C227.212 115.14 227.764 114.629 228.517 114.629C228.729 114.629 228.948 114.669 229.001 114.683V113.875C228.911 113.869 228.702 113.862 228.584 113.862C227.965 113.862 227.427 114.212 227.239 114.723H227.185V113.943H226.418V119.109ZM234.907 113.943H233.75V113.418C233.75 112.907 233.965 112.638 234.49 112.638C234.719 112.638 234.853 112.691 234.934 112.718L235.163 112.032C235.042 111.978 234.8 111.898 234.409 111.898C233.669 111.898 232.956 112.342 232.956 113.23V113.943H232.122V114.615H232.956V119.109H233.75V114.615H234.907V113.943ZM236.02 119.109H236.814V113.943H236.02V119.109ZM236.423 113.082C236.733 113.082 236.988 112.839 236.988 112.543C236.988 112.247 236.733 112.005 236.423 112.005C236.114 112.005 235.858 112.247 235.858 112.543C235.858 112.839 236.114 113.082 236.423 113.082ZM239.061 116.001C239.061 115.1 239.62 114.589 240.38 114.589C241.117 114.589 241.564 115.07 241.564 115.88V119.109H242.358V115.826C242.358 114.508 241.655 113.875 240.609 113.875C239.828 113.875 239.344 114.225 239.102 114.75H239.034V113.943H238.268V119.109H239.061V116.001ZM245.329 119.23C246.23 119.23 246.701 118.746 246.863 118.41H246.903V119.109H247.697V115.705C247.697 114.064 246.445 113.875 245.786 113.875C245.006 113.875 244.118 114.145 243.714 115.086L244.468 115.356C244.643 114.979 245.056 114.575 245.813 114.575C246.543 114.575 246.903 114.962 246.903 115.625V115.652C246.903 116.035 246.513 116.001 245.571 116.122C244.612 116.247 243.566 116.459 243.566 117.643C243.566 118.652 244.347 119.23 245.329 119.23ZM245.45 118.517C244.817 118.517 244.36 118.235 244.36 117.683C244.36 117.078 244.912 116.889 245.531 116.809C245.867 116.768 246.768 116.674 246.903 116.513V117.239C246.903 117.885 246.392 118.517 245.45 118.517ZM249.939 116.001C249.939 115.1 250.498 114.589 251.258 114.589C251.995 114.589 252.442 115.07 252.442 115.88V119.109H253.236V115.826C253.236 114.508 252.533 113.875 251.487 113.875C250.706 113.875 250.222 114.225 249.98 114.75H249.913V113.943H249.146V119.109H249.939V116.001ZM256.785 119.217C257.929 119.217 258.683 118.517 258.817 117.602H258.023C257.875 118.168 257.404 118.504 256.785 118.504C255.844 118.504 255.238 117.724 255.238 116.526C255.238 115.356 255.857 114.589 256.785 114.589C257.485 114.589 257.902 115.019 258.023 115.49H258.817C258.683 114.521 257.862 113.875 256.772 113.875C255.373 113.875 254.444 114.979 254.444 116.553C254.444 118.1 255.332 119.217 256.785 119.217ZM259.978 119.109H260.771V113.943H259.978V119.109ZM260.381 113.082C260.691 113.082 260.946 112.839 260.946 112.543C260.946 112.247 260.691 112.005 260.381 112.005C260.072 112.005 259.816 112.247 259.816 112.543C259.816 112.839 260.072 113.082 260.381 113.082ZM263.746 119.23C264.647 119.23 265.118 118.746 265.28 118.41H265.32V119.109H266.114V115.705C266.114 114.064 264.862 113.875 264.203 113.875C263.423 113.875 262.535 114.145 262.131 115.086L262.885 115.356C263.06 114.979 263.473 114.575 264.23 114.575C264.96 114.575 265.32 114.962 265.32 115.625V115.652C265.32 116.035 264.93 116.001 263.988 116.122C263.029 116.247 261.983 116.459 261.983 117.643C261.983 118.652 262.764 119.23 263.746 119.23ZM263.867 118.517C263.234 118.517 262.777 118.235 262.777 117.683C262.777 117.078 263.329 116.889 263.948 116.809C264.284 116.768 265.185 116.674 265.32 116.513V117.239C265.32 117.885 264.809 118.517 263.867 118.517ZM268.356 112.221H267.563V119.109H268.356V112.221ZM273.268 116.001C273.268 115.1 273.827 114.589 274.587 114.589C275.324 114.589 275.771 115.07 275.771 115.88V119.109H276.565V115.826C276.565 114.508 275.862 113.875 274.816 113.875C274.035 113.875 273.551 114.225 273.309 114.75H273.241V113.943H272.474V119.109H273.268V116.001ZM280.182 119.217C281.231 119.217 281.998 118.692 282.24 117.912L281.473 117.697C281.271 118.235 280.804 118.504 280.182 118.504C279.25 118.504 278.607 117.902 278.57 116.795H282.321V116.459C282.321 114.535 281.177 113.875 280.101 113.875C278.701 113.875 277.773 114.979 277.773 116.566C277.773 118.154 278.688 119.217 280.182 119.217ZM278.57 116.109C278.624 115.305 279.193 114.589 280.101 114.589C280.962 114.589 281.514 115.234 281.514 116.109H278.57ZM285.627 119.217C286.771 119.217 287.524 118.517 287.659 117.602H286.865C286.717 118.168 286.246 118.504 285.627 118.504C284.685 118.504 284.08 117.724 284.08 116.526C284.08 115.356 284.699 114.589 285.627 114.589C286.327 114.589 286.744 115.019 286.865 115.49H287.659C287.524 114.521 286.704 113.875 285.614 113.875C284.215 113.875 283.286 114.979 283.286 116.553C283.286 118.1 284.174 119.217 285.627 119.217ZM290.986 119.217C292.035 119.217 292.802 118.692 293.044 117.912L292.277 117.697C292.075 118.235 291.608 118.504 290.986 118.504C290.054 118.504 289.411 117.902 289.374 116.795H293.125V116.459C293.125 114.535 291.981 113.875 290.905 113.875C289.506 113.875 288.577 114.979 288.577 116.566C288.577 118.154 289.492 119.217 290.986 119.217ZM289.374 116.109C289.428 115.305 289.997 114.589 290.905 114.589C291.766 114.589 292.318 115.234 292.318 116.109H289.374ZM297.992 115.1C297.743 114.367 297.185 113.875 296.162 113.875C295.073 113.875 294.265 114.494 294.265 115.369C294.265 116.082 294.689 116.56 295.638 116.782L296.499 116.984C297.02 117.105 297.266 117.354 297.266 117.71C297.266 118.154 296.795 118.517 296.055 118.517C295.406 118.517 294.999 118.238 294.857 117.683L294.104 117.872C294.289 118.749 295.012 119.217 296.068 119.217C297.269 119.217 298.086 118.561 298.086 117.67C298.086 116.95 297.636 116.496 296.714 116.27L295.947 116.082C295.335 115.931 295.059 115.726 295.059 115.329C295.059 114.885 295.53 114.562 296.162 114.562C296.855 114.562 297.141 114.945 297.279 115.302L297.992 115.1ZM302.941 115.1C302.692 114.367 302.134 113.875 301.111 113.875C300.021 113.875 299.214 114.494 299.214 115.369C299.214 116.082 299.638 116.56 300.586 116.782L301.448 116.984C301.969 117.105 302.214 117.354 302.214 117.71C302.214 118.154 301.744 118.517 301.004 118.517C300.354 118.517 299.947 118.238 299.806 117.683L299.053 117.872C299.238 118.749 299.961 119.217 301.017 119.217C302.218 119.217 303.035 118.561 303.035 117.67C303.035 116.95 302.584 116.496 301.663 116.27L300.896 116.082C300.284 115.931 300.008 115.726 300.008 115.329C300.008 114.885 300.479 114.562 301.111 114.562C301.804 114.562 302.09 114.945 302.228 115.302L302.941 115.1ZM304.23 119.109H305.024V113.943H304.23V119.109ZM304.634 113.082C304.943 113.082 305.199 112.839 305.199 112.543C305.199 112.247 304.943 112.005 304.634 112.005C304.324 112.005 304.069 112.247 304.069 112.543C304.069 112.839 304.324 113.082 304.634 113.082ZM308.725 113.943H307.622V112.705H306.828V113.943H306.047V114.615H306.828V117.845C306.828 118.746 307.554 119.177 308.227 119.177C308.523 119.177 308.711 119.123 308.819 119.082L308.658 118.369C308.59 118.383 308.483 118.41 308.308 118.41C307.958 118.41 307.622 118.302 307.622 117.629V114.615H308.725V113.943ZM309.919 119.109H310.713V113.943H309.919V119.109ZM310.323 113.082C310.632 113.082 310.888 112.839 310.888 112.543C310.888 112.247 310.632 112.005 310.323 112.005C310.013 112.005 309.758 112.247 309.758 112.543C309.758 112.839 310.013 113.082 310.323 113.082ZM314.333 119.217C315.382 119.217 316.149 118.692 316.392 117.912L315.625 117.697C315.423 118.235 314.955 118.504 314.333 118.504C313.401 118.504 312.759 117.902 312.722 116.795H316.472V116.459C316.472 114.535 315.329 113.875 314.252 113.875C312.853 113.875 311.925 114.979 311.925 116.566C311.925 118.154 312.84 119.217 314.333 119.217ZM312.722 116.109C312.776 115.305 313.344 114.589 314.252 114.589C315.113 114.589 315.665 115.234 315.665 116.109H312.722ZM321.34 115.1C321.091 114.367 320.532 113.875 319.51 113.875C318.42 113.875 317.613 114.494 317.613 115.369C317.613 116.082 318.036 116.56 318.985 116.782L319.846 116.984C320.367 117.105 320.613 117.354 320.613 117.71C320.613 118.154 320.142 118.517 319.402 118.517C318.753 118.517 318.346 118.238 318.205 117.683L317.451 117.872C317.636 118.749 318.359 119.217 319.416 119.217C320.616 119.217 321.434 118.561 321.434 117.67C321.434 116.95 320.983 116.496 320.061 116.27L319.294 116.082C318.682 115.931 318.406 115.726 318.406 115.329C318.406 114.885 318.877 114.562 319.51 114.562C320.203 114.562 320.489 114.945 320.626 115.302L321.34 115.1ZM323.207 119.163C323.54 119.163 323.813 118.891 323.813 118.558C323.813 118.225 323.54 117.952 323.207 117.952C322.874 117.952 322.602 118.225 322.602 118.558C322.602 118.891 322.874 119.163 323.207 119.163Z" fill="#696466"/>
<path d="M118.88 134.45H118.52V134.811V189.216V189.576H118.88H386.891C390.932 189.576 394.208 186.3 394.208 182.259V141.768C394.208 137.727 390.932 134.45 386.891 134.45H118.88Z" fill="white" stroke="#F3F3FB" stroke-width="0.720394"/>
<rect x="117.412" y="134.811" width="110.281" height="54.4054" fill="white"/>
<rect x="117.412" y="134.811" width="110.281" height="54.4054" fill="#4100FB" fill-opacity="0.1"/>
<path d="M141.607 177.792C144.305 177.792 145.827 176.115 145.827 173.348C145.827 170.598 144.305 168.937 141.728 168.937H138.875V177.792H141.607ZM139.947 176.841V169.889H141.659C143.734 169.889 144.789 171.203 144.789 173.348C144.789 175.509 143.734 176.841 141.538 176.841H139.947ZM151.672 175.077C151.672 176.322 150.721 176.893 149.96 176.893C149.113 176.893 148.508 176.27 148.508 175.302V171.151H147.487V175.371C147.487 177.066 148.386 177.879 149.632 177.879C150.635 177.879 151.292 177.343 151.603 176.668H151.672V177.792H152.693V171.151H151.672V175.077ZM157.346 177.931C158.695 177.931 159.681 177.256 159.992 176.253L159.006 175.976C158.747 176.668 158.146 177.014 157.346 177.014C156.148 177.014 155.323 176.24 155.275 174.818H160.096V174.385C160.096 171.912 158.626 171.065 157.242 171.065C155.444 171.065 154.25 172.483 154.25 174.524C154.25 176.564 155.426 177.931 157.346 177.931ZM155.275 173.936C155.344 172.902 156.075 171.981 157.242 171.981C158.349 171.981 159.058 172.811 159.058 173.936H155.275ZM165.055 177.792H170.641V176.841H166.525V176.772L168.514 174.645C170.036 173.015 170.486 172.254 170.486 171.272C170.486 169.906 169.379 168.816 167.822 168.816C166.27 168.816 165.09 169.871 165.09 171.428H166.11C166.11 170.42 166.763 169.75 167.788 169.75C168.747 169.75 169.482 170.338 169.482 171.272C169.482 172.089 169.003 172.695 167.978 173.815L165.055 177.014V177.792ZM175.194 177.913C176.88 177.913 178.117 176.668 178.117 174.973C178.117 173.257 176.923 171.999 175.298 171.999C174.701 171.999 174.122 172.21 173.759 172.5H173.707L174.018 169.889H177.719V168.937H173.119L172.582 173.296L173.586 173.417C173.953 173.153 174.58 172.963 175.125 172.967C176.253 172.976 177.079 173.832 177.079 174.991C177.079 176.128 176.283 176.962 175.194 176.962C174.286 176.962 173.564 176.378 173.482 175.579H172.444C172.509 176.928 173.672 177.913 175.194 177.913ZM190.885 173.365C190.885 170.563 189.242 168.816 186.977 168.816C184.711 168.816 183.068 170.563 183.068 173.365C183.068 176.167 184.711 177.913 186.977 177.913C189.242 177.913 190.885 176.167 190.885 173.365ZM189.848 173.365C189.848 175.665 188.585 176.91 186.977 176.91C185.368 176.91 184.106 175.665 184.106 173.365C184.106 171.065 185.368 169.819 186.977 169.819C188.585 169.819 189.848 171.065 189.848 173.365ZM195.248 177.931C196.718 177.931 197.686 177.031 197.859 175.855H196.839C196.649 176.582 196.043 177.014 195.248 177.014C194.037 177.014 193.259 176.011 193.259 174.472C193.259 172.967 194.055 171.981 195.248 171.981C196.147 171.981 196.683 172.535 196.839 173.14H197.859C197.686 171.895 196.632 171.065 195.231 171.065C193.432 171.065 192.239 172.483 192.239 174.506C192.239 176.495 193.38 177.931 195.248 177.931ZM202.239 171.151H200.821V169.56H199.801V171.151H198.798V172.016H199.801V176.167C199.801 177.325 200.735 177.879 201.599 177.879C201.98 177.879 202.222 177.81 202.36 177.758L202.153 176.841C202.066 176.858 201.928 176.893 201.703 176.893C201.253 176.893 200.821 176.755 200.821 175.89V172.016H202.239V171.151Z" fill="#696466"/>
<path d="M324.934 162.373H326.391L326.404 160.947C329.078 160.743 330.628 159.322 330.635 157.179C330.628 155.073 329.041 153.955 326.842 153.461L326.478 153.374L326.503 150.286C327.324 150.477 327.824 151.002 327.898 151.781H330.462C330.431 149.736 328.905 148.272 326.527 148.013L326.54 146.561H325.082L325.07 148.001C322.654 148.235 320.95 149.693 320.962 151.799C320.956 153.664 322.272 154.733 324.409 155.246L325.002 155.394L324.971 158.661C323.964 158.47 323.284 157.852 323.217 156.821H320.629C320.69 159.316 322.327 160.712 324.946 160.94L324.934 162.373ZM326.428 158.661L326.453 155.777C327.41 156.079 327.929 156.469 327.935 157.173C327.929 157.92 327.361 158.476 326.428 158.661ZM325.02 152.997C324.248 152.732 323.692 152.33 323.705 151.62C323.705 150.959 324.174 150.446 325.045 150.267L325.02 152.997ZM337.078 160.965C339.932 160.965 341.983 159.44 341.989 157.389C341.983 155.808 340.766 154.517 339.246 154.264V154.177C340.568 153.905 341.513 152.763 341.519 151.373C341.513 149.415 339.635 147.97 337.078 147.97C334.515 147.97 332.637 149.415 332.644 151.373C332.637 152.756 333.57 153.905 334.917 154.177V154.264C333.372 154.517 332.168 155.808 332.174 157.389C332.168 159.44 334.225 160.965 337.078 160.965ZM337.078 159.001C335.806 159.001 334.954 158.247 334.954 157.179C334.954 156.086 335.849 155.295 337.078 155.295C338.301 155.295 339.203 156.086 339.203 157.179C339.203 158.254 338.345 159.001 337.078 159.001ZM337.078 153.349C336.01 153.349 335.25 152.651 335.25 151.651C335.25 150.663 335.997 149.983 337.078 149.983C338.153 149.983 338.907 150.669 338.907 151.651C338.907 152.651 338.141 153.349 337.078 153.349ZM348.436 147.97C345.607 147.957 343.698 149.81 343.71 152.355C343.717 154.714 345.353 156.425 347.596 156.425C348.985 156.425 350.221 155.752 350.783 154.64H350.869C350.863 157.148 349.992 158.674 348.343 158.674C347.373 158.674 346.675 158.142 346.471 157.222H343.834C344.081 159.353 345.811 160.965 348.343 160.965C351.474 160.965 353.494 158.433 353.488 154.14C353.482 149.557 351.036 147.982 348.436 147.97ZM348.454 150.07C349.683 150.07 350.591 151.07 350.604 152.275C350.61 153.485 349.652 154.486 348.429 154.486C347.194 154.486 346.311 153.522 346.305 152.281C346.292 151.046 347.213 150.07 348.454 150.07ZM356.377 160.953C357.168 160.953 357.853 160.292 357.86 159.47C357.853 158.661 357.168 158 356.377 158C355.562 158 354.889 158.661 354.895 159.47C354.889 160.292 355.562 160.953 356.377 160.953ZM359.995 160.792H369.013V158.606H363.701V158.519L365.548 156.71C368.148 154.338 368.846 153.152 368.846 151.713C368.846 149.52 367.055 147.97 364.343 147.97C361.687 147.97 359.865 149.557 359.872 152.04H362.41C362.404 150.829 363.17 150.088 364.325 150.088C365.437 150.088 366.264 150.78 366.264 151.892C366.264 152.899 365.647 153.59 364.498 154.696L359.995 158.865V160.792ZM375.528 147.97C372.699 147.957 370.79 149.81 370.803 152.355C370.809 154.714 372.446 156.425 374.688 156.425C376.077 156.425 377.313 155.752 377.875 154.64H377.961C377.955 157.148 377.084 158.674 375.435 158.674C374.465 158.674 373.767 158.142 373.563 157.222H370.926C371.173 159.353 372.903 160.965 375.435 160.965C378.567 160.965 380.586 158.433 380.58 154.14C380.574 149.557 378.128 147.982 375.528 147.97ZM375.546 150.07C376.775 150.07 377.683 151.07 377.696 152.275C377.702 153.485 376.744 154.486 375.521 154.486C374.286 154.486 373.403 153.522 373.397 152.281C373.384 151.046 374.305 150.07 375.546 150.07Z" fill="#070717"/>
<path d="M329.601 169.522H328.667L325.814 180.124H326.748L329.601 169.522ZM336.829 179.899H337.538V178.935C339.354 178.81 340.375 177.737 340.375 176.388C340.375 174.728 338.801 174.192 337.884 173.95L337.538 173.855V170.781C338.455 170.871 339.121 171.364 339.216 172.151H340.253C340.21 170.889 339.103 169.929 337.538 169.825V168.831H336.829V169.838C335.346 169.989 334.235 170.932 334.235 172.29C334.235 173.483 335.1 174.192 336.483 174.59L336.829 174.689V177.962C335.921 177.867 335.178 177.4 335.1 176.509H333.993C334.092 177.871 335.13 178.823 336.829 178.935V179.899ZM337.538 177.962V174.892L337.573 174.901C338.507 175.16 339.337 175.489 339.337 176.371C339.337 177.24 338.585 177.845 337.538 177.962ZM336.829 173.664C336.172 173.479 335.273 173.115 335.273 172.238C335.273 171.49 335.878 170.919 336.829 170.794V173.664ZM341.982 178.792H347.568V177.841H343.452V177.772L345.441 175.645C346.963 174.015 347.412 173.254 347.412 172.272C347.412 170.906 346.305 169.816 344.749 169.816C343.197 169.816 342.016 170.871 342.016 172.428H343.037C343.037 171.42 343.69 170.75 344.714 170.75C345.674 170.75 346.409 171.338 346.409 172.272C346.409 173.089 345.929 173.695 344.905 174.815L341.982 178.014V178.792ZM352.121 178.913C353.807 178.913 355.043 177.668 355.043 175.973C355.043 174.257 353.85 172.999 352.224 172.999C351.628 172.999 351.048 173.21 350.685 173.5H350.633L350.945 170.889H354.646V169.937H350.045L349.509 174.296L350.512 174.417C350.88 174.153 351.507 173.963 352.051 173.967C353.18 173.976 354.006 174.832 354.006 175.991C354.006 177.128 353.21 177.962 352.121 177.962C351.213 177.962 350.491 177.378 350.409 176.579H349.371C349.436 177.928 350.599 178.913 352.121 178.913ZM359.649 178.913C361.603 178.913 362.728 177.257 362.728 174.365C362.728 171.494 361.586 169.816 359.649 169.816C357.712 169.816 356.571 171.494 356.571 174.365C356.571 177.257 357.695 178.913 359.649 178.913ZM359.649 177.962C358.361 177.962 357.608 176.669 357.608 174.365C357.608 172.065 358.369 170.75 359.649 170.75C360.929 170.75 361.69 172.065 361.69 174.365C361.69 176.669 360.938 177.962 359.649 177.962ZM364.822 178.861C365.25 178.861 365.601 178.511 365.601 178.083C365.601 177.655 365.25 177.305 364.822 177.305C364.394 177.305 364.044 177.655 364.044 178.083C364.044 178.511 364.394 178.861 364.822 178.861ZM369.993 178.913C371.948 178.913 373.072 177.257 373.072 174.365C373.072 171.494 371.93 169.816 369.993 169.816C368.056 169.816 366.915 171.494 366.915 174.365C366.915 177.257 368.039 178.913 369.993 178.913ZM369.993 177.962C368.705 177.962 367.953 176.669 367.953 174.365C367.953 172.065 368.714 170.75 369.993 170.75C371.273 170.75 372.034 172.065 372.034 174.365C372.034 176.669 371.282 177.962 369.993 177.962ZM377.603 178.913C379.557 178.913 380.681 177.257 380.681 174.365C380.681 171.494 379.54 169.816 377.603 169.816C375.666 169.816 374.525 171.494 374.525 174.365C374.525 177.257 375.649 178.913 377.603 178.913ZM377.603 177.962C376.315 177.962 375.562 176.669 375.562 174.365C375.562 172.065 376.323 170.75 377.603 170.75C378.883 170.75 379.644 172.065 379.644 174.365C379.644 176.669 378.891 177.962 377.603 177.962Z" fill="#696466"/>
<path d="M138.627 157.632H140.633V154.269H142.097L143.894 157.632H146.108L144.093 153.945C145.172 153.481 145.77 152.541 145.77 151.244C145.77 149.359 144.524 148.145 142.37 148.145H138.627V157.632ZM140.633 152.657V149.785H141.985C143.143 149.785 143.704 150.299 143.704 151.244C143.704 152.184 143.143 152.657 141.995 152.657H140.633ZM150.279 157.771C152.039 157.771 153.225 156.914 153.503 155.594L151.678 155.473C151.478 156.015 150.969 156.298 150.311 156.298C149.324 156.298 148.699 155.645 148.699 154.584V154.579H153.544V154.037C153.544 151.619 152.081 150.424 150.2 150.424C148.106 150.424 146.749 151.911 146.749 154.107C146.749 156.363 148.087 157.771 150.279 157.771ZM148.699 153.356C148.741 152.546 149.357 151.897 150.232 151.897C151.089 151.897 151.682 152.509 151.687 153.356H148.699ZM156.806 153.518C156.81 152.601 157.357 152.064 158.154 152.064C158.946 152.064 159.423 152.583 159.418 153.454V157.632H161.392V153.102C161.392 151.443 160.419 150.424 158.937 150.424C157.88 150.424 157.116 150.943 156.796 151.772H156.713V150.517H154.832V157.632H156.806V153.518ZM166.732 150.517H165.393V148.812H163.42V150.517H162.447V151.999H163.42V155.705C163.41 157.099 164.36 157.79 165.791 157.729C166.301 157.711 166.662 157.609 166.862 157.544L166.551 156.076C166.454 156.094 166.245 156.14 166.06 156.14C165.666 156.14 165.393 155.992 165.393 155.446V151.999H166.732V150.517ZM174.251 157.771C176.41 157.771 177.754 156.293 177.754 154.102C177.754 151.897 176.41 150.424 174.251 150.424C172.093 150.424 170.749 151.897 170.749 154.102C170.749 156.293 172.093 157.771 174.251 157.771ZM174.261 156.242C173.265 156.242 172.755 155.33 172.755 154.088C172.755 152.847 173.265 151.93 174.261 151.93C175.238 151.93 175.748 152.847 175.748 154.088C175.748 155.33 175.238 156.242 174.261 156.242ZM179.037 157.632H181.01V153.606C181.01 152.731 181.649 152.129 182.52 152.129C182.794 152.129 183.169 152.175 183.354 152.235V150.484C183.178 150.443 182.933 150.415 182.733 150.415C181.937 150.415 181.284 150.878 181.024 151.758H180.95V150.517H179.037V157.632ZM187.394 157.632H189.367V153.361C189.367 152.573 189.867 152.05 190.525 152.05C191.174 152.05 191.609 152.495 191.609 153.194V157.632H193.522V153.287C193.522 152.55 193.944 152.05 194.662 152.05C195.292 152.05 195.765 152.444 195.765 153.236V157.632H197.733V152.847C197.733 151.304 196.816 150.424 195.491 150.424C194.449 150.424 193.638 150.957 193.346 151.772H193.272C193.045 150.947 192.318 150.424 191.341 150.424C190.382 150.424 189.654 150.934 189.358 151.772H189.274V150.517H187.394V157.632ZM202.507 157.771C204.666 157.771 206.009 156.293 206.009 154.102C206.009 151.897 204.666 150.424 202.507 150.424C200.348 150.424 199.005 151.897 199.005 154.102C199.005 156.293 200.348 157.771 202.507 157.771ZM202.516 156.242C201.52 156.242 201.011 155.33 201.011 154.088C201.011 152.847 201.52 151.93 202.516 151.93C203.494 151.93 204.003 152.847 204.003 154.088C204.003 155.33 203.494 156.242 202.516 156.242ZM207.292 157.632H209.266V153.606C209.266 152.731 209.905 152.129 210.776 152.129C211.049 152.129 211.424 152.175 211.61 152.235V150.484C211.434 150.443 211.188 150.415 210.989 150.415C210.192 150.415 209.539 150.878 209.28 151.758H209.206V150.517H207.292V157.632ZM216.772 150.517H215.433V148.812H213.459V150.517H212.486V151.999H213.459V155.705C213.45 157.099 214.4 157.79 215.831 157.729C216.341 157.711 216.702 157.609 216.901 157.544L216.591 156.076C216.494 156.094 216.285 156.14 216.1 156.14C215.706 156.14 215.433 155.992 215.433 155.446V151.999H216.772V150.517ZM221.186 160.449C223.22 160.449 224.665 159.522 224.665 157.702V150.517H222.706V151.712H222.632C222.367 151.133 221.788 150.424 220.598 150.424C219.037 150.424 217.717 151.638 217.717 154.06C217.717 156.428 219 157.53 220.603 157.53C221.737 157.53 222.372 156.96 222.632 156.372H222.715V157.674C222.715 158.651 222.09 159.031 221.233 159.031C220.362 159.031 219.922 158.651 219.759 158.22L217.934 158.466C218.17 159.587 219.268 160.449 221.186 160.449ZM221.228 156.048C220.26 156.048 219.732 155.279 219.732 154.051C219.732 152.842 220.25 151.994 221.228 151.994C222.187 151.994 222.724 152.805 222.724 154.051C222.724 155.307 222.178 156.048 221.228 156.048ZM228.265 157.766C229.316 157.766 229.997 157.308 230.345 156.645H230.4V157.632H232.272V152.833C232.272 151.137 230.836 150.424 229.251 150.424C227.547 150.424 226.426 151.239 226.152 152.536L227.977 152.685C228.112 152.212 228.533 151.865 229.242 151.865C229.914 151.865 230.298 152.203 230.298 152.787V152.814C230.298 153.273 229.812 153.333 228.575 153.454C227.167 153.583 225.902 154.056 225.902 155.645C225.902 157.053 226.907 157.766 228.265 157.766ZM228.83 156.404C228.223 156.404 227.787 156.122 227.787 155.58C227.787 155.024 228.246 154.751 228.941 154.653C229.372 154.593 230.076 154.491 230.312 154.334V155.089C230.312 155.835 229.696 156.404 228.83 156.404ZM237.008 160.449C239.042 160.449 240.487 159.522 240.487 157.702V150.517H238.528V151.712H238.454C238.19 151.133 237.611 150.424 236.42 150.424C234.859 150.424 233.539 151.638 233.539 154.06C233.539 156.428 234.822 157.53 236.425 157.53C237.56 157.53 238.194 156.96 238.454 156.372H238.537V157.674C238.537 158.651 237.912 159.031 237.055 159.031C236.184 159.031 235.744 158.651 235.582 158.22L233.756 158.466C233.993 159.587 235.09 160.449 237.008 160.449ZM237.05 156.048C236.082 156.048 235.554 155.279 235.554 154.051C235.554 152.842 236.073 151.994 237.05 151.994C238.009 151.994 238.546 152.805 238.546 154.051C238.546 155.307 238 156.048 237.05 156.048ZM245.3 157.771C247.061 157.771 248.247 156.914 248.525 155.594L246.699 155.473C246.5 156.015 245.991 156.298 245.333 156.298C244.346 156.298 243.721 155.645 243.721 154.584V154.579H248.566V154.037C248.566 151.619 247.102 150.424 245.222 150.424C243.128 150.424 241.77 151.911 241.77 154.107C241.77 156.363 243.109 157.771 245.3 157.771ZM243.721 153.356C243.762 152.546 244.379 151.897 245.254 151.897C246.111 151.897 246.704 152.509 246.709 153.356H243.721ZM255.774 152.546C255.598 151.235 254.542 150.424 252.745 150.424C250.924 150.424 249.724 151.267 249.729 152.638C249.724 153.704 250.396 154.394 251.786 154.672L253.018 154.917C253.639 155.043 253.921 155.27 253.931 155.626C253.921 156.048 253.463 156.349 252.773 156.349C252.068 156.349 251.601 156.048 251.48 155.469L249.539 155.571C249.724 156.933 250.882 157.771 252.768 157.771C254.612 157.771 255.932 156.831 255.936 155.427C255.932 154.399 255.26 153.783 253.88 153.5L252.592 153.241C251.929 153.097 251.684 152.87 251.689 152.527C251.684 152.101 252.166 151.823 252.777 151.823C253.463 151.823 253.87 152.198 253.968 152.657L255.774 152.546Z" fill="#696466"/>
<path d="M118.88 203.878H118.489V204.27V264.557V264.948H118.88H415.698C420.088 264.948 423.648 261.389 423.648 256.998V211.828C423.648 207.438 420.088 203.878 415.698 203.878H118.88Z" fill="white" stroke="#F3F3FB" stroke-width="0.78264"/>
<rect x="117.412" y="203.92" width="122.092" height="61.2664" fill="white"/>
<rect x="117.412" y="203.92" width="122.092" height="61.2664" fill="#4100FB" fill-opacity="0.1"/>
<path d="M144.701 250.494C147.632 250.494 149.286 248.671 149.286 245.665C149.286 242.678 147.632 240.874 144.833 240.874H141.733V250.494H144.701ZM142.898 249.461V241.907H144.758C147.012 241.907 148.159 243.335 148.159 245.665C148.159 248.014 147.012 249.461 144.626 249.461H142.898ZM155.636 247.544C155.636 248.897 154.603 249.517 153.776 249.517C152.856 249.517 152.198 248.84 152.198 247.788V243.279H151.09V247.863C151.09 249.705 152.067 250.588 153.419 250.588C154.509 250.588 155.223 250.005 155.561 249.273H155.636V250.494H156.745V243.279H155.636V247.544ZM161.8 250.644C163.266 250.644 164.337 249.911 164.675 248.822L163.604 248.521C163.322 249.273 162.669 249.648 161.8 249.648C160.499 249.648 159.602 248.808 159.55 247.262H164.788V246.793C164.788 244.106 163.191 243.185 161.688 243.185C159.734 243.185 158.437 244.726 158.437 246.943C158.437 249.16 159.715 250.644 161.8 250.644ZM159.55 246.304C159.626 245.181 160.419 244.181 161.688 244.181C162.89 244.181 163.66 245.083 163.66 246.304H159.55ZM173.313 250.625C175.436 250.625 176.658 248.826 176.658 245.684C176.658 242.565 175.418 240.743 173.313 240.743C171.209 240.743 169.969 242.565 169.969 245.684C169.969 248.826 171.19 250.625 173.313 250.625ZM173.313 249.592C171.913 249.592 171.096 248.188 171.096 245.684C171.096 243.185 171.923 241.757 173.313 241.757C174.704 241.757 175.53 243.185 175.53 245.684C175.53 248.188 174.713 249.592 173.313 249.592ZM181.825 240.874H180.66L178.255 242.471V243.655L180.603 242.095H180.66V250.494H181.825V240.874ZM196.597 245.684C196.597 242.64 194.812 240.743 192.351 240.743C189.89 240.743 188.105 242.64 188.105 245.684C188.105 248.728 189.89 250.625 192.351 250.625C194.812 250.625 196.597 248.728 196.597 245.684ZM195.47 245.684C195.47 248.183 194.098 249.536 192.351 249.536C190.604 249.536 189.232 248.183 189.232 245.684C189.232 243.185 190.604 241.832 192.351 241.832C194.098 241.832 195.47 243.185 195.47 245.684ZM201.337 250.644C202.934 250.644 203.986 249.667 204.174 248.39H203.065C202.859 249.179 202.201 249.648 201.337 249.648C200.021 249.648 199.176 248.559 199.176 246.886C199.176 245.252 200.04 244.181 201.337 244.181C202.314 244.181 202.896 244.782 203.065 245.44H204.174C203.986 244.087 202.84 243.185 201.318 243.185C199.364 243.185 198.067 244.726 198.067 246.924C198.067 249.085 199.307 250.644 201.337 250.644ZM208.932 243.279H207.391V241.55H206.283V243.279H205.193V244.218H206.283V248.728C206.283 249.987 207.297 250.588 208.237 250.588C208.65 250.588 208.913 250.513 209.064 250.456L208.838 249.461C208.744 249.479 208.594 249.517 208.35 249.517C207.861 249.517 207.391 249.367 207.391 248.427V244.218H208.932V243.279Z" fill="#696466"/>
<path d="M345.503 234.524H347.086L347.1 232.974C350.005 232.753 351.69 231.21 351.696 228.881C351.69 226.593 349.965 225.378 347.576 224.842L347.18 224.748L347.207 221.392C348.1 221.6 348.643 222.171 348.724 223.016H351.509C351.475 220.795 349.818 219.205 347.234 218.923L347.248 217.346H345.664L345.65 218.91C343.027 219.165 341.175 220.748 341.188 223.036C341.181 225.063 342.611 226.224 344.932 226.781L345.577 226.942L345.543 230.492C344.449 230.284 343.711 229.613 343.637 228.492H340.826C340.893 231.203 342.671 232.719 345.516 232.968L345.503 234.524ZM347.127 230.492L347.154 227.358C348.194 227.687 348.757 228.109 348.764 228.874C348.757 229.686 348.14 230.29 347.127 230.492ZM345.597 224.338C344.758 224.05 344.154 223.614 344.168 222.842C344.168 222.124 344.678 221.567 345.624 221.372L345.597 224.338ZM358.65 232.995C361.737 232.995 363.944 231.297 363.938 228.948C363.944 227.237 362.857 226.016 360.838 225.761V225.653C362.374 225.378 363.434 224.291 363.428 222.748C363.434 220.581 361.535 218.876 358.69 218.876C355.872 218.876 353.751 220.527 353.711 222.902H356.496C356.53 221.855 357.489 221.178 358.677 221.178C359.851 221.178 360.636 221.889 360.63 222.922C360.636 224.003 359.717 224.734 358.395 224.734H357.113V226.868H358.395C359.952 226.868 360.925 227.646 360.918 228.754C360.925 229.847 359.985 230.599 358.657 230.599C357.375 230.599 356.415 229.928 356.362 228.921H353.436C353.483 231.324 355.63 232.995 358.65 232.995ZM371.153 232.995C374.253 232.995 376.481 231.337 376.488 229.109C376.481 227.391 375.159 225.989 373.508 225.714V225.62C374.944 225.325 375.971 224.083 375.978 222.573C375.971 220.446 373.931 218.876 371.153 218.876C368.368 218.876 366.328 220.446 366.335 222.573C366.328 224.077 367.341 225.325 368.804 225.62V225.714C367.127 225.989 365.818 227.391 365.825 229.109C365.818 231.337 368.053 232.995 371.153 232.995ZM371.153 230.861C369.771 230.861 368.845 230.042 368.845 228.881C368.845 227.693 369.818 226.834 371.153 226.834C372.482 226.834 373.461 227.693 373.461 228.881C373.461 230.049 372.529 230.861 371.153 230.861ZM371.153 224.721C369.992 224.721 369.167 223.962 369.167 222.875C369.167 221.802 369.979 221.064 371.153 221.064C372.32 221.064 373.139 221.808 373.139 222.875C373.139 223.962 372.307 224.721 371.153 224.721ZM379.829 232.981C380.688 232.981 381.433 232.263 381.44 231.371C381.433 230.492 380.688 229.774 379.829 229.774C378.944 229.774 378.212 230.492 378.219 231.371C378.212 232.263 378.944 232.981 379.829 232.981ZM388.576 233.109C392.032 233.109 394.119 230.478 394.126 225.949C394.132 221.453 392.019 218.876 388.576 218.876C385.127 218.876 383.033 221.446 383.027 225.949C383.013 230.465 385.114 233.102 388.576 233.109ZM388.576 230.7C386.999 230.7 385.979 229.116 385.986 225.949C385.993 222.828 387.006 221.258 388.576 221.258C390.14 221.258 391.16 222.828 391.16 225.949C391.166 229.116 390.146 230.7 388.576 230.7ZM401.586 233.109C405.041 233.109 407.128 230.478 407.135 225.949C407.142 221.453 405.028 218.876 401.586 218.876C398.137 218.876 396.043 221.446 396.036 225.949C396.023 230.465 398.123 233.102 401.586 233.109ZM401.586 230.7C400.009 230.7 398.989 229.116 398.996 225.949C399.002 222.828 400.015 221.258 401.586 221.258C403.149 221.258 404.169 222.828 404.169 225.949C404.176 229.116 403.156 230.7 401.586 230.7Z" fill="#070717"/>
<path d="M359.612 242.736H358.597L355.497 254.253H356.512L359.612 242.736ZM367.465 254.009H368.235V252.962C370.208 252.825 371.316 251.661 371.316 250.195C371.316 248.391 369.607 247.809 368.611 247.546L368.235 247.442V244.103C369.231 244.201 369.954 244.737 370.057 245.592H371.185C371.138 244.22 369.935 243.177 368.235 243.065V241.984H367.465V243.079C365.853 243.243 364.646 244.267 364.646 245.742C364.646 247.038 365.586 247.809 367.089 248.241L367.465 248.349V251.905C366.478 251.801 365.67 251.294 365.586 250.327H364.383C364.491 251.806 365.619 252.84 367.465 252.962V254.009ZM368.235 251.905V248.57L368.273 248.579C369.287 248.861 370.189 249.218 370.189 250.176C370.189 251.12 369.372 251.778 368.235 251.905ZM367.465 247.236C366.751 247.034 365.774 246.639 365.774 245.686C365.774 244.873 366.431 244.253 367.465 244.117V247.236ZM376.257 252.938C378.201 252.962 379.469 251.496 379.469 249.706C379.469 247.846 378.093 246.512 376.444 246.512C375.453 246.512 374.603 246.996 374.077 247.79H374.002C374.007 245.446 374.918 244.089 376.407 244.089C377.421 244.089 378.032 244.727 378.248 245.592H379.394C379.159 244.098 378.023 243.055 376.407 243.055C374.241 243.055 372.912 244.972 372.912 248.372C372.912 251.928 374.678 252.919 376.257 252.938ZM376.257 251.905C375.049 251.905 374.166 250.876 374.171 249.725C374.176 248.574 375.101 247.546 376.294 247.546C377.473 247.546 378.342 248.513 378.342 249.706C378.342 250.928 377.436 251.905 376.257 251.905ZM384.454 252.938C386.577 252.938 387.799 251.139 387.799 247.997C387.799 244.878 386.559 243.055 384.454 243.055C382.35 243.055 381.11 244.878 381.11 247.997C381.11 251.139 382.331 252.938 384.454 252.938ZM384.454 251.905C383.055 251.905 382.237 250.5 382.237 247.997C382.237 245.498 383.064 244.07 384.454 244.07C385.845 244.07 386.671 245.498 386.671 247.997C386.671 250.5 385.854 251.905 384.454 251.905ZM390.075 252.882C390.54 252.882 390.92 252.501 390.92 252.036C390.92 251.571 390.54 251.191 390.075 251.191C389.61 251.191 389.229 251.571 389.229 252.036C389.229 252.501 389.61 252.882 390.075 252.882ZM395.692 252.938C397.816 252.938 399.037 251.139 399.037 247.997C399.037 244.878 397.797 243.055 395.692 243.055C393.588 243.055 392.348 244.878 392.348 247.997C392.348 251.139 393.569 252.938 395.692 252.938ZM395.692 251.905C394.293 251.905 393.475 250.5 393.475 247.997C393.475 245.498 394.302 244.07 395.692 244.07C397.083 244.07 397.909 245.498 397.909 247.997C397.909 250.5 397.092 251.905 395.692 251.905ZM403.959 252.938C406.083 252.938 407.304 251.139 407.304 247.997C407.304 244.878 406.064 243.055 403.959 243.055C401.855 243.055 400.615 244.878 400.615 247.997C400.615 251.139 401.836 252.938 403.959 252.938ZM403.959 251.905C402.56 251.905 401.742 250.5 401.742 247.997C401.742 245.498 402.569 244.07 403.959 244.07C405.35 244.07 406.177 245.498 406.177 247.997C406.177 250.5 405.359 251.905 403.959 251.905Z" fill="#696466"/>
<path d="M148.298 222.53H150.513C150.231 220.492 148.434 219.057 146.104 219.057C143.381 219.057 141.283 221.02 141.283 224.362C141.283 227.623 143.245 229.646 146.149 229.646C148.751 229.646 150.608 228.001 150.608 225.288V223.99H146.295V225.63H148.509C148.479 226.908 147.609 227.719 146.159 227.719C144.524 227.719 143.492 226.496 143.492 224.342C143.492 222.198 144.564 220.985 146.139 220.985C147.261 220.985 148.021 221.564 148.298 222.53ZM153.528 232.404C155.124 232.404 155.969 231.589 156.407 230.341L159.412 221.785L157.142 221.775L155.526 227.452H155.446L153.845 221.775H151.591L154.364 229.727L154.238 230.054C153.956 230.779 153.418 230.814 152.663 230.582L152.18 232.183C152.487 232.314 152.985 232.404 153.528 232.404ZM160.509 229.505H162.653V224.865C162.653 224.01 163.196 223.441 163.911 223.441C164.615 223.441 165.088 223.924 165.088 224.684V229.505H167.167V224.785C167.167 223.984 167.625 223.441 168.405 223.441C169.089 223.441 169.603 223.869 169.603 224.729V229.505H171.742V224.307C171.742 222.631 170.745 221.674 169.306 221.674C168.174 221.674 167.293 222.253 166.976 223.139H166.895C166.649 222.243 165.858 221.674 164.797 221.674C163.755 221.674 162.965 222.228 162.643 223.139H162.552V221.775H160.509V229.505Z" fill="#696466"/>
</g>
<defs>
<linearGradient id="paint0_linear_1705_23389" x1="316.257" y1="123.837" x2="381.167" y2="181.995" gradientUnits="userSpaceOnUse">
<stop stop-color="#FFD15C"/>
<stop offset="1" stop-color="#FFBF1B"/>
</linearGradient>
<linearGradient id="paint1_linear_1705_23389" x1="194.375" y1="218.06" x2="209.777" y2="294.371" gradientUnits="userSpaceOnUse">
<stop stop-color="#6C39FE"/>
<stop offset="1" stop-color="#4100FB"/>
</linearGradient>
<clipPath id="clip0_1705_23389">
<rect width="312" height="257" fill="white" transform="translate(113.001 26)"/>
</clipPath>
</defs>
</svg>
