<svg width="274" height="250" viewBox="0 0 274 250" fill="none" xmlns="http://www.w3.org/2000/svg">
<path d="M124.445 249.155C193.173 249.155 248.889 193.524 248.889 124.899C248.889 56.2741 193.173 0.642822 124.445 0.642822C55.7157 0.642822 0 56.2741 0 124.899C0 193.524 55.7157 249.155 124.445 249.155Z" fill="#FF6363"/>
<path d="M208.859 165.476C188.612 171.066 187.107 176.306 201.944 191.004C181.83 185.297 178.058 189.063 183.774 209.147C169.053 194.332 163.805 195.836 158.207 216.051C152.608 195.836 147.375 194.332 132.654 209.147C138.355 189.063 134.598 185.297 114.484 191.004C129.321 176.306 127.801 171.066 107.555 165.476C127.801 159.886 129.321 154.646 114.484 139.947C134.598 145.655 138.355 141.903 132.654 121.805C147.375 136.634 152.608 135.116 158.207 114.901C163.805 135.116 169.053 136.634 183.774 121.805C178.058 141.903 181.83 145.655 201.944 139.947C187.107 154.646 188.612 159.827 208.859 165.476Z" fill="url(#paint0_linear_6_42)"/>
<path d="M159.419 69.076L125.574 44.5681L41.6663 160.091L75.5107 184.599L159.419 69.076Z" fill="white"/>
<path d="M111.061 38.68C112.588 35.8023 114.758 33.3134 117.401 31.4053C120.045 29.4972 123.092 28.2208 126.307 27.6746C133.18 26.4018 140.279 27.8917 146.057 31.8199C160.002 40.884 164.885 57.8299 167.165 73.36C168.452 82.1176 169.84 91.3568 168.466 100.158C167.896 103.807 167.004 107.85 164.183 110.375C163.233 111.222 161.596 112.39 160.251 111.747C158.54 110.945 158.614 108.069 158.54 106.478C157.795 91.8823 165.66 73.6373 181.184 69.8862C189.458 67.8865 196.635 72.5864 200.188 79.9136C204.573 88.9339 202.644 99.4283 200.919 108.857C200.844 109.263 200.924 109.682 201.143 110.032C201.362 110.382 201.704 110.637 202.103 110.747C202.501 110.856 202.926 110.813 203.294 110.626C203.662 110.438 203.946 110.12 204.091 109.733C207.672 100.362 219.601 97.6476 228.386 100.246C239.978 103.661 248.048 113.572 255.795 122.213C260.167 127.371 265.138 131.991 270.603 135.977C272.358 137.174 273.995 134.342 272.27 133.145C261.306 125.584 254.246 113.908 244.086 105.413C235.315 98.1147 223.811 93.2397 212.569 97.6039C209.935 98.5373 207.53 100.02 205.514 101.952C203.498 103.885 201.916 106.224 200.875 108.814L204.047 109.689C205.816 99.983 207.687 89.5177 203.813 80.0595C200.758 72.6302 194.472 66.5437 186.125 66.0912C177.778 65.6387 170.045 70.5721 164.929 76.6587C159.152 83.7394 155.756 92.4569 155.222 101.574C154.988 105.296 154.491 110.988 157.503 113.791C160.236 116.345 164.037 114.842 166.449 112.652C169.753 109.733 170.907 105.194 171.58 100.976C172.284 95.9503 172.382 90.8589 171.872 85.8103C170.337 67.4048 167.326 46.5472 153.161 33.2649C146.539 27.0616 137.71 23.0477 128.515 23.9819C120.124 24.8284 112.011 29.251 108.152 36.9722C107.216 38.8551 110.052 40.5191 111.002 38.6362L111.061 38.68Z" fill="url(#paint1_radial_6_42)"/>
<defs>
<linearGradient id="paint0_linear_6_42" x1="108.516" y1="122.212" x2="162.929" y2="197.812" gradientUnits="userSpaceOnUse">
<stop stop-color="#6C39FE"/>
<stop offset="1" stop-color="#4100FB"/>
</linearGradient>
<radialGradient id="paint1_radial_6_42" cx="0" cy="0" r="1" gradientUnits="userSpaceOnUse" gradientTransform="translate(273.325 59.5356) rotate(158.419) scale(232.867 116.712)">
<stop stop-color="#FF6363"/>
<stop offset="1" stop-color="#4100FB"/>
</radialGradient>
</defs>
</svg>
