<svg width="368" height="254" viewBox="0 0 368 254" fill="none" xmlns="http://www.w3.org/2000/svg">
<path d="M359.384 42.0876L367.556 27.9342L319.172 -0.000217438L311 14.1532L359.384 42.0876Z" fill="#4100FB"/>
<path d="M48.3852 50.0876L56.5566 35.9342L8.17283 7.9998L0.00135322 22.1532L48.3852 50.0876Z" fill="#FFD15C"/>
<path d="M346.839 121.091L335.283 109.535L295.778 149.04L307.334 160.596L346.839 121.091Z" fill="#FF6363"/>
<path d="M262.955 197.4C262.958 204.916 262.316 212.418 261.035 219.823C250.383 281.395 196.732 328.23 132.097 328.23C59.8396 328.23 1.23934 269.658 1.23934 197.4C1.21979 180.21 4.59119 163.185 11.1605 147.3C17.7298 131.415 27.3679 116.981 39.5231 104.826C51.6783 92.6712 66.1117 83.033 81.9969 76.4637C97.8821 69.8944 114.907 66.523 132.097 66.5426C188.669 66.5426 236.875 102.463 255.115 152.743C260.313 167.058 262.966 182.171 262.955 197.4Z" fill="#4100FB"/>
<path d="M109.321 68.5487V96.9488C109.322 97.8165 109.151 98.6758 108.819 99.4776C108.488 100.279 108.001 101.008 107.388 101.621C106.774 102.235 106.046 102.722 105.244 103.053C104.442 103.385 103.583 103.555 102.715 103.555H96.0293C94.2768 103.556 92.5966 104.253 91.358 105.493C90.1193 106.733 89.4235 108.414 89.4235 110.166V122.88C89.4235 124.632 88.7276 126.313 87.4887 127.551C86.2499 128.79 84.5697 129.486 82.8178 129.486H82.7264C81.8579 129.484 80.9976 129.653 80.1945 129.983C79.3915 130.314 78.6615 130.8 78.0463 131.413C77.4312 132.026 76.9429 132.754 76.6096 133.556C76.2762 134.358 76.1042 135.218 76.1035 136.086C76.1035 137.838 75.4075 139.518 74.1687 140.757C72.9299 141.996 71.2497 142.692 69.4977 142.692H66.7491C64.9977 142.69 63.3183 141.994 62.0798 140.755C60.8413 139.517 60.1449 137.838 60.1434 136.086V129.509C60.1434 127.757 59.4474 126.077 58.2086 124.838C56.9698 123.599 55.2896 122.903 53.5377 122.903H48.5091C46.7571 122.903 45.0769 122.207 43.8381 120.968C42.5993 119.73 41.9033 118.049 41.9033 116.298V102.635C60.5223 84.8723 83.9784 73.013 109.321 68.5487Z" fill="#070717"/>
<path d="M262.954 197.4C262.958 204.916 262.315 212.418 261.034 219.823C260.846 219.823 260.663 219.823 260.463 219.823H240.2C238.613 219.822 237.091 219.19 235.969 218.067C234.847 216.944 234.217 215.422 234.217 213.835V195.406C234.217 193.818 233.586 192.294 232.463 191.171C231.34 190.048 229.817 189.417 228.228 189.417H220.057C218.47 189.417 216.948 188.787 215.826 187.665C214.704 186.543 214.074 185.021 214.074 183.434V176.451C214.076 175.665 213.923 174.885 213.624 174.157C213.325 173.429 212.885 172.768 212.33 172.21C211.775 171.652 211.115 171.209 210.389 170.906C209.663 170.604 208.884 170.447 208.097 170.446C207.309 170.446 206.53 170.292 205.802 169.991C205.074 169.69 204.413 169.248 203.857 168.692C203.3 168.135 202.858 167.474 202.557 166.746C202.256 166.019 202.102 165.239 202.103 164.451V151.96C202.102 151.063 202.302 150.177 202.69 149.369C203.077 148.56 203.642 147.848 204.341 147.287C205.041 146.726 205.858 146.329 206.731 146.126C207.605 145.923 208.513 145.919 209.388 146.114L233.737 151.52C234.056 151.594 234.381 151.64 234.708 151.657L255.137 152.766C260.325 167.074 262.97 182.18 262.954 197.4Z" fill="#070717"/>
<path d="M99.5277 167.88L108.431 163.84C109.084 163.544 109.789 163.379 110.506 163.355C111.223 163.331 111.937 163.449 112.609 163.702C113.28 163.954 113.895 164.337 114.419 164.827C114.942 165.318 115.364 165.907 115.659 166.56L118.516 172.88C118.812 173.534 119.233 174.123 119.757 174.613C120.28 175.104 120.895 175.486 121.567 175.739C122.238 175.992 122.953 176.109 123.67 176.086C124.387 176.062 125.092 175.897 125.745 175.6L150.385 164.412C151.038 164.115 151.743 163.95 152.46 163.926C153.177 163.903 153.892 164.02 154.563 164.273C155.235 164.526 155.85 164.908 156.373 165.399C156.896 165.889 157.318 166.478 157.614 167.132L170.385 195.258C170.983 196.576 172.081 197.604 173.436 198.114C174.792 198.624 176.294 198.575 177.614 197.978C178.932 197.38 180.434 197.33 181.79 197.839C183.145 198.348 184.243 199.374 184.842 200.692L186.768 204.938C187.065 205.591 187.23 206.296 187.253 207.013C187.277 207.73 187.159 208.444 186.907 209.116C186.654 209.787 186.272 210.402 185.781 210.926C185.291 211.449 184.702 211.871 184.048 212.166L136.191 233.881C134.873 234.478 133.372 234.528 132.017 234.019C130.663 233.51 129.566 232.484 128.968 231.166L128.454 230.023C127.855 228.709 126.76 227.685 125.409 227.176C124.057 226.667 122.559 226.715 121.242 227.309L111.459 231.749C110.141 232.347 108.639 232.397 107.283 231.888C105.928 231.379 104.83 230.353 104.231 229.035L86.8648 190.749L77.5047 170.109C76.9071 168.791 76.8574 167.29 77.3664 165.935C77.8754 164.581 78.9015 163.484 80.219 162.886L84.5048 160.943C85.183 160.635 85.9172 160.469 86.662 160.456C87.4067 160.442 88.1464 160.581 88.8354 160.865C89.5244 161.148 90.1481 161.569 90.6681 162.102C91.1881 162.636 91.5934 163.27 91.8591 163.966L92.2019 164.863C92.4692 165.554 92.8743 166.184 93.3926 166.714C93.9109 167.244 94.5316 167.662 95.217 167.945C95.9023 168.227 96.6379 168.367 97.3789 168.356C98.12 168.345 98.8511 168.183 99.5277 167.88Z" fill="#070717"/>
<path d="M125.377 99.4628C123.565 97.8056 119.091 91.4913 114.308 84.4741C110.138 78.3423 108.491 70.839 109.711 63.5244C110.931 56.2098 114.923 49.6467 120.857 45.1997C129.269 38.8932 139.292 35.0937 149.771 34.2396C171.857 32.4396 211.149 33.6682 246.989 57.2797C288.36 84.5656 311.383 131.109 314.138 170.32C314.747 178.885 312.165 187.373 306.89 194.149C301.615 200.924 294.019 205.508 285.566 207.018L284.955 207.126C278.208 208.349 271.252 207.597 264.923 204.961C258.593 202.326 253.16 197.918 249.275 192.269C237.989 175.817 223.44 154.594 223.44 154.594L231.6 121.154L240.395 123.943C229.017 110.949 194.011 74.7998 158.074 69.7483C157.555 69.7015 157.034 69.8045 156.572 70.0451C156.111 70.2857 155.728 70.6539 155.469 71.1058C155.21 71.5577 155.086 72.0744 155.113 72.5945C155.139 73.1146 155.314 73.6162 155.617 74.0398L169.091 92.6456L125.377 99.4628Z" fill="url(#paint0_linear_1705_23826)"/>
<path d="M239.524 79.577C239.524 79.9427 239.524 80.3084 239.495 80.6684C239.261 85.4735 237.478 90.0737 234.413 93.7815C231.347 97.4894 227.165 100.106 222.49 101.24C220.772 101.654 219.011 101.863 217.244 101.863C216.289 101.862 215.335 101.802 214.387 101.686C210.137 101.136 206.135 99.3732 202.862 96.6078C199.588 93.8424 197.182 90.1918 195.93 86.0934C194.678 81.995 194.635 77.6227 195.804 73.5002C196.974 69.3777 199.308 65.6798 202.525 62.8497C205.743 60.0196 209.709 58.1771 213.947 57.5432C218.185 56.9092 222.516 57.5105 226.421 59.2752C230.326 61.0398 233.639 63.8929 235.964 67.4926C238.289 71.0923 239.527 75.286 239.53 79.5713L239.524 79.577Z" fill="#FF6363"/>
<path d="M125.384 99.4628L162.418 83.4113L169.087 92.6227V109.851L141.658 115.646C139.705 116.058 137.672 115.827 135.861 114.987C134.05 114.148 132.56 112.745 131.612 110.989L125.384 99.4628Z" fill="#FF6363"/>
<path d="M142.315 114.732C142.315 112.772 140.728 111.183 138.769 111.183C136.811 111.183 135.224 112.772 135.224 114.732V131.069C135.224 133.029 136.811 134.617 138.769 134.617C140.728 134.617 142.315 133.029 142.315 131.069V114.732Z" fill="#FF6363"/>
<path d="M151.195 113.525C151.195 111.566 149.608 109.977 147.649 109.977C145.691 109.977 144.104 111.566 144.104 113.525V129.863C144.104 131.822 145.691 133.411 147.649 133.411C149.608 133.411 151.195 131.822 151.195 129.863V113.525Z" fill="#FF6363"/>
<path d="M160.077 112.32C160.077 110.36 158.489 108.772 156.531 108.772C154.573 108.772 152.985 110.36 152.985 112.32V128.657C152.985 130.617 154.573 132.206 156.531 132.206C158.489 132.206 160.077 130.617 160.077 128.657V112.32Z" fill="#FF6363"/>
<path d="M169.085 109.588C169.085 107.628 167.497 106.04 165.539 106.04C163.581 106.04 161.993 107.628 161.993 109.588V125.925C161.993 127.885 163.581 129.474 165.539 129.474C167.497 129.474 169.085 127.885 169.085 125.925V109.588Z" fill="#FF6363"/>
<path d="M167.754 91.1114C166.02 89.4773 163.289 89.5583 161.655 91.2924C160.021 93.0265 160.102 95.757 161.836 97.3911L172.611 107.545C174.345 109.179 177.076 109.098 178.71 107.364C180.344 105.63 180.263 102.9 178.529 101.265L167.754 91.1114Z" fill="#FF6363"/>
<path d="M178.302 101.706C177.206 100.674 175.481 100.725 174.448 101.82C173.416 102.916 173.467 104.641 174.563 105.673L177.395 108.342C178.49 109.375 180.216 109.323 181.248 108.228C182.28 107.132 182.229 105.407 181.134 104.375L178.302 101.706Z" fill="#070717"/>
<path d="M168.16 125.788C168.16 124.337 166.984 123.16 165.532 123.16C164.08 123.16 162.903 124.337 162.903 125.788V129.063C162.903 130.514 164.08 131.691 165.532 131.691C166.984 131.691 168.16 130.514 168.16 129.063V125.788Z" fill="#070717"/>
<path d="M159.164 127.514C159.164 126.063 157.988 124.886 156.536 124.886C155.084 124.886 153.907 126.063 153.907 127.514V130.789C153.907 132.24 155.084 133.417 156.536 133.417C157.988 133.417 159.164 132.24 159.164 130.789V127.514Z" fill="#070717"/>
<path d="M150.164 129.24C150.164 127.788 148.988 126.611 147.536 126.611C146.084 126.611 144.907 127.788 144.907 129.24V132.514C144.907 133.966 146.084 135.143 147.536 135.143C148.988 135.143 150.164 133.966 150.164 132.514V129.24Z" fill="#070717"/>
<path d="M141.153 130.966C141.153 129.514 139.976 128.337 138.524 128.337C137.072 128.337 135.896 129.514 135.896 130.966V134.24C135.896 135.692 137.072 136.869 138.524 136.869C139.976 136.869 141.153 135.692 141.153 134.24V130.966Z" fill="#070717"/>
<path d="M224.525 155.526L231.587 121.132L217.473 115.783L200.61 119.309L200.524 148.903C200.525 149.571 200.668 150.23 200.942 150.839C201.216 151.448 201.616 151.991 202.115 152.434C202.614 152.877 203.202 153.21 203.838 153.41C204.475 153.61 205.147 153.673 205.81 153.595L224.525 155.526Z" fill="#FF6363"/>
<path d="M185.319 149.848C183.4 150.247 182.168 152.125 182.567 154.042C182.966 155.959 184.845 157.19 186.764 156.79L202.758 153.461C204.677 153.061 205.909 151.183 205.51 149.266C205.111 147.349 203.232 146.119 201.313 146.518L185.319 149.848Z" fill="#FF6363"/>
<path d="M184.686 140.907C182.767 141.306 181.535 143.184 181.935 145.101C182.334 147.018 184.213 148.249 186.131 147.849L202.126 144.52C204.044 144.12 205.276 142.242 204.877 140.325C204.478 138.408 202.599 137.178 200.68 137.577L184.686 140.907Z" fill="#FF6363"/>
<path d="M184.065 131.967C182.146 132.366 180.914 134.244 181.313 136.161C181.713 138.079 183.592 139.309 185.51 138.909L201.505 135.58C203.423 135.18 204.655 133.302 204.256 131.385C203.857 129.468 201.978 128.238 200.059 128.637L184.065 131.967Z" fill="#FF6363"/>
<path d="M184.902 122.597C182.983 122.996 181.751 124.874 182.15 126.792C182.549 128.709 184.428 129.939 186.347 129.54L202.341 126.21C204.26 125.811 205.492 123.933 205.093 122.015C204.694 120.098 202.815 118.868 200.896 119.267L184.902 122.597Z" fill="#FF6363"/>
<path d="M207.025 108.273C205.071 106.908 202.381 107.386 201.017 109.34C199.653 111.293 200.131 113.983 202.084 115.347L214.223 123.824C216.176 125.189 218.866 124.711 220.23 122.758C221.594 120.804 221.117 118.114 219.163 116.75L207.025 108.273Z" fill="#FF6363"/>
<path d="M203.462 106.358C202.228 105.496 200.529 105.798 199.667 107.032C198.805 108.266 199.107 109.965 200.341 110.827L203.532 113.055C204.766 113.917 206.465 113.615 207.327 112.381C208.189 111.147 207.887 109.448 206.653 108.586L203.462 106.358Z" fill="#070717"/>
<path d="M182.018 124.132C180.596 124.428 179.684 125.82 179.98 127.241C180.276 128.662 181.668 129.575 183.089 129.279L186.295 128.611C187.716 128.316 188.628 126.924 188.332 125.502C188.036 124.081 186.644 123.169 185.223 123.465L182.018 124.132Z" fill="#070717"/>
<path d="M182.159 133.301C180.738 133.597 179.826 134.989 180.121 136.41C180.417 137.831 181.809 138.743 183.231 138.448L186.436 137.78C187.857 137.484 188.77 136.092 188.474 134.671C188.178 133.25 186.786 132.338 185.365 132.633L182.159 133.301Z" fill="#070717"/>
<path d="M182.308 142.464C180.886 142.76 179.974 144.152 180.27 145.573C180.566 146.995 181.958 147.907 183.379 147.611L186.585 146.944C188.006 146.648 188.918 145.256 188.622 143.835C188.326 142.413 186.934 141.501 185.513 141.797L182.308 142.464Z" fill="#070717"/>
<path d="M182.457 151.628C181.036 151.924 180.123 153.316 180.419 154.737C180.715 156.158 182.107 157.071 183.529 156.775L186.734 156.107C188.155 155.811 189.068 154.419 188.772 152.998C188.476 151.577 187.084 150.665 185.663 150.961L182.457 151.628Z" fill="#070717"/>
<path d="M243.044 69.4859L250.581 76.0916C250.581 76.0916 255.81 61.463 236.673 49.8686C230.394 44.5413 222.3 41.8457 214.082 42.3448C205.863 42.8438 198.155 46.4989 192.567 52.5468C186.98 58.5946 183.945 66.5674 184.096 74.7999C184.248 83.0325 187.574 90.8881 193.381 96.726C193.381 96.726 204.044 109.983 222.478 111.189C222.478 111.189 228.581 114 238.65 106.126C237.958 106.583 233.695 108.732 222.478 101.252C220.76 101.666 219 101.875 217.233 101.875C213.145 102.103 209.113 100.846 205.878 98.3374L200.095 93.846C200.095 93.846 202.844 90.886 204.987 88.526L198.307 80.6974L206.758 86.5603C212.387 80.2745 220.633 70.6116 222.107 66.5602C226.311 69.1425 230.294 72.0687 234.015 75.3088C235.944 76.9798 237.771 78.7659 239.484 80.6574C243.655 85.2802 246.976 90.6231 247.181 96.0346C247.181 96.0346 252.501 85.5203 249.838 79.5659C248.132 75.8614 245.838 72.4574 243.044 69.4859Z" fill="#070717"/>
<path d="M169.891 147.617C168.177 142.526 161.616 147.046 161.616 147.046C161.616 147.046 161.616 139.046 156.474 140.543C150.074 142.371 157.582 154.692 157.582 154.692C157.582 154.692 171.988 153.932 169.891 147.617Z" fill="#FF6363"/>
<path d="M255.919 147.629C257.839 136.686 259.827 125.372 265.879 115.834C268.513 111.68 271.936 107.834 276.165 105.212C277.259 104.467 278.511 103.986 279.822 103.806C281.031 103.714 282.243 103.943 283.336 104.469C285.603 105.62 287.532 107.338 288.936 109.457C291.759 113.474 293.071 118.361 292.639 123.252C292.451 125.309 291.822 127.857 289.868 128.966C287.536 130.292 286.633 126.88 286.29 125.274C285.154 119.974 285.965 114.442 288.576 109.692C290.862 105.583 294.862 102.154 299.833 102.429C300.998 102.487 302.139 102.787 303.182 103.309C304.166 103.89 305.07 104.599 305.868 105.417C306.69 106.262 307.761 106.821 308.925 107.012C310.291 107.154 311.565 106.566 312.776 106.006C315.108 104.926 317.388 103.72 319.788 102.772C322.074 101.874 324.536 101.132 327.016 101.389C328.169 101.517 329.28 101.894 330.274 102.492C330.47 102.607 330.704 102.639 330.924 102.582C331.144 102.525 331.333 102.382 331.448 102.186C331.563 101.99 331.596 101.756 331.538 101.535C331.481 101.315 331.338 101.127 331.142 101.011C326.154 98.0801 320.434 100.44 315.713 102.726C314.451 103.297 313.199 103.943 311.931 104.532C310.662 105.12 309.268 105.72 307.931 104.857C306.851 104.166 306.045 103.114 304.988 102.377C303.929 101.654 302.733 101.158 301.473 100.92C296.13 99.8687 291.262 102.817 288.239 107.057C284.975 111.811 283.554 117.589 284.239 123.314C284.513 125.657 284.902 129.08 287.096 130.452C289.29 131.823 291.479 130.275 292.708 128.463C294.176 126.309 294.422 123.554 294.422 121.034C294.32 115.666 292.292 110.513 288.708 106.514C286.896 104.52 284.525 102.714 281.816 102.229C278.959 101.72 276.382 102.914 274.085 104.514C271.89 106.079 269.887 107.897 268.119 109.932C260.216 119.017 257.199 130.943 255.079 142.503C254.793 144.052 254.507 145.606 254.25 147.155C254.062 148.235 255.713 148.697 255.902 147.612L255.919 147.629Z" fill="url(#paint1_radial_1705_23826)"/>
<defs>
<linearGradient id="paint0_linear_1705_23826" x1="140.974" y1="129.404" x2="213.873" y2="205.689" gradientUnits="userSpaceOnUse">
<stop stop-color="#FFD15C"/>
<stop offset="1" stop-color="#FFBF1B"/>
</linearGradient>
<radialGradient id="paint1_radial_1705_23826" cx="0" cy="0" r="1" gradientUnits="userSpaceOnUse" gradientTransform="translate(331.717 115.069) rotate(159.956) scale(108.006 50.9582)">
<stop stop-color="#FF6363"/>
<stop offset="1" stop-color="#4100FB"/>
</radialGradient>
</defs>
</svg>
