<svg width="240" height="240" viewBox="0 0 264 264" fill="none" xmlns="http://www.w3.org/2000/svg">
<path d="M133.011 260C204.808 260 263.011 201.797 263.011 130C263.011 58.203 204.808 0 133.011 0C61.2142 0 3.01123 58.203 3.01123 130C3.01123 201.797 61.2142 260 133.011 260Z" fill="url(#paint0_linear_1711_12792)"/>
<path d="M139.692 80.9309L185.861 40.3837L181.291 99.9755L243.42 108.993L191.556 142.754L222.891 194.551L162.777 177.059L139.692 232.625L116.608 177.059L56.5101 194.551L87.8283 142.754L35.9644 108.993L98.0933 99.9755L93.524 40.3837L139.692 80.9309Z" fill="#FF6363"/>
<path d="M1.72485 62.7911C34.0662 70.7524 65.092 82.9311 93.9187 98.9805C120.733 114.042 144.397 133.671 163.726 156.884C166.907 160.411 169.604 164.307 171.754 168.479C172.632 170.911 172.981 173.487 172.779 176.05C172.577 178.614 171.829 181.112 170.58 183.392C166.963 189.921 158.412 192.59 151.462 194.671C143.206 197.206 134.621 198.647 125.951 198.954C117.811 199.346 109.712 197.632 102.518 193.993C101.167 193.412 99.9246 192.628 98.837 191.671C97.7898 190.449 98.837 189.74 99.8206 188.851C102.446 186.53 105.561 184.767 108.959 183.679C123.793 178.823 140.23 184.131 153.303 191.052C168.565 199.135 181.861 210.474 194.394 221.859C207.705 233.922 220.223 246.724 232.582 259.661L241.753 269.312C243.815 271.483 247.178 268.271 245.132 266.115C231.9 252.182 218.684 238.234 204.643 225.025C191.364 212.51 177.387 200.039 161.553 190.464C147.544 181.99 130.711 175.385 113.83 177.904C110.032 178.438 106.353 179.569 102.946 181.251C99.9158 182.759 95.7908 185.202 94.1725 188.187C90.3331 195.32 103.406 199.783 108.324 201.276C116.631 203.552 125.361 204.067 133.9 202.784C143.041 201.769 151.994 199.567 160.506 196.239C164.465 194.863 168.111 192.78 171.247 190.102C173.715 187.673 175.509 184.699 176.466 181.447C178.192 176.185 177.854 170.507 175.514 165.463C172.754 160.605 169.433 156.054 165.614 151.892C160.728 146.147 155.508 140.674 150.114 135.306C138.526 123.886 125.771 113.592 112.037 104.575C82.7336 85.3643 49.5432 71.4012 15.5119 61.6904C11.3446 60.4941 7.1561 59.3632 2.94648 58.2976C2.34532 58.1575 1.7104 58.2455 1.17641 58.543C0.642422 58.8405 0.251386 59.324 0.0862583 59.891C-0.0788691 60.4579 -0.00509475 61.0637 0.291935 61.5798C0.588965 62.0959 1.08587 62.4817 1.67724 62.6554L1.72485 62.7911Z" fill="url(#paint1_radial_1711_12792)"/>
<path d="M170.721 98.6788C170.16 100.281 169.694 101.912 169.325 103.564L156.236 99.3724C156.996 97.8417 157.663 96.2709 158.235 94.6678L72.2284 67.0583C68.8553 76.5439 69.0588 86.8492 72.804 96.2077C76.5492 105.566 83.6028 113.395 92.7557 118.353C101.909 123.31 112.591 125.087 122.971 123.38C133.352 121.672 142.784 116.586 149.652 108.993L168.404 115.024C169.021 125.02 173.277 134.501 180.443 141.842C187.609 149.182 197.239 153.924 207.681 155.256C218.123 156.588 228.727 154.426 237.676 149.141C246.624 143.855 253.359 135.776 256.727 126.288L170.721 98.6788Z" fill="#070717"/>
<defs>
<linearGradient id="paint0_linear_1711_12792" x1="5.47961" y1="18.7932" x2="145.409" y2="212.916" gradientUnits="userSpaceOnUse">
<stop stop-color="#6C39FE"/>
<stop offset="1" stop-color="#4100FB"/>
</linearGradient>
<radialGradient id="paint1_radial_1711_12792" cx="0" cy="0" r="1" gradientUnits="userSpaceOnUse" gradientTransform="translate(246.249 125.471) rotate(153.415) scale(360.593 211.466)">
<stop stop-color="#4100FB"/>
<stop offset="0.682292" stop-color="#FF6363"/>
</radialGradient>
</defs>
</svg>
