<svg width="240" height="240" viewBox="0 0 264 264" fill="none" xmlns="http://www.w3.org/2000/svg">
<g clip-path="url(#clip0_1711_12793)">
<path d="M130 260C201.797 260 260 201.797 260 130C260 58.203 201.797 0 130 0C58.203 0 0 58.203 0 130C0 201.797 58.203 260 130 260Z" fill="url(#paint0_linear_1711_12793)"/>
<path d="M143.186 239.261L167.453 206.732L53.9806 125.434L29.7134 157.963L143.186 239.261Z" fill="white"/>
<path d="M111.348 31.2598C100.036 31.2598 88.9778 34.5472 79.5724 40.7064C70.167 46.8656 62.8366 55.6197 58.5083 65.8618C54.1801 76.1039 53.0483 87.3739 55.2562 98.2463C57.4642 109.119 62.9125 119.105 70.9124 126.943C78.9122 134.781 89.1041 140.118 100.199 142.279C111.294 144.44 122.794 143.328 133.244 139.084C143.694 134.839 152.625 127.654 158.908 118.435C165.19 109.216 168.542 98.3785 168.539 87.2928C168.539 79.9333 167.06 72.6458 164.186 65.8466C161.311 59.0474 157.098 52.8698 151.787 47.6665C146.476 42.4632 140.172 38.336 133.233 35.5209C126.294 32.7059 118.858 31.2579 111.348 31.2598ZM111.348 122.136C104.315 122.138 97.4397 120.097 91.591 116.27C85.7423 112.443 81.1829 107.003 78.4897 100.636C75.7965 94.2699 75.0904 87.2637 76.4606 80.504C77.8308 73.7442 81.2159 67.5345 86.1877 62.6603C91.1595 57.786 97.4946 54.4661 104.392 53.1206C111.289 51.775 118.439 52.4642 124.936 55.101C131.434 57.7377 136.987 62.2036 140.895 67.9338C144.802 73.6639 146.888 80.401 146.888 87.2928C146.888 96.5313 143.144 105.392 136.479 111.925C129.814 118.459 120.775 122.132 111.348 122.136Z" fill="#FFD15C"/>
<path d="M173.421 65.9157L51.666 114.39L88.3653 202.917L210.121 154.442L173.421 65.9157Z" fill="#FF6363"/>
<path d="M130.956 164.805L152.414 156.261L130.785 104.088L109.327 112.631L130.956 164.805Z" fill="#070717"/>
<path d="M104.392 22.7805C106.019 20.0127 108.273 17.6493 110.98 15.8709C113.688 14.0924 116.777 12.9462 120.011 12.5197C126.935 11.5189 133.993 13.245 139.646 17.3213C153.326 26.7318 157.664 43.5433 159.442 58.884C160.431 67.5342 161.521 76.6619 159.86 85.2594C159.17 88.8382 158.146 92.7639 155.255 95.1432C154.276 95.9406 152.599 97.0286 151.273 96.3633C149.573 95.4978 149.755 92.6759 149.733 91.1245C149.446 76.7567 157.925 59.1163 173.588 55.9926C181.935 54.3274 188.967 59.2047 192.285 66.5321C196.382 75.5388 194.095 85.7935 192.077 94.9812C191.989 95.3771 192.055 95.7917 192.263 96.1432C192.472 96.4948 192.806 96.7577 193.201 96.8801C193.596 97.0026 194.023 96.9757 194.398 96.8046C194.772 96.6336 195.067 96.331 195.224 95.9564C199.113 86.8938 211.127 84.6576 219.852 87.5143C231.345 91.3038 239.101 101.319 246.576 110.103C250.786 115.345 255.616 120.079 260.965 124.205C262.667 125.458 264.413 122.722 262.711 121.483C251.996 113.673 245.293 101.93 235.413 93.2168C226.871 85.7293 215.512 80.5376 204.117 84.4186C201.45 85.2355 198.994 86.6015 196.913 88.4252C194.831 90.2489 193.173 92.4885 192.047 94.9945L195.194 95.9697C197.28 86.5117 199.478 76.2825 195.907 66.8641C193.105 59.4405 186.996 53.2469 178.655 52.5003C170.314 51.7537 162.413 56.3066 157.109 62.1019C151.093 68.8475 147.41 77.2906 146.583 86.2296C146.214 89.8774 145.531 95.4522 148.469 98.3294C151.123 100.924 154.976 99.584 157.462 97.5202C160.849 94.7712 162.167 90.3537 162.963 86.2331C163.835 81.3221 164.104 76.3236 163.762 71.3446C162.808 53.2196 160.472 32.604 146.724 19.0417C140.311 12.7079 131.603 8.44477 122.368 9.02983C113.941 9.55793 105.676 13.6095 101.563 21.0416C100.565 22.8719 103.35 24.6093 104.348 22.779L104.392 22.7805Z" fill="url(#paint1_radial_1711_12793)"/>
</g>
<defs>
<linearGradient id="paint0_linear_1711_12793" x1="2.46838" y1="18.7932" x2="142.398" y2="212.916" gradientUnits="userSpaceOnUse">
<stop stop-color="#6C39FE"/>
<stop offset="1" stop-color="#4100FB"/>
</linearGradient>
<radialGradient id="paint1_radial_1711_12793" cx="0" cy="0" r="1" gradientUnits="userSpaceOnUse" gradientTransform="translate(266.164 49.2024) rotate(160.83) scale(232.423 115.141)">
<stop stop-color="#4100FB"/>
<stop offset="0.682292" stop-color="#FF6363"/>
</radialGradient>
<clipPath id="clip0_1711_12793">
<rect width="264" height="270" fill="white"/>
</clipPath>
</defs>
</svg>
