<svg width="197" height="58" viewBox="0 0 197 58" fill="none" xmlns="http://www.w3.org/2000/svg">
<path d="M29.5072 58C45.7907 58 58.991 45.0163 58.991 29C58.991 12.9837 45.7907 0 29.5072 0C13.2238 0 0.0234375 12.9837 0.0234375 29C0.0234375 45.0163 13.2238 58 29.5072 58Z" fill="url(#paint0_radial_1860_805)"/>
<path d="M14.9836 44.1466H42.8358C43.5557 44.1466 43.9157 44.1466 44.1264 44.0654C44.8035 43.8045 45.0908 42.9684 44.7137 42.357C44.5963 42.1666 44.3185 41.958 43.7629 41.5408C38.4543 37.5543 28.022 30.3983 21.5392 30.3983C15.7118 30.3983 13.686 38.0968 13.0353 41.9721C12.9738 42.3388 12.943 42.5222 12.9632 42.7268C13.0238 43.3431 13.5339 43.9345 14.1422 44.0937C14.3442 44.1466 14.5573 44.1466 14.9836 44.1466Z" fill="white"/>
<path d="M44.069 13.9004H16.2167C15.4968 13.9004 15.1368 13.9004 14.9261 13.9816C14.249 14.2425 13.9617 15.0785 14.3388 15.69C14.4562 15.8804 14.734 16.089 15.2896 16.5061C20.5983 20.4927 31.0306 27.6487 37.5133 27.6487C43.3407 27.6487 45.3665 19.9502 46.0172 16.0748C46.0787 15.7082 46.1095 15.5248 46.0893 15.3202C46.0287 14.7039 45.5186 14.1125 44.9103 13.9532C44.7083 13.9004 44.4952 13.9004 44.069 13.9004Z" fill="white"/>
<path d="M74.7764 40.4778H79.3717V28.2502C79.3717 23.1594 82.2256 20.5426 86.5791 20.5426C90.9326 20.5426 93.7865 23.1594 93.7865 28.2502V40.4778H98.3818V28.2502C98.3818 20.3523 93.6414 16.3557 86.5791 16.3557C79.5168 16.3557 74.7764 20.3999 74.7764 28.2502V40.4778Z" fill="white"/>
<path d="M104.236 13.2634C106.074 13.2634 107.428 11.8837 107.428 10.0757C107.428 8.26773 106.074 6.93555 104.236 6.93555C102.397 6.93555 101.043 8.26773 101.043 10.0757C101.043 11.8837 102.397 13.2634 104.236 13.2634ZM101.962 40.4781H106.557V16.9745H101.962V40.4781Z" fill="white"/>
<path d="M110.07 40.4778H114.666V28.2502C114.666 23.1594 117.52 20.5426 121.873 20.5426C126.226 20.5426 129.08 23.1594 129.08 28.2502V40.4778H133.676V28.2502C133.676 20.3523 128.935 16.3557 121.873 16.3557C114.811 16.3557 110.07 20.3999 110.07 28.2502V40.4778Z" fill="white"/>
<path d="M148.656 41.0963C154.219 41.0963 158.572 38.2892 160.41 33.912H155.331C153.928 35.9579 151.752 36.9095 148.656 36.9095C144.496 36.9095 141.303 34.5781 140.626 30.3913H161.426V28.726C161.426 21.5893 156.202 16.3557 148.656 16.3557C141.11 16.3557 135.789 21.5893 135.789 28.726C135.789 35.8627 141.11 41.0963 148.656 41.0963ZM140.771 26.3471C141.69 22.636 144.689 20.5426 148.656 20.5426C152.526 20.5426 155.67 22.5884 156.589 26.3471H140.771Z" fill="white"/>
<path d="M162.914 40.4778H178.319V36.4631L169.17 36.5084L174.542 31.3791C177.011 29.0591 178.522 26.8659 178.522 23.83C178.522 19.0994 175.399 16.2991 170.69 16.2991C165.899 16.2991 162.951 19.3169 162.951 24.2741V24.6003H167.346V24.0928C167.346 21.8453 168.525 20.2775 170.7 20.2775C172.911 20.2775 173.97 21.8816 173.97 24.0203C173.97 25.715 172.819 27.2828 171.16 28.8416L162.914 36.5991V40.4778Z" fill="white"/>
<path d="M188.151 41.0849C193.2 41.0849 196.969 37.5777 196.969 32.394C196.969 27.5727 193.412 24.4915 189.109 24.4915C187.23 24.4915 185.703 24.9939 184.724 26.3674L185.488 20.6037H195.605V16.589H182.006L180.347 29.4124L184.346 30.4365C185.009 29.0952 186.345 28.189 188.151 28.189C190.731 28.189 192.546 29.8927 192.546 32.394C192.546 35.2577 190.731 37.0159 188.151 37.0159C185.977 37.0159 184.42 35.584 184.051 33.6627H179.555C179.769 38.0165 183.378 41.0849 188.151 41.0849Z" fill="white"/>
<defs>
<radialGradient id="paint0_radial_1860_805" cx="0" cy="0" r="1" gradientUnits="userSpaceOnUse" gradientTransform="translate(59.1062 18.4127) rotate(150.267) scale(89.1008 56.2291)">
<stop stop-color="#FF6363"/>
<stop offset="1" stop-color="#4100FB"/>
</radialGradient>
</defs>
</svg>
