<svg width="197" height="59" viewBox="0 0 197 59" fill="none" xmlns="http://www.w3.org/2000/svg">
<g clip-path="url(#clip0_1804_836)">
<path d="M29.5116 59C45.7951 59 58.9954 45.7924 58.9954 29.5C58.9954 13.2076 45.7951 0 29.5116 0C13.2282 0 0.027832 13.2076 0.027832 29.5C0.027832 45.7924 13.2282 59 29.5116 59Z" fill="url(#paint0_radial_1804_836)"/>
<path d="M14.9875 44.908H42.8397C43.5596 44.908 43.9196 44.908 44.1303 44.8253C44.8074 44.5599 45.0947 43.7095 44.7176 43.0874C44.6002 42.8938 44.3224 42.6816 43.7668 42.2572C38.4582 38.202 28.0259 30.9226 21.5431 30.9226C15.7157 30.9226 13.6899 38.7538 13.0392 42.696C12.9777 43.069 12.9469 43.2555 12.9671 43.4636C13.0277 44.0906 13.5378 44.6921 14.1461 44.8542C14.3481 44.908 14.5612 44.908 14.9875 44.908Z" fill="white"/>
<path d="M44.069 14.1404H16.2167C15.4968 14.1404 15.1368 14.1404 14.9261 14.223C14.249 14.4884 13.9617 15.3388 14.3388 15.9609C14.4562 16.1545 14.734 16.3667 15.2896 16.7911C20.5983 20.8463 31.0306 28.1257 37.5133 28.1257C43.3407 28.1257 45.3665 20.2945 46.0172 16.3523C46.0787 15.9793 46.1095 15.7928 46.0893 15.5847C46.0287 14.9577 45.5186 14.3562 44.9103 14.1941C44.7083 14.1404 44.4952 14.1404 44.069 14.1404Z" fill="white"/>
<path d="M74.7734 41.1755H79.3688V28.7371C79.3688 23.5584 82.2227 20.8965 86.5762 20.8965C90.9296 20.8965 93.7836 23.5584 93.7836 28.7371V41.1755H98.3789V28.7371C98.3789 20.7029 93.6384 16.6375 86.5762 16.6375C79.5139 16.6375 74.7734 20.7513 74.7734 28.7371V41.1755Z" fill="#070717"/>
<path d="M104.236 13.4919C106.074 13.4919 107.428 12.0884 107.428 10.2492C107.428 8.41009 106.074 7.05493 104.236 7.05493C102.397 7.05493 101.043 8.41009 101.043 10.2492C101.043 12.0884 102.397 13.4919 104.236 13.4919ZM101.962 41.1758H106.557V17.267H101.962V41.1758Z" fill="#070717"/>
<path d="M110.071 41.1757H114.666V28.7373C114.666 23.5587 117.52 20.8968 121.874 20.8968C126.227 20.8968 129.081 23.5587 129.081 28.7373V41.1757H133.676V28.7373C133.676 20.7032 128.936 16.6377 121.874 16.6377C114.811 16.6377 110.071 20.7516 110.071 28.7373V41.1757Z" fill="#070717"/>
<path d="M148.652 41.8049C154.214 41.8049 158.568 38.9494 160.406 34.4967H155.327C153.924 36.5779 151.747 37.5458 148.652 37.5458C144.492 37.5458 141.299 35.1743 140.622 30.9152H161.422V29.2213C161.422 21.9615 156.198 16.6377 148.652 16.6377C141.106 16.6377 135.785 21.9615 135.785 29.2213C135.785 36.4811 141.106 41.8049 148.652 41.8049ZM140.767 26.8014C141.686 23.0263 144.685 20.8968 148.652 20.8968C152.521 20.8968 155.665 22.9779 156.585 26.8014H140.767Z" fill="#070717"/>
<path d="M162.914 41.1759H178.319V37.092L169.17 37.1381L174.542 31.9203C177.011 29.5603 178.522 27.3294 178.522 24.2411C178.522 19.4289 175.399 16.5803 170.69 16.5803C165.899 16.5803 162.951 19.6502 162.951 24.6928V25.0247H167.346V24.5084C167.346 22.2222 168.525 20.6274 170.7 20.6274C172.911 20.6274 173.97 22.2591 173.97 24.4347C173.97 26.1586 172.819 27.7534 171.16 29.3391L162.914 37.2303V41.1759Z" fill="#070717"/>
<path d="M188.151 41.7935C193.2 41.7935 196.969 38.2259 196.969 32.9527C196.969 28.0484 193.412 24.914 189.109 24.914C187.23 24.914 185.703 25.4251 184.724 26.8223L185.488 20.9592H195.605V16.8752H182.006L180.347 29.9198L184.346 30.9615C185.009 29.5971 186.345 28.6752 188.151 28.6752C190.731 28.6752 192.546 30.4084 192.546 32.9527C192.546 35.8659 190.731 37.6543 188.151 37.6543C185.977 37.6543 184.42 36.1977 184.051 34.2434H179.555C179.769 38.6722 183.378 41.7935 188.151 41.7935Z" fill="#070717"/>
</g>
<defs>
<radialGradient id="paint0_radial_1804_836" cx="0" cy="0" r="1" gradientUnits="userSpaceOnUse" gradientTransform="translate(59.1106 18.7302) rotate(149.843) scale(89.4811 56.9554)">
<stop stop-color="#FF6363"/>
<stop offset="1" stop-color="#4100FB"/>
</radialGradient>
<clipPath id="clip0_1804_836">
<rect width="197" height="59" fill="white"/>
</clipPath>
</defs>
</svg>
