<svg width="623" height="357" viewBox="0 0 623 357" fill="none" xmlns="http://www.w3.org/2000/svg">
<g clip-path="url(#clip0_2_13)">
<path d="M574 106C600.51 106 622 84.5097 622 58C622 31.4903 600.51 10 574 10C547.49 10 526 31.4903 526 58C526 84.5097 547.49 106 574 106Z" fill="#4100FB"/>
<path d="M4 32.0435L8.72374 78.2363L23.9291 34.9909L17.8493 80.9831L42.5 43.6323L26.0311 86.2897L58.4472 57.3787L32.7115 93.7943L70.684 75.2935L37.4352 102.985L78.3763 96.1556L39.8804 113.237L81 118.543L39.8804 123.85L78.3763 140.931L37.4352 134.101L70.684 161.793L32.7115 143.293L58.4472 179.708L26.0311 150.797L42.5 193.455L17.8493 156.104L23.9291 202.096L8.72374 158.851L4 205.043L-0.72374 158.851L-15.9291 202.096L-9.84931 156.104L-34.5 193.455L-18.0311 150.797L-50.4472 179.708L-24.7115 143.293L-62.684 161.793L-29.4352 134.101L-70.3763 140.931L-31.8804 123.85L-73 118.543L-31.8804 113.237L-70.3763 96.1556L-29.4352 102.985L-62.684 75.2935L-24.7115 93.7943L-50.4472 57.3787L-18.0311 86.2897L-34.5 43.6323L-9.84931 80.9831L-15.9291 34.9909L-0.72374 78.2363L4 32.0435Z" fill="#FFD15C"/>
<path d="M80 29C80 45.0163 67.0163 58 51 58C34.9837 58 22 45.0163 22 29C22 12.9837 34.9837 0 51 0C67.0163 0 80 12.9837 80 29ZM35.5058 29C35.5058 37.5572 42.4428 44.4942 51 44.4942C59.5572 44.4942 66.4942 37.5572 66.4942 29C66.4942 20.4428 59.5572 13.5058 51 13.5058C42.4428 13.5058 35.5058 20.4428 35.5058 29Z" fill="#4100FB"/>
<path d="M545.55 64.896C545.851 63.9783 547.149 63.9783 547.45 64.896L553.097 82.1076C553.316 82.7738 554.134 83.0141 554.678 82.5718L568.734 71.1455C569.484 70.5363 570.576 71.2382 570.333 72.1729L565.778 89.7053C565.602 90.3839 566.16 91.0285 566.857 90.9506L584.859 88.9374C585.819 88.83 586.358 90.0109 585.649 90.666L572.338 102.953C571.823 103.428 571.945 104.272 572.573 104.584L588.806 112.623C589.671 113.051 589.486 114.336 588.535 114.504L570.695 117.644C570.005 117.765 569.65 118.541 570.011 119.143L579.32 134.682C579.817 135.51 578.966 136.491 578.076 136.118L561.37 129.114C560.723 128.843 560.006 129.304 559.984 130.005L559.415 148.111C559.384 149.076 558.139 149.442 557.591 148.646L547.324 133.722C546.926 133.145 546.074 133.145 545.676 133.722L535.409 148.646C534.861 149.442 533.616 149.076 533.585 148.111L533.016 130.005C532.994 129.304 532.277 128.843 531.63 129.114L514.924 136.118C514.034 136.491 513.183 135.51 513.68 134.682L522.989 119.143C523.35 118.541 522.995 117.765 522.305 117.644L504.465 114.504C503.514 114.336 503.329 113.051 504.194 112.623L520.427 104.584C521.055 104.272 521.177 103.428 520.662 102.953L507.351 90.666C506.642 90.0109 507.181 88.83 508.141 88.9374L526.143 90.9506C526.84 91.0285 527.398 90.3839 527.222 89.7053L522.667 72.1729C522.424 71.2382 523.516 70.5363 524.266 71.1455L538.322 82.5718C538.866 83.0141 539.684 82.7738 539.903 82.1076L545.55 64.896Z" fill="#FF6363"/>
<path d="M511.11 356.97C511.081 342.185 516.926 327.993 527.361 317.517C537.795 307.042 551.963 301.14 566.749 301.111C581.534 301.081 595.726 306.927 606.201 317.361C616.677 327.795 622.579 341.963 622.608 356.749L592.167 356.809C592.153 350.097 589.474 343.666 584.719 338.929C579.963 334.192 573.521 331.539 566.809 331.552C560.097 331.565 553.665 334.244 548.929 339C544.192 343.755 541.538 350.198 541.552 356.91L511.11 356.97Z" fill="#FFD15C"/>
<path d="M66.0209 250.228L50.1387 257.433L77.8861 311.701L93.7683 304.496L66.0209 250.228Z" fill="#4100FB"/>
<path d="M619.499 8.40665L602.625 4L590 63.6284L606.874 68.0351L619.499 8.40665Z" fill="#FFD15C"/>
</g>
<defs>
<clipPath id="clip0_2_13">
<rect width="623" height="357" fill="white"/>
</clipPath>
</defs>
</svg>
