<svg width="59" height="59" viewBox="0 0 59 59" fill="none" xmlns="http://www.w3.org/2000/svg">
<path d="M29.5116 59C45.7951 59 58.9954 45.7924 58.9954 29.5C58.9954 13.2076 45.7951 0 29.5116 0C13.2282 0 0.027832 13.2076 0.027832 29.5C0.027832 45.7924 13.2282 59 29.5116 59Z" fill="url(#paint0_radial_1_2)"/>
<path d="M14.9875 44.908H42.8397C43.5596 44.908 43.9196 44.908 44.1303 44.8253C44.8074 44.5599 45.0947 43.7095 44.7176 43.0874C44.6002 42.8938 44.3224 42.6816 43.7668 42.2572C38.4582 38.202 28.0259 30.9226 21.5431 30.9226C15.7157 30.9226 13.6899 38.7538 13.0392 42.696C12.9777 43.069 12.9469 43.2555 12.9671 43.4636C13.0277 44.0906 13.5378 44.6921 14.1461 44.8542C14.3481 44.908 14.5612 44.908 14.9875 44.908Z" fill="white"/>
<path d="M44.069 14.1404H16.2167C15.4968 14.1404 15.1368 14.1404 14.9261 14.223C14.249 14.4884 13.9617 15.3388 14.3388 15.9609C14.4562 16.1545 14.734 16.3667 15.2896 16.7911C20.5983 20.8463 31.0306 28.1257 37.5133 28.1257C43.3407 28.1257 45.3665 20.2945 46.0172 16.3523C46.0787 15.9793 46.1095 15.7928 46.0893 15.5847C46.0287 14.9577 45.5186 14.3562 44.9103 14.1941C44.7083 14.1404 44.4952 14.1404 44.069 14.1404Z" fill="white"/>
<defs>
<radialGradient id="paint0_radial_1_2" cx="0" cy="0" r="1" gradientUnits="userSpaceOnUse" gradientTransform="translate(59.1106 18.7302) rotate(149.843) scale(89.4811 56.9554)">
<stop stop-color="#FF6363"/>
<stop offset="1" stop-color="#4100FB"/>
</radialGradient>
</defs>
</svg>
